<svg width="19" height="20" viewBox="0 0 19 20" fill="none" xmlns="http://www.w3.org/2000/svg">
<path d="M0.694733 0.313393C0.440869 0.617973 0.312489 1.00778 0.335681 1.40361V18.599C0.313802 18.9946 0.442027 19.3839 0.694733 19.6892L0.753487 19.7479L10.3826 10.1123V9.88377L0.753487 0.254639L0.694733 0.313393Z" fill="url(#paint0_linear_1168_839)"/>
<path d="M13.5947 13.3242L10.3828 10.1123V9.88383L13.5947 6.67847L13.6665 6.71764L17.4725 8.87848C18.5627 9.49213 18.5627 10.504 17.4725 11.1242L13.6665 13.285L13.5947 13.3242Z" fill="url(#paint1_linear_1168_839)"/>
<path d="M13.6659 13.2849L10.4018 10.0208L0.694336 19.6891C0.918093 19.873 1.19667 19.9773 1.48622 19.9856C1.77577 19.9939 2.05986 19.9056 2.29375 19.7348L13.6463 13.2849" fill="url(#paint2_linear_1168_839)"/>
<path d="M13.6659 6.7175L2.29375 0.261084C2.06237 0.0831907 1.7764 -0.00885362 1.48469 0.000671586C1.19298 0.0101968 0.913623 0.120701 0.694336 0.31331L10.3822 10.0012L13.6659 6.7175Z" fill="url(#paint3_linear_1168_839)"/>
<path opacity="0.1" d="M13.5942 13.2131L2.2938 19.6239C2.06839 19.7918 1.79479 19.8825 1.51368 19.8825C1.23257 19.8825 0.958971 19.7918 0.733559 19.6239L0.674805 19.6826L0.733559 19.7414C0.958971 19.9093 1.23257 20.0001 1.51368 20.0001C1.79479 20.0001 2.06839 19.9093 2.2938 19.7414L13.6464 13.2915L13.5942 13.2131Z" fill="black"/>
<path opacity="0.07" d="M0.694539 19.5845C0.44141 19.277 0.313237 18.8855 0.335486 18.4878V18.5988C0.313607 18.9944 0.441833 19.3838 0.694539 19.689L0.753293 19.6302L0.694539 19.5845Z" fill="black"/>
<path opacity="0.07" d="M17.4725 11.0066L13.5947 13.2131L13.6665 13.2849L17.4725 11.098C17.6957 10.9998 17.8889 10.8441 18.0323 10.6468C18.1757 10.4495 18.2641 10.2177 18.2885 9.9751C18.244 10.1994 18.1468 10.4099 18.0049 10.5892C17.863 10.7686 17.6805 10.9116 17.4725 11.0066Z" fill="black"/>
<path opacity="0.3" d="M2.29441 0.378481L17.4725 8.98921C17.6785 9.08183 17.8598 9.22172 18.0016 9.39754C18.1434 9.57336 18.2417 9.78014 18.2886 10.0011C18.2654 9.75803 18.1775 9.52563 18.034 9.32813C17.8905 9.13063 17.6966 8.97526 17.4725 8.87823L2.29441 0.260973C1.22378 -0.352681 0.335938 0.156521 0.335938 1.40341V1.51439C0.335938 0.274029 1.22378 -0.241701 2.29441 0.378481Z" fill="white"/>
<defs>
<linearGradient id="paint0_linear_1168_839" x1="9.53395" y1="1.22082" x2="-3.51597" y2="14.2707" gradientUnits="userSpaceOnUse">
<stop stop-color="#008EFF"/>
<stop offset="0.01" stop-color="#008FFF"/>
<stop offset="0.26" stop-color="#00ACFF"/>
<stop offset="0.51" stop-color="#00C0FF"/>
<stop offset="0.76" stop-color="#00CDFF"/>
<stop offset="1" stop-color="#00D1FF"/>
</linearGradient>
<linearGradient id="paint1_linear_1168_839" x1="17.603" y1="10.0013" x2="-1.21132" y2="10.0013" gradientUnits="userSpaceOnUse">
<stop stop-color="#FFD800"/>
<stop offset="1" stop-color="#FF8A00"/>
</linearGradient>
<linearGradient id="paint2_linear_1168_839" x1="11.8837" y1="11.7834" x2="-5.80778" y2="29.4749" gradientUnits="userSpaceOnUse">
<stop stop-color="#FF3A44"/>
<stop offset="1" stop-color="#B11162"/>
</linearGradient>
<linearGradient id="paint3_linear_1168_839" x1="-1.74722" y1="-5.41194" x2="6.15846" y2="2.48721" gradientUnits="userSpaceOnUse">
<stop stop-color="#328E71"/>
<stop offset="0.07" stop-color="#2D9571"/>
<stop offset="0.48" stop-color="#15BD74"/>
<stop offset="0.8" stop-color="#06D575"/>
<stop offset="1" stop-color="#00DE76"/>
</linearGradient>
</defs>
</svg>
