<svg width="32" height="32" viewBox="0 0 32 32" fill="none" xmlns="http://www.w3.org/2000/svg">
<path fill-rule="evenodd" clip-rule="evenodd" d="M3.5 16C3.5 9.09644 9.09644 3.5 16 3.5C22.9036 3.5 28.5 9.09644 28.5 16C28.5 22.9036 22.9036 28.5 16 28.5C9.09644 28.5 3.5 22.9036 3.5 16ZM26.5 16C26.5 10.201 21.799 5.5 16 5.5C10.201 5.5 5.5 10.201 5.5 16C5.5 21.799 10.201 26.5 16 26.5C21.799 26.5 26.5 21.799 26.5 16Z" fill="#1A1A1A"/>
<circle cx="16" cy="16" r="7.5" fill="#A5F20C"/>
<path d="M19.7934 15.1556L15.8494 19.1725L15.7629 19.251L15.6646 19.3209C15.611 19.3543 15.555 19.3822 15.4973 19.4045L15.3812 19.4414L15.2661 19.4634L15.1067 19.4714L15.0293 19.4662L14.9336 19.4513L14.8151 19.4192L14.7338 19.3878L14.6087 19.3219L14.5413 19.276L14.4656 19.214L12.4348 17.1674C12.046 16.7752 12.0487 16.142 12.441 15.7532C12.8332 15.3644 13.4664 15.3672 13.8552 15.7594L15.1319 17.0489L18.3663 13.7544C18.7532 13.3603 19.3864 13.3545 19.7805 13.7415C20.1745 14.1284 20.1803 14.7615 19.7934 15.1556Z" fill="#1A1A1A"/>
</svg>
