<svg width="24" height="24" viewBox="0 0 24 24" fill="none" xmlns="http://www.w3.org/2000/svg">
<path d="M18.01 5.98955C18.4005 6.38007 18.4005 7.01324 18.01 7.40376L13.4138 11.9985L18.01 16.5962C18.4005 16.9867 18.4005 17.6198 18.01 18.0104C17.6195 18.4009 16.9863 18.4009 16.5958 18.0104L11.9996 13.4128L7.4034 18.0104C7.01287 18.4009 6.37971 18.4009 5.98918 18.0104C5.59866 17.6198 5.59866 16.9867 5.98918 16.5962L10.5854 11.9985L5.98918 7.40376C5.59866 7.01324 5.59866 6.38007 5.98918 5.98955C6.37971 5.59902 7.01287 5.59902 7.4034 5.98955L11.9996 10.5843L16.5958 5.98955C16.9863 5.59902 17.6195 5.59902 18.01 5.98955Z" fill="#1A1A1A"/>
</svg>
