<svg width="32" height="33" viewBox="0 0 32 33" fill="none" xmlns="http://www.w3.org/2000/svg">
  <path d="M12.0566 16.2646C12.0566 15.1601 12.9521 14.2646 14.0566 14.2646H23.0566V26.2646H14.0566C12.9521 26.2646 12.0566 25.3692 12.0566 24.2646V16.2646Z" fill="#A5F20C"/>
  <path fill-rule="evenodd" clip-rule="evenodd" d="M10.6667 5.5H21.3333C23.3584 5.5 25 7.14162 25 9.16667V23.8333C25 25.8584 23.3584 27.5 21.3333 27.5H10.6667C8.64162 27.5 7 25.8584 7 23.8333V9.16667C7 7.14162 8.64162 5.5 10.6667 5.5ZM23 9.16667C23 8.24619 22.2538 7.5 21.3333 7.5H10.6667C9.74619 7.5 9 8.24619 9 9.16667V23.8333C9 24.7538 9.74619 25.5 10.6667 25.5H21.3333C22.2538 25.5 23 24.7538 23 23.8333V9.16667Z" fill="#1A1A1A"/>
  <path d="M20.3004 12.1C20.7974 12.1 21.2004 12.5029 21.2004 13C21.2004 13.497 20.7974 13.9 20.3004 13.9H15.8004C15.3033 13.9 14.9004 13.497 14.9004 13C14.9004 12.5029 15.3033 12.1 15.8004 12.1H20.3004Z" fill="#1A1A1A"/>
  <circle cx="12" cy="13" r="1" fill="#1A1A1A"/>
  <circle cx="12" cy="16.5" r="1" fill="#1A1A1A"/>
  <circle cx="12" cy="20" r="1" fill="#1A1A1A"/>
  <path d="M20.3004 15.6C20.7974 15.6 21.2004 16.0029 21.2004 16.5C21.2004 16.997 20.7974 17.4 20.3004 17.4H15.8004C15.3033 17.4 14.9004 16.997 14.9004 16.5C14.9004 16.0029 15.3033 15.6 15.8004 15.6H20.3004Z" fill="#1A1A1A"/>
  <path d="M20.3004 19.1C20.7974 19.1 21.2004 19.5029 21.2004 20C21.2004 20.497 20.7974 20.9 20.3004 20.9H15.8004C15.3033 20.9 14.9004 20.497 14.9004 20C14.9004 19.5029 15.3033 19.1 15.8004 19.1H20.3004Z" fill="#1A1A1A"/>
</svg>
