<svg width="30" height="30" viewBox="0 0 30 30" fill="none" xmlns="http://www.w3.org/2000/svg">
<rect x="0.5" y="0.5" width="29" height="29" rx="14.5" stroke="white" stroke-linejoin="bevel"/>
<path d="M11.6897 15.4564H13.2243V21.7742C13.2243 21.8989 13.3254 22 13.4501 22H16.0521C16.1769 22 16.2779 21.8989 16.2779 21.7742V15.4862H18.0421C18.1568 15.4862 18.2533 15.4001 18.2664 15.2861L18.5344 12.9602C18.5417 12.8963 18.5214 12.8322 18.4786 12.7842C18.4358 12.7361 18.3744 12.7086 18.3101 12.7086H16.278V11.2506C16.278 10.8111 16.5147 10.5882 16.9814 10.5882C17.048 10.5882 18.3101 10.5882 18.3101 10.5882C18.4348 10.5882 18.5359 10.4871 18.5359 10.3624V8.22748C18.5359 8.10274 18.4348 8.00167 18.3101 8.00167H16.479C16.4661 8.00104 16.4374 8 16.3952 8C16.0775 8 14.9731 8.06237 14.1008 8.86488C13.1342 9.7542 13.2686 10.819 13.3007 11.0036V12.7086H11.6897C11.5649 12.7086 11.4639 12.8096 11.4639 12.9344V15.2305C11.4639 15.3553 11.5649 15.4564 11.6897 15.4564Z" fill="white"/>
</svg>
