<svg width="32" height="33" viewBox="0 0 32 33" fill="none" xmlns="http://www.w3.org/2000/svg">
<path fill-rule="evenodd" clip-rule="evenodd" d="M11.0005 12.8159C11.0005 11.3161 10.6747 10.7494 12.6816 9.24868C14.6884 7.748 17.4976 7.31547 18.421 9.24868C19.3443 11.1819 19.5005 14.8484 19.5005 16.3159C19.5005 17.7834 19.0081 21.1559 19.0081 21.1559H11.6567C11.6567 21.1559 10.6977 17.1228 11.0005 12.8159Z" fill="white" stroke="#1A1A1A" stroke-width="1.5"/>
<path fill-rule="evenodd" clip-rule="evenodd" d="M14.5703 14.4848C14.6143 15.1143 15.0327 15.5978 15.5049 15.5648C15.977 15.5318 16.324 14.9947 16.28 14.3652C15.7488 14.4894 15.1695 14.5299 14.5703 14.4848Z" fill="#1A1A1A"/>
<path fill-rule="evenodd" clip-rule="evenodd" d="M6 23.2684C6.97186 21.2484 8.3285 19.6818 11.7123 18.5159C13.1704 20.141 14.6961 20.5719 15.8333 20.5719C16.9706 20.5719 18.4643 20.141 19.3577 18.5159C21.8076 18.8238 24.6221 21.5422 25.36 23.2684C21.4851 28.4227 10.4505 28.9021 6 23.2684Z" fill="#A5F20C"/>
<path fill-rule="evenodd" clip-rule="evenodd" d="M6 22.9159C6.97186 21.0457 8.3285 19.5954 11.7123 18.5159C13.1704 20.0204 14.6961 20.4194 15.8333 20.4194C16.9706 20.4194 18.4643 20.0204 19.3577 18.5159C21.8076 18.8009 24.6221 21.3178 25.36 22.9159" fill="#A5F20C"/>
<path d="M6 22.9159C6.97186 21.0457 8.3285 19.5954 11.7123 18.5159C13.1704 20.0204 14.6961 20.4194 15.8333 20.4194C16.9706 20.4194 18.4643 20.0204 19.3577 18.5159C21.8076 18.8009 24.6221 21.3178 25.36 22.9159" stroke="#1A1A1A" stroke-width="1.8" stroke-linecap="round" stroke-linejoin="round"/>
<rect x="10.0391" y="11.4759" width="3" height="3" fill="white"/>
<rect x="18.0781" y="12.1159" width="3" height="2" fill="white"/>
<path fill-rule="evenodd" clip-rule="evenodd" d="M19.0803 13.8216C19.5296 14.094 20.0047 13.904 20.3557 13.6764C20.7066 13.4489 20.7956 13.0089 20.7511 12.4592C20.7066 11.9095 20.3764 11.4509 19.9876 11.3398C19.5551 11.216 19.0017 11.6141 19.0017 11.6141" fill="white"/>
<path d="M19.0803 13.8216C19.5296 14.094 20.0047 13.904 20.3557 13.6764C20.7066 13.4489 20.7956 13.0089 20.7511 12.4592C20.7066 11.9095 20.3764 11.4509 19.9876 11.3398C19.5551 11.216 19.0017 11.6141 19.0017 11.6141" stroke="#1A1A1A" stroke-width="1.5" stroke-linecap="round" stroke-linejoin="round"/>
<path fill-rule="evenodd" clip-rule="evenodd" d="M11.2795 14.7812C10.991 15.0368 10.3619 15.0966 9.98831 14.7812C9.61475 14.4658 9.51953 13.771 9.51953 13.4172C9.51953 13.0634 9.78026 12.4181 10.3301 12.3653C10.88 12.3125 11.0226 12.4894 11.2795 12.7043" fill="white"/>
<path d="M11.2795 14.7812C10.991 15.0368 10.3619 15.0966 9.98831 14.7812C9.61475 14.4658 9.51953 13.771 9.51953 13.4172C9.51953 13.0634 9.78026 12.4181 10.3301 12.3653C10.88 12.3125 11.0226 12.4894 11.2795 12.7043" stroke="#1A1A1A" stroke-width="1.5" stroke-linecap="round" stroke-linejoin="round"/>
<path fill-rule="evenodd" clip-rule="evenodd" d="M13.1013 7.22836C13.3179 6.29025 13.3179 5.48592 14.8305 5.33129C16.3432 5.17666 17.3861 6.23522 17.5123 6.42028C17.6385 6.60534 18.4105 6.42028 18.9081 6.55727C19.5308 6.60534 19.0165 7.549 18.6237 8.07929C18.2308 8.60958 17.8065 9.26937 16.2202 9.74373C15.4072 9.96191 14.2519 9.69815 13.7432 9.26937C13.0073 10.3716 13.0087 11.8511 10.7096 11.3891C9.95211 10.0166 10.5138 6.85572 13.1013 7.22836Z" fill="#1A1A1A" stroke="#1A1A1A" stroke-width="1.8" stroke-linecap="round" stroke-linejoin="round"/>
<path d="M14.7577 12.9708C14.8602 12.7441 14.7876 12.4434 14.5059 12.374C14.1772 12.2907 13.8869 12.5035 13.9253 12.8459C13.9509 13.0818 14.2241 13.2854 14.4546 13.2252C14.604 13.1882 14.7065 13.0911 14.7577 12.9708Z" fill="#1A1A1A"/>
<path d="M16.8358 12.9308C16.9383 12.7041 16.8657 12.4034 16.584 12.334C16.2553 12.2507 15.965 12.4635 16.0034 12.8059C16.029 13.0418 16.3022 13.2454 16.5328 13.1853C16.6822 13.1482 16.7846 13.0511 16.8358 12.9308Z" fill="#1A1A1A"/>
<path fill-rule="evenodd" clip-rule="evenodd" d="M23.6193 5.31592L23.9694 6.05617C24.2904 6.7344 24.8319 7.28358 25.5057 7.61393L26.241 7.97434L25.5009 8.32439C24.8225 8.64524 24.2732 9.18694 23.943 9.86072L23.5826 10.5959L23.2325 9.85568C22.9117 9.17744 22.37 8.62826 21.6962 8.29792L20.9609 7.93765L21.7012 7.58745C22.3794 7.26661 22.9287 6.72491 23.2589 6.05113L23.6193 5.31592Z" fill="#A5F20C"/>
</svg>
