<svg width="32" height="33" viewBox="0 0 32 33" fill="none" xmlns="http://www.w3.org/2000/svg">
<path d="M11.3984 19.5826C11.3984 18.478 12.2939 17.5826 13.3984 17.5826H24.3984V25.5826H11.3984V19.5826Z" fill="#A5F20C"/>
<path fill-rule="evenodd" clip-rule="evenodd" d="M16.001 4.58337L15.3566 5.66549C14.191 7.62292 13.6177 8.88417 13.6177 9.64256C13.6177 10.6624 14.3066 11.5159 15.251 11.8167V13.4492H11.601C8.83962 13.4492 6.60104 15.6878 6.60104 18.4492V25.1159H5.73438C5.18209 25.1159 4.73438 25.5636 4.73438 26.1159C4.73438 26.6682 5.18209 27.1159 5.73438 27.1159H6.60104H25.401H26.2677C26.82 27.1159 27.2677 26.6682 27.2677 26.1159C27.2677 25.5636 26.82 25.1159 26.2677 25.1159H25.401V18.4492C25.401 15.6878 23.1625 13.4492 20.401 13.4492H16.751V11.8167C17.6955 11.5159 18.3844 10.6624 18.3844 9.64256C18.3844 8.92209 17.867 7.74779 16.8158 5.95391L16.001 4.58337ZM16.001 10.4326C16.4984 10.4326 16.8844 10.0687 16.8844 9.64256C16.8844 9.36083 16.5944 8.65236 16.0223 7.59868L16.0007 7.56023L15.8691 7.80479C15.3703 8.74492 15.1177 9.37962 15.1177 9.64256C15.1177 10.0687 15.5036 10.4326 16.001 10.4326ZM20.401 15.4492L20.5773 15.4543C22.1521 15.5456 23.401 16.8515 23.401 18.4492V25.1152H8.60104V18.4492C8.60104 16.7924 9.94419 15.4492 11.601 15.4492H20.401Z" fill="#1A1A1A"/>
<path d="M18.6442 17.8992C19.3066 17.8992 19.7034 18.0392 20.2213 18.3815L20.399 18.5032C20.7799 18.7721 20.9227 18.8326 21.2887 18.8326C22.0061 18.8326 22.7396 18.5737 23.5006 18.0365C23.839 17.7976 24.307 17.8783 24.5459 18.2167C24.7847 18.5551 24.704 19.0231 24.3656 19.262C23.3637 19.9692 22.3342 20.3326 21.2887 20.3326C20.6264 20.3326 20.2296 20.1925 19.7116 19.8503L19.534 19.7286C19.153 19.4597 19.0102 19.3992 18.6442 19.3992C18.324 19.3992 18.1747 19.4455 17.8871 19.6373L17.7545 19.7286C17.1438 20.1597 16.7357 20.3326 15.9998 20.3326C15.3375 20.3326 14.9407 20.1925 14.4227 19.8503L14.2451 19.7286C13.8641 19.4597 13.7213 19.3992 13.3554 19.3992C13.0351 19.3992 12.8858 19.4455 12.5982 19.6373L12.4656 19.7286C11.8549 20.1597 11.4468 20.3326 10.7109 20.3326C9.6654 20.3326 8.6359 19.9692 7.63396 19.262C7.29556 19.0231 7.21487 18.5551 7.45374 18.2167C7.69261 17.8783 8.16058 17.7976 8.49898 18.0365C9.26 18.5737 9.99346 18.8326 10.7109 18.8326C11.0311 18.8326 11.1805 18.7863 11.468 18.5945L11.6006 18.5032C12.2113 18.0721 12.6195 17.8992 13.3554 17.8992C14.0177 17.8992 14.4145 18.0392 14.9324 18.3815L15.1101 18.5032C15.4911 18.7721 15.6338 18.8326 15.9998 18.8326C16.32 18.8326 16.4694 18.7863 16.7569 18.5945L16.8895 18.5032C17.5002 18.0721 17.9084 17.8992 18.6442 17.8992Z" fill="#1A1A1A"/>
</svg>
