<svg width="36" height="36" viewBox="0 0 36 36" fill="none" xmlns="http://www.w3.org/2000/svg">
<ellipse cx="22.2585" cy="12.9589" rx="4.90909" ry="4.90909" transform="rotate(-15 22.2585 12.9589)" fill="#BCD1FB"/>
<path fill-rule="evenodd" clip-rule="evenodd" d="M12.3445 9.37077C12.053 8.28279 12.6994 7.16318 13.7874 6.87165C14.8754 6.58013 15.995 7.22653 16.2865 8.31452" fill="#D3E2FF"/>
<path d="M12.3445 9.37077C12.053 8.28279 12.6994 7.16318 13.7874 6.87165C14.8754 6.58013 15.995 7.22653 16.2865 8.31452" stroke="#1A1A1A" stroke-width="2" stroke-linecap="round" stroke-linejoin="round"/>
<path fill-rule="evenodd" clip-rule="evenodd" d="M11.036 22.178L9.70578 17.2137C8.75938 13.6817 10.8554 10.0513 14.3874 9.10489C17.9207 8.15814 21.5498 10.2545 22.4962 13.7865L23.8264 18.7508" fill="white"/>
<path d="M11.036 22.178L9.70578 17.2137C8.75938 13.6817 10.8554 10.0513 14.3874 9.10489C17.9207 8.15814 21.5498 10.2545 22.4962 13.7865L23.8264 18.7508" stroke="#1A1A1A" stroke-width="2" stroke-linecap="round" stroke-linejoin="round"/>
<path fill-rule="evenodd" clip-rule="evenodd" d="M27.8353 24.5214L10.4485 29.1802C9.78622 29.3577 9.16233 28.501 9.40539 27.7472L10.967 22.8742C11.0545 22.6015 11.2443 22.4056 11.4847 22.3411L23.5183 19.1167C23.7587 19.0523 24.0197 19.1274 24.2331 19.3195L28.0221 22.7589C28.6081 23.2905 28.4975 24.344 27.8353 24.5214Z" fill="white" stroke="#1A1A1A" stroke-width="2" stroke-linecap="round" stroke-linejoin="round"/>
<path fill-rule="evenodd" clip-rule="evenodd" d="M22.2377 26.4614C22.6796 28.1105 21.7 29.8052 20.0523 30.2468C18.4032 30.6886 16.7075 29.7107 16.2656 28.0616" fill="#D3E2FF"/>
<path d="M22.2377 26.4614C22.6796 28.1105 21.7 29.8052 20.0523 30.2468C18.4032 30.6886 16.7075 29.7107 16.2656 28.0616" stroke="#1A1A1A" stroke-width="2" stroke-linecap="round" stroke-linejoin="round"/>
</svg>
