<svg width="27" height="30" viewBox="0 0 27 30" fill="none" xmlns="http://www.w3.org/2000/svg">
<path d="M0.542588 0.469967C0.161792 0.926837 -0.0307775 1.51155 0.00400972 2.10529V27.8983C-0.0288091 28.4918 0.163529 29.0758 0.542588 29.5336L0.630719 29.6218L15.0744 15.1683V14.8255L0.630719 0.381836L0.542588 0.469967Z" fill="url(#paint0_linear_1168_768)"/>
<path d="M19.892 19.9862L15.0742 15.1683V14.8256L19.892 10.0176L19.9998 10.0763L25.7087 13.3176C27.344 14.2381 27.344 15.7559 25.7087 16.6862L19.9998 19.9274L19.892 19.9862Z" fill="url(#paint1_linear_1168_768)"/>
<path d="M20.0003 19.9274L15.1042 15.0312L0.542969 29.5337C0.878604 29.8096 1.29647 29.9661 1.7308 29.9785C2.16513 29.991 2.59125 29.8586 2.94209 29.6022L19.971 19.9274" fill="url(#paint2_linear_1168_768)"/>
<path d="M20.0003 10.0762L2.94209 0.391626C2.59501 0.124786 2.16606 -0.0132804 1.7285 0.00100738C1.29093 0.0152952 0.8719 0.181051 0.542969 0.469965L15.0748 15.0018L20.0003 10.0762Z" fill="url(#paint3_linear_1168_768)"/>
<path opacity="0.1" d="M19.8927 19.8196L2.94217 29.4357C2.60405 29.6876 2.19365 29.8237 1.77199 29.8237C1.35032 29.8237 0.939921 29.6876 0.601803 29.4357L0.513672 29.5238L0.601803 29.6119C0.939921 29.8639 1.35032 30 1.77199 30C2.19365 30 2.60405 29.8639 2.94217 29.6119L19.971 19.9371L19.8927 19.8196Z" fill="black"/>
<path opacity="0.07" d="M0.542297 29.377C0.162603 28.9157 -0.029656 28.3285 0.0037179 27.7319V27.8984C-0.0291009 28.4919 0.163237 29.0759 0.542297 29.5337L0.630428 29.4456L0.542297 29.377Z" fill="black"/>
<path opacity="0.07" d="M25.7092 16.5098L19.8926 19.8196L20.0003 19.9274L25.7092 16.6469C26.0441 16.4997 26.3339 16.2662 26.5489 15.9702C26.764 15.6743 26.8966 15.3266 26.9333 14.9626C26.8665 15.2991 26.7206 15.6148 26.5078 15.8838C26.295 16.1528 26.0213 16.3674 25.7092 16.5098Z" fill="black"/>
<path opacity="0.3" d="M2.94161 0.567965L25.7088 13.4841C26.0178 13.623 26.2897 13.8328 26.5024 14.0966C26.7151 14.3603 26.8625 14.6704 26.9328 15.0019C26.8982 14.6373 26.7663 14.2887 26.551 13.9924C26.3357 13.6962 26.0449 13.4631 25.7088 13.3176L2.94161 0.391703C1.33566 -0.528777 0.00390625 0.235026 0.00390625 2.10536V2.27183C0.00390625 0.411288 1.33566 -0.362307 2.94161 0.567965Z" fill="white"/>
<defs>
<linearGradient id="paint0_linear_1168_768" x1="13.8014" y1="1.8311" x2="-5.77347" y2="21.406" gradientUnits="userSpaceOnUse">
<stop stop-color="#008EFF"/>
<stop offset="0.01" stop-color="#008FFF"/>
<stop offset="0.26" stop-color="#00ACFF"/>
<stop offset="0.51" stop-color="#00C0FF"/>
<stop offset="0.76" stop-color="#00CDFF"/>
<stop offset="1" stop-color="#00D1FF"/>
</linearGradient>
<linearGradient id="paint1_linear_1168_768" x1="25.9045" y1="15.0019" x2="-2.31697" y2="15.0019" gradientUnits="userSpaceOnUse">
<stop stop-color="#FFD800"/>
<stop offset="1" stop-color="#FF8A00"/>
</linearGradient>
<linearGradient id="paint2_linear_1168_768" x1="17.327" y1="17.6752" x2="-9.2102" y2="44.2124" gradientUnits="userSpaceOnUse">
<stop stop-color="#FF3A44"/>
<stop offset="1" stop-color="#B11162"/>
</linearGradient>
<linearGradient id="paint3_linear_1168_768" x1="-3.11937" y1="-8.11792" x2="8.73916" y2="3.73081" gradientUnits="userSpaceOnUse">
<stop stop-color="#328E71"/>
<stop offset="0.07" stop-color="#2D9571"/>
<stop offset="0.48" stop-color="#15BD74"/>
<stop offset="0.8" stop-color="#06D575"/>
<stop offset="1" stop-color="#00DE76"/>
</linearGradient>
</defs>
</svg>
