<svg width="32" height="32" viewBox="0 0 32 32" fill="none" xmlns="http://www.w3.org/2000/svg">
<mask id="path-1-inside-1_375_5862" fill="white">
<path fill-rule="evenodd" clip-rule="evenodd" d="M19.7913 8.36283L12.1541 16L19.7913 23.6372C20.2018 24.0477 20.2018 24.7133 19.7913 25.1239C19.3807 25.5344 18.7151 25.5344 18.3045 25.1239L9.92402 16.7434C9.8727 16.692 9.8278 16.6367 9.78931 16.5784C9.51989 16.1704 9.56479 15.6159 9.92402 15.2566L18.3045 6.87612C18.7151 6.46557 19.3807 6.46557 19.7913 6.87612C20.2018 7.28666 20.2018 7.95229 19.7913 8.36283Z"/>
</mask>
<path d="M12.1541 16L10.7399 17.4142C10.3648 17.0391 10.1541 16.5304 10.1541 16C10.1541 15.4696 10.3648 14.9609 10.7399 14.5858L12.1541 16ZM19.7913 8.36283L18.377 6.94862L18.3771 6.94862L19.7913 8.36283ZM19.7913 23.6372L18.3771 25.0514L18.377 25.0514L19.7913 23.6372ZM18.3045 25.1239L16.8903 26.5381L18.3045 25.1239ZM9.92402 16.7434L11.3382 15.3291L9.92402 16.7434ZM9.78931 16.5784L8.12029 17.6804V17.6804L9.78931 16.5784ZM9.92402 15.2566L11.3382 16.6709L9.92402 15.2566ZM18.3045 6.87612L16.8903 5.4619L18.3045 6.87612ZM10.7399 14.5858L18.377 6.94862L21.2055 9.77705L13.5683 17.4142L10.7399 14.5858ZM18.377 25.0514L10.7399 17.4142L13.5683 14.5858L21.2055 22.223L18.377 25.0514ZM18.3771 23.7097C18.0065 24.0802 18.0065 24.6809 18.3771 25.0514L21.2055 22.223C22.3971 23.4145 22.3971 25.3465 21.2055 26.5381L18.3771 23.7097ZM19.7188 23.7097C19.3483 23.3392 18.7476 23.3392 18.3771 23.7097L21.2055 26.5381C20.0139 27.7297 18.0819 27.7297 16.8903 26.5381L19.7188 23.7097ZM11.3382 15.3291L19.7188 23.7097L16.8903 26.5381L8.50981 18.1576L11.3382 15.3291ZM11.4583 15.4765C11.423 15.423 11.3827 15.3736 11.3382 15.3291L8.50981 18.1576C8.36272 18.0105 8.23256 17.8505 8.12029 17.6804L11.4583 15.4765ZM11.3382 16.6709C11.6641 16.345 11.7019 15.8454 11.4583 15.4765L8.12029 17.6804C7.33786 16.4954 7.46551 14.8867 8.50981 13.8424L11.3382 16.6709ZM19.7188 8.29033L11.3382 16.6709L8.50981 13.8424L16.8903 5.4619L19.7188 8.29033ZM18.3771 8.29033C18.7476 8.66083 19.3483 8.66083 19.7188 8.29033L16.8903 5.4619C18.0819 4.27031 20.0139 4.27031 21.2055 5.4619L18.3771 8.29033ZM18.3771 6.94862C18.0065 7.31912 18.0065 7.91983 18.3771 8.29033L21.2055 5.4619C22.3971 6.6535 22.3971 8.58545 21.2055 9.77705L18.3771 6.94862Z" fill="#1A1A1A" mask="url(#path-1-inside-1_375_5862)"/>
</svg>
