<svg width="210" height="28" viewBox="0 0 210 28" fill="none" xmlns="http://www.w3.org/2000/svg">
<path d="M11.3401 8.284C18.1803 5.2165 25.1196 4.32863 30.4505 5.42614C29.8537 5.15455 29.2518 4.68918 28.886 4.02948C27.9038 2.25697 25.9783 1.20071 23.7738 1.44537C22.8658 1.54649 21.9695 1.31831 21.3792 0.915431C20.5511 0.352089 19.6151 0 18.4837 0C17.3512 0 16.4158 0.351549 15.5883 0.915431C14.9969 1.31831 14.1 1.54649 13.1935 1.44537C10.9891 1.20071 9.06346 2.25697 8.08035 4.02948C7.64304 4.81939 6.87281 5.32447 6.16866 5.56373C4.41414 6.15994 2.96711 7.76091 2.77493 9.84526C2.68387 10.8269 2.10468 11.6019 1.67161 12.036C0.494686 13.2135 0.00175875 14.5905 0.00175875 16.001C0.00175875 16.0243 0.00175875 16.0475 0.00175875 16.0708C2.88292 13.0738 6.76259 10.3371 11.3401 8.284Z" fill="white"/>
<path d="M17.3765 12.3038C23.2219 9.68254 29.1409 8.65275 34.0646 9.09435C33.6416 7.3864 32.3615 6.11149 30.7981 5.56517C30.6832 5.52699 30.5662 5.48097 30.4498 5.42695C25.1194 4.32944 18.1796 5.21731 11.3393 8.28481C6.76187 10.338 2.88169 13.0746 0 16.0722C0.0338835 18.8427 2.1024 21.1235 4.78025 21.4904C7.74294 17.9506 12.0943 14.6729 17.3765 12.3038Z" fill="white"/>
<path d="M35.2953 12.0366C34.8621 11.603 34.284 10.8274 34.193 9.8458C34.1691 9.58691 34.1257 9.33603 34.0659 9.09353C29.1416 8.65248 23.2232 9.68173 17.3777 12.3029C12.0957 14.6721 7.74475 17.9499 4.78206 21.4896C5.03036 21.5235 5.28451 21.542 5.54234 21.542H13.4949C14.251 21.542 14.8629 22.1683 14.8629 22.9233V23.2441C14.8629 24.5153 13.6077 24.6863 13.6077 24.6863L7.14071 25.7986C6.91094 25.8351 6.71236 25.9929 6.71236 26.2201V27.0147H30.2545V26.2201C30.2545 25.9929 30.0572 25.8351 29.8274 25.7986L23.3603 24.6863C23.3603 24.6863 22.105 24.5159 22.105 23.2441V22.9233C22.105 22.1677 22.717 21.542 23.472 21.542H31.4256C34.4852 21.542 36.9661 19.0611 36.9661 16.0015C36.9661 14.5912 36.4727 13.2141 35.2953 12.0366Z" fill="white"/>
<path d="M47.7714 15.2781C47.7714 11.8304 49.0363 8.56378 53.8785 8.56378C54.9622 8.56378 56.1109 8.77719 56.8659 9.00691L56.5382 10.8288C55.7822 10.5333 54.8309 10.3533 53.9441 10.3533C51.055 10.3533 49.9225 12.372 49.9225 15.3103C49.9225 18.1015 51.219 19.8412 53.9932 19.8412C54.8631 19.8412 56.0612 19.6278 56.7347 19.3817L56.9475 21.2203C56.2587 21.4507 55.0273 21.664 53.9118 21.664C49.1347 21.664 47.7714 18.6759 47.7714 15.2944V15.2781ZM66.8145 21.3024L65.1568 21.5978C64.8281 21.1712 64.6316 20.6137 64.549 20.0387C63.9915 21.0891 62.8417 21.6476 61.66 21.6476C60.1988 21.6476 58.5744 20.9085 58.5744 18.6765C58.5744 16.3782 59.8048 15.6883 64.3029 15.4919V14.8513C64.3029 13.883 64.1228 13.243 62.5954 13.243C61.6276 13.243 60.6751 13.5219 59.7561 13.9978L59.3289 12.3561C60.1987 11.9464 61.5451 11.6011 62.8252 11.6011C65.3369 11.6011 66.1579 12.6515 66.1579 14.8349V18.5447C66.1579 19.7591 66.3708 20.7772 66.8145 21.3024ZM60.4126 18.6267C60.4126 19.792 61.3804 20.0381 62.0369 20.0381C63.2032 20.0381 64.106 19.2176 64.3024 18.2821V16.9521C61.3153 17.1168 60.4126 17.3629 60.4126 18.6267ZM73.0157 19.9725V21.466L72.113 21.5158C70.4887 21.5973 69.4378 21.007 69.4378 19.2504V13.5542H67.9268V12.0109H69.4378V9.84454L71.3744 9.35161V12.0109H73.3608V13.5542H71.3744V18.5118C71.3744 19.6273 71.6207 19.9725 72.4582 19.9725H73.0157ZM80.2 11.7155C82.6454 11.7155 83.3019 13.2588 83.3019 14.9662V21.4337H81.349V15.4586C81.349 14.2436 80.9385 13.3408 79.6086 13.3408C78.6896 13.3408 77.7536 13.7845 77.2612 14.3913V21.4337H75.2747V8.40016L77.2612 8.1048V12.8983C77.8849 12.2577 79.0019 11.7155 80.2 11.7155ZM93.6548 21.3024L91.997 21.5978C91.6683 21.1712 91.472 20.6137 91.3892 20.0387C90.8318 21.0891 89.6822 21.6476 88.5005 21.6476C87.0393 21.6476 85.4149 20.9085 85.4149 18.6765C85.4149 16.3782 86.6454 15.6883 91.1434 15.4919V14.8513C91.1434 13.883 90.9633 13.243 89.436 13.243C88.4681 13.243 87.5157 13.5219 86.5965 13.9978L86.1694 12.3561C87.0392 11.9464 88.3856 11.6011 89.6658 11.6011C92.1771 11.6011 92.9984 12.6515 92.9984 14.8349V18.5447C92.9984 19.7591 93.2118 20.7772 93.6548 21.3024ZM87.2536 18.6267C87.2536 19.792 88.2215 20.0381 88.8779 20.0381C90.0443 20.0381 90.9471 19.2176 91.1434 18.2821V16.9521C88.1564 17.1168 87.2536 17.3629 87.2536 18.6267ZM101.177 11.896H103.343C102.555 14.2764 101.06 18.659 100.093 21.0885C99.2882 23.1242 98.5003 24.5362 97.7781 25.3404L95.8574 24.4864C96.5958 23.7971 97.4666 22.5006 98.1878 20.7767L94.4788 11.896H96.6777L99.173 18.659C99.8636 16.6736 100.684 13.8168 101.177 11.896Z" fill="white"/>
<path d="M114.634 21.7128C111.827 21.7128 109.66 20.2193 109.66 17.3461V8.82645H111.696V16.6403C111.696 18.5278 112.353 19.9567 114.684 19.9567C116.998 19.9567 117.672 18.5283 117.672 16.6403V8.82645H119.69V17.3461C119.69 20.2193 117.54 21.7128 114.65 21.7128H114.634ZM124.181 11.7484C124.313 12.0772 124.46 12.6675 124.494 12.9963C125.117 12.3065 126.332 11.7156 127.53 11.7156C129.992 11.7156 130.649 13.2589 130.649 14.9663V21.4338H128.679V15.4587C128.679 14.2436 128.268 13.3409 126.938 13.3409C126.02 13.3409 125.083 13.7846 124.575 14.359V21.4338H122.604V13.9646C122.604 13.2917 122.54 12.569 122.375 11.9946L124.181 11.7484ZM135.444 10.4682H133.392V8.66292H135.444V10.4682ZM135.412 21.4338H133.426V11.8961H135.412V21.4338ZM142.32 19.9725V21.4661L141.417 21.5159C139.792 21.5974 138.741 21.0071 138.741 19.2505V13.5543H137.231V12.011H138.741V9.84463L140.677 9.3517V12.011H142.664V13.5543H140.677V18.5119C140.677 19.6274 140.924 19.9725 141.761 19.9725H142.32ZM148.942 20.0382C149.911 20.0382 150.962 19.8254 151.716 19.4966L152.077 21.0728C151.47 21.3687 150.222 21.7134 148.778 21.7134C145.348 21.7134 143.968 19.5956 143.968 16.7886C143.968 13.8497 145.528 11.5684 148.515 11.5684C151.158 11.5684 152.209 13.3743 152.209 15.8695V17.0183H145.939C145.922 19.0704 147.071 20.0387 148.926 20.0387L148.942 20.0382ZM148.302 13.0947C146.907 13.0947 146.085 14.3426 145.987 15.6064H150.403C150.387 14.0631 149.845 13.0947 148.319 13.0947H148.302ZM157.885 21.6636C155.405 21.6636 154.142 19.8576 154.142 16.8537C154.142 14.0466 155.177 11.6335 158.164 11.6335C159.215 11.6335 160.233 12.093 160.807 12.6839V8.3998L162.728 8.10435V18.1672C162.728 19.3654 162.777 20.3829 163.122 21.2204L161.414 21.5487C161.169 21.1548 161.037 20.5968 160.988 20.1531C160.527 20.7773 159.577 21.6636 157.901 21.6636H157.885ZM160.872 15.9018C160.872 15.3766 160.856 14.8514 160.774 14.4247C160.396 13.8995 159.608 13.2917 158.525 13.2917C156.752 13.2917 156.161 14.7852 156.161 16.8209C156.161 18.6104 156.752 20.006 158.311 20.006C159.658 20.006 160.479 19.1028 160.774 18.4462C160.839 18.1344 160.872 17.6092 160.872 17.1496V15.9018Z" fill="white"/>
<path d="M178.745 17.8881C178.745 20.4983 176.874 21.4337 174.313 21.4337H170.422V8.8269H174.066C176.183 8.8269 178.269 9.40141 178.269 11.9294C178.269 13.4065 177.481 14.3256 176.332 14.7036C177.366 14.8842 178.745 15.6227 178.745 17.8712V17.8881ZM176.332 12.2577C176.332 10.977 175.446 10.4681 173.82 10.4681H172.392V14.1287H174.642C175.593 13.9974 176.332 13.4552 176.332 12.2735V12.2577ZM172.392 19.7433H174.148C175.511 19.7433 176.709 19.4473 176.709 17.6748C176.709 16.2956 175.806 15.6392 174.116 15.6392H172.392V19.7433ZM188.936 21.3024L187.276 21.5978C186.949 21.1712 186.751 20.6137 186.67 20.0386C186.111 21.0891 184.963 21.6476 183.781 21.6476C182.32 21.6476 180.695 20.9085 180.695 18.6765C180.695 16.3782 181.926 15.6883 186.424 15.4919V14.8513C186.424 13.883 186.243 13.243 184.716 13.243C183.747 13.243 182.795 13.5219 181.876 13.9978L181.45 12.3561C182.32 11.9464 183.666 11.6011 184.946 11.6011C187.458 11.6011 188.279 12.6515 188.279 14.8349V18.5447C188.279 19.7591 188.492 20.7772 188.936 21.3024ZM182.533 18.6267C182.533 19.792 183.501 20.0381 184.158 20.0381C185.323 20.0381 186.226 19.2176 186.424 18.2821V16.9521C183.436 17.1168 182.533 17.3629 182.533 18.6267ZM192.71 11.7483C192.841 12.0771 192.989 12.6675 193.022 12.9962C193.645 12.3064 194.861 11.7155 196.059 11.7155C198.521 11.7155 199.178 13.2588 199.178 14.9662V21.4337H197.208V15.4586C197.208 14.2436 196.798 13.3408 195.468 13.3408C194.549 13.3408 193.612 13.7845 193.103 14.3589V21.4337H191.134V13.9645C191.134 13.2916 191.068 12.569 190.903 11.9945L192.71 11.7483ZM210 21.4337H207.62L203.942 16.7551V21.4337H201.956V8.40016L203.942 8.1048V16.5587L207.537 11.8966H209.819L205.961 16.5095L210 21.4337Z" fill="white"/>
</svg>
