<svg width="30" height="30" viewBox="0 0 30 30" fill="none" xmlns="http://www.w3.org/2000/svg">
<rect x="0.5" y="0.5" width="29" height="29" rx="14.5" stroke="white" stroke-linejoin="bevel"/>
<path d="M20.9733 11.478C20.9733 11.4162 20.9717 11.4138 20.9068 11.4142C20.7506 11.4158 20.5964 11.3971 20.4426 11.374C19.8849 11.2899 18.0761 10.341 17.7701 8.78917C17.7642 8.7589 17.696 8.37364 17.6968 8.2095C17.6968 8.13619 17.696 8.13619 17.6235 8.135C17.6068 8.135 17.5901 8.135 17.5733 8.135C16.8654 8.135 16.1578 8.135 15.4498 8.135C15.3072 8.135 15.3275 8.11707 15.3271 8.2601C15.3271 11.3298 15.3267 14.3995 15.3271 17.4688C15.3271 17.5831 15.3239 17.6975 15.3036 17.8098C15.1969 18.4038 14.8929 18.8684 14.3777 19.1863C13.9319 19.4612 13.4475 19.5397 12.9335 19.4381C12.7714 19.4062 12.6196 19.3448 12.467 19.2847C12.4547 19.2735 12.4423 19.2624 12.43 19.2508C12.3786 19.2078 12.3224 19.1723 12.2674 19.1345C11.612 18.6807 11.3013 18.0508 11.3961 17.2632C11.4921 16.464 11.9519 15.9218 12.7092 15.6421C12.9351 15.5588 13.173 15.5242 13.4148 15.5373C13.5702 15.5457 13.7252 15.5652 13.8762 15.6082C13.9283 15.623 13.9566 15.6046 13.959 15.5493C13.9598 15.5297 13.9606 15.5102 13.9606 15.4907C13.9606 14.9397 13.9403 13.7361 13.9371 13.7333C13.9383 13.5748 13.9383 13.4158 13.9411 13.2573C13.9419 13.2114 13.9192 13.2035 13.8805 13.1991C13.5949 13.1652 13.3096 13.1589 13.0224 13.18C12.6256 13.2091 12.2411 13.2903 11.8674 13.425C11.2714 13.6393 10.7479 13.9708 10.2961 14.4134C9.90806 14.7935 9.60329 15.2329 9.37978 15.7281C9.16584 16.2022 9.04313 16.6999 9.00927 17.2178C8.99453 17.4425 8.99732 17.668 9.01803 17.8935C9.04672 18.205 9.10568 18.5098 9.2005 18.8074C9.47301 19.6628 9.96782 20.3644 10.6698 20.9209C10.7411 20.9775 10.8096 21.0397 10.8953 21.0763C10.9312 21.1082 10.967 21.14 11.0029 21.1715C11.1164 21.2572 11.2383 21.3305 11.3654 21.3934C12.1519 21.7819 12.9805 21.94 13.8542 21.8333C14.9877 21.695 15.9315 21.1926 16.6749 20.3273C17.3745 19.513 17.7144 18.5568 17.7207 17.4883C17.7295 15.9596 17.7227 14.431 17.7239 12.9023C17.7239 12.8656 17.7028 12.8138 17.743 12.7955C17.7745 12.7812 17.806 12.823 17.8359 12.8421C18.4048 13.2158 19.0183 13.4859 19.6829 13.6381C20.0697 13.7266 20.4601 13.7804 20.8578 13.7796C20.9833 13.7796 21 13.7732 21 13.6489C21.0008 13.1059 20.9721 11.6218 20.9725 11.4776L20.9733 11.478Z" fill="white"/>
</svg>
