<svg width="32" height="33" viewBox="0 0 32 33" fill="none" xmlns="http://www.w3.org/2000/svg">
<path d="M11.1289 17.4797C11.1289 16.3751 12.0243 15.4797 13.1289 15.4797H20.5178V29.3159H11.1289V17.4797Z" fill="#A5F20C"/>
<path fill-rule="evenodd" clip-rule="evenodd" d="M10.6667 8.09369H17.8519C19.8769 8.09369 21.5185 9.73531 21.5185 11.7604V26.6492C21.5185 28.6743 19.8769 30.3159 17.8519 30.3159H10.6667C8.64162 30.3159 7 28.6743 7 26.6492V11.7604C7 9.73531 8.64162 8.09369 10.6667 8.09369ZM19.5185 11.7604C19.5185 10.8399 18.7723 10.0937 17.8519 10.0937H10.6667C9.74619 10.0937 9 10.8399 9 11.7604V26.6492C9 27.5697 9.74619 28.3159 10.6667 28.3159H17.8519C18.7723 28.3159 19.5185 27.5697 19.5185 26.6492V11.7604Z" fill="#1A1A1A"/>
<path d="M16.8679 11.5367C17.2821 11.5367 17.6179 11.8725 17.6179 12.2867C17.6179 12.7009 17.2821 13.0367 16.8679 13.0367H13.7383C13.3241 13.0367 12.9883 12.7009 12.9883 12.2867C12.9883 11.8725 13.3241 11.5367 13.7383 11.5367H16.8679Z" fill="#1A1A1A"/>
<ellipse cx="11.3918" cy="12.2867" rx="0.782407" ry="0.798246" fill="#1A1A1A"/>
<path d="M15.8249 25.9051C16.2392 25.9051 16.5749 26.2409 16.5749 26.6551C16.5749 27.0693 16.2392 27.4051 15.8249 27.4051H12.6953C12.2811 27.4051 11.9453 27.0693 11.9453 26.6551C11.9453 26.2409 12.2811 25.9051 12.6953 25.9051H15.8249Z" fill="#1A1A1A"/>
<path d="M19.5547 5.30667C22.178 5.30667 24.3047 7.43332 24.3047 10.0567C24.3047 10.4709 23.9689 10.8067 23.5547 10.8067C23.1405 10.8067 22.8047 10.4709 22.8047 10.0567C22.8047 8.26175 21.3496 6.80667 19.5547 6.80667C19.1405 6.80667 18.8047 6.47088 18.8047 6.05667C18.8047 5.64246 19.1405 5.30667 19.5547 5.30667Z" fill="#1A1A1A"/>
<path d="M20.0742 2.56592C23.9249 2.56592 27.0464 5.68749 27.0464 9.53814C27.0464 9.95235 26.7107 10.2881 26.2964 10.2881C25.8822 10.2881 25.5464 9.95235 25.5464 9.53814C25.5464 6.51592 23.0964 4.06592 20.0742 4.06592C19.66 4.06592 19.3242 3.73013 19.3242 3.31592C19.3242 2.9017 19.66 2.56592 20.0742 2.56592Z" fill="#1A1A1A"/>
</svg>
