<svg width="210" height="192" viewBox="0 0 210 192" fill="none" xmlns="http://www.w3.org/2000/svg">
    <path d="M120.457 169.991c8.085-6.808 13.846-16.167 17.963-23.56a193.448 193.448 0 0 0 1.399-2.556c.009-.015.016-.032.026-.046.78-1.455 1.564-2.945 2.326-4.39 3.131-5.945 6.356-12.07 10.331-17.438a85.526 85.526 0 0 1 2.655 7.828c3.02 10.511 5.2 21.297 3.694 35.075-.033.288 0 2.282 0 2.282V176.466h-48.529c3.776-1.805 7.162-3.967 10.14-6.473l-.005-.002z" fill="url(#oa22bcw5ga)"/>
    <path d="M75.948 3.88a13.045 13.045 0 0 1 4.625-1.636c6.625-1.027 13.732 1.226 18.519 6.14.191.198.378.397.562.602 3.133 3.491 2.995 8.528.376 12.45-2.623 3.922-7.269 5.925-11.833 6.428-3.918.431-8.015-.133-11.447-2.147-3.432-2.014-6.113-5.588-6.637-9.653-.685-5.309 1.802-9.81 5.835-12.184z" fill="#1A1A1A"/>
    <path d="M136.51 148.211a236.67 236.67 0 0 1-1.619 2.861c-5.498 9.547-12.078 19.241-20.702 26.261-8.496 6.914-19.12 10.811-29.775 12.814-15.563 2.927-33.054 1.039-45.762-9.051-15.25-12.112-20.876-32.885-14.443-50.798 9.975-27.768 40.611-44.267 42.209-46.517 1.89-2.661.42-38.682 8.065-49.38 6.652-9.308 18.23-12.147 27.113-4.045 8.256 7.53 10.353 21.02 10.811 31.65.322 7.442-.012 15.55 4.481 21.89 1.223 1.726 6.823 6.313 15.812 13.114 7.885 5.966 13.775 14.059 17.978 23.061l-14.168 28.143v-.003z" fill="url(#k7sish1s3b)"/>
    <path d="M71.176 192c-12.712 0-24.271-3.597-32.889-10.443a45.104 45.104 0 0 1-9.722-10.667 46.27 46.27 0 0 1-5.832-12.861 46.566 46.566 0 0 1-1.712-13.962 45.277 45.277 0 0 1 2.636-13.975c3.498-9.735 9.937-19.232 19.145-28.234 7.557-7.388 15.088-12.639 19.587-15.775 1.776-1.238 3.31-2.305 3.554-2.649.53-.745.83-6.074 1.12-11.229.693-12.293 1.741-30.87 6.949-38.155 3.656-5.12 8.864-8.384 14.28-8.958 4.94-.524 9.682 1.145 13.713 4.82 3.794 3.464 6.655 8.487 8.499 14.937 1.398 4.892 2.218 10.492 2.505 17.123.041.907.069 1.843.1 2.748.212 6.59.431 13.404 4.275 18.827 1.132 1.597 6.412 5.965 15.687 12.982 7.473 5.654 13.582 13.485 18.156 23.282a.586.586 0 0 1-.006.515l-14.168 28.143s-.007.016-.013.022a257.035 257.035 0 0 1-1.622 2.87c-4.777 8.293-11.463 18.789-20.842 26.424-7.729 6.29-17.835 10.643-30.037 12.939-4.537.852-9.01 1.273-13.35 1.273l-.013.003zm18.87-165.816c-.543 0-1.09.028-1.635.088-5.083.536-9.981 3.625-13.445 8.468-5.007 7.007-6.043 25.378-6.73 37.534-.411 7.31-.64 10.867-1.335 11.844-.346.49-1.429 1.254-3.84 2.936-4.472 3.117-11.95 8.33-19.439 15.65-9.076 8.873-15.422 18.224-18.857 27.787a44.14 44.14 0 0 0-2.568 13.61 45.34 45.34 0 0 0 1.67 13.607 45.12 45.12 0 0 0 5.68 12.533 44.058 44.058 0 0 0 9.47 10.39c11.292 8.967 27.797 12.224 45.288 8.935 12.006-2.258 21.937-6.527 29.509-12.692 9.23-7.51 15.838-17.894 20.565-26.096.505-.88 1.033-1.81 1.61-2.846l14.034-27.874c-4.477-9.498-10.424-17.095-17.678-22.58-9.507-7.192-14.721-11.523-15.938-13.242-4.046-5.713-4.271-12.705-4.49-19.469-.028-.902-.059-1.834-.096-2.736-.284-6.537-1.086-12.05-2.459-16.852-1.785-6.237-4.527-11.076-8.159-14.39-3.323-3.032-7.151-4.605-11.157-4.605z" fill="#1A1A1A"/>
    <path d="M157.976 173.324c-.022 0-.044 0-.069-.003a.593.593 0 0 1-.521-.653c1.75-15.45.933-28.136-2.568-39.924-1.597-5.379-3.582-10.402-5.9-14.933a.59.59 0 1 1 1.052-.539c2.349 4.592 4.361 9.684 5.981 15.132 3.547 11.947 4.377 24.78 2.611 40.392a.59.59 0 0 1-.586.525v.003zM85.12 156.999c-1.932 0-3.93-.3-6.05-.986-3.916-1.261-7.489-4.019-9.807-7.566-2.468-3.776-3.233-7.96-2.156-11.785a.59.59 0 0 1 1.136.318c-.983 3.492-.272 7.333 2.006 10.818 2.175 3.323 5.52 5.906 9.182 7.088 7.442 2.4 13.41-.252 20.44-3.968 5.332-2.818 10.246-6.49 14.602-10.914a.595.595 0 0 1 .836-.007.595.595 0 0 1 .006.837c-4.443 4.511-9.454 8.255-14.892 11.129-5.32 2.811-10.062 5.033-15.304 5.033v.003zM91.962 110.432h-.053c-.746-.065-1.32-.486-1.538-1.12-.24-.699-.007-1.51.592-2.068.578-.537 1.476-.646 2.14-.262.416.24.69.605.8 1.054.118.496.015 1.048-.288 1.513a.59.59 0 1 1-.992-.642c.122-.191.175-.422.131-.599a.481.481 0 0 0-.243-.309c-.215-.125-.546-.078-.743.103-.293.274-.352.617-.28.823.065.191.243.3.527.328a.59.59 0 0 1-.053 1.176v.003zM91.811 122.472c-.271 0-.549-.047-.81-.146-.672-.256-1.077-.799-1.09-1.454-.009-.456.25-.911.662-1.164.374-.231.814-.256 1.176-.063a.59.59 0 0 1-.53 1.055c-.05.016-.128.1-.128.15.003.165.115.293.33.374.331.125.771.075.943-.109a.684.684 0 0 0 .047-.817.586.586 0 0 1 .127-.824.586.586 0 0 1 .824.128c.5.683.44 1.7-.137 2.321-.337.362-.867.555-1.417.555l.003-.006zM101.346 124.16a.588.588 0 0 1-.589-.577c-.194-9.257-1.02-18.683-2.393-27.263a.592.592 0 0 1 1.167-.187c1.382 8.633 2.212 18.115 2.405 27.425a.592.592 0 0 1-.577.602h-.013z" fill="#1A1A1A"/>
    <path d="M95.329 96.006c-9.414.384-23.313-4.558-29.385-11.762.234-.194.393-.35.477-.465 1.891-2.662-1.513-37.344 8.066-49.381 7.123-8.952 18.23-12.147 27.113-4.044 8.256 7.529 10.352 21.02 10.811 31.65.321 7.441.237 15.382 4.48 21.89.275.418-8.748 11.585-21.562 12.11v.002z" fill="#fff"/>
    <path d="M94.283 96.617c-4.524 0-9.962-1.108-15.113-3.095-5.907-2.28-10.765-5.438-13.679-8.895a.591.591 0 0 1 .075-.837c.275-.23.356-.327.371-.352.478-.67.571-5.214.665-9.607.122-5.806.29-13.76 1.257-21.123 1.158-8.81 3.174-14.92 6.166-18.68 2.05-2.577 4.386-4.654 6.942-6.18 2.62-1.563 5.344-2.468 8.093-2.69 4.643-.371 9.117 1.276 12.936 4.758 3.794 3.464 6.655 8.487 8.499 14.936 1.398 4.892 2.218 10.493 2.506 17.123.028.658.053 1.32.078 1.987.259 6.79.527 13.813 4.305 19.607.212.328.035.677-.025.793-.49.951-2.97 3.859-6.73 6.567-3.379 2.437-8.773 5.395-15.276 5.663-.349.016-.705.022-1.07.022v.003zM66.764 84.29c2.824 3.142 7.354 6.015 12.833 8.13 5.42 2.091 11.142 3.186 15.71 2.996 6.321-.26 11.575-3.195 14.87-5.613 3.566-2.615 5.594-5.114 6.056-5.844-3.8-6.016-4.069-13.098-4.331-19.95a403.76 403.76 0 0 0-.078-1.98c-.284-6.538-1.086-12.05-2.458-16.852-1.785-6.237-4.528-11.077-8.159-14.39-3.573-3.258-7.735-4.799-12.047-4.453-2.568.207-5.12 1.055-7.582 2.525-2.433 1.454-4.664 3.438-6.624 5.903-6.514 8.184-6.92 27.531-7.163 39.091-.131 6.28-.225 9.339-.883 10.265-.038.053-.084.11-.138.169l-.006.003z" fill="#1A1A1A"/>
    <path d="M94.748 68.93c-.752 0-1.5-.156-2.19-.475-1.688-.78-2.883-2.477-3.042-4.33a.59.59 0 0 1 1.176-.103c.122 1.416 1.07 2.764 2.362 3.36 1.292.596 2.933.44 4.09-.384a.59.59 0 1 1 .687.961 5.316 5.316 0 0 1-3.08.968l-.003.003zM88.59 53.838c-.774.088-1.383.861-1.227 1.554.153.693 1.018 1.158 1.773.964.334-.084.724-.4.889-.677.477-.808-.462-1.95-1.432-1.84h-.003z" fill="#1A1A1A"/>
    <path d="M88.777 56.99c-.393 0-.793-.113-1.139-.325-.446-.275-.749-.683-.852-1.145-.103-.471.013-.99.322-1.423.34-.477.858-.783 1.416-.846.727-.08 1.476.3 1.91.968.37.574.408 1.232.096 1.76-.255.43-.78.83-1.25.948-.163.04-.332.062-.5.062h-.003zm-.122-2.568a.852.852 0 0 0-.586.361c-.116.16-.163.334-.128.481.03.147.15.29.318.396a.972.972 0 0 0 .73.125c.165-.044.43-.246.524-.406.112-.193-.012-.427-.072-.517-.184-.284-.511-.465-.786-.437v-.003zM104.573 54.456c.752-.209 1.223-1.073.961-1.732-.262-.658-1.189-.976-1.903-.667-.315.137-.649.511-.768.814-.34.874.771 1.847 1.71 1.585z" fill="#1A1A1A"/>
    <path d="M104.246 55.09a2.123 2.123 0 0 1-1.554-.715c-.459-.509-.602-1.151-.378-1.722.181-.468.637-.946 1.08-1.14a2.15 2.15 0 0 1 1.663-.005c.487.2.849.552 1.026.992.178.449.147.98-.087 1.454a2.028 2.028 0 0 1-1.261 1.063 1.826 1.826 0 0 1-.486.066l-.003.006zm-.025-2.562a.906.906 0 0 0-.356.072c-.156.068-.387.315-.452.486-.082.21.081.418.152.5.225.249.584.377.846.302a.864.864 0 0 0 .521-.452c.087-.175.106-.356.05-.493-.056-.14-.193-.265-.378-.34a1.018 1.018 0 0 0-.383-.075zM67.772 52.584c.337.447.936.6 1.447.375 2.447-1.074 5.086-2.478 7.24-3.916 2.405-1.607 4.567-3.647 6.002-6.162 1.875-3.289 2.396-7.242 1.885-10.992-.365-2.683-1.286-5.18-2.48-7.575-2.7-5.41-9.673 2.1-11.81 4.492-2.818 3.158-4.836 7.09-5.42 11.283-.583 4.193.337 8.639 2.818 12.068.059.084.18.246.318.427z" fill="#1A1A1A"/>
    <path d="M68.73 53.65c-.55 0-1.08-.252-1.429-.71-.14-.185-.262-.353-.324-.438-2.484-3.435-3.551-7.99-2.927-12.495.568-4.094 2.543-8.212 5.563-11.595 4.187-4.689 7.547-6.901 9.994-6.577 1.195.16 2.13.905 2.783 2.212 1.373 2.752 2.203 5.292 2.536 7.76.562 4.128-.134 8.165-1.956 11.363-1.36 2.384-3.441 4.524-6.187 6.359-2.069 1.382-4.74 2.827-7.33 3.966a1.82 1.82 0 0 1-.726.153l.003.003zm10.387-30.666c-2.665 0-6.509 3.85-8.618 6.215-2.864 3.21-4.74 7.107-5.276 10.97-.583 4.206.406 8.449 2.711 11.64.06.082.175.241.31.416a.614.614 0 0 0 .739.19c2.527-1.11 5.132-2.52 7.148-3.866 2.593-1.731 4.549-3.737 5.816-5.962 1.694-2.977 2.34-6.746 1.812-10.62-.318-2.34-1.11-4.759-2.424-7.392-.474-.949-1.089-1.463-1.884-1.57a2.382 2.382 0 0 0-.337-.021h.003z" fill="#1A1A1A"/>
    <path d="M81.488 23.298a.605.605 0 0 1-.402-.156 174.172 174.172 0 0 1-5.507-5.338.591.591 0 0 1 .843-.827c1.775 1.8 3.615 3.582 5.469 5.301a.592.592 0 0 1-.403 1.023v-.003z" fill="#1A1A1A"/>
    <path d="M81.357 22.496a.589.589 0 0 1-.568-.433 14.093 14.093 0 0 1-.412-5.367.59.59 0 1 1 1.173.137 12.868 12.868 0 0 0 .378 4.915.59.59 0 0 1-.571.748z" fill="#1A1A1A"/>
    <path d="M81.69 22.122a.59.59 0 0 1-.555-.786 25.055 25.055 0 0 1 4.09-7.35.587.587 0 0 1 .83-.091.587.587 0 0 1 .091.83 23.924 23.924 0 0 0-3.897 7.007.586.586 0 0 1-.555.393l-.004-.003z" fill="#1A1A1A"/>
    <path d="M113.453 43.027c-.163 1.357-1.532 6.137-2.521 6.124-4.574-.053-10.621-1.341-14.459-3.84-3.906-2.543-7.223-5.963-9.7-9.907a32.367 32.367 0 0 1-3.086-6.34c-.808-2.255-1.697-4.758-1.944-7.141-.034-.34-.056-.693.047-1.02.256-.809 1.828-1.152 2.555-1.373 7.426-2.272 15.947-.637 21.966 4.271a22.264 22.264 0 0 1 2.1 1.944c4.592 4.836 5.631 12.318 5.042 17.282z" fill="#1A1A1A"/>
    <path d="M110.938 49.741h-.012c-4.422-.05-10.705-1.289-14.774-3.938-3.919-2.549-7.335-6.037-9.878-10.087a33.097 33.097 0 0 1-3.142-6.455c-.805-2.25-1.716-4.796-1.975-7.282-.04-.378-.069-.818.072-1.26.321-1.009 1.722-1.408 2.649-1.673.109-.031.209-.06.296-.087 3.741-1.146 7.819-1.342 11.794-.572 3.987.774 7.691 2.484 10.717 4.949a23.272 23.272 0 0 1 2.156 1.997c4.796 5.048 5.801 12.72 5.201 17.756-.084.705-.474 2.284-.979 3.707-.737 2.059-1.37 2.942-2.122 2.942l-.003.003zm-19.76-30.63c-2.277 0-4.526.328-6.657.98l-.316.094c-.47.134-1.719.49-1.847.895-.072.225-.05.509-.022.78.244 2.343 1.13 4.82 1.913 7.005a32.053 32.053 0 0 0 3.03 6.224c2.455 3.907 5.747 7.267 9.522 9.726 3.85 2.505 9.825 3.684 14.071 3.744.107-.09.534-.55 1.174-2.418.43-1.264.761-2.612.83-3.186.318-2.686.118-5.697-.565-8.477-.821-3.336-2.312-6.216-4.318-8.328a22.409 22.409 0 0 0-2.047-1.894c-2.874-2.343-6.4-3.968-10.193-4.705a24.065 24.065 0 0 0-4.565-.44h-.01z" fill="#1A1A1A"/>
    <path d="M68.615 56.1a4.991 4.991 0 0 1-.721-1.155c-.59-1.36-1.732-2.53-3.273-2.664-1.675-.147-3.086 1.08-3.819 2.39-1.055 1.88-1.245 4.059-1.123 6.171.075 1.301.268 2.63.939 3.803.674 1.174 1.9 2.175 3.376 2.38 1.66.235 2.433-.848 3.597-1.662 1.226-.858 2.537-.88 3.233-2.543.533-1.276.415-2.77-.153-4.031-.49-1.086-1.36-1.825-2.053-2.69h-.003z" fill="#fff"/>
    <path d="M64.359 67.644a3.08 3.08 0 0 1-.452-.031c-1.548-.219-2.97-1.217-3.804-2.674-.773-1.351-.951-2.883-1.017-4.066-.15-2.661.244-4.786 1.198-6.492.755-1.352 2.362-2.868 4.387-2.69 2.424.212 3.884 2.515 4.212 4.565a.592.592 0 0 1-1.167.187c-.259-1.613-1.354-3.42-3.151-3.576-1.466-.128-2.668 1.046-3.254 2.09-.855 1.53-1.189 3.386-1.052 5.85.063 1.118.215 2.416.864 3.545.646 1.127 1.773 1.925 2.946 2.09 1.198.17 2.955-.807 3.185-1.768a.59.59 0 0 1 1.149.274c-.34 1.423-2.319 2.693-4.047 2.693l.003.003z" fill="#1A1A1A"/>
    <path d="M115.194 47.869c-1.279-.49-2.952-.368-3.81.827-.418.58-.29 1.323-.664 1.875-.381.568-1.061.867-1.423 1.51-.502.89-.643 1.947-.577 2.964.065 1.02.33 2.012.589 3.002.181.68.5 1.491 1.195 1.582.284.037.568-.063.855-.085.712-.056 1.024.727 1.57 1.046.552.32 1.263.417 1.887.296 1.117-.219 1.985-1.017 2.456-1.922 1.632-3.123 1.922-9.56-2.084-11.095h.006z" fill="#fff"/>
    <path d="M114.323 61.526c-1.183 0-2.459-.609-2.815-1.726a.59.59 0 1 1 1.127-.358c.196.614 1.204 1.039 2.075.867.836-.162 1.603-.767 2.046-1.616.986-1.885 1.52-5.242.571-7.75-.477-1.26-1.263-2.11-2.343-2.521-.998-.384-2.043-.3-2.727.221-.564.428-.82 1.095-.745 1.935a.589.589 0 1 1-1.174.106c-.112-1.248.316-2.306 1.211-2.98 1.008-.761 2.487-.908 3.863-.38 1.385.53 2.43 1.64 3.023 3.207 1.07 2.83.474 6.602-.627 8.714-.609 1.164-1.679 1.997-2.867 2.228a3.29 3.29 0 0 1-.612.056l-.006-.003z" fill="#1A1A1A"/>
    <path d="M114.894 140.422c7.4-7.513 13.048-16.989 16.704-27.647-3.828-1.394-8.246-3.338-11.687-5.516-1.507-.952-3.155-2.399-2.818-4.15.297-1.535 2.097-2.377 3.654-2.218 3.797.39 12.252 3.947 16.305 4.343 4.278.421 9.407-2.125 13.304-3.551 5.825-2.134 11.582-4.848 17.863-5.223 1.054-.062 4.517.05 4.109 1.9-.29 1.311-15.204 6.924-18.764 7.882 7.051-2.187 17.478-6.087 24.367-5.838 1.064.038 2.481.506 2.353 1.563-.094.759-.961 1.124-1.697 1.339l-17.517 5.126c6.334-1.997 12.556-2.733 19.17-3.32 1.033-.09 2.156-.143 3.017.434.861.577 1.158 2.044.29 2.615l-1.257.552c-10.452 2.384-22.34 4.352-29.335 12.777-6.627 7.978-11.382 17.628-16.443 26.714 0 0-4.421.876-12.402-1.482-5.734-1.695-9.213-6.306-9.213-6.306l-.003.006z" fill="#fff"/>
    <path d="M134.157 148.962c-2.122 0-5.576-.296-10.218-1.669-5.853-1.729-9.37-6.321-9.516-6.515a.593.593 0 0 1 .05-.771c3.625-3.681 6.879-7.896 9.669-12.533 2.661-4.421 4.917-9.245 6.708-14.343-2.743-1.023-7.395-2.93-11.257-5.373-2.365-1.497-3.401-3.098-3.083-4.758.172-.886.755-1.647 1.644-2.146a4.585 4.585 0 0 1 2.649-.546c1.919.196 4.864 1.135 7.981 2.131 3.105.992 6.315 2.015 8.322 2.212 3.31.324 7.21-1.223 10.651-2.593.84-.334 1.632-.649 2.393-.927a163.99 163.99 0 0 0 3.358-1.276c4.677-1.806 9.513-3.675 14.673-3.98.331-.02 3.28-.157 4.365 1.12.356.414.478.932.353 1.494-.069.309-.181.817-3.657 2.427 3.142-.73 6.156-1.192 8.705-1.101.849.031 1.96.306 2.54.986.303.355.434.783.377 1.242-.152 1.26-1.631 1.691-2.115 1.834l-4.156 1.217c1.894-.225 3.76-.403 5.591-.565 1.164-.103 2.387-.146 3.401.531.655.44 1.077 1.248 1.073 2.062-.003.649-.29 1.207-.789 1.535a.487.487 0 0 1-.087.047l-1.258.552a.386.386 0 0 1-.106.034c-.926.213-1.881.425-2.808.628-9.812 2.177-19.959 4.427-26.205 11.949-5.392 6.493-9.591 14.2-13.651 21.651-.892 1.634-1.812 3.329-2.73 4.973a.573.573 0 0 1-.399.29c-.078.016-.92.175-2.468.175v.006zm-18.471-8.505c.971 1.123 4.078 4.374 8.587 5.706 5.847 1.726 10.149 1.76 11.859 1.514a793.026 793.026 0 0 0 2.587-4.715c4.087-7.5 8.315-15.26 13.781-21.84 2.917-3.513 6.926-6.234 12.252-8.318 4.665-1.826 9.719-2.946 14.605-4.031.905-.2 1.841-.409 2.746-.615l1.151-.506c.181-.14.222-.365.222-.53 0-.409-.228-.861-.549-1.076-.693-.465-1.682-.422-2.637-.337-5.36.477-11.035 1.079-16.798 2.639l-2.256.662a.59.59 0 0 1-.73-.397.588.588 0 0 1 .387-.733c.764-.24 1.526-.462 2.284-.668l15.244-4.461c.808-.237 1.236-.521 1.277-.846a.402.402 0 0 0-.103-.331c-.266-.308-.958-.546-1.685-.57-5.61-.206-13.754 2.443-20.296 4.567-.334.11-.665.216-.989.322-1.217.418-2.234.745-2.908.926a.589.589 0 0 1-.328-1.132c.896-.278 1.841-.581 2.833-.902a178.998 178.998 0 0 0 7.382-2.749c6.864-2.733 7.991-3.669 8.162-3.856a.467.467 0 0 0-.109-.412c-.508-.599-2.293-.774-3.398-.708-4.976.296-9.725 2.13-14.318 3.903-1.104.427-2.249.87-3.379 1.282-.745.272-1.528.584-2.362.915-3.566 1.416-7.606 3.023-11.204 2.667-2.131-.209-5.401-1.254-8.564-2.262-2.924-.933-5.944-1.897-7.744-2.081-1.267-.128-2.78.54-3.014 1.744-.275 1.417 1.238 2.705 2.552 3.538 4.037 2.552 8.986 4.518 11.575 5.46.303.11.462.443.356.746-1.847 5.379-4.203 10.465-7.001 15.114-2.743 4.555-5.928 8.717-9.47 12.374v-.003z" fill="#1A1A1A"/>
    <path d="M177.635 74.834c3.137-14.325-5.935-28.48-20.261-31.617-14.326-3.137-28.483 5.933-31.619 20.258-3.137 14.325 5.935 28.48 20.261 31.617 14.327 3.136 28.483-5.933 31.619-20.258z" fill="#FFDF8F"/>
    <path d="M151.671 90.158c-4.543 0-9.114-1.46-12.955-4.474a20.87 20.87 0 0 1-7.89-14.018 20.883 20.883 0 0 1 4.333-15.491c7.155-9.117 20.396-10.712 29.513-3.557a20.875 20.875 0 0 1 7.891 14.018 20.883 20.883 0 0 1-4.334 15.491c-4.14 5.276-10.321 8.034-16.558 8.034v-.003zm.04-40.838c-5.887 0-11.719 2.602-15.628 7.581a19.7 19.7 0 0 0-4.09 14.621 19.71 19.71 0 0 0 7.447 13.232c8.605 6.755 21.101 5.248 27.856-3.357a19.7 19.7 0 0 0 4.09-14.62 19.71 19.71 0 0 0-7.447-13.233 19.748 19.748 0 0 0-12.228-4.224z" fill="#1A1A1A"/>
    <path d="M151.715 79.9c-2.125 0-4.187-.81-6.047-1.54-.19-.076-.378-.15-.565-.222a.592.592 0 0 1 .428-1.101c.19.074.377.146.571.224 2.246.883 4.571 1.797 6.876 1.342 2.69-.534 4.038-2.231 4.375-3.526.421-1.616-.178-3.332-1.457-4.172-1.011-.661-2.546-.92-4.175-1.198-1.576-.268-3.208-.543-4.477-1.229-1.539-.833-2.297-2.119-2.319-3.931-.043-3.66 3.916-5.485 6.743-5.613 1.806-.081 3.544.252 5.641 1.089a.594.594 0 0 1 .331.767.594.594 0 0 1-.768.33c-1.931-.77-3.519-1.079-5.151-1.004-1.348.063-2.774.534-3.819 1.264-.83.58-1.813 1.597-1.794 3.157.034 2.827 2.218 3.401 5.813 4.01 1.675.284 3.407.577 4.624 1.372 1.697 1.111 2.499 3.355 1.953 5.454-.3 1.145-1.008 2.172-2.053 2.964-.911.693-2.031 1.186-3.236 1.423-.499.1-.995.144-1.491.144l-.003-.004z" fill="#1A1A1A"/>
    <path d="M152.052 82.78a.59.59 0 0 1-.59-.587c-.043-8.667.11-17.45.456-26.108a.591.591 0 0 1 .615-.565c.324.012.58.287.564.615a575.786 575.786 0 0 0-.455 26.052.591.591 0 0 1-.587.593h-.003zM171.236 43.189c-.025 0-.05 0-.075-.004a.587.587 0 0 1-.511-.658l1.763-14.18a.589.589 0 1 1 1.17.147l-1.763 14.18a.59.59 0 0 1-.584.518v-.003zM177.539 45.984a.587.587 0 0 1-.518-.87 41.167 41.167 0 0 1 8.144-10.537.59.59 0 0 1 .805.86 40.005 40.005 0 0 0-7.91 10.238.59.59 0 0 1-.521.309zM181.791 53.067a.589.589 0 0 1-.318-1.086l6.608-4.25a.59.59 0 0 1 .637.992l-6.608 4.25a.602.602 0 0 1-.319.094zM86.734 46.84a.715.715 0 0 1-.662-.44c-1.417-3.455-2.446-9.24-1.568-13.167a.714.714 0 0 1 1.392.303c-.816 3.648.164 9.074 1.5 12.33a.709.709 0 0 1-.662.974z" fill="#1A1A1A"/>
    <path d="M97.662 50.107a.674.674 0 0 1-.303-.074c-8.03-4.23-12.091-9.327-13.171-16.525-.059-.39.194-.759.563-.82.37-.062.72.205.777.595.54 3.603 1.89 6.619 4.124 9.224 1.982 2.315 4.625 4.297 8.313 6.242.335.177.47.607.303.96a.68.68 0 0 1-.61.398h.004z" fill="#1A1A1A"/>
    <path d="M93.983 95.735c.161.114.35.243.566.384 2.724 1.787 9.549 5.417 19.706 5.174a25.696 25.696 0 0 0 3.305-.289 16.149 16.149 0 0 0 3.169-.818h.003c.347-.13.674-.27.981-.419 4.166-2.001 4.854-5.433 4.937-7.003a5.147 5.147 0 0 0-.008-.829c-5.005-3.82-8.233-6.487-9.767-8.06a5.414 5.414 0 0 1-.296.443c-.008.013-.019.023-.027.037-.93 1.252-3.17 3.603-6.301 5.825-1.979 1.398-4.647 2.976-7.824 4.09a25.699 25.699 0 0 1-4.38 1.13c-.968.163-1.965.269-2.992.311h-.008c-.345.013-.698.024-1.056.024h-.008z" fill="#fff" stroke="#1A1A1A" stroke-miterlimit="10"/>
    <path d="M59.125 89.388s.099.22.306.605c1.338 2.494 7.197 11.864 19.809 12.387 7.503.313 14.527-4.905 16.42-6.441.288-.231.456-.377.493-.409l.008-.008c-.343.013-.694.024-1.05.024h-.009c-4.438 0-9.778-1.088-14.833-3.032-5.47-2.107-10.025-4.977-12.922-8.14a9.346 9.346 0 0 1-.447-.499c-.58.422-1.347.96-2.35 1.659-1.5 1.042-3.35 2.329-5.425 3.854z" fill="#fff" stroke="#1A1A1A" stroke-miterlimit="10"/>
    <defs>
        <linearGradient id="oa22bcw5ga" x1="156.661" y1="155.65" x2="109.893" y2="144.616" gradientUnits="userSpaceOnUse">
            <stop stop-color="#00BBB6"/>
            <stop offset=".1" stop-color="#0CBEB8"/>
            <stop offset=".995" stop-color="#ACEFE3"/>
        </linearGradient>
        <linearGradient id="k7sish1s3b" x1="123.73" y1="126.677" x2="16.636" y2="106.17" gradientUnits="userSpaceOnUse">
            <stop stop-color="#00BBB6"/>
            <stop offset=".1" stop-color="#0CBEB8"/>
            <stop offset=".995" stop-color="#ACEFE3"/>
        </linearGradient>
    </defs>
</svg>
