<svg width="210" height="192" viewBox="0 0 210 192" fill="none" xmlns="http://www.w3.org/2000/svg">
    <path d="M122.984 36.005c.542 3.067.615 6.315.829 9.178.786 10.447-2.775 21.057-.309 31.428 1.259 5.285 2.234 8.035 7.177 9.887 7.722 2.892 1.015 3.91-1.542 6.722-2.732 3-7.614 5.442-11.146 7.606-4.205 2.572-12.12 11.407-17.1 11.669-6.653.349-12.615-3.947-16.943-8.588-2.481-2.659-15.798-9.927-14.441-14.94 0 0 9.137-2.96 10.301-5.58 1.55-3.48 1.612-8.154 1.692-11.897.17-7.814-1.073-15.89-.968-23.513.167-12.295 2.28-23.724 17.602-26.572 10.054-1.87 18.682 1.116 23.007 8.97.932 1.691 1.488 3.623 1.845 5.63h-.004z" fill="#fff"/>
    <path d="M100.126 113.15c-6.94 0-12.851-4.744-16.645-8.81-.644-.692-2.16-1.779-3.918-3.041-4.965-3.565-11.767-8.45-10.672-12.499a.642.642 0 0 1 .418-.44c3.427-1.113 9.152-3.514 9.916-5.234 1.455-3.274 1.553-7.755 1.63-11.353l.007-.302c.087-3.994-.204-8.126-.48-12.12-.266-3.765-.539-7.66-.488-11.386.077-5.569.513-11.956 3.19-17.11 2.82-5.439 7.705-8.734 14.932-10.076 5.129-.953 9.967-.651 13.994.87 4.234 1.6 7.493 4.433 9.686 8.42.873 1.59 1.499 3.496 1.914 5.827.407 2.31.549 4.678.687 6.966.048.793.095 1.542.149 2.277.335 4.434-.109 8.945-.538 13.302-.586 5.951-1.193 12.106.215 18.028 1.28 5.384 2.251 7.744 6.78 9.44 2.714 1.014 3.91 1.89 4.009 2.927.112 1.175-1.164 1.957-2.645 2.86-.931.567-1.986 1.215-2.663 1.957-2.2 2.418-5.721 4.463-8.824 6.267-.869.506-1.692.982-2.455 1.451-1.375.841-3.223 2.427-5.18 4.107-4.078 3.499-8.701 7.468-12.219 7.653a14.1 14.1 0 0 1-.796.022l-.004-.003zM70.058 89.451c-.37 3.19 5.991 7.76 10.247 10.815 1.888 1.353 3.376 2.422 4.107 3.204 3.754 4.023 9.65 8.748 16.445 8.388 3.085-.163 7.726-4.146 11.455-7.347 1.997-1.714 3.885-3.332 5.347-4.227a123.58 123.58 0 0 1 2.481-1.466c3.026-1.76 6.456-3.754 8.522-6.028.801-.876 1.936-1.57 2.939-2.186.826-.505 2.077-1.27 2.041-1.655-.011-.116-.215-.742-3.19-1.858-5.34-2.001-6.355-5.231-7.57-10.335-1.458-6.129-.84-12.389-.243-18.446.425-4.306.862-8.759.538-13.084-.055-.745-.102-1.498-.149-2.295-.135-2.252-.277-4.58-.673-6.82-.386-2.19-.968-3.969-1.775-5.435-4.063-7.38-12.204-10.534-22.334-8.653-6.817 1.266-11.408 4.347-14.038 9.41-2.553 4.922-2.971 11.123-3.048 16.543-.05 3.67.222 7.54.484 11.28.28 4.023.575 8.185.484 12.237l-.008.302c-.08 3.714-.178 8.337-1.738 11.843-1.146 2.58-8.443 5.173-10.33 5.81l.006.003z" fill="#1A1A1A"/>
    <path d="M122.955 50.937c-.015-1.691 2.186-2.688 3.714-2.048 1.528.64 2.455 2.321 2.87 3.976.447 1.79.429 3.729-.309 5.358-.739 1.63-2.256 2.892-4.002 3.03-1.746.139-3.63-1-4.212-2.753l1.939-7.563z" fill="#fff"/>
    <path d="M124.937 61.9c-1.073 0-2.167-.392-3.048-1.105a.636.636 0 1 1 .801-.99c.712.575 1.644.88 2.491.815 1.43-.113 2.794-1.157 3.47-2.659.626-1.386.724-3.14.27-4.943-.211-.84-.877-2.863-2.499-3.543-.641-.27-1.492-.164-2.125.262-.265.178-.713.574-.709 1.193 0 .353-.28.636-.629.64h-.008a.635.635 0 0 1-.636-.63c-.007-.887.455-1.713 1.269-2.262.986-.662 2.292-.811 3.325-.378 1.517.636 2.699 2.24 3.241 4.405.52 2.08.4 4.132-.346 5.776-.869 1.917-2.644 3.252-4.528 3.401a5.265 5.265 0 0 1-.342.015l.003.004z" fill="#1A1A1A"/>
    <path d="M82.19 52.2c-.205-1.681-3.417-2.903-4.948-2.07-1.531.833-2.292 2.622-2.517 4.317-.24 1.834.033 3.762 1.022 5.282.993 1.524 2.76 2.58 4.623 2.492 1.252-.058 2.492-.699 3.289-1.659L82.185 52.2h.004z" fill="#fff"/>
    <path d="M80.163 62.865c-1.913 0-3.83-1.073-4.947-2.787-1.004-1.542-1.404-3.572-1.12-5.714.29-2.223 1.328-3.969 2.84-4.794 1.06-.575 2.343-.662 3.347-.222.88.385 1.502 1.142 1.754 2.131a.632.632 0 0 1-.459.772.632.632 0 0 1-.771-.459c-.156-.618-.506-1.047-1.033-1.28-.655-.284-1.51-.218-2.23.174-1.637.892-2.077 2.983-2.19 3.842-.243 1.84.088 3.564.928 4.852.92 1.411 2.514 2.277 4.06 2.204a3.924 3.924 0 0 0 1.556-.422.636.636 0 1 1 .575 1.135 5.236 5.236 0 0 1-2.07.56c-.08.004-.16.008-.24.008zM95.317 55.637a.633.633 0 0 1-.611-.466c-.208-.749-.946-1.338-1.72-1.371-.776-.033-1.565.487-1.834 1.215a.64.64 0 0 1-.819.374.64.64 0 0 1-.374-.818c.462-1.24 1.757-2.102 3.08-2.04 1.325.058 2.54 1.025 2.893 2.302a.636.636 0 0 1-.615.804zM112.821 56.525a.634.634 0 0 1-.608-.451c-.225-.742-.982-1.31-1.757-1.325h-.025c-.768 0-1.528.539-1.775 1.266a.639.639 0 0 1-.808.397.638.638 0 0 1-.396-.808c.425-1.236 1.669-2.124 2.979-2.124h.047c1.324.022 2.568.957 2.954 2.223a.636.636 0 0 1-.608.822h-.003zM101.861 69.02h-.069c-1.935-.033-3.75-1.401-4.318-3.253a.637.637 0 0 1 .422-.793.636.636 0 0 1 .793.422c.404 1.317 1.746 2.328 3.121 2.35 1.379.018 2.754-.942 3.198-2.244a.637.637 0 0 1 .807-.397.64.64 0 0 1 .397.808c-.619 1.808-2.441 3.106-4.354 3.106h.003zM100.974 33.605a11.477 11.477 0 0 1-1.612-2.016c-3.885-6.26.811-12.956 7.726-12.822 5.715.11 11.789 3.947 14.758 8.767 2.058 3.342 2.986 7.282 3.11 11.178.062 1.953-.335 5.823-1.033 9.137-2.005-3.055-16.002-9.367-19.105-11.302-1.371-.854-2.713-1.804-3.848-2.946l.004.004z" fill="#1A1A1A"/>
    <path d="M123.926 48.49a.636.636 0 0 1-.531-.288c-1.324-2.019-8.894-5.89-13.902-8.45-2.274-1.164-4.071-2.08-5.006-2.663-1.695-1.058-2.953-2.022-3.961-3.037a11.979 11.979 0 0 1-1.699-2.128c-1.855-2.986-2-6.311-.403-9.12 1.68-2.953 5.008-4.739 8.682-4.67 2.87.055 5.886.993 8.723 2.71 2.717 1.644 5.049 3.903 6.562 6.359 1.957 3.175 3.067 7.15 3.205 11.49.069 2.132-.382 6.126-1.044 9.29a.638.638 0 0 1-.622.506h-.004zm-22.498-15.333c.939.946 2.124 1.852 3.732 2.856.888.553 2.75 1.506 4.911 2.608 4.954 2.531 10.96 5.601 13.477 7.871.571-3.12.829-6.22.778-7.758-.134-4.122-1.178-7.88-3.019-10.866-2.957-4.801-8.941-8.362-14.226-8.464-3.208-.058-6.104 1.48-7.552 4.03-1.36 2.39-1.222 5.242.379 7.82.411.663.909 1.285 1.52 1.903z" fill="#1A1A1A"/>
    <path d="m99.704 24.983.01-.17c.073-1.073.954-2.67.499-3.663-1.764-3.86-7.7-1.339-10.33.058-4.486 2.379-8.028 6.65-9.505 11.574-1.474 4.911-1.866 11.531.276 16.296 0 0 8.727-4.768 11.407-7.93 3.623-4.273 7.243-10.785 7.64-16.16l.003-.005z" fill="#1A1A1A"/>
    <path d="M80.658 49.711a.638.638 0 0 1-.582-.375c-2.361-5.241-1.64-12.294-.306-16.74 1.506-5.023 5.176-9.49 9.818-11.952 4.914-2.608 7.657-2.317 8.854-1.91 1.076.364 1.866 1.088 2.353 2.15.389.851.091 1.877-.171 2.786-.127.444-.251.862-.273 1.182l-.011.175c-.189 2.572-1.113 5.59-2.673 8.73-1.364 2.746-3.18 5.515-5.115 7.795-2.724 3.216-11.225 7.88-11.585 8.075a.646.646 0 0 1-.306.077l-.003.007zm16.008-29.958c-1.273 0-3.382.37-6.482 2.015-4.346 2.306-7.784 6.49-9.195 11.196-1.215 4.056-1.906 10.36-.019 15.212 2.023-1.142 8.443-4.881 10.611-7.439 3.448-4.066 7.1-10.527 7.49-15.797l.01-.168c.03-.458.172-.942.32-1.455.2-.694.43-1.484.237-1.906-.338-.738-.862-1.222-1.604-1.473-.222-.076-.67-.185-1.368-.185z" fill="#1A1A1A"/>
    <path d="M100.173 43.903a.637.637 0 0 1-.589-.397c-1.262-3.11-2.179-8.319-1.397-11.855a.636.636 0 0 1 1.24.273c-.727 3.285.146 8.17 1.336 11.102a.64.64 0 0 1-.59.877z" fill="#1A1A1A"/>
    <path d="M110.736 46.285a.655.655 0 0 1-.283-.066c-7.516-3.75-11.317-8.267-12.328-14.648a.637.637 0 0 1 .527-.727.637.637 0 0 1 .728.527c.506 3.194 1.768 5.868 3.859 8.177 1.855 2.052 4.329 3.809 7.781 5.533a.636.636 0 0 1-.287 1.204h.003zM105.037 17.629c4.532-1.805 9.879-1.088 14.03 1.476 4.15 2.561 7.118 6.824 8.548 11.488 1.426 4.663 1.382 9.704.353 14.47 7.1-3.649 12.185-11.368 12.378-19.345.193-7.98-3.987-15.863-10.527-20.435-6.544-4.573-15.223-5.81-22.876-3.54-4.907 1.456-9.727 4.711-11.102 9.644-.586 2.102-.364 4.656 1.32 6.045 1.048.87 2.496 1.131 3.853 1.008 1.356-.124 2.757-.31 4.023-.811z" fill="#1A1A1A"/>
    <path d="M127.964 45.7a.631.631 0 0 1-.619-.771c1.081-5.002.964-9.895-.338-14.15-1.444-4.722-4.46-8.782-8.272-11.135-4.125-2.546-9.283-3.092-13.462-1.426-1.342.535-2.812.727-4.201.855-1.7.156-3.23-.251-4.315-1.15-2.037-1.684-2.095-4.667-1.527-6.707 1.266-4.547 5.576-8.316 11.531-10.083 3.87-1.15 8.068-1.43 12.131-.815 4.121.622 8.024 2.16 11.291 4.441 3.313 2.317 6.078 5.486 7.991 9.167 1.935 3.725 2.906 7.806 2.808 11.803-.196 8.09-5.31 16.086-12.724 19.898a.635.635 0 0 1-.291.069l-.003.003zM110.391 16c3.092 0 6.264.872 9.006 2.564 4.071 2.513 7.286 6.83 8.821 11.843 1.248 4.078 1.463 8.698.63 13.437 6.372-3.812 10.683-10.938 10.858-18.14.09-3.783-.83-7.65-2.667-11.189-1.819-3.5-4.441-6.511-7.591-8.712-3.107-2.171-6.824-3.634-10.753-4.227-3.881-.585-7.882-.32-11.578.779-5.533 1.64-9.52 5.081-10.669 9.203-.465 1.673-.454 4.088 1.113 5.387 1.113.92 2.601.938 3.387.866 1.295-.12 2.655-.295 3.848-.772 1.75-.698 3.656-1.04 5.595-1.04z" fill="#1A1A1A"/>
    <path d="M100.752 17.927c1.997.04 3.95.484 3.557 1.324-.105.23-.509.396-.945.47-.437.072-.903.065-1.357.057l-2.816-.043c-.887-.015-2-.113-2.237-.553-.476-.884 1.688-1.299 3.798-1.255z" fill="#fff"/>
    <path d="M102.407 20.418c-.139 0-.277 0-.408-.003l-2.815-.044c-1.633-.025-2.466-.29-2.79-.887-.193-.36-.19-.757.01-1.088.215-.353 1.074-1.171 4.359-1.11 1.258.026 3.459.211 4.066 1.183.2.32.222.694.058 1.047-.258.56-1 .76-1.418.83-.353.058-.72.072-1.066.072h.004zm-4.704-1.484c.226.07.666.153 1.499.164l2.815.044c.422.007.863.014 1.244-.051.121-.022.222-.048.302-.073-.378-.186-1.287-.43-2.822-.458-1.564-.03-2.597.185-3.038.374z" fill="#fff"/>
    <path d="M168.1 111.418c-10.13-12.09-24.084-20.308-38.888-25.35-4.9 10-15.664 16.842-26.798 17.031-11.134.189-22.123-6.285-27.358-16.11-16.663 5.46-32.956 13.924-43.864 27.652-10.91 13.728-15.39 33.501-7.708 49.266 5.147 10.567 15.124 18.257 26.102 22.455 10.979 4.197 22.935 5.194 34.688 4.961 9.6-.189 19.289-1.193 28.347-4.376 6.791-2.386 13.237-6.085 18.347-11.108 4.013 5.83 9.884 10.592 16.773 12.189 9.45 2.19 19.697-2.019 26.099-9.305 6.402-7.286 9.258-17.205 9.367-26.903.163-14.681-5.671-29.144-15.1-40.395l-.007-.007z" fill="url(#tcdqgkzuea)"/>
    <path d="M89.66 155.676c-.425-.259-.902-.641-.829-1.132.08-.516.699-.727 1.211-.829 3.325-.669 7.48-1.084 10.804-1.753-.055-2.703-.222-5.697.684-8.247.233-.658.564-1.375 1.218-1.626.564-.214 1.222 0 1.688.386.466.389.775.924 1.077 1.448 1.146 1.993 3.092 5.311 4.237 7.304 3.052-.146 11.47-1.328 12.095-.739 1.335 1.255-5.518 7.876-6.791 9.851 1.64 2.972 4.965 11.658 4.303 11.705-.662.051-1.313-.189-1.928-.44a34.974 34.974 0 0 1-7.682-4.343c-.106-.08-5.813 10.265-7.934 9.141-1.669-.884-1.553-5.252-1.444-6.835.186-2.677 1.015-5.267 1.837-7.824-.058.124-8.846-3.823-12.546-6.075v.008z" fill="#FEC729"/>
    <path d="M102.163 177.133c-.226 0-.44-.051-.644-.16-1.928-1.018-1.943-5.1-1.782-7.438.178-2.558.916-5.009 1.673-7.381a64.094 64.094 0 0 1-.99-.422c-.982-.429-2.211-.989-3.459-1.575-1.931-.909-5.493-2.63-7.635-3.932-.848-.517-1.226-1.113-1.128-1.772.106-.691.684-1.149 1.717-1.356 1.68-.339 3.59-.615 5.435-.881 1.64-.236 3.328-.483 4.848-.767v-.222c-.061-2.481-.127-5.293.732-7.712.269-.753.691-1.662 1.589-2.004.731-.28 1.623-.091 2.321.495.556.465.909 1.077 1.218 1.619.572.993 1.357 2.342 2.118 3.648.676 1.164 1.374 2.361 1.924 3.314 1.004-.066 2.433-.211 3.939-.364 6.329-.64 7.715-.673 8.239-.182 1.284 1.208-.818 3.805-4.438 7.937-.818.935-1.6 1.826-2.04 2.419.753 1.444 1.808 3.885 2.757 6.388 1.815 4.801 1.568 5.259 1.419 5.532a.713.713 0 0 1-.571.375c-.801.062-1.535-.207-2.216-.484a35.413 35.413 0 0 1-7.278-4.027 26.2 26.2 0 0 1-.222.357c-3.169 5.147-5.697 8.603-7.526 8.603v-.008zm.116-16.012a.635.635 0 0 1 .535.826c-.8 2.484-1.626 5.056-1.808 7.671-.226 3.256.218 5.758 1.106 6.228.007 0 .698.254 2.932-2.652 1.407-1.83 2.808-4.107 3.561-5.329.716-1.164.72-1.164 1.022-1.222a.635.635 0 0 1 .502.116 34.218 34.218 0 0 0 7.54 4.263c.35.142.71.28 1.066.353-.163-.713-.607-2.161-1.484-4.452-.978-2.554-2.059-5.016-2.753-6.271a.634.634 0 0 1 .021-.651c.411-.637 1.317-1.674 2.365-2.87 1.076-1.233 2.302-2.627 3.208-3.849 1.088-1.466 1.262-2.081 1.284-2.284-.953-.153-4.834.24-7.21.48-1.727.175-3.357.342-4.39.389a.638.638 0 0 1-.582-.32 859.764 859.764 0 0 0-2.117-3.648c-.76-1.306-1.546-2.659-2.121-3.656-.269-.469-.549-.957-.931-1.277-.28-.233-.713-.411-1.051-.28-.415.16-.669.749-.848 1.244-.782 2.201-.724 4.773-.665 7.257.007.255.011.509.018.76a.634.634 0 0 1-.509.637c-1.68.338-3.59.615-5.439.884-1.83.265-3.72.538-5.368.869-.568.113-.703.266-.71.302 0 0 0 .171.531.495 3.514 2.142 11.404 5.696 12.288 5.987h.007zm-.462.131zM151.218 157.778c-3.197 0-5.747-2.455-7.58-7.307-1.503-3.976-2.208-8.694-2.63-11.51-.044-.294-.084-.567-.124-.814-.545-3.554-.716-8.359-.491-13.888a.638.638 0 0 1 .633-.612h.026c.349.015.622.31.611.663-.222 5.449-.055 10.166.476 13.644.04.251.08.527.124.822.796 5.336 2.652 17.733 8.963 17.733.087 0 .171 0 .258-.008 1.448-.076 3.226-1.153 3.881-3.953 1.033-4.416.095-10.011-2.226-13.303a.635.635 0 0 1 .153-.887.635.635 0 0 1 .887.152c2.514 3.565 3.532 9.589 2.427 14.325-.535 2.284-2.143 4.78-5.053 4.932-.113.008-.226.008-.338.008l.003.003z" fill="#1A1A1A"/>
    <path d="M81.17 191.989c-12.701 0-22.872-1.615-31.813-5.034-5.765-2.205-10.952-5.213-15.42-8.945-4.804-4.016-8.515-8.664-11.028-13.822-3.71-7.614-4.805-16.529-3.172-25.787 1.517-8.599 5.409-17.176 10.952-24.153 5.148-6.475 11.855-12.218 19.945-17.074 6.933-4.162 15.081-7.792 24.218-10.786a.639.639 0 0 1 .76.306c5.126 9.621 15.886 15.965 26.787 15.776 10.898-.186 21.443-6.886 26.238-16.674a.637.637 0 0 1 .774-.324c7.781 2.648 14.958 6.045 21.334 10.098 6.944 4.412 12.946 9.606 17.839 15.444 4.834 5.769 8.621 12.193 11.254 19.094 2.732 7.158 4.074 14.462 3.994 21.716-.12 10.759-3.503 20.461-9.523 27.317a30.265 30.265 0 0 1-12.164 8.381c-4.874 1.812-9.905 2.201-14.557 1.121-3.448-.801-6.758-2.387-9.839-4.718-2.856-2.161-5.38-4.856-7.505-8.006-3.539-5.246-6.041-11.655-7.882-20.17-2.361-10.917-3.121-21.84-2.27-32.469a.636.636 0 0 1 1.266.102c-.844 10.505-.091 21.305 2.244 32.101 1.805 8.352 4.249 14.619 7.694 19.73 2.018 2.994 4.514 5.656 7.217 7.704 2.935 2.223 6.081 3.732 9.355 4.492 4.405 1.023 9.189.652 13.826-1.076a29.036 29.036 0 0 0 11.651-8.028c5.82-6.628 9.09-16.034 9.21-26.492.081-7.093-1.236-14.241-3.91-21.247-2.582-6.769-6.296-13.07-11.04-18.73-4.808-5.736-10.712-10.847-17.543-15.19-6.151-3.906-13.059-7.198-20.538-9.785-5.11 9.934-15.928 16.697-27.107 16.886l-.483.003c-11.018 0-21.829-6.354-27.19-15.983C65.9 90.7 58.01 94.231 51.284 98.27c-7.959 4.779-14.554 10.421-19.603 16.776-5.416 6.816-9.217 15.19-10.697 23.585-1.586 8.992-.528 17.639 3.062 25.008 2.434 4.998 6.035 9.509 10.702 13.405 4.296 3.59 9.501 6.609 15.055 8.733 9.502 3.634 20.447 5.195 34.448 4.918a172.02 172.02 0 0 0 3.204-.094.638.638 0 0 1 .05 1.273c-1.039.043-2.127.072-3.232.094-1.055.022-2.092.033-3.114.033l.01-.011z" fill="#1A1A1A"/>
    <path d="M86.532 174.58h-.04a73.374 73.374 0 0 1-5.103-.509c-7.548-1.015-15.405-4.751-22.113-10.516-6.85-5.886-10.498-14.248-9.516-21.833a.636.636 0 1 1 1.263.164c-.928 7.162 2.553 15.096 9.083 20.705 6.525 5.605 14.146 9.235 21.454 10.217 1.698.23 3.386.397 5.016.502a.637.637 0 0 1-.04 1.274l-.004-.004z" fill="#1A1A1A"/>
    <path d="M124.905 95.664c-.648.364-1.492.71-2.077.254-.615-.48-.437-1.44-.197-2.182 1.557-4.82 4.045-10.53 5.606-15.347-3.558-1.906-7.581-3.87-10.236-6.907-.688-.786-1.379-1.739-1.226-2.772.131-.895.891-1.593 1.735-1.913.844-.32 1.768-.335 2.67-.346 3.43-.036 9.174-.15 12.604-.185 2.037-4.082 6.646-15.904 7.868-16.29 2.608-.821 6.224 12.936 7.868 16.031 5.067.033 18.802 2.045 18.384 2.943-.419.902-1.201 1.571-1.979 2.19a52.097 52.097 0 0 1-11.262 6.831c-.178.08 9.123 15.063 6.111 17.005-2.368 1.528-7.973-1.811-9.952-3.11-3.354-2.197-6.118-5.165-8.847-8.1.121.167-11.432 8.726-17.07 11.902v-.004z" fill="#FEC729"/>
    <path d="M123.501 96.773c-.36 0-.728-.094-1.062-.352-.71-.553-.848-1.524-.412-2.881.786-2.426 1.816-5.11 2.816-7.705.924-2.4 1.873-4.877 2.626-7.136-.174-.095-.349-.186-.527-.28-3.409-1.808-6.93-3.674-9.418-6.522-.785-.903-1.568-1.994-1.375-3.285.153-1.048.975-1.972 2.139-2.415.96-.368 1.986-.379 2.892-.386 1.713-.018 4.045-.055 6.296-.09 2.088-.034 4.242-.07 5.915-.088.658-1.364 1.553-3.416 2.492-5.58 3.426-7.886 4.641-10.389 5.583-10.683 2.237-.706 4.107 4.048 6.708 11.381.687 1.94 1.291 3.645 1.75 4.627 2.375.058 6.503.477 10.486 1.077 7.436 1.117 7.85 1.771 8.025 2.048a.753.753 0 0 1 .051.716c-.477 1.026-1.328 1.757-2.161 2.42a52.523 52.523 0 0 1-10.8 6.641c.131.24.295.535.466.844 5.733 10.294 7.217 15.041 5.129 16.387-2.681 1.732-8.341-1.6-10.647-3.11-3.256-2.131-5.948-4.958-8.53-7.733-.313.254-.782.618-1.492 1.157a206.476 206.476 0 0 1-4.568 3.346c-2.59 1.848-7.417 5.224-10.665 7.053-.291.164-.986.557-1.721.557l.004-.008zm18.376-46.2c-.796.695-3.317 6.493-4.834 9.982-1.029 2.371-2.004 4.612-2.692 5.987a.634.634 0 0 1-.563.353c-1.714.018-4.045.055-6.297.091-2.255.036-4.587.076-6.304.094-.836.008-1.706.019-2.451.302-.724.277-1.248.83-1.332 1.412-.116.778.48 1.579 1.077 2.262 2.332 2.67 5.751 4.482 9.057 6.235.339.178.673.356 1.004.535.273.145.4.462.306.756-.786 2.427-1.815 5.111-2.816 7.708-.993 2.58-2.015 5.25-2.79 7.643-.251.774-.258 1.302-.018 1.487.229.179.706.073 1.375-.305 5.427-3.056 15.947-10.833 16.849-11.695a.633.633 0 0 1 .997-.084c2.666 2.87 5.423 5.835 8.73 8.003 3.223 2.11 7.58 4.19 9.261 3.106.542-.349.513-2.146-1.197-6.143-1.36-3.18-3.31-6.679-4.354-8.56-.616-1.105-.89-1.761-.822-1.967a.64.64 0 0 1 .346-.382 51.443 51.443 0 0 0 11.123-6.748c.578-.462 1.168-.956 1.561-1.542-2.183-.826-12.753-2.426-17.577-2.459a.63.63 0 0 1-.556-.338c-.521-.979-1.201-2.903-1.99-5.13-.895-2.524-1.91-5.383-2.921-7.543-1.331-2.834-2.019-3.045-2.172-3.052v-.008zm-.513 33.357z" fill="#1A1A1A"/>
    <path d="M120.732 123.328c1.27-15.813 6.155-31.156 14.972-45.044 1.259-1.986 2.314-4.158 3.9-5.918 1.728-1.917 3.303-.19 3.124 2.135-.138 1.772-5.503 12.244-7.118 15.681 1.611-3.43 7.508-16.958 10.981-16.132 1.699.404.659 4.103-.411 6.05-1.873 3.404-3.87 7.5-5.445 10.872 2.699-4.896 8.432-17.908 10.92-16.31 1.753 1.127.127 5.856-1.688 9.53-1.644 3.328-3.368 7.23-4.507 11.872-2.331 6.744-4.019 18.141-4.427 28.213 0 0-4.026 1.957-11.072 1.364-4.613-.386-9.225-2.317-9.225-2.317l-.004.004z" fill="#fff"/>
    <path d="M132.595 126.394a33.35 33.35 0 0 1-2.689-.113c-4.659-.389-9.224-2.284-9.417-2.364a.635.635 0 0 1-.389-.637c1.32-16.408 6.387-31.66 15.07-45.334.36-.567.709-1.164 1.051-1.739.859-1.458 1.746-2.964 2.914-4.263.396-.44 1.451-1.408 2.67-.884 1.058.455 1.684 1.859 1.56 3.492a3.499 3.499 0 0 1-.156.71c1.244-1.38 2.437-2.085 3.532-1.826.527.127.927.465 1.16.985.229.517.269 1.186.189 1.903.972-1.31 1.859-2.15 2.663-2.368.447-.124.88-.062 1.248.174 1.047.673 1.305 2.183.767 4.489-.378 1.633-1.171 3.714-2.233 5.86-1.463 2.96-3.292 6.973-4.46 11.746a.387.387 0 0 1-.018.054c-2.208 6.38-3.972 17.646-4.391 28.031a.632.632 0 0 1-.356.545c-.149.073-3.245 1.539-8.712 1.539h-.003zm-11.189-3.485c1.233.473 4.947 1.797 8.606 2.103 5.631.473 9.305-.731 10.4-1.161.458-10.523 2.189-21.457 4.434-27.961 1.2-4.878 3.059-8.963 4.547-11.975 2.193-4.445 2.982-8.028 1.913-8.715-.04-.026-.098-.051-.226-.019-.433.117-1.466.83-3.539 4.285-1.444 2.405-2.935 5.351-4.249 7.945-.774 1.531-1.444 2.852-2.004 3.87a.636.636 0 0 1-1.131-.578c1.375-2.947 3.441-7.232 5.463-10.913.855-1.557 1.525-3.932 1.114-4.86-.084-.192-.19-.24-.291-.265-.484-.116-1.936.17-4.984 5.293a63.18 63.18 0 0 0-1.302 2.306 521.446 521.446 0 0 1-2.303 4.732 269.376 269.376 0 0 0-1.677 3.452.635.635 0 0 1-1.149-.538c.131-.277.287-.615.469-1.008 1.168-2.531 2.35-4.998 3.518-7.191 1.535-3.208 3.015-6.46 3.077-7.26.091-1.186-.342-2.034-.793-2.227-.447-.193-.96.273-1.226.568-1.084 1.2-1.939 2.651-2.764 4.055-.346.586-.702 1.194-1.073 1.78-8.487 13.367-13.477 28.263-14.838 44.286l.008-.004zM44.948 83.784a.635.635 0 0 1-.473-.21l-6.594-7.352a.641.641 0 0 1 .047-.898.64.64 0 0 1 .898.047l6.595 7.351a.64.64 0 0 1-.047.899.631.631 0 0 1-.426.163zM51.936 79.78a.632.632 0 0 1-.509-.256 61.001 61.001 0 0 1-7.111-12.345.638.638 0 0 1 1.171-.502 59.55 59.55 0 0 0 6.966 12.087.64.64 0 0 1-.51 1.019l-.007-.004zM57.309 75.218a.633.633 0 0 1-.615-.477 104.404 104.404 0 0 1-2.983-17.846.636.636 0 1 1 1.27-.098 102.923 102.923 0 0 0 2.946 17.628.637.637 0 0 1-.615.796l-.003-.003z" fill="#1A1A1A"/>
    <path d="M51.852 175.995c-.407.342-.956.698-1.43.454-.497-.258-.497-.956-.428-1.513.458-3.605 1.451-7.959 1.91-11.563-2.762-.87-5.857-1.721-8.134-3.511-.59-.462-1.204-1.044-1.233-1.793-.026-.647.418-1.24.967-1.579.55-.338 1.204-.473 1.837-.596 2.412-.48 6.446-1.324 8.861-1.804.895-3.147 2.572-12.095 3.383-12.528 1.728-.928 6.107 8.29 7.679 10.254 3.576-.651 13.528-1.058 13.35-.367-.179.691-.64 1.266-1.106 1.808a37.459 37.459 0 0 1-7.032 6.311c-.116.08 8.432 9.406 6.57 11.174-1.466 1.39-5.864-.218-7.428-.869-2.655-1.102-4.998-2.827-7.311-4.536.105.102-6.9 7.671-10.451 10.658h-.004z" fill="#FEC729"/>
    <path d="M50.75 177.166c-.218 0-.425-.051-.622-.153-.647-.334-.906-1.058-.767-2.157.232-1.818.603-3.852.96-5.816.32-1.761.65-3.572.88-5.22-.087-.029-.175-.054-.262-.083-2.535-.786-5.405-1.681-7.562-3.376-.666-.524-1.433-1.255-1.477-2.266-.033-.822.455-1.644 1.273-2.146.655-.404 1.393-.55 2.044-.681 1.204-.24 2.841-.578 4.427-.902 1.422-.291 2.892-.593 4.049-.825.276-1.044.622-2.558.986-4.151 1.49-6.551 1.953-8.042 2.608-8.392 1.63-.873 3.535 2.139 6.478 7.199.677 1.164 1.324 2.277 1.775 2.925 1.717-.273 4.569-.513 7.446-.619 5.471-.203 5.846.197 6.067.437a.723.723 0 0 1 .175.665c-.21.826-.727 1.474-1.24 2.067a38.092 38.092 0 0 1-6.606 6.034c.098.117.207.248.316.382 4.635 5.566 7.392 9.585 5.78 11.116-1.673 1.59-5.801.219-8.111-.742-2.543-1.058-4.787-2.651-6.944-4.241-.186.218-.444.502-.793.891-.771.851-1.757 1.906-2.78 2.972-1.581 1.651-4.543 4.678-6.594 6.402-.542.455-1.048.684-1.51.684l.004-.004zm7.166-35.022c-.48.848-1.422 5.002-1.997 7.526-.411 1.812-.8 3.521-1.102 4.587a.64.64 0 0 1-.488.451c-1.204.24-2.844.579-4.426.902-1.586.328-3.223.662-4.435.902-.574.113-1.167.233-1.63.517-.341.211-.683.604-.665 1.011.018.495.538.964.99 1.317 1.971 1.55 4.608 2.368 7.155 3.161.261.08.52.164.778.244.295.091.48.382.44.687-.233 1.819-.604 3.852-.96 5.817-.357 1.949-.724 3.964-.95 5.747-.076.611.022.833.088.866.007.003.182.083.73-.375 3.402-2.859 9.698-9.65 10.284-10.436a.638.638 0 0 1 .953-.247c2.252 1.662 4.58 3.379 7.18 4.459 3.747 1.557 6.09 1.622 6.748.993.007-.007.56-.593-1.684-3.939-1.375-2.052-3.212-4.256-4.198-5.438a66.69 66.69 0 0 1-.549-.662c-.233-.288-.371-.462-.331-.753a.646.646 0 0 1 .27-.44 36.67 36.67 0 0 0 6.91-6.206c.28-.324.564-.666.76-1.026-.752-.084-2.39-.131-5.08-.022-2.933.12-5.81.375-7.33.651a.634.634 0 0 1-.612-.229c-.505-.633-1.244-1.902-2.099-3.372-.89-1.531-1.902-3.27-2.84-4.616-1.172-1.677-1.732-2.011-1.91-2.077zm3.79 23.411z" fill="#1A1A1A"/>
    <path d="M79.56 168.349c-.375.368-.892.757-1.376.553-.509-.214-.56-.905-.53-1.458.185-3.58.847-7.937 1.032-11.517-2.779-.654-5.889-1.266-8.26-2.859-.615-.411-1.259-.938-1.343-1.673-.072-.637.32-1.251.837-1.626.52-.375 1.15-.553 1.764-.724 2.34-.651 6.246-1.775 8.585-2.426.65-3.161 1.644-12.088 2.411-12.575 1.634-1.037 6.613 7.712 8.305 9.527 3.47-.902 13.23-2.03 13.109-1.339-.123.691-.534 1.295-.953 1.859a36.844 36.844 0 0 1-6.456 6.726c-.11.087 8.984 8.639 7.278 10.516-1.338 1.476-5.783.214-7.373-.313-2.692-.891-5.125-2.415-7.526-3.925.113.095-6.227 8.053-9.505 11.251v.003z" fill="#FEC729"/>
    <path d="M78.46 169.593c-.178 0-.356-.036-.527-.109-.666-.284-.975-.982-.917-2.077.095-1.808.31-3.834.52-5.791.186-1.75.379-3.558.484-5.194-.087-.019-.17-.04-.258-.059-2.55-.589-5.442-1.258-7.69-2.768-.694-.465-1.505-1.131-1.622-2.128-.094-.811.328-1.658 1.099-2.211.618-.444 1.335-.644 1.964-.819 1.167-.324 2.753-.775 4.288-1.211 1.376-.393 2.794-.793 3.918-1.11.197-1.047.426-2.56.666-4.15.986-6.558 1.335-8.057 1.953-8.453 1.546-.983 3.641 1.844 6.915 6.612.75 1.095 1.466 2.136 1.957 2.743 1.67-.393 4.456-.836 7.279-1.153 5.372-.6 5.769-.233 6.009-.014a.707.707 0 0 1 .222.647c-.146.829-.608 1.506-1.07 2.128a37.605 37.605 0 0 1-6.049 6.417l.335.345c4.969 5.14 7.977 8.897 6.5 10.527-1.535 1.691-5.7.64-8.043-.135-2.579-.854-4.9-2.258-7.136-3.659-.168.226-.397.528-.71.928-.694.891-1.59 2.004-2.517 3.124-1.437 1.739-4.128 4.933-6.02 6.781-.538.527-1.055.789-1.542.789h-.007zm4.591-34.982c-.407.88-1.033 5.02-1.411 7.541-.273 1.811-.531 3.524-.75 4.594a.631.631 0 0 1-.45.484c-1.168.323-2.754.774-4.29 1.211-1.534.436-3.124.887-4.295 1.215-.557.153-1.131.313-1.564.625-.32.23-.622.641-.579 1.037.055.48.6.902 1.066 1.219 2.052 1.378 4.703 1.993 7.268 2.586.262.062.524.12.782.182a.638.638 0 0 1 .491.651c-.095 1.808-.31 3.834-.52 5.791-.208 1.942-.422 3.95-.513 5.725-.033.601.08.811.145.841.062.025.28-.03.684-.422 3.132-3.056 8.832-10.2 9.352-11.018a.636.636 0 0 1 .931-.313c2.336 1.469 4.755 2.99 7.388 3.859 3.794 1.255 6.1 1.15 6.704.488.004-.008.502-.619-1.946-3.743-1.506-1.921-3.47-3.951-4.525-5.046-.993-1.025-.99-1.029-.971-1.338a.648.648 0 0 1 .236-.459 36.253 36.253 0 0 0 6.344-6.609c.251-.338.499-.687.666-1.055-.753-.025-2.365.047-4.99.349-2.878.331-5.686.797-7.16 1.179a.639.639 0 0 1-.625-.182c-.542-.586-1.364-1.782-2.314-3.165-.985-1.44-2.106-3.07-3.124-4.325-1.262-1.553-1.84-1.847-2.026-1.906l-.004.004zm5.43 22.749z" fill="#1A1A1A"/>
    <path d="M65.417 182.306c-.466.2-1.066.371-1.412-.004-.367-.396-.156-1.058.077-1.568 1.495-3.281 3.692-7.111 5.187-10.392-2.2-1.666-4.703-3.416-6.191-5.809-.386-.619-.757-1.357-.56-2.077.17-.622.745-1.051 1.338-1.204.593-.153 1.215-.08 1.819-.007 2.295.276 6.144.705 8.44.985 1.745-2.713 5.936-10.694 6.787-10.858 1.818-.353 2.942 9.727 3.75 12.07 3.383.472 12.375 3.113 12.007 3.713-.363.601-.949 1.008-1.527 1.379a34.75 34.75 0 0 1-8.17 3.849c-.128.04 4.681 11.494 2.484 12.604-1.724.873-5.158-1.99-6.358-3.089-2.034-1.855-3.601-4.205-5.15-6.529.06.131-8.462 5.18-12.525 6.933l.004.004z" fill="#FEC729"/>
    <path d="M88.7 185.795c-.81 0-1.785-.353-2.957-1.066-1.35-.822-2.604-1.921-3.08-2.357-1.94-1.768-3.449-3.951-4.886-6.1a45.51 45.51 0 0 1-.927.574 157.7 157.7 0 0 1-3.372 1.975c-1.906 1.084-5.457 3.056-7.81 4.067-.942.404-1.659.353-2.132-.156-.476-.513-.487-1.273-.036-2.263.753-1.655 1.695-3.47 2.608-5.227.819-1.579 1.662-3.205 2.364-4.703-.069-.051-.138-.106-.207-.157-2.022-1.52-4.318-3.244-5.733-5.514-.432-.695-.898-1.619-.632-2.583.218-.789.905-1.422 1.793-1.651.716-.186 1.426-.098 2.051-.022 1.15.138 2.714.32 4.227.495 1.339.153 2.717.313 3.812.444.56-.906 1.32-2.234 2.12-3.627 3.34-5.831 4.162-7.039 4.871-7.177.306-.058.612.007.888.197 1.19.803 1.902 4.081 2.775 8.628.252 1.306.492 2.55.699 3.303 1.615.265 4.205.902 6.784 1.673 4.936 1.469 5.18 1.982 5.307 2.255a.723.723 0 0 1-.03.684c-.436.717-1.09 1.175-1.727 1.582a35.547 35.547 0 0 1-7.711 3.721c.054.146.112.313.174.481 2.448 6.682 3.692 11.327 1.797 12.287-.31.157-.655.237-1.037.237h.008zM77.94 174.74c.208 0 .408.102.532.284 1.506 2.262 3.063 4.598 5.049 6.413 2.426 2.215 4.747 3.445 5.642 2.99.007 0 .68-.397-.317-4.274-.607-2.368-1.579-5.016-2.102-6.442-.325-.885-.443-1.419-.353-1.601a.636.636 0 0 1 .378-.327 34.196 34.196 0 0 0 8.017-3.78c.368-.236.72-.472 1-.756-.643-.306-2.087-.851-4.52-1.568-2.642-.775-5.272-1.408-6.701-1.604a.634.634 0 0 1-.513-.422c-.258-.753-.535-2.182-.855-3.838-.327-1.698-.698-3.623-1.12-5.176-.506-1.855-.888-2.415-1.048-2.579-.716.742-2.76 4.314-4.016 6.504-.913 1.593-1.775 3.099-2.364 4.02a.637.637 0 0 1-.611.287c-1.142-.138-2.7-.316-4.205-.491-1.517-.175-3.081-.353-4.234-.495-.538-.065-1.099-.131-1.583-.007-.334.087-.767.338-.883.757-.135.483.17 1.065.483 1.571 1.288 2.07 3.387 3.645 5.417 5.169.207.156.414.313.618.465a.637.637 0 0 1 .193.772c-.753 1.655-1.695 3.47-2.608 5.223-.906 1.742-1.84 3.543-2.58 5.165-.268.59-.225.83-.188.87 0 0 .134.094.694-.146 3.878-1.669 11.538-6.198 12.299-6.769a.618.618 0 0 1 .476-.215h.004zm-.632.586z" fill="#1A1A1A"/>
    <path d="M88.344 179.527c-.43.171-.982.316-1.306-.011-.342-.346-.153-.928.058-1.368 1.357-2.851 3.358-6.18 4.715-9.035-2.045-1.466-4.373-3.012-5.77-5.107-.36-.542-.709-1.19-.53-1.815.152-.542.68-.913 1.229-1.041.55-.131 1.12-.062 1.68.004 2.125.258 5.686.655 7.81.913 1.593-2.357 5.406-9.294 6.191-9.432 1.681-.298 2.797 8.504 3.561 10.552 3.132.433 11.462 2.794 11.127 3.318-.331.523-.869.873-1.4 1.193a32.505 32.505 0 0 1-7.519 3.306c-.116.037 4.413 10.058 2.394 11.015-1.59.753-4.783-1.768-5.9-2.732-1.895-1.633-3.361-3.692-4.813-5.729.059.113-7.78 4.467-11.523 5.969h-.004z" fill="#FEC729"/>
    <path d="M109.915 182.79c-1.834 0-4.245-1.812-5.649-3.023-1.801-1.553-3.216-3.456-4.555-5.34a122.467 122.467 0 0 1-3.936 2.183c-1.756.935-5.023 2.633-7.19 3.503-.877.352-1.547.298-1.998-.157-.473-.48-.494-1.182-.065-2.084.684-1.441 1.542-3.019 2.371-4.547.732-1.342 1.48-2.728 2.11-4.009-.047-.032-.09-.065-.138-.098-1.884-1.342-4.023-2.862-5.354-4.859-.419-.626-.866-1.459-.615-2.343.204-.717.851-1.288 1.691-1.488.666-.156 1.324-.08 1.903-.007 1.058.127 2.502.295 3.9.455 1.232.142 2.505.287 3.517.411.509-.782 1.193-1.921 1.91-3.118 3.058-5.092 3.811-6.147 4.484-6.263 1.659-.291 2.427 2.739 3.496 7.769.236 1.117.466 2.183.658 2.841 1.499.248 3.896.819 6.279 1.502 4.612 1.328 4.812 1.761 4.947 2.048a.71.71 0 0 1-.04.677c-.408.64-1.019 1.04-1.612 1.397a33.19 33.19 0 0 1-7.024 3.175l.128.32c2.8 7.072 3.284 10.116 1.716 10.855a2.197 2.197 0 0 1-.938.196l.004.004zm-10.047-9.869c.2 0 .396.095.52.266 1.408 1.979 2.863 4.026 4.707 5.616 2.255 1.943 4.398 3.026 5.216 2.641.007 0 .531-.415-.367-3.616-.579-2.066-1.495-4.379-1.99-5.623-.466-1.175-.476-1.201-.338-1.477a.634.634 0 0 1 .393-.331 31.977 31.977 0 0 0 7.373-3.241c.28-.168.564-.349.804-.553-1.735-.76-7.552-2.405-10.291-2.783a.64.64 0 0 1-.509-.407c-.247-.666-.513-1.917-.822-3.369-.313-1.473-.669-3.146-1.07-4.496-.462-1.56-.803-2.066-.956-2.222-.666.684-2.499 3.732-3.623 5.605-.833 1.386-1.619 2.696-2.157 3.496a.64.64 0 0 1-.604.276 869.754 869.754 0 0 0-3.903-.454c-1.397-.16-2.845-.328-3.907-.455-.498-.062-1.011-.124-1.458-.018-.317.076-.677.287-.764.596-.11.382.182.888.45 1.288 1.201 1.804 3.147 3.19 5.031 4.529.193.138.386.276.579.411a.635.635 0 0 1 .203.789c-.683 1.441-1.542 3.019-2.371 4.547-.822 1.513-1.67 3.077-2.343 4.485-.233.488-.178.644-.178.651 0 0 .018.008.07.008.083 0 .25-.022.545-.142 3.524-1.415 10.578-5.315 11.301-5.82a.579.579 0 0 1 .128-.102.607.607 0 0 1 .33-.095zm-.637.64z" fill="#1A1A1A"/>
    <path d="M86.533 173.943c18.529 1.179 29.056-5.852 36.237-11.614 3.197-2.565 7.46-5.176 8.941-3.707 2.437 2.419-11.997 12.644-13.481 14.128 3.597-2.881 7.199-5.761 10.796-8.642 1.12-.895 2.786-1.79 3.841-.822 3.183 2.924-10.712 12.64-12.742 14.19 4.205-3.205 8.406-6.41 12.611-9.614.972-.739 2.419-1.463 3.278-.597.8.808.225 2.164-.426 3.099-5.474 7.89-13.917 13.401-22.974 16.584-8.047 2.83-16.591 3.935-25.128 4.281 0 0-1.928-2.503-1.932-8.501 0-5.805.971-8.781.971-8.781l.008-.004z" fill="#fff"/>
    <path d="M87.493 191.862a.631.631 0 0 1-.502-.248c-.084-.109-2.06-2.746-2.063-8.886 0-5.838.964-8.854 1.004-8.981a.633.633 0 0 1 .644-.437c8.224.524 15.452-.512 22.098-3.161 5.849-2.331 10.207-5.51 13.702-8.315 1.866-1.499 3.729-2.721 5.238-3.445 2.136-1.022 3.667-1.095 4.551-.218.331.327.491.764.462 1.259-.044.789-.589 1.764-1.491 2.866.851-.178 1.593-.011 2.167.517.477.436.71 1.025.673 1.698-.04.71-.382 1.513-.956 2.383 1.407-.859 2.641-.899 3.452-.084.869.877.738 2.339-.353 3.91-2.67 3.849-6.137 7.286-10.302 10.215-3.852 2.71-8.224 4.932-12.985 6.609-7.225 2.539-15.267 3.91-25.314 4.318h-.025zm-.48-17.253c-.259 1.037-.815 3.779-.815 8.115 0 4.653 1.182 7.093 1.63 7.85 9.748-.418 17.569-1.764 24.582-4.23 4.652-1.637 8.919-3.805 12.676-6.45 4.042-2.841 7.403-6.173 9.989-9.897.189-.273 1.106-1.67.495-2.288-.648-.655-2.146.429-2.441.654l-6.984 5.326a139.084 139.084 0 0 1-4.816 3.688c-.353.258-.63.462-.811.6a.634.634 0 0 1-.892-.12.634.634 0 0 1 .12-.891l5.671-4.325a69.588 69.588 0 0 0 2.416-2.044c1.782-1.582 4.779-4.485 4.87-6.155.015-.295-.065-.509-.265-.691-.844-.775-2.521.455-3.012.851l-10.796 8.643a.635.635 0 0 1-.844-.946c.342-.342 1.229-1.04 2.455-2.011 2.012-1.586 4.765-3.758 7.072-5.882 3.448-3.172 4.012-4.525 4.041-5.049.011-.164-.037-.237-.088-.284-.902-.895-4.23.648-8.097 3.75-3.568 2.863-8.024 6.111-14.026 8.505-6.686 2.666-13.928 3.739-22.134 3.281h.004z" fill="#1A1A1A"/>
    <defs>
        <linearGradient id="tcdqgkzuea" x1="90.579" y1="97.795" x2="113.494" y2="185.627" gradientUnits="userSpaceOnUse">
            <stop stop-color="#88CCF2"/>
            <stop offset="1" stop-color="#85E5C2"/>
        </linearGradient>
    </defs>
</svg>
