<svg width="210" height="192" viewBox="0 0 210 192" fill="none" xmlns="http://www.w3.org/2000/svg">
    <path d="M84.613 23.768c-.228 2.807-.039 5.744-.003 8.34.077 5.605 1.267 11.293 2.068 16.827.67 4.62 2.685 13.655-.139 18.021-1.737 2.684-7.749 3.846-8.588 5.444-.898 1.705 4.431 2.067 5.808 3.428 2.547 2.514 6.877 4.378 10.036 6.077h.005c3.767 2.027 8.122 2.696 12.37 2.582 9.823-.263 21.371-6.729 23.554-17.177-5.433-1.61-7.238-1.837-7.826-7.526-.33-3.603.24-22.378-.327-28.201-1.082-11.082-4.042-24.74-17.268-26.233-8.677-.978-15.48 5.812-18.553 13.206-.662 1.594-.987 3.372-1.134 5.21l-.003.002z" fill="#fff"/>
    <path d="M105.251 85.152c-4.514 0-8.47-.896-11.77-2.672h-.005c-.683-.37-1.415-.742-2.19-1.136-2.78-1.413-5.932-3.016-7.997-5.055-.443-.438-1.627-.82-2.67-1.156-1.584-.508-2.952-.95-3.333-1.875-.106-.26-.18-.672.077-1.162.479-.909 1.888-1.54 3.67-2.337 1.917-.858 4.088-1.828 4.948-3.156 2.313-3.575 1.143-10.756.369-15.507-.121-.745-.236-1.448-.325-2.07-.198-1.367-.425-2.775-.644-4.133-.674-4.187-1.374-8.515-1.43-12.776a134.5 134.5 0 0 0-.047-2.067c-.056-2.074-.118-4.22.053-6.335.171-2.137.558-3.904 1.182-5.405 1.669-4.018 4.286-7.572 7.374-10.005 3.586-2.827 7.686-4.074 11.864-3.6 6.118.689 10.73 4.012 13.702 9.876 2.768 5.458 3.692 12.282 4.144 16.94.325 3.332.281 10.762.243 17.318-.03 4.812-.056 9.356.085 10.886.511 4.95 1.788 5.327 6.538 6.72.263.076.538.158.819.242a.653.653 0 0 1 .457.757c-2.239 10.732-14.053 17.425-24.18 17.697a33.29 33.29 0 0 1-.934.011zm-11.14-3.82h.003c3.317 1.785 7.368 2.626 12.035 2.503 9.427-.25 20.385-6.316 22.792-16.076l-.227-.067c-4.86-1.425-6.872-2.015-7.474-7.844-.148-1.6-.121-5.966-.092-11.021.039-6.524.083-13.918-.236-17.183-.443-4.556-1.344-11.22-4.012-16.482-2.801-5.52-6.946-8.518-12.674-9.164-3.82-.432-7.586.718-10.892 3.326-2.913 2.299-5.389 5.663-6.975 9.48-.57 1.375-.928 3.013-1.087 5.014-.166 2.044-.107 4.155-.05 6.197.02.724.038 1.407.047 2.085.056 4.167.747 8.448 1.415 12.589.218 1.364.446 2.774.647 4.153.088.61.2 1.308.322 2.047.806 4.947 2.023 12.425-.559 16.417-1.069 1.653-3.432 2.71-5.515 3.642-1.3.581-2.774 1.241-3.043 1.75a.229.229 0 0 0-.027.07c.107.344 1.737.87 2.52 1.12 1.3.418 2.526.813 3.194 1.473 1.917 1.895 4.972 3.448 7.67 4.818.782.397 1.52.774 2.218 1.148v.006z" fill="#1A1A1A"/>
    <path d="M107.922 42.487c-1.129 0-4.355-.424-5.424-1.843a.644.644 0 0 1 .135-.91.666.666 0 0 1 .925.133c.579.769 3.087 1.347 4.423 1.315 1.935-.044 4.658-1.382 4.706-3.464a.655.655 0 0 1 .659-.637h.014a.655.655 0 0 1 .644.666c-.029 1.358-.8 2.605-2.171 3.514-1.114.738-2.544 1.197-3.823 1.226h-.088zM120.17.447c-1.696-.88-4.086-.447-5.078 1.174-.798 1.3-.848 3.194-2.485 3.837-1.421.56-3.521-.129-4.866-.602C99.537 1.968 91.785-.59 83.812 4.83c-3.362 2.284-6.024 5.706-6.892 9.646-.67 3.043-.19 6.445 1.524 9.088 1.135 1.752 3.028 5.998 5.28 6.138 1.338.085 2.534-.876 3.26-1.989.728-1.112 1.126-2.403 1.794-3.554 1.873-3.235 5.66-1.597 8.907-1.915 3.43-.34 6.878-.754 10.163-1.782 3.409-1.066 5.985-3.197 9.066-4.745 4.65-2.336 9.874-11.836 3.262-15.267l-.006-.003z" fill="#1A1A1A"/>
    <path d="M9.367 131.859c11.947-34.433 53.664-57.47 72.699-62.047 0 0 7.808 14.69 25.968 12.046 20.842-3.034 21.684-14.546 21.684-14.546 25.666.93 57.33 18.655 68.184 35.073 0 0 56.24 66.533-83.289 71.033-.727.023-1.475-.111-2.169.079-133.6 36.311-103.08-41.632-103.08-41.632l.003-.006z" fill="#BCD1FB"/>
    <path d="M9.368 132.51a.65.65 0 0 1-.623-.864c6.688-19.277 22.136-33.767 33.917-42.528 12.68-9.43 28.086-17.256 39.25-19.94.296-.07.6.065.739.33.018.035 1.962 3.624 6.044 6.843a23.834 23.834 0 0 0 7.85 4.126c3.53 1.075 7.362 1.32 11.394.736 5.791-.844 13.649-2.935 18.184-8.11 2.688-3.066 2.936-5.814 2.939-5.84a.66.66 0 0 1 .683-.602c12.189.441 26.372 4.635 39.932 11.804 12.898 6.822 23.389 15.407 28.778 23.563a.65.65 0 0 1-.192.903.664.664 0 0 1-.913-.19c-5.274-7.975-15.587-16.406-28.296-23.126-13.17-6.965-26.913-11.082-38.775-11.625-.218 1.072-.915 3.373-3.087 5.884-1.693 1.957-3.941 3.645-6.679 5.017-3.392 1.697-7.557 2.915-12.382 3.615-9.616 1.4-16.349-2.038-20.301-5.166-3.463-2.739-5.421-5.668-6.086-6.769-8.446 2.132-23.327 8.472-38.287 19.595-11.634 8.653-26.884 22.945-33.463 41.909a.657.657 0 0 1-.623.441l-.003-.006zM110.74 28.5c-.636-.474-.314-1.52.59-1.47 1.176.068 1.046 2.132-.342 1.6a.972.972 0 0 1-.248-.134v.003z" fill="#1A1A1A"/>
    <path d="M111.413 29.372c-.213 0-.437-.043-.665-.131a1.674 1.674 0 0 1-.408-.222 1.458 1.458 0 0 1-.502-1.682c.231-.622.827-.996 1.525-.958a1.458 1.458 0 0 1 1.311.955c.225.587.098 1.253-.316 1.659a1.314 1.314 0 0 1-.948.377l.003.002zm-.278-1.392a.413.413 0 0 0 .089.046c.127.05.198.047.212.041.018-.02.054-.143.006-.266-.038-.102-.094-.113-.153-.116-.154-.01-.195.055-.213.105a.16.16 0 0 0 .056.19h.003zM100.438 30.537c-.635-.473-.313-1.518.591-1.469 1.175.067 1.045 2.132-.343 1.6a.99.99 0 0 1-.248-.134v.003z" fill="#1A1A1A"/>
    <path d="M101.112 31.41c-.213 0-.438-.043-.665-.131a1.655 1.655 0 0 1-.408-.222 1.457 1.457 0 0 1-.502-1.682c.23-.622.827-.996 1.524-.958a1.46 1.46 0 0 1 1.312.955c.225.587.097 1.253-.316 1.659a1.314 1.314 0 0 1-.948.377l.003.002zm-.278-1.393a.404.404 0 0 0 .088.047c.127.05.198.047.213.041.018-.02.053-.143.006-.266-.038-.102-.094-.113-.154-.116-.15-.01-.195.055-.212.105-.012.035-.033.122.056.19h.003z" fill="#1A1A1A"/>
    <path d="M85.117 32.903c-.192-1.521-2.407-2.225-3.784-1.518-1.377.706-2.053 2.298-2.245 3.82-.21 1.646.047 3.387.948 4.789.901 1.398 2.5 2.403 4.177 2.374 1.678-.027 3.333-1.212 3.675-2.836l-2.768-6.629h-.003z" fill="#fff"/>
    <path d="M84.148 43.022c-1.793 0-3.618-1.046-4.67-2.678-.919-1.431-1.291-3.283-1.046-5.219.257-2.026 1.202-3.6 2.597-4.316.96-.494 2.245-.464 3.279.073.827.43 1.362 1.139 1.462 1.945a.66.66 0 0 1-1.309.16c-.064-.513-.507-.817-.767-.952-.642-.332-1.49-.362-2.06-.07-1.424.733-1.799 2.567-1.896 3.32-.207 1.636.094 3.184.85 4.358.825 1.282 2.249 2.097 3.61 2.073 1.437-.023 2.772-1.04 3.04-2.316a.658.658 0 0 1 .78-.505.65.65 0 0 1 .512.771c-.393 1.88-2.249 3.324-4.31 3.356h-.075.004z" fill="#1A1A1A"/>
    <path d="M120.09 25.596c-.342-1.495 1.51-2.856 3.046-2.654 1.536.204 2.721 1.474 3.424 2.838.762 1.478 1.12 3.204.753 4.822-.366 1.617-1.527 3.098-3.113 3.635a4.066 4.066 0 0 1-3.262-.327l-.845-8.317-.003.003z" fill="#fff"/>
    <path d="M122.943 35.096c-.815 0-1.63-.21-2.339-.62a.646.646 0 0 1-.24-.89.662.662 0 0 1 .901-.236 3.419 3.419 0 0 0 2.718.274c1.294-.438 2.349-1.679 2.686-3.16.307-1.357.059-2.914-.698-4.383-.348-.677-1.332-2.278-2.924-2.488-.65-.088-1.448.222-1.938.75-.189.205-.491.622-.378 1.113.079.35-.142.701-.5.78a.66.66 0 0 1-.789-.494c-.18-.794.065-1.603.692-2.28.789-.85 2-1.309 3.087-1.163 1.557.208 2.987 1.37 3.923 3.19.895 1.737 1.182 3.606.81 5.259-.435 1.915-1.826 3.527-3.545 4.108-.47.161-.969.237-1.469.237l.003.003zM14.409 95.57a.659.659 0 0 1-.166-.02A66.58 66.58 0 0 1 .358 90.325a.647.647 0 0 1-.284-.879.662.662 0 0 1 .89-.28 65.515 65.515 0 0 0 13.61 5.12c.351.09.564.443.476.793a.66.66 0 0 1-.639.491h-.002zM17.854 90.684a.661.661 0 0 1-.49-.216L7.084 79.178a.643.643 0 0 1 .05-.92.664.664 0 0 1 .931.05l10.278 11.29a.643.643 0 0 1-.05.92.668.668 0 0 1-.44.166zM19.008 82.417a.662.662 0 0 1-.629-.456 22.656 22.656 0 0 0-5.61-9.11.648.648 0 0 1 0-.924.667.667 0 0 1 .934 0 23.974 23.974 0 0 1 5.935 9.637c.109.345-.08.71-.429.82a.688.688 0 0 1-.2.033zM181.35 68.892c-.033 0-.068 0-.101-.008a.656.656 0 0 1-.552-.745 30.393 30.393 0 0 1 3.89-10.767.665.665 0 0 1 .904-.231c.314.184.42.584.234.894a29.096 29.096 0 0 0-3.723 10.305.656.656 0 0 1-.649.552h-.003zM188.962 71.903a.678.678 0 0 1-.331-.088.646.646 0 0 1-.236-.89l5.33-9.033a.659.659 0 0 1 .901-.234.643.643 0 0 1 .236.891l-5.33 9.033a.662.662 0 0 1-.57.324v-.003z" fill="#1A1A1A"/>
    <path d="m43.215 191.182-.22-.06c-3.924-1.173-5.776-4.674-6.894-9.879-1.306-6.094-2.143-12.342-2.98-18.586-.342-2.554-.684-5.108-1.058-7.651l-.644.094.644-.094c-2.634-17.885-5.032-37.494-7.195-55.453-.125-1.043.183-1.815.776-2.438.62-.651 1.579-1.165 2.78-1.578 1.87-.643 4.133-.98 6.215-1.29.606-.091 1.197-.18 1.759-.272 15.353-2.537 30.71-5.025 46.086-7.402 16.7-2.58 33.419-5.025 50.164-7.25l2.735-.364c9.718-1.288 19.401-2.572 29.109-4.078 3.443-.533 6.879-.61 9.623 1.444 1.643 1.229 2.614 3.441 3.225 5.986.49 2.04.727 4.188.931 6.046.049.446.096.874.144 1.28.956 8.03 2.083 16.018 3.209 23.999 1.764 12.506 3.525 24.994 4.622 37.592.11 1.269.298 2.619.488 3.98.079.569.159 1.14.233 1.708.255 1.947.452 3.885.4 5.72-.104 3.65-1.184 6.791-4.708 8.733-2.683 1.48-5.79 1.965-8.963 2.437-5.293.789-12.406 1.907-20.361 3.156-19.991 3.141-45.297 7.117-60.377 8.818l-.012.002-.013.002.098.642-.098-.642h-.002l-.006.001-.024.003-.096.015-.375.056-1.43.213c-1.235.183-3.005.442-5.145.749-4.28.614-10.041 1.418-15.962 2.178-5.923.761-12 1.476-16.916 1.914-2.459.219-4.619.367-6.32.418-1.736.052-2.905-.003-3.442-.149z" fill="url(#7xxth69doa)" stroke="#1A1A1A" stroke-width="1.3"/>
    <path d="M123.782 109.78c-5.493 1.047-10.926 1.768-16.109 2.142-.373.027-.779.046-.955-.065-.176-.11.096-.409.481-.457 4.896-.635 10.192-1.408 15.065-1.997.602-.073 1.271-.14 1.569.024.298.164.564.234-.057.353h.006z" fill="#1A1A1A"/>
    <path d="M107.211 112.543c-.338 0-.633-.043-.875-.196a.683.683 0 0 1-.313-.759c.104-.393.552-.716 1.086-.786a867.02 867.02 0 0 0 5.988-.805c3.023-.411 6.147-.839 9.086-1.192.812-.097 1.525-.159 2.005.108.033.019.066.035.098.051.182.094.612.317.532.77-.084.476-.633.581-.896.629-5.528 1.052-10.977 1.779-16.192 2.153a6.695 6.695 0 0 1-.517.024l-.002.003zM156.998 105.057c-5.493 1.047-10.927 1.768-16.109 2.142-.373.027-.779.046-.955-.065-.176-.11.095-.409.48-.457 4.896-.635 10.193-1.408 15.065-1.997.603-.073 1.271-.14 1.569.024.299.164.564.234-.056.353h.006z" fill="#1A1A1A"/>
    <path d="M140.426 107.821c-.337 0-.632-.043-.874-.197a.682.682 0 0 1-.313-.759c.104-.392.552-.715 1.086-.785a867.02 867.02 0 0 0 5.988-.805c3.023-.412 6.147-.84 9.083-1.192.811-.097 1.524-.159 2.005.108l.098.051c.182.094.612.317.531.769-.083.477-.632.582-.895.63-5.529 1.052-10.977 1.779-16.192 2.153a7.29 7.29 0 0 1-.517.024v.003zM124.782 123.78c-5.493 1.047-10.926 1.768-16.109 2.142-.373.027-.779.046-.955-.065-.176-.11.096-.409.481-.457 4.896-.635 10.192-1.408 15.065-1.997.602-.073 1.271-.14 1.569.024.298.164.564.234-.057.353h.006z" fill="#1A1A1A"/>
    <path d="M108.211 126.543c-.338 0-.633-.043-.875-.196a.683.683 0 0 1-.313-.759c.104-.393.552-.716 1.086-.786a867.02 867.02 0 0 0 5.988-.805c3.023-.411 6.147-.839 9.086-1.192.812-.097 1.525-.159 2.005.108.033.019.066.035.098.051.182.094.612.317.532.77-.084.476-.633.581-.896.629-5.528 1.052-10.977 1.779-16.192 2.153a6.695 6.695 0 0 1-.517.024l-.002.003zM157.998 119.057c-5.493 1.047-10.927 1.768-16.109 2.142-.373.027-.779.046-.955-.065-.176-.11.095-.409.48-.457 4.896-.635 10.193-1.408 15.065-1.997.603-.073 1.271-.14 1.569.024.299.164.564.234-.056.353h.006z" fill="#1A1A1A"/>
    <path d="M141.426 121.821c-.337 0-.632-.043-.874-.197a.682.682 0 0 1-.313-.759c.104-.392.552-.715 1.086-.785a867.02 867.02 0 0 0 5.988-.805c3.023-.412 6.147-.84 9.083-1.192.811-.097 1.524-.159 2.005.108l.098.051c.182.094.612.317.531.769-.083.477-.632.582-.895.63-5.529 1.052-10.977 1.779-16.192 2.153a7.29 7.29 0 0 1-.517.024v.003zM125.782 139.78c-5.493 1.047-10.926 1.768-16.109 2.142-.373.027-.779.046-.955-.065-.176-.11.096-.409.481-.457 4.896-.635 10.192-1.408 15.065-1.997.602-.073 1.271-.14 1.569.024.298.164.564.234-.057.353h.006z" fill="#1A1A1A"/>
    <path d="M109.211 142.543c-.338 0-.633-.043-.875-.196a.683.683 0 0 1-.313-.759c.104-.393.552-.716 1.086-.786a867.02 867.02 0 0 0 5.988-.805c3.023-.411 6.147-.839 9.086-1.192.812-.097 1.525-.159 2.005.108.033.019.066.035.098.051.182.094.612.317.532.77-.084.476-.633.581-.896.629-5.528 1.052-10.977 1.779-16.192 2.153a6.695 6.695 0 0 1-.517.024l-.002.003zM158.998 135.057c-5.493 1.047-10.927 1.768-16.109 2.142-.373.027-.779.046-.955-.065-.176-.11.095-.409.48-.457 4.896-.635 10.193-1.408 15.065-1.997.603-.073 1.271-.14 1.569.024.299.164.564.234-.056.353h.006z" fill="#1A1A1A"/>
    <path d="M142.426 137.821c-.337 0-.632-.043-.874-.197a.682.682 0 0 1-.313-.759c.104-.392.552-.715 1.086-.785a867.02 867.02 0 0 0 5.988-.805c3.023-.412 6.147-.84 9.083-1.192.811-.097 1.524-.159 2.005.108l.098.051c.182.094.612.317.531.769-.083.477-.632.582-.895.63-5.529 1.052-10.977 1.779-16.192 2.153a7.29 7.29 0 0 1-.517.024v.003z" fill="#1A1A1A"/>
    <path d="M182.647 124.809c4.868 11.284-3.173 17.659-9.752 20.346-8.562 3.495-17.563 4.993-26.568 4.471-4.564-.263-9.202-1.186-13.637-2.234-3.007-.71-6.041-1.294-9.06-1.919-.949-.196-1.95-.292-2.878-.018-.927.275-1.772.982-1.976 1.919-.166.762.109 1.568.582 2.196 1.38 1.834 4.092 2.076 6.21 2.55 2.6.581 6.641 1.652 9.241 2.225-2.015-.313-5.445-1.224-7.472-1.466-1.734-.207-3.435-.774-5.202-.675-1.752.1-2.467 1.828-1.666 3.332.957 1.802 2.919 2.17 4.703 2.777 3.188 1.09 6.375 2.176 9.563 3.265-2.641-.756-5.386-1.638-8.098-2.12-1.545-.274-6.49-.263-5.208 1.907 1.084 1.831 5.261 3.677 7.793 4.296 23.12 5.668 60.104 2.482 75.195-19.586 9.495-13.883 4.106-30.456-6.514-43.697l-15.259 22.428.003.003z" fill="#fff"/>
    <path d="M150.809 168.763c-7.554 0-15.058-.827-21.746-2.465-2.585-.634-6.981-2.535-8.204-4.599-.523-.882-.245-1.516-.036-1.817.594-.841 2.071-1.121 3.416-1.18a1.23 1.23 0 0 1-.057-.017c-1.574-.5-3.359-1.066-4.301-2.842-.523-.984-.538-2.088-.038-2.958a2.583 2.583 0 0 1 1.412-1.162c-.94-.377-1.794-.917-2.429-1.758-.635-.844-.889-1.837-.697-2.722.239-1.095 1.194-2.038 2.434-2.406 1.176-.348 2.39-.164 3.203 0 .756.158 1.512.309 2.272.464 2.233.453 4.543.923 6.806 1.457 3.743.885 8.662 1.937 13.525 2.217 8.972.52 17.814-.97 26.275-4.424 2.854-1.165 7.944-3.852 9.976-8.773 1.312-3.174 1.117-6.778-.582-10.714a.65.65 0 0 1 .349-.856.663.663 0 0 1 .866.345c1.84 4.269 2.038 8.211.588 11.719-2.216 5.358-7.652 8.241-10.695 9.485-8.647 3.53-17.684 5.052-26.857 4.52-4.963-.286-9.959-1.355-13.752-2.251-2.242-.529-4.541-.996-6.765-1.449l-2.278-.464c-1.066-.219-1.876-.231-2.552-.029-.774.228-1.386.803-1.522 1.431-.112.511.062 1.133.467 1.667 1.013 1.344 2.922 1.72 4.771 2.085.366.073.712.141 1.055.216 1.276.284 2.921.693 4.514 1.09 1.672.414 3.4.844 4.724 1.136.348.076.57.411.505.759a.661.661 0 0 1-.751.523c-.91-.143-2.071-.395-3.3-.663-1.5-.327-3.048-.666-4.147-.797a24.965 24.965 0 0 1-1.867-.316c-1.108-.213-2.157-.417-3.22-.356-.538.029-.946.26-1.179.669-.275.482-.254 1.121.059 1.708.691 1.302 2.074 1.74 3.536 2.205.263.082.532.169.798.26l9.563 3.265a.65.65 0 0 1 .413.814.662.662 0 0 1-.812.43c-.526-.149-1.055-.307-1.587-.462-2.115-.622-4.304-1.264-6.443-1.641-1.418-.251-4.18-.09-4.614.523-.057.079-.024.216.091.412.937 1.582 4.931 3.39 7.383 3.992 12.275 3.01 27.347 3.235 40.317.604 19.722-4.004 29.468-13.042 34.174-19.922 4.352-6.363 5.758-13.629 4.187-21.598-1.377-6.965-5.067-14.339-10.671-21.327a.649.649 0 0 1 .106-.917.667.667 0 0 1 .928.105c5.734 7.152 9.515 14.721 10.93 21.887 1.643 8.323.169 15.919-4.387 22.58-4.842 7.079-14.842 16.377-35.002 20.468-6.091 1.236-12.641 1.852-19.155 1.852l.003-.003zM30.337 141.499a.656.656 0 0 1-.47-.195c-5.055-5.07-13.126-8.75-19.625-8.945a.656.656 0 0 1-.638-.672.657.657 0 0 1 .68-.631c6.812.208 15.252 4.045 20.526 9.334a.645.645 0 0 1-.006.922.66.66 0 0 1-.464.187h-.003z" fill="#1A1A1A"/>
    <path d="M182.401 122.117a.652.652 0 0 1-.638-.827c1.011-3.612 3.111-7.289 6.24-10.933 2.623-3.055 5.914-5.995 9.518-8.51a.664.664 0 0 1 .919.158.646.646 0 0 1-.159.908c-3.513 2.45-6.718 5.315-9.274 8.288-3.004 3.495-5.013 7.008-5.973 10.437a.658.658 0 0 1-.635.479h.002z" fill="#1A1A1A"/>
    <path d="M70.722 144.82c12.783-2.352 25.075 5.095 28.571 16.896a45.933 45.933 0 0 1-23.198 11.644c-9.082 1.67-18.005.598-25.881-2.608-1.042-12.26 7.71-23.578 20.508-25.932z" stroke="#1A1A1A" stroke-width="1.6"/>
    <path d="M31.505 146.575c-1.25 12.206 8.342 15.927 15.433 16.555 9.226.817 18.269-.4 26.71-3.545 4.277-1.595 8.428-3.838 12.348-6.145 2.656-1.562 5.377-3.011 8.074-4.497.848-.467 1.772-.85 2.741-.862.97-.011 1.989.415 2.464 1.25.387.678.366 1.531.107 2.267-.766 2.158-3.283 3.186-5.162 4.26-2.307 1.317-5.84 3.531-8.15 4.842 1.828-.891 4.83-2.768 6.691-3.595 1.595-.707 3.049-1.749 4.762-2.175 1.702-.421 2.904 1.019 2.594 2.689-.372 2.001-2.136 2.929-3.654 4.036-2.715 1.977-5.43 3.954-8.148 5.928 2.295-1.498 4.647-3.148 7.093-4.404 1.394-.715 6.118-2.161 5.545.289-.484 2.065-3.917 5.058-6.148 6.396-20.366 12.212-56.633 20.051-77.685 3.422-12.626-9.975-13.072-26.262-7.754-41.424l22.136 14.716.003-.003z" fill="#fff"/>
    <path d="M48.308 183.443c-15.785 0-25.773-5.049-31.599-9.652-6.07-4.795-9.722-11.252-10.848-19.186-.975-6.866.021-14.806 2.884-22.962a.661.661 0 0 1 .839-.403.65.65 0 0 1 .407.829c-2.794 7.961-3.77 15.691-2.824 22.352 1.078 7.596 4.567 13.769 10.367 18.348 6.561 5.184 18.588 10.945 38.623 8.965 13.174-1.302 27.496-5.951 38.308-12.434 2.16-1.297 5.43-4.199 5.847-5.984.05-.219.038-.362-.036-.42-.6-.459-3.282.198-4.561.855-1.926.99-3.82 2.246-5.654 3.461-.461.307-.922.61-1.38.908a.661.661 0 0 1-.904-.172.65.65 0 0 1 .15-.9l8.148-5.928c.228-.163.458-.327.686-.482 1.258-.873 2.443-1.696 2.712-3.145.12-.654-.05-1.27-.458-1.65-.346-.318-.804-.42-1.327-.289-1.034.257-1.97.756-2.966 1.288-.543.289-1.105.59-1.687.85-1.007.447-2.387 1.226-3.719 1.98-1.093.619-2.124 1.2-2.951 1.603a.666.666 0 0 1-.875-.277.649.649 0 0 1 .254-.874c1.176-.668 2.698-1.588 4.172-2.476 1.4-.844 2.848-1.72 3.98-2.365.303-.173.614-.342.942-.517 1.654-.891 3.364-1.814 3.926-3.394.224-.628.2-1.276-.056-1.729-.32-.557-1.082-.931-1.882-.916-.706.008-1.477.257-2.429.779-.676.374-1.356.745-2.035 1.116-1.985 1.086-4.042 2.207-6.02 3.373-3.354 1.974-7.8 4.459-12.453 6.194-8.597 3.203-17.681 4.409-27.002 3.583-3.28-.292-9.338-1.446-13.067-5.908-2.44-2.923-3.438-6.746-2.966-11.363a.659.659 0 0 1 .724-.584.655.655 0 0 1 .591.716c-.437 4.257.464 7.756 2.67 10.399 3.425 4.097 9.09 5.166 12.166 5.44 9.12.809 18.006-.371 26.417-3.504 4.556-1.697 8.937-4.15 12.243-6.095 1.997-1.177 4.062-2.301 6.056-3.393.68-.371 1.356-.742 2.032-1.113.724-.397 1.829-.928 3.055-.943h.047c1.276 0 2.45.616 3.002 1.58.449.788.505 1.811.153 2.803-.351.99-1.004 1.758-1.787 2.395a2.602 2.602 0 0 1 1.696.695c.738.683 1.057 1.743.854 2.836-.367 1.974-1.9 3.037-3.253 3.977l-.047.035c1.302-.339 2.794-.508 3.616.123.292.225.747.747.514 1.743-.547 2.331-4.169 5.438-6.446 6.804-10.975 6.583-25.501 11.299-38.864 12.619-2.81.277-5.468.406-7.979.406l-.006.003z" fill="#1A1A1A"/>
    <path d="M82.2 126c0 7.818-6.556 14.2-14.7 14.2-8.144 0-14.7-6.382-14.7-14.2s6.556-14.2 14.7-14.2c8.144 0 14.7 6.382 14.7 14.2z" stroke="#1A1A1A" stroke-width="1.6"/>
    <defs>
        <linearGradient id="7xxth69doa" x1="95.244" y1="87.063" x2="123.566" y2="184.007" gradientUnits="userSpaceOnUse">
            <stop stop-color="#88CCF2"/>
            <stop offset="1" stop-color="#85E5C2"/>
        </linearGradient>
    </defs>
</svg>
