<svg width="603" height="410" viewBox="0 0 603 410" fill="none" xmlns="http://www.w3.org/2000/svg">
    <g clip-path="url(#nxo7pzbpta)">
        <path d="M316.4 116.917c6.912 25.685-3.456 50.372-23.479 68.242-9.538 8.515-24.097 18.04-37.678 14.25a22.255 22.255 0 0 1-7.823-3.953c-2.871-2.264-5.142-5.214-6.732-8.61-4.834-10.341-4.955-25.147 5.115-32.828 4.582-3.495 11.077-5.66 12.773-11.051 2.195-6.975-4.34-13.067-7.769-18.434-4.434-6.942-2.274-14.612 3.319-20.515 4.279-4.518 9.864-7.62 15.102-11.065 13.283-8.735 14.767-20.404 16.421-34.244 2.626-21.974 22.742-39.794 43.787-46.476 29.068-9.226 53.164 14.491 44.53 42.698-4.805 15.704-24.07 23.575-38.814 26.796-8.763 1.912-18.493 5.66-21.446 13.874-2.479 6.9.795 14.276 2.69 21.316h.004z" fill="#1A1A1A"/>
        <path d="M390.527 93.882c-.587 6.947-2.372 14.051-3.583 20.386-2.627 13.672-12.856 9.463-17.459 22.689-13.264 44.818 18.019 57.645 11.717 78.761-9.142 8.851-28.736 12.939-41.155 16.846h-.013c-11.297 3.552-23.639 3.563-35.344 1.704-20.796-3.307-61.152-20.152-60.782-21.343.331-1.069.649-16.385 1.618-17.097 48.692-22.254 46.529-55.032 54.848-87.476 7.766-26.688 6.356-68.09 43.6-66.821 24.431.835 40.343 19.963 45.648 39.18 1.147 4.141 1.275 8.617.892 13.16l.013.01z" fill="#fff"/>
        <path d="M323.668 94.981c1.667-.898 1.288-3.496-.845-3.702-2.782-.27-3.237 4.687.217 3.93.238-.055.444-.13.628-.228z" fill="#1A1A1A"/>
        <path d="M321.696 97.284c.346 0 .704-.043 1.061-.119.39-.086.758-.216 1.093-.4a3.734 3.734 0 0 0 1.906-4.06c-.336-1.656-1.678-2.836-3.432-3.01-1.527-.15-2.891.564-3.648 1.906-.791 1.386-.726 3.118.151 4.309.661.898 1.678 1.374 2.869 1.374zm.465-3.68s-.097.043-.162.054a1.617 1.617 0 0 1-.271.032c0-.108.033-.26.109-.368.043-.054.054-.065.151-.054.238.022.249.098.26.14.022.13-.054.174-.087.185v.01zM361.358 104.861c1.668-.899 1.289-3.497-.844-3.702-2.782-.271-3.237 4.687.217 3.929.238-.054.443-.13.627-.227z" fill="#1A1A1A"/>
        <path d="M360.047 107.465c.346 0 .704-.043 1.072-.119a4.116 4.116 0 0 0 1.093-.4 3.734 3.734 0 0 0 1.905-4.06c-.335-1.656-1.678-2.836-3.431-3.01-1.527-.151-2.891.563-3.649 1.906-.79 1.385-.725 3.117.152 4.308.66.899 1.678 1.375 2.869 1.375h-.011zm.465-3.68s-.097.043-.162.054a1.671 1.671 0 0 1-.271.032c0-.108.033-.26.109-.368.043-.054.054-.065.151-.054.238.022.249.098.26.141.022.13-.054.173-.087.184v.011z" fill="#1A1A1A"/>
        <path d="M305.559 90.437c.086-1.05.076-2.079-.271-3.053-.79-2.241-3.237-3.919-5.618-3.789-3.4.184-6.42 2.945-8.444 6.019-2.187 3.334-3.594 7.318-3.389 11.193.206 3.876 2.166 7.578 5.402 9.137 2.469 1.191 4.363.455 6.82.022 2.22-.39 3.963-.39 5.262-2.663.985-1.711 1.125-3.779.92-5.738-.206-1.96-.747-3.864-1.04-5.813-.259-1.732.195-3.55.347-5.315h.011z" fill="#fff"/>
        <path d="M297.001 110.978c1.559 0 3.139-.357 4.601-1.071a1.803 1.803 0 0 0 .822-2.404 1.802 1.802 0 0 0-2.403-.822c-1.808.887-3.951.941-5.607.14-2.49-1.201-4.222-4.2-4.396-7.62-.162-3.227.931-6.82 3.097-10.112 2.056-3.14 4.687-5.088 7.036-5.207 1.191-.065 2.544.628 3.345 1.721.368.498.92 1.516.498 2.674-.346.931.13 1.96 1.05 2.306.931.346 1.96-.13 2.306-1.05.747-2.003.401-4.211-.963-6.062-1.516-2.057-4.038-3.313-6.431-3.183-3.529.195-7.123 2.685-9.851 6.82-2.576 3.93-3.886 8.282-3.681 12.265.249 4.709 2.761 8.899 6.42 10.664a9.521 9.521 0 0 0 4.146.93l.011.011zM364.479 83.853c-7.971-5.846-10.265-9.431-14.517-15.828-4.454-6.699-5.758-16.019-4.295-23.93 2.118-11.492 14.358-22.687 25.568-14.048 8.421 6.498 16.936 16.771 19.801 26.249 2.825 9.36.647 18.248 9.652 22.978 3.023 7.158-19.803 28.698-17.942 27.856 0-3.458-.57-5.735-3.388-10.081-3.38-5.213-8.206-8.303-14.879-13.197z" fill="#1A1A1A"/>
        <path d="M332.279 27.638c-10.83 5.722-23.394 15.105-26.925 27.242-3.02 10.397-3.074 21.41.216 31.164 6.055-12.421 17.944-16.495 30.266-17.115 12.053-.607 25.337-4.512 34.424-13.555 2.907-2.89 5.393-6.195 8.116-9.16 2.53-2.743 4.301-5.246 4.274-8.957-.034-4.319-2.256-8.225-5.445-10.899-3.19-2.673-7.274-4.189-11.469-5.058-11.021-2.254-23.128.87-33.457 6.338z" fill="#1A1A1A"/>
        <path d="M285.163 402.845C188.935 372.67 87.99 256.843 40.921 126.633L73.474 99.07c60.621 78.016 110.663 97.574 180.849 87.647 17.799 12.549 45.262 30.085 60.64 30.095 33.855.032 57.612-18.084 57.612-18.084 19.97 1.264 48.711 3.36 67.553 9.608 38.78 12.846 67.93 28.319 101.699 51.472 27.23 18.669 57.718 49.277 58.191 84.585.011 1.052 0 2.104-.032 3.167a52.823 52.823 0 0 1-2.301 13.749c-7.464 24.322-30.962 39.4-55.858 41.536-11.873 1.02-23.907-.808-35.049-4.994-9.743-3.656-78.005 14.405-86.221 7.403H285.163v-2.409z" fill="url(#6gati7sd0b)"/>
        <path d="M535.618 405.745a79.53 79.53 0 0 0 6.585-.277c12.976-1.119 25.21-5.551 35.367-12.808 10.76-7.694 18.399-18.105 22.068-30.093a55.53 55.53 0 0 0 2.378-14.247c.043-1.087.054-2.185.032-3.261-.226-16.368-6.563-32.394-18.851-47.654-9.296-11.551-21.993-26.942-38.875-38.547-38.996-26.805-62.371-39.988-103.368-52.349-19.873-6.607-45.899-9.338-65.847-10.596-.431-.032 2.195.137-1.205.363-.237.181-8.278 5.842-18.145 10.233-9.102 4.049-23.564 8.866-40.693 8.855-15.214-.011-41.571-17.798-58.077-29.466a1.784 1.784 0 0 0-1.172-.32c-40.704 3.197-65.833 3.327-95.089-11.048-29.482-14.471-56.758-38.799-85.841-76.553a1.77 1.77 0 0 0-1.227-.682 1.762 1.762 0 0 0-1.345.415L38.995 126.9a1.752 1.752 0 0 0-.41 2.174c9.857 18.19 34.219 91.251 85.952 154.154 23.994 29.176 59.17 61.96 82.056 81.034 26.867 22.378 54.701 36.418 78.9 43.856 3.877 1.191 7.909.857 8.103.847l106.356.361c63.952.868 97.662-12.254 106.399-8.972 9.479 3.56 19.475 5.392 29.267 5.392zM375.537 199.483c19.292 1.322 44.856 3.925 64.288 10.372 62.492 20.758 78.623 37.738 102.464 51.902 16.591 11.402 29.04 26.569 38.121 37.843 11.782 14.631 17.862 29.944 18.077 45.502.011 1.012 0 2.056-.032 3.079a51.853 51.853 0 0 1-2.228 13.341c-3.443 11.243-10.609 21.014-20.734 28.25-9.63 6.894-21.25 11.093-33.592 12.158-11.308.97-28.806-1.881-39.921-6.069-45.532 5.463-39.752 8.577-101.458 9.884l-111.152-.277c-23.661-7.331-54.08-21.951-80.474-43.946-22.714-18.925-57.74-51.548-81.583-80.554-50.41-61.294-74.17-132.682-84.886-152.342l30.8-27.047c29.009 37.36 56.349 61.56 85.95 76.095 29.707 14.588 55.234 14.596 96.315 11.453 8.037 5.68 24.872 17.361 33.878 22.028 10.006 5.189 18.431 7.715 25.737 7.715h.086c31.537 0 56.524-16.638 60.376-19.419l-.032.032zM326.871 14.532c-12.059 4.736-26.527 13.439-32.27 27.019-4.92 11.63-6.91 24.535-5.27 36.58 8.365-13.454 21.217-16.066 33.895-14.543 12.406 1.49 26.645-.666 37.517-9.615 3.469-2.858 6.588-6.275 9.896-9.26 3.057-2.76 5.315-5.36 5.943-9.722.731-5.06-.853-10.062-3.642-13.773-2.785-3.71-6.682-6.242-10.816-8.02-10.84-4.657-23.745-3.194-35.252 1.33l-.001.004z" fill="#1A1A1A"/>
        <path d="M43.039 130.739C10.173 91.021-.783 43.215-1.021 37.261c-.227-5.434 2.826-5.012 6.322-.822 2.35 2.814 8.726 16.325 14.636 27.377-5.9-11.042-15.123-35.529-9.992-38.57 5.002-2.967 6.831 2.045 8.996 7.21 0 0 7.2 14.7 12.103 23.317-4.21-6.235-6.105-13.326-8.866-20.298-.985-2.479-5.64-18.977 3.172-15.08 3.81 1.69 4.19 5.77 6.03 9.159 2.847 5.272 4.222 10.62 6.874 15.99 1.721 3.485 3.226 7.079 5.142 10.467 1.267 2.241 3.14 8.455 6.798 9.321a155.707 155.707 0 0 1-1.093-22.571c.043-1.97.152-4.027 1.115-5.738.964-1.72 3.042-2.977 4.915-2.36 1.981.66 2.825 2.967 3.302 5.002 2.836 12.233 1.169 25.093 3.29 37.467 2.296 13.39 14.301 25.418 13.911 26.316 0 0-5.055 11.627-12.99 18.23-9.646 8.033-19.605 9.04-19.605 9.04v.021z" fill="#fff"/>
        <path d="M43.038 132.536h.184c.433-.043 10.62-1.169 20.569-9.451 7.956-6.625 13.12-18.056 13.488-18.89.52-1.202-.043-1.959-2.176-4.763-3.247-4.298-10.013-13.229-11.615-22.571-.953-5.532-1.126-11.313-1.3-16.91-.205-6.809-.422-13.845-2.013-20.665-.52-2.241-1.548-5.327-4.482-6.3-2.88-.964-5.78.92-7.047 3.182-1.148 2.046-1.288 4.373-1.343 6.57-.151 6.106.065 12.266.628 18.372-.8-1.267-1.472-2.75-1.97-3.865-.368-.823-.693-1.537-1.007-2.1-1.212-2.154-2.295-4.46-3.334-6.68a142.26 142.26 0 0 0-1.764-3.702c-1.18-2.381-2.122-4.839-3.042-7.21-1.115-2.89-2.274-5.888-3.865-8.844-.466-.866-.834-1.797-1.234-2.782-1.05-2.652-2.252-5.662-5.651-7.166-3.183-1.408-5.056-.563-6.062.4-1.678 1.613-1.938 4.623-1.646 7.675-1.05-1.916-2.306-3.42-4.114-4.027-1.59-.53-3.355-.238-5.239.877-2.598 1.538-3.074 5.673-1.429 12.872a14.31 14.31 0 0 0-.92-1.289C3.34 31.297.98 31.102-.404 31.643c-1.743.671-2.566 2.587-2.447 5.672.152 3.584 3.204 17.43 9.916 34.663C13.15 87.6 24.083 110.68 41.62 131.876c.347.411.855.649 1.386.649l.032.011zm30.615-29.055c-1.235 2.598-5.749 11.507-12.157 16.833-7.46 6.203-15.123 8.033-17.722 8.498C11.211 89.007.971 42.112.764 37.186c-.053-1.191.098-1.841.207-2.122.422.14 1.461.736 2.944 2.522 1.386 1.656 4.666 8.108 8.152 14.94 2.056 4.026 4.178 8.194 6.278 12.134a1.79 1.79 0 0 0 2.425.737c.607-.325.953-.942.953-1.581 0-.281-.065-.574-.217-.844-2.674-5.002-6.484-13.727-8.995-21.965-3.811-12.525-1.69-14.203-1.668-14.214.942-.563 1.71-.747 2.274-.563 1.472.487 2.76 3.573 3.886 6.3l.26.618s.032.064.043.097c.054.108 4.309 8.79 8.487 16.693 1.05 2.35 2.263 4.644 3.746 6.841a1.794 1.794 0 0 0 2.436.52 1.797 1.797 0 0 0 .617-2.414 213.818 213.818 0 0 1-3.584-6.57c-1.147-2.577-2.121-5.273-3.128-8.033-.65-1.787-1.32-3.638-2.035-5.457C22.62 31.73 20.9 23.307 22.513 21.76c.292-.281 1.083-.173 2.111.293 1.96.866 2.717 2.543 3.767 5.206.412 1.04.845 2.112 1.408 3.162 1.494 2.76 2.554 5.51 3.68 8.422.942 2.446 1.916 4.98 3.172 7.502.596 1.19 1.17 2.435 1.732 3.626 1.072 2.284 2.176 4.655 3.464 6.929.239.422.53 1.06.866 1.807 1.343 2.988 3.367 7.502 7.091 8.38.574.14 1.17-.011 1.613-.412.433-.39.66-.974.585-1.559a153.64 153.64 0 0 1-1.083-22.311c.044-1.83.152-3.583.888-4.915.563-.996 1.808-1.85 2.782-1.526.92.303 1.613 1.515 2.11 3.702 1.506 6.474 1.711 13.326 1.917 19.962.173 5.716.357 11.638 1.353 17.407 1.754 10.209 8.866 19.616 12.287 24.131.509.671 1.061 1.407 1.407 1.894l-.01.022z" fill="#1A1A1A"/>
        <path d="M334.44 134.372a10.524 10.524 0 0 1-1.959-.142c-4.521-.758-8.778-4.607-9.944-9.727-.253-.729.042-1.661.638-1.949.596-.287 1.472.212 1.714.941 1.446 4.227 4.166 7.308 7.88 7.936 3.713.629 7.575-1.307 9.842-4.905.387-.622 1.391-.818 1.894-.34.515.477.544 1.164 0 2.027-2.363 3.75-6.202 6.062-10.076 6.159h.011z" fill="#1A1A1A" stroke="#1A1A1A"/>
        <path d="M313.354 285.549c.109 0 .228 0 .347-.032a1.781 1.781 0 0 0 1.418-2.1c-1.656-8.596-2.403-20.731-2.014-32.444.455-13.337 2.339-24.422 5.305-31.21a1.792 1.792 0 0 0-3.28-1.44c-6.972 15.935-6.755 49.05-3.54 65.776.162.855.92 1.45 1.764 1.45zM300.321 238.783c.466 0 .942-.086 1.407-.27 1.191-.477 2.014-1.462 2.22-2.642.194-1.18-.271-2.382-1.245-3.215-.975-.834-2.23-1.104-3.378-.736a1.797 1.797 0 0 0-1.137 2.273c.109.336.314.617.563.823a1.863 1.863 0 0 0-.801.595 1.794 1.794 0 0 0 .347 2.512 3.318 3.318 0 0 0 2.024.671v-.011zM297.55 263.281a3.49 3.49 0 0 0 2.381-.974c.78-.747 1.18-1.786 1.072-2.804-.108-1.007-.714-1.949-1.635-2.512-.909-.563-2.024-.682-2.977-.324a1.798 1.798 0 0 0-1.05 2.316c.184.477.552.834.985 1.029a1.796 1.796 0 0 0 .758 3.247c.152.022.314.033.466.033v-.011zM516.081 361.465c5.088 0 13.424-2.587 17.018-7.35 1.84-2.425 2.273-5.185 1.255-7.978a1.801 1.801 0 0 0-2.305-1.072 1.802 1.802 0 0 0-1.072 2.306c.595 1.634.357 3.128-.747 4.579-2.912 3.854-10.901 6.203-14.864 5.9a1.808 1.808 0 0 0-1.926 1.656 1.802 1.802 0 0 0 1.656 1.927c.303.022.628.032.974.032h.011z" fill="#1A1A1A"/>
        <path d="M514.687 359.461c-3.874-.08-8.364-2.001-11.434-4.802-7.873-7.188-15.172-15.104-24.245-20.938-6.401-4.114-16.394-7.309-24.319-6.238-4.239.577-7.152 3.549-3.874 6.744 2.851 2.77 7.779 2.012 11.465 3.134 6.547 2.002 14.232 6.814 14.598 11.788-5.044-7.046-18.566-9.311-29.759-6.531-1.806.445-3.738 1.213-4.521 2.851-1.044 2.194.647 4.843 2.882 5.925 2.234 1.081 4.834 1.071 7.309 1.314 8.113.788 15.474 5.49 21.353 10.443-5.409-3.265-8.969-6.884-14.953-9.018-4.844-1.728-12.039-2.001-16.654.243-2.203 1.072-4.124 3.387-3.456 5.682.668 2.295 3.007 2.992 5.137 3.296 3.54.495 7.132.899 10.536 2.022 13.417 4.458 23.222 16.085 34.562 23.778a82.2 82.2 0 0 0 17.938 9.19s6.547-4.266 8.876-19.623c1.649-10.919-1.462-19.27-1.462-19.27l.021.01z" fill="#fff"/>
        <path d="M507.273 400.022c.345 0 .679-.101.971-.283.292-.192 7.215-4.862 9.617-20.765 1.691-11.212-1.41-19.725-1.546-20.079-.24-.647-.877-1.092-1.587-1.112-3.383-.071-7.518-1.82-10.285-4.347-1.963-1.8-3.936-3.68-5.847-5.5-5.753-5.49-11.695-11.161-18.628-15.61-6.38-4.094-16.738-7.693-25.519-6.5-3.279.444-5.785 2.082-6.537 4.256-.355 1.031-.616 3.093 1.682 5.328 2.276 2.214 5.481 2.578 8.301 2.891 1.409.162 2.735.314 3.873.657a32.064 32.064 0 0 1 5.273 2.164 32.48 32.48 0 0 0-2.37-.566c-5.753-1.173-12.133-1.011-17.97.435-1.086.272-4.385 1.091-5.659 3.77-1.044 2.194-.334 5.42 2.464 7.411-.595.202-1.169.435-1.723.698-2.861 1.395-5.273 4.458-4.343 7.633 1.085 3.73 5.199 4.307 6.557 4.499l1.326.182c2.986.404 6.077.829 8.896 1.769 8.562 2.841 15.798 8.887 22.805 14.73 3.644 3.043 7.413 6.187 11.329 8.836a84.056 84.056 0 0 0 18.314 9.382c.199.071.408.111.616.111l-.01.01zm6.108-38.973c.721 2.487 2.287 9.24 1.055 17.429-1.159 7.643-3.394 12.334-5.064 14.922-.982 1.517-1.869 2.488-2.433 3.013a81.075 81.075 0 0 1-16.602-8.644c-3.77-2.558-7.477-5.651-11.058-8.634-7.257-6.056-14.754-12.314-23.943-15.357-3.132-1.041-6.379-1.486-9.533-1.921l-1.315-.182c-2.872-.404-3.498-1.324-3.718-2.092-.396-1.365.992-2.963 2.569-3.731 4.333-2.103 11.099-1.658 15.276-.172 3.707 1.325 6.505 3.306 9.46 5.399 1.608 1.142 3.268 2.315 5.169 3.468a1.77 1.77 0 0 0 2.307-.425 1.64 1.64 0 0 0-.261-2.265c-7.841-6.601-15.14-10.15-22.313-10.848-.481-.05-.961-.08-1.441-.121-1.932-.151-3.759-.293-5.273-1.021-1.483-.718-2.684-2.457-2.078-3.721.397-.829 1.503-1.455 3.372-1.92 5.253-1.305 11.236-1.446 16.404-.405 5.305 1.082 9.387 3.306 11.507 6.268.449.617 1.263.88 1.994.627.731-.253 1.211-.95 1.149-1.698-.47-6.319-9.711-11.394-15.809-13.264-1.451-.445-3.007-.617-4.511-.789-2.485-.283-4.824-.546-6.244-1.931-.511-.506-1.086-1.233-.856-1.901.272-.778 1.639-1.718 3.738-2.001 7.831-1.072 17.479 2.345 23.118 5.974 6.651 4.277 12.478 9.827 18.116 15.206 1.921 1.83 3.905 3.73 5.9 5.55 3.069 2.801 7.382 4.752 11.318 5.177v.01zM373.227 127.711c-10.981 19.832-9.967 41.93.685 64.11 9.471 19.723 20.116 23.107 28.688 24.142 4.939.597 8.664-.703 10.729-1.475 2.635-.986 4.138-2.557 6.086-4.955 5.933-7.29 9.414-20.029 3.756-30.058-2.575-4.562-6.864-8.623-6.877-13.849-.018-6.759 6.195-9.812 9.95-13.282 4.86-4.494 5.026-11.841 2.26-18.826-2.118-5.34-5.52-9.908-8.589-14.647-7.781-12.02-6.202-22.591-4.246-35.095 3.103-19.85-7.633-42.017-21.61-54.888-19.304-17.777-42.496-5.445-42.603 21.812-.057 15.176 12.33 28.47 22.456 36.228 6.018 4.61 12.331 11.129 12.622 19.213.244 6.791-10.298 16.134-13.307 21.57z" fill="#1A1A1A"/>
        <path d="M384.291 102.154c.509-3.649 5.781-5.164 9.029-3.421 3.247 1.742 4.806 5.596 5.217 9.255.444 3.963-.227 8.141-2.414 11.486-2.186 3.335-6.019 5.694-10.013 5.575-2.674-.075-5.315-1.418-6.983-3.464l5.164-19.421v-.01z" fill="#fff"/>
        <path d="M386.381 126.847c4.287 0 8.671-2.479 11.237-6.387 2.262-3.454 3.226-7.946 2.695-12.666-.552-4.958-2.793-8.834-6.149-10.642-2.36-1.266-5.521-1.255-8.065.033-2.035 1.028-3.312 2.706-3.594 4.72a1.788 1.788 0 0 0 1.527 2.024 1.788 1.788 0 0 0 2.024-1.526c.141-1.039.985-1.667 1.656-2.014 1.473-.747 3.421-.78 4.742-.065 3.269 1.754 4.081 6.095 4.276 7.87.433 3.887-.325 7.546-2.133 10.295-1.959 2.988-5.282 4.861-8.454 4.764-2.122-.065-4.287-1.137-5.64-2.804a1.79 1.79 0 0 0-2.523-.26 1.791 1.791 0 0 0-.26 2.522c2.025 2.49 5.143 4.027 8.325 4.125h.336v.011z" fill="#1A1A1A"/>
    </g>
    <defs>
        <linearGradient id="6gati7sd0b" x1="357.546" y1="133.354" x2="299.248" y2="394.605" gradientUnits="userSpaceOnUse">
            <stop stop-color="#88CCF2"/>
            <stop offset="1" stop-color="#85E5C2"/>
        </linearGradient>
        <clipPath id="nxo7pzbpta">
            <path fill="#fff" transform="translate(.58 .117)" d="M0 0h601.48v409.25H0z"/>
        </clipPath>
    </defs>
</svg>
