<svg width="210" height="192" viewBox="0 0 210 192" fill="none" xmlns="http://www.w3.org/2000/svg">
    <g clip-path="url(#zp935cc41a)">
        <path d="M88.525 190.451c39.146-.85 70.735-8.235 70.557-16.495-.178-8.26-32.056-14.267-71.202-13.417-39.146.85-70.735 8.236-70.557 16.495.178 8.26 32.056 14.267 71.202 13.417z" fill="#979797" fill-opacity=".6"/>
        <path d="M161.313 21.608c2.963-5.35 10.684-7.181 13.994-12.511 1.693-2.73 1.98-5.786-1.23-7.475-4.814-2.532-11.414.911-15.647 3.197-5.225 2.814-12.611 6.471-12.918 12.523-.564 11.08-.722 22.622 1.742 27.27 3.491 6.585 17.913-.794 17.437-3.684-.6-3.62-1.568-7.197-2.451-10.753a448.33 448.33 0 0 0-1.278-5.076c-.363-1.387-.182-2.524.355-3.491h-.004z" fill="#fff"/>
        <path d="M156.579 12.436c3.826 3.27 1.645 9.345 1.645 9.345-3.737 2.464-9.204 2.895-11.269-.766-2.298-4.072-.907-7.584.766-9.03 1.71-1.485 5.564-2.364 8.858.45z" fill="#A5F20C"/>
        <path d="M152.467 48c1.878 0 3.737-.48 5.059-.928 4.065-1.37 8.233-4.157 7.883-6.261-.496-3-1.25-5.996-1.984-8.894-.161-.637-.323-1.279-.48-1.916l-.036-.153c-.399-1.616-.815-3.29-1.242-4.93-.29-1.113-.197-2.077.286-2.952 1.424-2.568 4.028-4.29 6.786-6.108 2.693-1.778 5.483-3.62 7.188-6.37 1.206-1.943 1.617-3.81 1.186-5.39-.359-1.315-1.266-2.363-2.697-3.117-5.262-2.766-12.192.967-16.337 3.197-.254.137-.512.274-.778.415-5.153 2.762-12.208 6.54-12.527 12.712-.556 10.919-.778 22.74 1.826 27.654.904 1.706 2.548 2.738 4.754 2.984.367.04.738.06 1.109.06l.004-.004zM170.19 1.456c1.25 0 2.452.237 3.544.81 1.061.556 1.722 1.298 1.968 2.205.318 1.166-.045 2.67-1.016 4.238-1.536 2.48-4.189 4.23-6.754 5.918-2.781 1.839-5.66 3.738-7.257 6.62-.665 1.202-.806 2.557-.423 4.028.427 1.633.839 3.302 1.238 4.915l.036.153c.157.641.319 1.278.48 1.92.721 2.87 1.471 5.837 1.959 8.776.028.17-.242.912-1.798 2.053-1.379 1.012-3.237 1.955-5.108 2.584-2.064.697-3.98.976-5.536.798-1.729-.193-2.947-.94-3.624-2.217-2.452-4.625-2.173-16.8-1.661-26.892.274-5.346 6.64-8.757 11.756-11.499.266-.14.524-.282.782-.419 2.96-1.593 7.431-4.004 11.418-4.004l-.004.013z" fill="#1A1A1A"/>
        <path d="M123.471 121.212c-6.907-2.403-11.652-11.486-10.023-18.328 1.302-5.475 5.821-9.628 10.684-12.466 3.471-2.024 8.499-3.976 10.519-7.628 1.209-2.19 1.637-4.71 2.044-7.177l6.592-39.737c5.495 2.504 12.297 2.802 17.651.008 5.963 17.498 8.825 31.54 9.245 49.986.173 7.749-.037 15.014-4.012 21.727-3.721 6.282-7.568 11.466-14.603 14.345-4.201 1.718-8.838 2.306-13.341 1.794-2.347-.27-4.621-.854-6.826-1.689-2.447-.927-3.681.048-6.185-.387a10.659 10.659 0 0 1-1.737-.452l-.008.004z" fill="#CACACA"/>
        <path d="M141.383 124.652c3.612 0 7.172-.686 10.454-2.028 6.903-2.822 10.838-7.697 14.958-14.652 4.104-6.926 4.286-14.413 4.113-22.114-.4-17.703-3.004-31.778-9.282-50.204a.733.733 0 0 0-.419-.443.717.717 0 0 0-.609.032c-4.87 2.544-11.389 2.536-17.01-.024a.726.726 0 0 0-.645.02.749.749 0 0 0-.379.524l-6.592 39.738c-.395 2.378-.802 4.838-1.963 6.942-1.48 2.681-4.846 4.46-7.818 6.028-.859.455-1.669.883-2.427 1.326-4.209 2.46-9.543 6.697-11.027 12.926-.822 3.463-.141 7.6 1.879 11.345 2.04 3.79 5.181 6.649 8.616 7.842.609.214 1.234.375 1.85.48 1.174.202 2.097.121 2.915.048 1.02-.088 1.899-.169 3.137.299 2.343.887 4.697 1.467 7.003 1.729a28.38 28.38 0 0 0 3.25.186h-.004zm19.123-87.744c6.035 17.89 8.547 31.694 8.938 48.978.169 7.48 0 14.74-3.911 21.336-3.963 6.693-7.729 11.374-14.252 14.043-4.036 1.649-8.527 2.254-12.982 1.742-2.186-.25-4.423-.802-6.653-1.645-1.552-.585-2.685-.488-3.782-.387-.798.072-1.552.137-2.536-.032a9.768 9.768 0 0 1-1.62-.424c-3.093-1.076-5.939-3.685-7.81-7.156-1.851-3.435-2.483-7.193-1.742-10.313 1.363-5.73 6.375-9.689 10.342-12.003.73-.427 1.528-.847 2.375-1.294 3.148-1.665 6.721-3.552 8.414-6.612 1.282-2.323 1.734-5.024 2.129-7.41l6.438-38.818c5.528 2.241 11.753 2.237 16.656-.013l-.004.008z" fill="#1A1A1A"/>
        <path d="M173.738 21.378c3.137-5.25 10.919-6.826 14.398-12.043 1.782-2.673 2.169-5.717-.984-7.511-4.729-2.69-11.434.536-15.744 2.68-5.314 2.642-9.946 6.452-13.962 10.991-5.475 6.193-.637 17.837 3.48 29.815 2.423 7.048 16.562-1.576 16.179-4.479-.48-3.637-1.959-7.277-2.725-10.862-.363-1.705-.726-3.415-1.113-5.116-.315-1.399-.097-2.528.471-3.475z" fill="#fff"/>
        <path d="M167.163 15.777c4.181 3.423 1.818 9.765 1.818 9.765-4.076 2.565-9.914 2.605-12.744-.826-2.428-2.947-.436-6.608.963-8.846 1.282-2.052 6.358-3.04 9.963-.089v-.004z" fill="#A5F20C"/>
        <path d="M165.066 48.75c.738 0 1.548-.101 2.419-.307 2.238-.524 4.85-1.762 6.995-3.306 1.339-.964 3.556-2.818 3.347-4.403-.291-2.197-.936-4.394-1.561-6.519-.427-1.451-.866-2.947-1.173-4.399l-.036-.165c-.347-1.625-.706-3.31-1.081-4.959-.254-1.12-.129-2.084.383-2.94 1.508-2.519 4.165-4.152 6.983-5.881 2.754-1.69 5.6-3.436 7.395-6.129 1.27-1.903 1.741-3.753 1.362-5.35-.314-1.326-1.185-2.403-2.592-3.201-5.169-2.94-12.22.564-16.434 2.66-5.108 2.54-9.881 6.294-14.183 11.165-5.262 5.95-1.633 16.316 2.205 27.287.371 1.064.758 2.165 1.129 3.25.722 2.104 2.407 3.2 4.838 3.2l.004-.003zm17.873-47.225c1.371 0 2.681.27 3.85.936 1.04.593 1.677 1.355 1.895 2.27.278 1.173-.133 2.665-1.157 4.2-1.617 2.428-4.326 4.089-6.943 5.698-2.842 1.746-5.781 3.548-7.47 6.378-.706 1.177-.892 2.528-.557 4.012.371 1.645.73 3.322 1.077 4.943l.036.165c.322 1.504.77 3.028 1.201 4.503.609 2.073 1.238 4.217 1.512 6.298.041.31-.576 1.46-2.753 3.024-1.996 1.435-4.415 2.584-6.475 3.068-2.992.701-4.855.048-5.54-1.947-.375-1.093-.762-2.194-1.133-3.258-3.693-10.555-7.185-20.526-2.492-25.836 4.177-4.725 8.802-8.366 13.741-10.82 2.923-1.456 7.305-3.634 11.208-3.634z" fill="#1A1A1A"/>
        <path d="m136.811 120.18 14.695-9.289c3.411-2.157 6.992-4.499 8.725-8.14 1.19-2.492 1.371-5.33 1.476-8.088.685-18.159-.996-34.536-4.621-54.566 6.786 2.016 15.023.452 20.538-3.987a241.271 241.271 0 0 1 15.337 37.814c3.75 12.095 6.564 24.634 6.286 37.294-.279 12.659-3.851 25.525-11.765 35.411-7.914 9.886-30.529 25.767-43.144 24.658-2.117-.185 5.737-11.007 4.58-12.785-7.128-10.958-10.414-25.356-12.103-38.318l-.004-.004z" fill="#D1D1D1"/>
        <path d="M145.636 172.069c7.652 0 17.215-5.165 22.421-8.37 8.027-4.947 15.877-11.47 19.997-16.615 3.854-4.814 6.838-10.498 8.874-16.901 1.879-5.914 2.907-12.293 3.052-18.949.242-10.93-1.766-22.852-6.318-37.528a242.402 242.402 0 0 0-15.385-37.927.722.722 0 0 0-.5-.383.747.747 0 0 0-.613.145c-5.293 4.262-13.28 5.81-19.868 3.855a.736.736 0 0 0-.698.157.72.72 0 0 0-.23.673c3.915 21.63 5.25 37.39 4.609 54.405-.105 2.778-.291 5.463-1.407 7.801-1.698 3.565-5.447 5.935-8.455 7.838l-14.696 9.289a.732.732 0 0 0-.334.714c2.181 16.696 6.172 29.327 12.208 38.608.234.746-1.613 4.254-2.609 6.145-2.024 3.838-2.798 5.495-2.29 6.426.174.323.496.524.879.561.448.04.903.056 1.363.056zm31.73-134.842a241.109 241.109 0 0 1 14.893 36.914c4.504 14.519 6.487 26.296 6.253 37.061-.145 6.519-1.149 12.756-2.983 18.538-1.98 6.229-4.878 11.756-8.62 16.429-4.024 5.024-11.724 11.418-19.623 16.284-9.079 5.596-17.074 8.475-22.569 8.124.169-.903 1.407-3.257 2.257-4.87 2.335-4.431 3.282-6.487 2.553-7.608-5.863-9.011-9.769-21.3-11.935-37.552l14.301-9.039c3.169-2.004 7.112-4.499 8.995-8.443 1.234-2.592 1.435-5.438 1.548-8.373.633-16.83-.649-32.432-4.427-53.59 6.5 1.531 14.035.032 19.361-3.871l-.004-.004z" fill="#1A1A1A"/>
        <path d="M85.54 174.842c11.103.568 19.396-3.367 19.396-3.367 11.918 9.471 31.029 10.954 42.068-.605 10.329-10.817 10.781-30.331 6.39-43.244-4.02-11.822-11.511-22.332-21.135-30.247-4.096-3.366-8.777-6.729-13.691-8.801-4.222-1.778-8.995-1.181-10.592-6.403-.705-2.31-.024-4.77 0-7.184.085-8.177-.141-16.849-4.552-23.731-5.152-8.035-15.95-11.946-25.053-9.072C69.267 45.063 62.675 54.465 63.074 64c.202 4.826 3.476 13.007 1.444 17.587-1.73 3.899-7.532 4.08-11.41 5.64-19.506 7.854-37.48 25.348-40.898 46.168-2.02 12.305 2.189 27.549 11.103 36.399 10.954 10.878 31.242 10.773 42.914 1.113 0 0 5.58 3.229 19.312 3.931v.004z" fill="url(#qk3hrkkeab)"/>
        <path d="M45.096 178.793h.206c8.689-.048 16.91-3.084 22.562-8.333 6.487-6.024 11.123-14.906 13.055-25.018 2.383-12.486 2.399-23.545 1.657-37.35a.728.728 0 0 0-.77-.689.728.728 0 0 0-.69.77c.738 13.692.722 24.654-1.633 36.995-1.87 9.805-6.35 18.409-12.61 24.219-5.387 4.999-13.253 7.894-21.579 7.943h-.197c-8.358 0-16.1-2.927-21.256-8.052-4.213-4.185-7.487-9.922-9.467-16.595-1.899-6.406-2.407-13.216-1.43-19.171 1.588-9.688 6.51-19.219 14.231-27.569 7.108-7.688 16.422-14.095 26.219-18.038 4.205-1.693 8.757-3.04 13.53-4a.73.73 0 1 0-.286-1.43c-4.862.979-9.503 2.35-13.788 4.075-9.995 4.024-19.494 10.56-26.747 18.401-7.915 8.56-12.966 18.353-14.6 28.324-1.011 6.168-.487 13.208 1.472 19.82 2.049 6.906 5.451 12.857 9.838 17.215 5.43 5.391 13.543 8.475 22.287 8.475l-.004.008zM126.808 179.797c8.204 0 15.526-2.96 20.739-8.419 4.87-5.1 7.955-12.454 8.914-21.259.827-7.596-.032-15.877-2.362-22.723-4.02-11.813-11.406-22.389-21.365-30.577a70.633 70.633 0 0 0-16.312-10.043 68.556 68.556 0 0 0-18.43-5.233.732.732 0 0 0-.197 1.447c12.398 1.681 24.158 6.854 34.012 14.954 9.749 8.015 16.978 18.36 20.909 29.919 2.262 6.649 3.096 14.704 2.294 22.095-.645 5.918-2.645 14.264-8.519 20.408-4.931 5.165-11.882 7.967-19.683 7.967a29.8 29.8 0 0 1-1.331-.028c-7.85-.315-15.635-3.407-21.36-8.483-7.148-6.338-12.777-15.345-15.055-24.094-2.93-11.252-4.148-23.336-3.73-36.943a.734.734 0 0 0-.709-.754.736.736 0 0 0-.754.71c-.427 13.748.807 25.968 3.774 37.358 2.347 9.015 8.144 18.292 15.502 24.816 5.971 5.293 14.087 8.519 22.268 8.849.467.021.931.029 1.391.029l.004.004z" fill="#1A1A1A"/>
        <path d="M49.68 149.856c.25 0 .496-.129.633-.363 7.29-12.458 11.72-27.291 12.474-41.765a.731.731 0 0 0-1.46-.072c-.741 14.244-5.104 28.843-12.276 41.104a.732.732 0 0 0 .629 1.1v-.004zM117.695 149.744a.727.727 0 0 0 .621-1.112c-7.692-12.487-12.418-27.437-13.301-42.096a.732.732 0 1 0-1.459.089c.899 14.893 5.697 30.085 13.514 42.773a.726.726 0 0 0 .621.346h.004zM69.662 69.043c4.631 8.552 3.228 18.17-2.096 26.16-2.537 3.808-6.71 8.385-11.717 8.152a7.87 7.87 0 0 1-3.038-.762c-1.188-.567-2.226-1.43-3.07-2.504-2.57-3.274-3.913-8.523-1.122-12.077 1.27-1.618 3.318-2.918 3.427-4.972.144-2.656-2.64-4.282-4.29-5.907-2.138-2.101-2.064-5.001-.657-7.557 1.077-1.955 2.726-3.515 4.226-5.17 3.803-4.192 3.29-8.458 2.648-13.51C52.95 42.88 58.308 34.9 64.966 30.8c9.193-5.663 19.567.78 19.07 11.505-.277 5.97-6.217 10.35-11.008 12.701-2.847 1.4-5.866 3.527-6.164 6.687-.247 2.653 1.527 5.003 2.793 7.347l.005.003z" fill="#1A1A1A"/>
        <path d="M58.111 103.889a8.77 8.77 0 0 1-2.292.199 8.561 8.561 0 0 1-3.321-.832c-1.277-.614-2.4-1.524-3.331-2.712-2.81-3.58-4.098-9.188-1.12-12.981.391-.498.844-.96 1.282-1.41.989-1.012 1.927-1.967 1.991-3.153.095-1.725-1.407-3.01-2.854-4.255a22.607 22.607 0 0 1-1.22-1.092c-2.206-2.169-2.496-5.32-.785-8.433.904-1.645 2.184-3.009 3.422-4.331.298-.32.61-.649.906-.977 3.606-3.975 3.102-7.922 2.462-12.924-.502-3.93.437-8.071 2.709-11.979 2.064-3.54 5.126-6.679 8.626-8.836 4.472-2.752 9.622-2.938 13.775-.488 4.265 2.512 6.657 7.244 6.407 12.65-.328 7.128-8.09 11.691-11.416 13.323-3.608 1.772-5.546 3.825-5.76 6.1-.178 1.928.858 3.712 1.955 5.602.252.436.514.883.756 1.33 4.502 8.315 3.725 18.123-2.13 26.913-1.595 2.394-3.306 4.33-5.083 5.758-1.645 1.315-3.313 2.161-4.983 2.525l.004.003zM69.53 29.715c-1.422.31-2.833.882-4.18 1.707-3.296 2.03-6.184 4.987-8.127 8.323-2.111 3.625-2.982 7.45-2.522 11.06.632 4.946 1.23 9.618-2.83 14.089-.304.334-.618.67-.92.992-1.228 1.312-2.39 2.555-3.205 4.037-.663 1.2-1.936 4.259.532 6.684.336.331.727.667 1.143 1.026 1.558 1.336 3.496 2.997 3.365 5.444-.092 1.737-1.271 2.934-2.404 4.097-.428.44-.833.854-1.176 1.288-1.903 2.424-2.127 7.037 1.118 11.174.794 1.011 1.737 1.784 2.81 2.297a7.116 7.116 0 0 0 2.759.69 7.338 7.338 0 0 0 1.895-.165c4.093-.892 7.428-5.039 9.179-7.665 5.543-8.326 6.295-17.584 2.058-25.404-.23-.425-.486-.864-.731-1.29-1.168-2.006-2.37-4.08-2.149-6.472.262-2.813 2.472-5.263 6.57-7.274 3.09-1.519 10.304-5.732 10.597-12.08.225-4.856-1.903-9.092-5.69-11.325-2.443-1.44-5.283-1.845-8.088-1.233h-.004zM86.12 174.872c5.963 0 11.885-.73 15.929-2.568a.732.732 0 0 0-.604-1.331c-3.653 1.661-9.43 2.524-16.285 2.435-5.93-.076-12.103-.891-16.11-2.129a.733.733 0 0 0-.432 1.4c4.177 1.286 10.862 2.193 17.502 2.193z" fill="#1A1A1A"/>
        <ellipse cx="84.796" cy="65.34" rx="21.605" ry="22.096" fill="#fff"/>
        <path d="M81.381 74.284c2.302 0 4.492-1.592 5.173-3.806a.728.728 0 0 0-.484-.91.728.728 0 0 0-.911.483c-.508 1.653-2.258 2.87-3.987 2.766-1.73-.105-3.319-1.52-3.625-3.226A.733.733 0 0 0 76.7 69a.733.733 0 0 0-.592.846c.423 2.38 2.564 4.282 4.975 4.427.1.004.201.008.298.008v.004zM90.046 61.366c.879 0 1.75-.371 2.354-1.012a.728.728 0 0 0-.028-1.032.728.728 0 0 0-1.032.028 1.819 1.819 0 0 1-1.363.552c-.5-.02-1-.278-1.31-.669a.73.73 0 1 0-1.145.911 3.265 3.265 0 0 0 2.39 1.222h.138-.004zM74.817 61.927a3.12 3.12 0 0 0 2.556-1.363.728.728 0 0 0-.202-1.012.728.728 0 0 0-1.012.202c-.302.455-.87.737-1.419.71a1.647 1.647 0 0 1-1.33-.864.73.73 0 1 0-1.299.67 3.115 3.115 0 0 0 2.548 1.648c.053 0 .105.005.162.005l-.004.004z" fill="#1A1A1A"/>
        <path d="M62.058 107.689c.605-11.551-1.089-23.139-5.54-33.65-.455-1.08-4.407-8.486-2.318-8.861.532-.097 1.044.254 1.467.609 3.847 3.217 6.052 7.966 7.782 12.66-1.415-3.79-2.161-7.685-3.355-11.443-.258-.814-.137-1.899.645-2.193.79-.295 1.601.42 2.133 1.096 2.984 3.802 4.52 8.5 5.991 13.08-.935-3.653-1.874-7.31-2.81-10.963-.157-.609-.302-1.286-.004-1.822 1.218-2.185 4.177 3.705 4.673 4.544 6.45 10.914 10.45 24.88 11.124 37.39 0 0-5.935 2.839-10.89 2.585-5.346-.275-8.898-3.028-8.898-3.028v-.004z" fill="#fff"/>
        <path d="M71.597 111.467c4.915 0 10.325-2.56 10.563-2.673a.733.733 0 0 0 .416-.698c-.698-12.905-4.891-27.008-11.225-37.72a25.875 25.875 0 0 1-.222-.4c-1.649-2.992-3.023-4.983-4.398-4.987-.315 0-.9.112-1.315.858-.46.827-.213 1.787-.064 2.363l.04.157a23.669 23.669 0 0 0-1.94-2.907c-.955-1.213-2.007-1.689-2.962-1.33-1.202.451-1.456 1.931-1.085 3.1.274.867.528 1.75.77 2.633-1.113-1.705-2.431-3.294-4.032-4.632-.52-.436-1.23-.92-2.064-.766-.444.08-.798.342-1 .741-.69 1.351.464 4.314 2.407 8.346.174.359.31.645.367.782 4.205 9.939 6.104 21.461 5.483 33.327a.738.738 0 0 0 .282.617c.154.117 3.798 2.899 9.31 3.181.226.012.451.016.681.016l-.012-.008zm9.487-3.79c-1.444.629-6.145 2.516-10.092 2.314-4.193-.213-7.245-2.032-8.184-2.661.568-11.942-1.371-23.541-5.616-33.568a25.05 25.05 0 0 0-.4-.847c-.467-.972-1.254-2.6-1.81-4.104-.786-2.117-.673-2.766-.625-2.911.278-.012.698.334.839.451 3.774 3.157 5.906 7.886 7.487 12.136.028.073.052.145.08.218.142.379.56.568.94.431a.73.73 0 0 0 .431-.94c-.024-.072-.052-.14-.08-.213-.787-2.145-1.375-4.366-1.944-6.52-.407-1.54-.83-3.132-1.318-4.676-.157-.5-.105-1.173.206-1.29.294-.11.802.23 1.302.862 2.943 3.746 4.43 8.379 5.874 12.854.121.375.52.588.9.48a.727.727 0 0 0 .503-.883l-2.81-10.963c-.125-.492-.234-.996-.073-1.286a.46.46 0 0 1 .069-.1c.246.052 1.068.556 3.088 4.225.11.193.19.346.246.439 6.137 10.382 10.229 24.013 10.995 36.56l-.008-.008z" fill="#1A1A1A"/>
        <path d="M104.286 106.58c-.669-11.107.806-22.26 4.858-32.472.432-1.088 4.209-8.587 2.117-8.914-.532-.085-1.036.278-1.451.641-3.774 3.302-5.871 8.1-7.491 12.833 1.326-3.822 1.987-7.733 3.088-11.514.238-.819.093-1.903-.698-2.177-.798-.279-1.592.455-2.108 1.144-2.9 3.871-4.322 8.6-5.693 13.213.855-3.673 1.705-7.35 2.56-11.023.141-.613.274-1.29-.036-1.823-1.266-2.157-4.093 3.802-4.568 4.649-6.201 11.06-9.878 25.114-10.265 37.637 0 0 4.064 2.858 9.72 3.144 7.225.367 9.963-5.334 9.963-5.334l.004-.004z" fill="#fff"/>
        <path d="M94.996 112.66c7.096 0 9.83-5.524 9.946-5.766a.788.788 0 0 0 .073-.358c-.693-11.547.923-22.365 4.806-32.162.056-.141.185-.427.351-.79 2.56-5.637 2.737-7.435 2.217-8.398a1.376 1.376 0 0 0-1.016-.718c-.838-.133-1.536.367-2.044.814-1.572 1.375-2.854 2.996-3.927 4.726.222-.891.456-1.778.71-2.653.342-1.174.052-2.653-1.157-3.072-.964-.34-2.008.157-2.932 1.395a23.994 23.994 0 0 0-1.874 2.95l.036-.156c.133-.577.359-1.545-.121-2.359-.435-.738-1.024-.839-1.334-.83-1.375.036-2.706 2.056-4.282 5.084-.093.18-.165.318-.214.407-6.084 10.857-9.958 25.05-10.358 37.971a.729.729 0 0 0 .31.621c.174.121 4.303 2.983 10.105 3.278.242.012.48.016.71.016h-.005zm8.547-6.241c-.491.891-3.128 5.063-9.184 4.761-4.483-.226-7.967-2.157-9.015-2.806.464-12.583 4.246-26.344 10.156-36.887.052-.092.133-.246.234-.443 1.935-3.713 2.746-4.233 2.992-4.294.016.016.04.048.072.1.17.287.073.795-.044 1.291l-2.56 11.023a.73.73 0 0 0 1.411.371c1.338-4.508 2.721-9.169 5.576-12.983.483-.645.987-.995 1.282-.89.31.108.383.778.234 1.286-.456 1.56-.839 3.16-1.21 4.705-.52 2.16-1.056 4.398-1.794 6.56l-.073.213a.733.733 0 0 0 .452.927.724.724 0 0 0 .927-.451c.024-.073.049-.145.077-.218 1.479-4.286 3.503-9.063 7.205-12.305.137-.12.54-.472.814-.472h.012c.052.142.181.787-.556 2.927-.524 1.52-1.27 3.165-1.718 4.145-.181.395-.31.681-.379.855-3.943 9.938-5.596 20.9-4.919 32.585h.008z" fill="#1A1A1A"/>
        <path d="M101.867 67.62c-2.705 9.341.714 18.441 7.616 25.114 3.29 3.18 8.342 6.765 13.184 5.47a7.87 7.87 0 0 0 2.806-1.39c1.04-.806 1.871-1.87 2.467-3.1 1.815-3.746 2.008-9.16-1.475-12.04-1.585-1.31-3.863-2.144-4.407-4.128-.706-2.564 1.669-4.745 2.935-6.684 1.641-2.508.952-5.326-.967-7.524-1.468-1.681-3.411-2.854-5.23-4.153-4.608-3.285-5.015-7.563-5.463-12.635-.705-8.051-7.64-14.708-15.018-17.296-10.188-3.577-18.953 4.926-16.184 15.3 1.54 5.774 8.278 8.79 13.458 10.067 3.08.762 6.484 2.198 7.447 5.222.806 2.54-.427 5.213-1.165 7.773l-.004.004z" fill="#1A1A1A"/>
        <path d="M120.57 99.21c.782 0 1.544-.097 2.282-.295a8.55 8.55 0 0 0 3.068-1.52c1.117-.87 2.02-2 2.677-3.358 1.984-4.096 2.048-9.85-1.669-12.922-.488-.403-1.028-.758-1.552-1.105-1.182-.778-2.302-1.512-2.617-2.657-.46-1.665.734-3.241 1.883-4.765.347-.456.673-.887.959-1.327 1.694-2.588 1.307-5.729-1.028-8.406-1.233-1.415-2.773-2.475-4.265-3.503-.359-.25-.734-.504-1.093-.762-4.37-3.117-4.717-7.08-5.156-12.104-.347-3.947-2.145-7.793-5.197-11.127-2.77-3.02-6.431-5.435-10.31-6.798-4.955-1.738-10.027-.823-13.563 2.455-3.632 3.363-4.963 8.495-3.568 13.724 1.839 6.895 10.394 9.7 13.99 10.588 3.903.963 6.234 2.556 6.927 4.733.585 1.847-.048 3.81-.717 5.89-.154.48-.315.972-.456 1.46-2.629 9.084.218 18.502 7.809 25.844 2.069 2 4.153 3.528 6.193 4.544 1.887.935 3.697 1.407 5.407 1.407l-.004.004zM93.626 29.166c1.455 0 2.955.258 4.447.778 3.652 1.282 7.104 3.556 9.712 6.402 2.834 3.093 4.5 6.645 4.818 10.27.435 4.966.847 9.66 5.765 13.163.367.262.746.524 1.109.774 1.48 1.02 2.879 1.988 3.992 3.262.903 1.032 2.798 3.75.903 6.644-.258.395-.569.806-.899 1.246-1.238 1.637-2.778 3.673-2.129 6.035.46 1.678 1.867 2.597 3.221 3.492.512.339.996.657 1.424 1.008 2.374 1.963 3.576 6.422 1.286 11.156-.561 1.157-1.319 2.112-2.258 2.842a7.127 7.127 0 0 1-2.548 1.262 7.366 7.366 0 0 1-1.887.242c-4.189 0-8.33-3.342-10.6-5.536-7.188-6.954-9.894-15.84-7.418-24.384.133-.463.29-.947.439-1.415.714-2.21 1.448-4.491.722-6.781-.855-2.694-3.536-4.617-7.967-5.71-3.342-.826-11.289-3.406-12.925-9.546-1.254-4.697-.077-9.29 3.148-12.277 2.08-1.927 4.77-2.927 7.64-2.927h.005z" fill="#1A1A1A"/>
        <path d="M67.045 57.054c-1.371 3.971-1.605 8.519-2.024 12.676.032-.327-1.496-1.71-1.75-2.02a41.659 41.659 0 0 1-4.923-7.668c-1.927-3.887-3.028-7.5-3.064-11.874-.048-6.568 2.201-12.962 7.818-16.724 4.765-3.189 11.002-4.015 16.413-2.088 2.028.721 4.044 2.04 4.919 4.088.987 2.318.62 5.79-.081 8.164-.722 2.44-2.423 4.605-4.697 5.77-2.455 1.262-5.294 1.39-7.64 2.927-2.278 1.492-3.923 3.874-4.855 6.402-.04.113-.084.23-.12.343l.004.004z" fill="#1A1A1A"/>
        <path d="M65.024 70.46a.73.73 0 0 0 .726-.657c.065-.654.125-1.31.186-1.976.33-3.572.669-7.265 1.798-10.535a10.7 10.7 0 0 1 .117-.33c.96-2.597 2.58-4.742 4.572-6.044 1.21-.79 2.572-1.186 4.011-1.6 1.182-.344 2.403-.694 3.56-1.291 2.42-1.242 4.266-3.508 5.064-6.213.706-2.39 1.145-6.096.053-8.656-.839-1.968-2.738-3.56-5.347-4.492-5.563-1.98-12.103-1.149-17.062 2.17-5.31 3.556-8.2 9.712-8.144 17.336.032 4.173.972 7.818 3.14 12.192a42.332 42.332 0 0 0 5.008 7.806c.093.113.25.27.52.54.282.282.915.915 1.08 1.17a.73.73 0 0 0 .642.572h.072l.004.008zm1.33-13.644c-1.189 3.435-1.535 7.217-1.87 10.878l-.016.19-.206-.206a10.532 10.532 0 0 1-.415-.428 40.7 40.7 0 0 1-4.83-7.535c-2.064-4.16-2.955-7.616-2.987-11.555-.057-7.116 2.608-12.837 7.495-16.111 4.584-3.068 10.623-3.838 15.76-2.008 1.286.46 3.58 1.544 4.491 3.685.88 2.065.58 5.342-.109 7.673-.677 2.29-2.294 4.282-4.33 5.326-1.032.528-2.133.846-3.298 1.185-1.48.427-3.012.87-4.407 1.782-2.25 1.472-4.076 3.875-5.14 6.761l-.13.36-.007.003z" fill="#1A1A1A"/>
    </g>
    <defs>
        <linearGradient id="qk3hrkkeab" x1="24.893" y1="165.507" x2="82.497" y2="107.518" gradientUnits="userSpaceOnUse">
            <stop stop-color="#00BB79"/>
            <stop offset="1" stop-color="#96E074"/>
        </linearGradient>
        <clipPath id="zp935cc41a">
            <path fill="#fff" d="M0 0h210v192H0z"/>
        </clipPath>
    </defs>
</svg>
