<svg width="210" height="192" viewBox="0 0 210 192" fill="none" xmlns="http://www.w3.org/2000/svg">
    <path d="M82.38 168.747c-5.63 10.304-15.303 17.797-28.679 21.364-15.45 4.12-36.672-2.045-45.362-16.026-21.647-34.825 5.712-75.193 40.335-87.475 12.492-4.431 25.09-9.15 37.26-4.865 3.068 1.08 5.986 2.509 8.894 3.963 7.453 3.727 14.39 8.48 20.295 14.342 6.897 6.846 11.6 15.209 15.139 24.215 1.351 3.438 2.254 7.101 4.315 10.22 1.792 2.714 5.412 5.196 8.615 3.015 2.03-1.383 3.272-3.818 4.256-5.986 1.43-3.149 2.439-6.485 3.319-9.822.45-1.705.862-3.419 1.244-5.141l20.269 1.845c-1.894 53.862-27.724 83.919-87.244 51.425l-2.656-1.074z" fill="url(#3uo119p9ia)"/>
    <path d="M61.084 102.69c-.854 0-1.738-.058-2.65-.177-3.757-.484-7.052-1.849-9.154-2.91-4.731-2.383-6.937-5.716-8.614-8.963a.634.634 0 0 1 .275-.856.64.64 0 0 1 .86.274c1.826 3.533 3.895 6.314 8.055 8.412 9.662 4.87 15.838 2.388 17.5 1.51 2.022-1.067 5.487-4.106 4.907-6.118v-.004a.638.638 0 0 1 1.227-.353v.003c.474 1.628.846 2.836 1.318 3.544 1.647 2.468 4.63 4.243 7.252 4.316 7.45.202 18.19-3.751 18.971-11.723a.637.637 0 0 1 .697-.57.635.635 0 0 1 .573.693c-.278 2.849-1.839 6.886-7.686 9.945-3.723 1.948-8.426 3.042-12.59 2.926-3.012-.084-6.416-2.092-8.28-4.884-.26-.39-.48-.858-.694-1.42-1.115 2.103-3.636 4-5.094 4.769-2 1.054-4.302 1.585-6.87 1.585l-.003.001z" fill="#1A1A1A"/>
    <path d="M43.617 192c-5.062 0-10.333-.844-15.333-2.511-9.046-3.014-16.32-8.366-20.488-15.068-4.37-7.031-6.932-14.56-7.611-22.377-.632-7.258.358-14.657 2.94-21.992 3.402-9.664 9.5-18.917 17.634-26.756 8.011-7.72 17.59-13.698 27.702-17.284l1.029-.365c12.099-4.298 24.61-8.743 36.66-4.5 3.053 1.074 5.982 2.502 8.966 3.994 7.878 3.94 14.761 8.804 20.459 14.46 6.27 6.224 11.27 14.216 15.283 24.433.384.975.736 1.981 1.076 2.953.855 2.443 1.739 4.971 3.178 7.15.943 1.426 2.659 3.091 4.646 3.481 1.098.216 2.134 0 3.075-.642 1.917-1.306 3.088-3.639 4.036-5.725 1.519-3.345 2.552-6.953 3.283-9.721.304-1.153.566-2.393.818-3.592.117-.548.235-1.114.357-1.658a.638.638 0 0 1 .685-.496l20.333 1.979a.636.636 0 0 1 .576.663c-.725 15.046-3.112 27.725-7.092 37.687-4.28 10.709-10.457 18.408-18.362 22.882-14.909 8.439-36.013 5.541-62.727-8.614a.636.636 0 1 1 .599-1.123c26.301 13.936 46.992 16.841 61.496 8.63 7.646-4.327 13.636-11.811 17.806-22.246 3.876-9.698 6.22-22.033 6.974-36.673l-19.162-1.864c-.079.365-.157.734-.232 1.095-.256 1.213-.521 2.468-.833 3.653-.742 2.817-1.796 6.49-3.355 9.922-1.093 2.407-2.393 4.83-4.478 6.25-1.219.829-2.616 1.12-4.043.839-2.376-.466-4.381-2.387-5.466-4.029-1.526-2.311-2.437-4.914-3.318-7.431a82.301 82.301 0 0 0-1.058-2.908c-3.949-10.051-8.854-17.9-14.995-23.996-5.603-5.56-12.375-10.347-20.132-14.225-2.944-1.472-5.836-2.881-8.819-3.931-5.2-1.832-10.98-2.128-17.669-.906-6.008 1.097-12.174 3.287-18.136 5.406l-1.03.366c-9.94 3.526-19.36 9.404-27.24 17-7.993 7.704-13.982 16.785-17.319 26.264-5.287 15.016-3.712 29.981 4.553 43.278 4.01 6.45 11.044 11.612 19.807 14.531 8.304 2.767 17.36 3.21 24.848 1.213 14.234-3.795 24.573-12.212 29.9-24.342 3.724-8.48 4.913-18.418 3.534-29.536-1.407-11.339-5.432-23.401-11.966-35.86l-18.994 5.044c1.798 7.811 3.325 15.59 2.78 24.512-.414 6.758-2.024 12.43-4.785 16.862-2.07 3.321-5.604 7.38-10.676 7.851a5.586 5.586 0 0 1-5.359-2.724c-1.044-1.754-1.03-3.825.039-5.405a.64.64 0 0 1 .886-.171c.292.196.37.591.172.882-.79 1.169-.79 2.719 0 4.046.681 1.142 2.127 2.295 4.142 2.107 4.551-.423 7.792-4.179 9.71-7.256 2.649-4.25 4.195-9.723 4.595-16.269.55-8.98-1.052-16.83-2.887-24.748a.634.634 0 0 1 .457-.757l20.084-5.333a.64.64 0 0 1 .729.318c6.745 12.755 10.897 25.119 12.34 36.746 1.408 11.348.186 21.509-3.63 30.201-5.49 12.496-16.118 21.162-30.74 25.061-3.198.853-6.673 1.275-10.25 1.275h-.002z" fill="#1A1A1A"/>
    <path d="M72.877 93.682c-13.006.85-24.203-8.616-24.203-8.616 6.32-3.2-1.623-35.456 7.253-46.563 6.6-8.26 16.89-11.213 25.13-3.745 7.656 6.94 9.606 19.383 10.038 29.186.301 6.864.126 16.201 3.734 21.766.251.387-9.408 7.153-21.952 7.972z" fill="#fff"/>
    <path d="M71.27 94.37c-3.798 0-9.219-.819-15.663-4.11-4.439-2.268-7.229-4.61-7.345-4.708a.634.634 0 0 1 .124-1.05c2.532-1.284 2.441-9.016 2.345-17.203-.125-10.77-.268-22.978 4.696-29.19 3.91-4.895 8.882-7.815 13.998-8.224 4.33-.345 8.502 1.178 12.063 4.405 3.532 3.203 6.194 7.85 7.912 13.814 1.301 4.518 2.064 9.69 2.333 15.815.038.863.068 1.75.1 2.69.21 6.254.474 14.037 3.533 18.757a.69.69 0 0 1 .027.69c-.346.686-3.256 2.597-6.878 4.243-3.517 1.598-9.077 3.593-15.595 4.019-.508.033-1.06.053-1.649.053l-.001-.001zm-21.543-9.284c1.06.81 3.379 2.469 6.492 4.057 3.959 2.018 10.053 4.334 16.615 3.905 6.21-.406 11.53-2.288 14.9-3.795 3.3-1.476 5.575-2.975 6.313-3.593-3.019-5.032-3.28-12.764-3.491-19.01-.032-.937-.062-1.82-.1-2.678-.603-13.706-3.909-23.376-9.83-28.743-3.293-2.985-7.13-4.395-11.1-4.078-4.692.375-9.467 3.199-13.1 7.747-4.682 5.86-4.541 17.826-4.419 28.384.1 8.535.18 15.43-2.282 17.804h.002zM78.094 20.73c2.098-1.838 3.51-4.609 3.188-7.373-.424-3.634-3.623-6.352-6.964-7.878-5.13-2.342-11.284-2.705-16.406-.345-6.532 3.01-11.517 12.312-4.375 17.491 2.074 1.504 6.246 5.235 9.5 5.42 5.974.336 11.62-4.302 15.059-7.315h-.002z" fill="#1A1A1A"/>
    <path d="M63.68 28.7c-.227 0-.453-.007-.68-.02-2.885-.163-6.32-2.828-8.593-4.591a53.207 53.207 0 0 0-1.247-.949c-3.463-2.511-3.93-5.657-3.713-7.854.416-4.22 3.864-8.732 8.197-10.727 5.044-2.325 11.377-2.195 16.941.344 1.884.861 3.534 1.997 4.771 3.286 1.485 1.549 2.347 3.263 2.56 5.095.324 2.767-.979 5.804-3.399 7.925-4.252 3.725-9.316 7.49-14.836 7.49h-.002zm1.815-24.528c-2.576 0-5.082.513-7.315 1.54-3.948 1.82-7.087 5.898-7.463 9.698-.264 2.677.84 4.995 3.196 6.703.37.268.791.595 1.28.974 2.147 1.665 5.393 4.184 7.88 4.324 5.325.301 10.368-3.448 14.6-7.157 2.11-1.85 3.25-4.464 2.974-6.824-.485-4.158-4.773-6.54-6.596-7.372-2.75-1.256-5.697-1.887-8.557-1.887l.001.001zM62.87 55.17c-.613.063-1.096.59-.977 1.057.118.468.798.778 1.395.645.265-.059.574-.448.705-.637.382-.55-.357-1.142-1.123-1.065z" fill="#1A1A1A"/>
    <path d="M62.997 57.54c-.8 0-1.551-.478-1.724-1.158-.093-.367-.013-.758.227-1.097.293-.415.78-.694 1.306-.748.716-.071 1.443.253 1.762.792.24.405.22.878-.049 1.267-.245.352-.633.793-1.09.896a1.994 1.994 0 0 1-.432.047zm-.483-1.463c.046.086.325.23.607.18.059-.038.183-.16.305-.325a.72.72 0 0 0-.491-.128c-.256.025-.407.206-.42.273zM81.218 56.539c.596-.147.975-.735.768-1.18-.205-.447-.94-.658-1.507-.443-.251.096-.517.35-.611.556-.275.595.605 1.251 1.35 1.068v-.001z" fill="#1A1A1A"/>
    <path d="M80.956 57.205c-.55 0-1.11-.246-1.459-.666-.332-.4-.41-.898-.21-1.333.17-.37.568-.735.965-.885.888-.335 1.97.026 2.314.772.162.351.15.767-.03 1.14a1.766 1.766 0 0 1-1.579.974l-.001-.002zm-.492-1.495c.067.107.345.276.6.212.235-.057.347-.25.34-.302-.042-.084-.396-.223-.698-.108a.705.705 0 0 0-.242.2v-.002zM50.874 54.638c.3.61 5.848-5.44 7.673-7.167 3.725-3.526 5.778-6.322 6.449-11.289.466-3.456-1.033-9.001-4.756-10.41-1.394-.528-2.993-.336-4.35.281-4.376 1.986-7.444 6.33-8.217 10.867-.964 5.656.098 11.388 3.203 17.719l-.002-.001z" fill="#1A1A1A"/>
    <path d="M50.955 55.318a.809.809 0 0 1-.124-.01.707.707 0 0 1-.531-.39c-3.169-6.461-4.235-12.383-3.26-18.105.836-4.9 4.205-9.352 8.582-11.338 1.626-.738 3.39-.846 4.843-.297 1.844.698 3.376 2.404 4.316 4.802.79 2.013 1.105 4.363.846 6.288-.699 5.182-2.874 8.098-6.642 11.665-.507.48-1.303 1.296-2.224 2.24-4.242 4.35-5.182 5.145-5.808 5.145h.002zm7.54-29.216c-.762 0-1.567.177-2.341.53-4.004 1.817-7.085 5.897-7.853 10.395-.903 5.293.042 10.794 2.889 16.797.997-.785 3.323-3.169 4.657-4.537.931-.954 1.734-1.778 2.26-2.275 3.636-3.443 5.603-6.077 6.255-10.913.229-1.697-.066-3.863-.768-5.658-.808-2.058-2.08-3.507-3.581-4.075a4.289 4.289 0 0 0-1.517-.264z" fill="#1A1A1A"/>
    <path d="M89.209 49.876c-3.215-4.399-6.263-7.584-9.94-9.06-4.004-1.608-9.73.342-12.03-3.292a29.942 29.942 0 0 1-2.865-5.846c-.763-2.12-1.843-4.345-1.072-6.626 1.003-2.974 5.39-3.153 8.059-3.185 5.776-.067 11.817 2.524 15.611 6.89 3.918 4.507 4.785 10.534 3.871 16.288-.182 1.146-.465 4.223-1.62 4.845l-.014-.016v.002z" fill="#1A1A1A"/>
    <path d="M89.222 50.527a.64.64 0 0 1-.463-.199l-.01-.01a.758.758 0 0 1-.058-.069c-3.6-4.926-6.49-7.57-9.662-8.843-1.453-.584-3.22-.67-4.926-.753-2.862-.14-5.821-.285-7.406-2.791a30.608 30.608 0 0 1-2.926-5.969c-.097-.27-.199-.54-.301-.812-.711-1.889-1.518-4.029-.775-6.232 1.191-3.531 6.233-3.59 8.657-3.618l.228-.001c5.987 0 12.05 2.71 15.874 7.11 3.647 4.197 5.074 10.164 4.019 16.804-.022.138-.045.304-.072.492-.292 2.083-.68 4.17-1.876 4.813a.635.635 0 0 1-.304.076l.001.002zM71.582 22.5h-.215c-3.242.039-6.665.395-7.46 2.752-.6 1.775.092 3.608.76 5.38.104.279.209.555.307.83a29.342 29.342 0 0 0 2.805 5.72c1.23 1.945 3.62 2.062 6.387 2.199 1.814.089 3.688.18 5.342.843 3.277 1.314 6.227 3.929 9.78 8.685.485-.862.74-2.677.849-3.452.027-.196.052-.37.075-.514.996-6.263-.325-11.866-3.722-15.773-3.587-4.128-9.283-6.672-14.907-6.672v.003zM69.327 71.265a5.12 5.12 0 0 1-2.072-.433c-1.655-.734-2.84-2.368-3.02-4.163a.637.637 0 0 1 1.27-.126c.133 1.328 1.045 2.584 2.27 3.127 1.224.543 2.773.38 3.855-.41a.64.64 0 0 1 .892.137.634.634 0 0 1-.137.889 5.208 5.208 0 0 1-3.058.977v.002z" fill="#1A1A1A"/>
    <path d="M93.669 50.907c-1.187-.451-2.737-.337-3.53.764-.386.536-.27 1.22-.614 1.731-.353.523-.982.801-1.318 1.392-.465.82-.595 1.796-.533 2.735.063.94.307 1.858.55 2.767.167.629.462 1.375 1.11 1.46.263.034.527-.057.792-.079.66-.052.95.672 1.456.963.513.295 1.172.384 1.75.272 1.034-.201 1.839-.941 2.275-1.774 1.512-2.883 1.777-8.818-1.937-10.232l-.001.001z" fill="#fff"/>
    <path d="M92.87 63.592c-1.132 0-2.354-.582-2.698-1.653a.636.636 0 0 1 .414-.8.64.64 0 0 1 .803.412c.17.528 1.054.886 1.82.738.75-.145 1.434-.686 1.832-1.445.915-1.744 1.36-4.866.522-7.071-.433-1.137-1.146-1.902-2.12-2.274-.897-.34-1.832-.267-2.442.194-.496.374-.722.962-.654 1.701a.639.639 0 0 1-1.272.114c-.108-1.182.302-2.187 1.155-2.83.959-.723 2.365-.863 3.669-.366 1.31.5 2.298 1.54 2.858 3.01 1.002 2.634.448 6.145-.583 8.11-.576 1.1-1.592 1.885-2.719 2.104a3.035 3.035 0 0 1-.583.055l-.003.001z" fill="#1A1A1A"/>
    <path d="M55.248 104.347c-1.087-4.049-2.8-8.053-4.395-11.978-4.464-10.987-8.806-21.818-10.076-33.695-.244-2.284-.508-4.635-.156-6.923.153-.99.419-2.263 1.295-2.89 2.23-1.597 3.358 2.473 3.726 3.905.79 3.076 3.486 14.899 4.134 17.708-.087-1.145-2.733-13.975-2.622-16.265.102-2.11 2.775-2.627 3.714-.543 1.027 2.279 3.992 12.815 5.08 16.202-.692-3.725-1.972-6.54-2.424-11.26-.087-.91.529-2.043 1.41-2.302 2.102-.622 7.047 12.867 7.851 15.176 3.817 10.954 10.12 22.89 12.546 27.53 0 0-5.724 3.477-9.356 4.37-6.385 1.569-10.728.965-10.728.965h.001z" fill="#fff"/>
    <path d="M57.54 105.101c-1.453 0-2.3-.113-2.379-.123a.64.64 0 0 1-.529-.466c-.948-3.531-2.398-7.079-3.801-10.51l-.569-1.393c-4.335-10.668-8.817-21.702-10.117-33.865l-.016-.143c-.242-2.272-.494-4.622-.136-6.942.187-1.222.52-2.57 1.552-3.31.84-.602 1.55-.534 1.996-.373 1.513.547 2.277 2.907 2.722 4.635.08.313.181.718.297 1.197.19-1.058.95-1.865 1.981-2.058 1.378-.26 2.456.647 2.912 1.66.34.757.886 2.386 1.502 4.353.24-1.014 1.014-1.832 1.799-2.063 1.055-.312 2.009.933 2.721 2.053.71 1.117 1.536 2.726 2.456 4.786 1.494 3.346 2.915 7.178 3.46 8.737 3.684 10.573 9.703 22.082 12.274 26.997l.235.449a.636.636 0 0 1-.234.836c-.237.144-5.85 3.538-9.535 4.443-3.668.902-6.661 1.101-8.59 1.101v-.001zm-1.789-1.337c1.73.157 5.54.116 10.073-.998 2.876-.707 7.193-3.133 8.664-3.991-2.608-4.986-8.61-16.482-12.304-27.083a127.945 127.945 0 0 0-3.25-8.252c-2.613-5.939-3.67-6.466-3.843-6.513-.534.179-.991.972-.928 1.623.273 2.858.862 5.022 1.43 7.115.352 1.297.716 2.638.986 4.09a.636.636 0 0 1-.473.733.637.637 0 0 1-.764-.424c-.355-1.105-.896-2.928-1.524-5.039-1.272-4.275-2.853-9.595-3.53-11.097-.372-.825-1.023-1.022-1.51-.93-.45.085-.946.456-.984 1.243-.07 1.469 1.16 8.089 1.895 12.042.456 2.455.696 3.755.725 4.142a.637.637 0 0 1-1.258.19l-.449-1.958c-.98-4.27-3.017-13.156-3.68-15.734-.755-2.937-1.528-3.613-1.921-3.755-.15-.054-.396-.09-.815.21-.648.465-.888 1.509-1.037 2.47-.332 2.157-.09 4.424.145 6.615l.015.142c1.282 11.987 5.73 22.935 10.032 33.524.188.462.378.926.569 1.39 1.362 3.333 2.77 6.775 3.737 10.242v.003z" fill="#1A1A1A"/>
    <path d="M151.949 116.419c2.163-9.762 4.254-19.74 4.427-19.697-3.508-.88-7.587-2.19-10.825-3.795-1.416-.702-3.005-1.825-2.865-3.393.123-1.377 1.636-2.278 3.026-2.278 3.39 0 11.183 2.364 14.798 2.348 3.817-.016 8.118-2.715 11.432-4.32 4.952-2.401 9.793-5.308 15.308-6.2.926-.15 3.994-.364 3.801 1.3-.136 1.178-12.803 7.457-15.863 8.621 6.032-2.558 14.89-6.926 20.998-7.328.944-.062 2.239.222 2.22 1.163-.013.676-.747 1.074-1.377 1.33l-15.01 6.085c5.416-2.327 10.843-3.533 16.635-4.647.904-.174 1.892-.322 2.706.108.813.43 1.206 1.694.493 2.272l-1.06.598c-9.019 3.038-19.787 5.27-24.235 13.875-2.185 4.227-3.393 9.702-4.274 15.938 0 0-5.835.665-10.249.316-5.29-.417-10.084-2.295-10.084-2.295l-.002-.001z" fill="#fff"/>
    <path d="M164.922 119.451c-.995 0-1.996-.029-2.94-.104-5.322-.42-10.068-2.26-10.267-2.337a.637.637 0 0 1-.39-.729c.675-3.043 1.35-6.145 1.947-8.881.666-3.064 1.243-5.709 1.68-7.646.289-1.28.474-2.078.607-2.584-2.539-.664-6.728-1.907-10.293-3.674-2.272-1.125-3.354-2.477-3.217-4.018.074-.828.538-1.58 1.306-2.12a4.204 4.204 0 0 1 2.357-.738c1.725 0 4.417.562 7.267 1.156 2.81.586 5.715 1.192 7.495 1.192h.032c2.926-.012 6.218-1.719 9.123-3.226.713-.368 1.386-.718 2.032-1.03.95-.461 1.915-.95 2.849-1.424 3.975-2.014 8.086-4.097 12.636-4.834.298-.048 2.94-.44 4.057.623.378.36.544.837.482 1.378-.033.281-.081.69-2.208 2.027 2.378-.764 4.662-1.31 6.666-1.44.775-.052 1.818.097 2.42.668a1.5 1.5 0 0 1 .481 1.14c-.023 1.197-1.341 1.731-1.774 1.907l-2.329.945c1.212-.256 2.41-.492 3.592-.72 1.04-.2 2.138-.351 3.127.172.652.344 1.121 1.054 1.195 1.805.06.61-.158 1.165-.599 1.521a.64.64 0 0 1-.088.06l-1.06.597a.596.596 0 0 1-.11.05c-1.264.426-2.587.843-3.867 1.247-8.013 2.53-16.298 5.148-20.003 12.317-1.89 3.657-3.189 8.509-4.211 15.735a.637.637 0 0 1-.559.543c-.189.022-3.763.424-7.432.424l-.004-.002zm-12.229-3.438c1.359.479 5.244 1.74 9.391 2.066 3.571.283 8.15-.117 9.637-.263 1.032-7.103 2.353-11.944 4.268-15.648 3.948-7.64 12.492-10.337 20.753-12.947 1.254-.396 2.551-.806 3.786-1.22l.949-.536c.086-.087.12-.216.103-.384-.031-.324-.251-.662-.522-.806-.622-.328-1.47-.202-2.286-.046-4.686.902-9.641 1.94-14.582 3.829l-1.932.783a.64.64 0 0 1-.83-.343.633.633 0 0 1 .335-.83 50.641 50.641 0 0 1 1.961-.794l13.062-5.296c.846-.343.977-.62.98-.753a.238.238 0 0 0-.086-.197c-.236-.225-.849-.36-1.453-.319-4.953.326-11.897 3.381-17.477 5.837l-.85.372a44.068 44.068 0 0 1-2.486 1.077.635.635 0 0 1-.478-1.179c.897-.38 1.853-.8 2.861-1.242 4.638-2.158 11.842-5.957 12.623-6.949a.288.288 0 0 0-.099-.23c-.47-.448-2.05-.436-2.969-.288-4.352.705-8.374 2.742-12.262 4.713-.939.475-1.909.968-2.87 1.433-.631.306-1.296.651-2.001 1.016-3.033 1.573-6.472 3.356-9.708 3.37h-.037c-1.914 0-4.885-.62-7.758-1.22-2.661-.556-5.412-1.129-7.006-1.129-1.08 0-2.298.683-2.389 1.699-.107 1.205 1.308 2.17 2.513 2.767 3.788 1.875 8.329 3.153 10.698 3.747a.635.635 0 0 1 .383.958c-.238.698-1.287 5.514-2.396 10.606-.56 2.576-1.192 5.475-1.827 8.343l.001.003zm3.529-18.675z" fill="#1A1A1A"/>
    <path d="M124.076 37.312c1.733-10.416 8.043-20.212 18.366-25.558 13.983-7.239 32.678-5.415 43.98 6.317 13.056 13.555 10.433 36.307-2.339 49.04-21.955 21.886-65.695 4.392-60.007-29.799z" fill="#FEC729"/>
    <path d="M159.299 73.765a.637.637 0 0 1-.638-.635v-5.078a.637.637 0 0 1 1.277 0v5.078a.637.637 0 0 1-.639.635zM159.299 16.896a.637.637 0 0 1-.638-.636v-5.13a.637.637 0 0 1 1.277 0v5.13c0 .351-.286.636-.639.636zM132.434 43.093h-4.268a.637.637 0 0 1-.638-.636c0-.35.286-.636.638-.636h4.268c.353 0 .639.285.639.636 0 .351-.286.636-.639.636zM190.432 43.093h-4.648a.637.637 0 0 1-.639-.636c0-.35.286-.636.639-.636h4.648c.352 0 .638.285.638.636 0 .351-.286.636-.638.636zM181.475 56.61a.643.643 0 0 1-.339-.097L158.959 42.67a.634.634 0 0 1-.202-.877.64.64 0 0 1 .88-.2l22.177 13.843a.633.633 0 0 1-.339 1.174z" fill="#1A1A1A"/>
    <path d="M159.299 42.766a.636.636 0 0 1-.604-.842l7.002-20.361a.64.64 0 0 1 .811-.395.636.636 0 0 1 .397.807l-7.002 20.361a.637.637 0 0 1-.604.43z" fill="#1A1A1A"/>
    <path d="M159.299 45.542a3.42 3.42 0 0 0 3.427-3.412 3.42 3.42 0 0 0-3.427-3.411 3.419 3.419 0 0 0-3.426 3.411 3.419 3.419 0 0 0 3.426 3.412z" fill="#fff"/>
    <path d="M187.033 9.633a.637.637 0 0 1-.571-.92l4.186-8.36a.637.637 0 0 1 1.142.568l-4.185 8.36a.639.639 0 0 1-.572.352zM194.02 16.625a.637.637 0 0 1-.403-1.129l14.672-11.854a.64.64 0 0 1 .897.092.634.634 0 0 1-.093.894l-14.672 11.855a.64.64 0 0 1-.402.142h.001zM201.669 25.623a.637.637 0 0 1-.219-1.233l7.693-2.785a.636.636 0 1 1 .437 1.195l-7.693 2.785a.618.618 0 0 1-.218.038z" fill="#1A1A1A"/>
    <defs>
        <linearGradient id="3uo119p9ia" x1="44.516" y1="184.736" x2="81.122" y2="102.811" gradientUnits="userSpaceOnUse">
            <stop stop-color="#FED35A"/>
            <stop offset=".36" stop-color="#FEC65A"/>
            <stop offset="1" stop-color="#FFA75D"/>
        </linearGradient>
    </defs>
</svg>
