<svg width="187" height="141" viewBox="0 0 187 141" fill="none" xmlns="http://www.w3.org/2000/svg">
    <g clip-path="url(#pmoqypk3la)">
        <path d="M139.808 113.67a.505.505 0 0 0 .369-.375.588.588 0 0 0-.358-.701c-7.531-2.569-15.153-8.18-19.891-14.64-.179-.245-.508-.294-.729-.11-.222.184-.256.533-.076.781 4.866 6.635 12.687 12.394 20.414 15.03.091.03.184.035.268.015h.003zM125.98 118.751a.498.498 0 0 0 .348-.317.589.589 0 0 0-.289-.729c-7.487-3.499-15.314-10.064-19.946-16.724-.174-.25-.496-.307-.718-.129-.224.178-.265.524-.092.771 4.735 6.812 12.735 13.522 20.379 17.097a.494.494 0 0 0 .314.035l.004-.004z" fill="#1A1A1A" stroke="#1A1A1A" stroke-width="1.5"/>
        <path d="M136.764 116.118a.484.484 0 0 0 .299-.217.592.592 0 0 0-.143-.772c-1.12-.848-2.414-2.256-2.222-4.126.032-.301-.172-.583-.452-.629-.28-.046-.534.163-.565.464-.195 1.889.754 3.733 2.672 5.188a.49.49 0 0 0 .411.092zM123.184 120.794a.465.465 0 0 0 .23-.132c.201-.207.201-.557.001-.782-1.009-1.135-1.463-2.146-1.665-2.797-.219-.699-.203-1.14-.202-1.143.015-.302-.201-.571-.482-.601-.28-.03-.52.187-.539.49-.006.09-.11 2.24 2.165 4.801a.5.5 0 0 0 .492.164z" fill="#1A1A1A" stroke="#1A1A1A" stroke-width="1.5"/>
        <path d="M123.527 116.23c1.309-.309 2.556-.851 3.066-1.342.208-.199.218-.548.026-.78-.192-.232-.515-.257-.723-.059-.741.714-3.324 1.388-4.585 1.323-.282-.014-.512.222-.516.527-.002.304.226.563.508.579.673.033 1.459-.067 2.224-.248zM136.933 111.15c1.394-.299 2.821-.764 3.49-1.38.212-.194.23-.543.043-.779s-.511-.268-.722-.074c-.748.691-3.348 1.329-5.307 1.494-.28.022-.483.289-.452.593.031.304.285.534.565.511.65-.054 1.51-.178 2.381-.364l.002-.001z" fill="#1A1A1A" stroke="#1A1A1A" stroke-width="1.5"/>
        <path d="M123.442 99.878c-.498.208-.996.413-1.496.61-5.711 2.272-11.699 4.013-17.85 4.146-16.16.353-29.154-12.082-34.29-27.79-2.252-6.888-2.199-10.127-5.78-16.477-2.559-4.535-5.645-9.36-5.048-14.52.614-5.299 5.304-9.266 10.293-9.852 4.987-.585 10.05 1.684 14.068 5.04 5.71 4.768 7.771 8.597 12.968 13.942 4.954 5.095 11.032 8.972 17.597 11.063 8.923 2.84 18.488 2.451 27.384.056 8.896-2.396 17.186-6.726 25.035-11.676 1.615-1.017 3.951-1.953 5.186-.373 1.088 1.393.213 3.432-.723 4.884-11.801 18.313-27.753 32.764-47.343 40.95l-.001-.003z" fill="#fff"/>
        <path d="M112.152 104.167c3.093-.689 6.38-1.736 9.983-3.168.502-.2 1.007-.407 1.505-.614 9.62-4.02 18.611-9.66 26.725-16.761 7.812-6.838 14.825-15.042 20.844-24.38 1.485-2.303 1.722-4.218.686-5.542-1.163-1.486-3.239-1.4-5.845.246-9.27 5.846-17.182 9.538-24.905 11.617-9.554 2.574-18.928 2.558-27.111-.048-6.4-2.04-12.412-5.816-17.382-10.929-2.114-2.175-4.078-4.624-5.977-6.997-2.76-3.445-3.808-3.972-7.218-6.818-4.64-3.873-9.77-5.706-14.448-5.156-2.583.304-5.09 1.47-7.056 3.285-2.064 1.904-3.367 4.399-3.673 7.026-.569 4.907 1.983 9.378 4.45 13.7.224.395.448.786.666 1.174 3.417 6.06 3.49 8.774 5.664 15.429l.253.777c2.618 8.003 7.299 15.169 13.181 20.173 6.35 5.402 13.823 8.165 21.617 7.995 2.58-.057 5.229-.386 8.036-1.01l.005.001zm56.811-50.335c.818-.182 1.63-.115 2.154.552.938 1.2-.071 3.164-.756 4.228-5.968 9.26-12.917 17.391-20.657 24.166-8.033 7.03-16.936 12.615-26.46 16.595-.491.206-.992.409-1.489.608-6.76 2.689-12.381 3.997-17.685 4.112-7.546.165-14.79-2.514-20.942-7.748C77.4 91.47 72.84 84.49 70.287 76.68l-.254-.776c-2.192-6.717-2.282-9.48-5.756-15.639l-.67-1.177c-2.374-4.16-4.83-8.462-4.306-12.99.553-4.76 4.79-8.8 9.855-9.394 4.407-.518 9.27 1.23 13.69 4.923 3.324 2.775 4.337 3.259 7.062 6.661 1.916 2.393 3.898 4.864 6.049 7.076 5.092 5.234 11.252 9.108 17.812 11.198 8.361 2.66 17.925 2.684 27.656.063 7.817-2.106 15.814-5.835 25.167-11.733.524-.33 1.452-.851 2.372-1.056l-.001-.005z" fill="#1A1A1A" stroke="#1A1A1A" stroke-width="2"/>
        <path d="M113.902 45.545c3.723-6.383 7.586-13.416 6.628-20.874-.423-3.295-2.154-6.79-5.228-7.778-3.36-1.08-6.781 1.2-9.299 3.68-8.398 8.269-14.202 21.233-13.006 33.515.6 6.164 3.259 12.238 7.781 16.36 5.358 4.885 12.948 6.66 19.941 5.601 6.993-1.058 13.404-4.727 18.702-9.505 5.298-4.78 9.57-10.648 13.499-16.684 3.261-5.01 5.78-10.105 7.87-15.76 1.168-3.165 1.987-7.088-.149-9.715-1.676-2.059-4.689-2.476-7.137-1.673-2.448.803-4.451 2.596-6.317 4.409a113.808 113.808 0 0 0-15.806 19.156c3.44-4.388 5.902-9.845 7.08-15.386.496-2.336.697-5.03-.756-6.926-1.327-1.732-3.741-2.264-5.798-1.772-2.058.492-3.817 1.834-5.37 3.3-5.867 5.534-9.048 12.705-12.633 20.049l-.002.003z" fill="#fff"/>
        <path d="M122.626 76.81c5.918-1.28 11.817-4.476 17.169-9.323 5.72-5.178 10.132-11.503 13.695-17.006 3.28-5.068 5.82-10.188 7.995-16.113 1.695-4.616 1.619-8.13-.223-10.438-1.943-2.438-5.28-2.73-7.724-1.934-2.597.844-4.66 2.718-6.553 4.562-3.59 3.501-6.96 7.26-10.081 11.233a40.342 40.342 0 0 0 2.139-6.938c.451-2.139.854-5.244-.849-7.514-1.348-1.798-3.9-2.625-6.347-2.048-2.347.55-4.245 2.129-5.632 3.444-2.195 2.078-4.014 4.366-5.62 6.81.547-2.408.738-4.854.426-7.357-.23-1.845-.835-3.649-1.699-5.078-1.008-1.667-2.361-2.822-3.907-3.338-2.944-.982-6.353.33-9.858 3.798-4.354 4.305-7.917 9.716-10.303 15.647-2.528 6.285-3.56 12.803-2.989 18.853.636 6.728 3.543 12.957 7.974 17.09 5.213 4.864 12.865 7.105 20.469 5.996a28.22 28.22 0 0 0 1.92-.347h-.002zm31.881-53.973c1.989-.43 4.52-.07 5.983 1.766 1.584 1.988 1.599 5.14.047 9.369-2.146 5.848-4.654 10.902-7.891 15.902-3.527 5.447-7.89 11.706-13.523 16.804-5.786 5.241-12.211 8.5-18.579 9.43-7.312 1.063-14.655-1.077-19.643-5.732-4.239-3.954-7.02-9.925-7.631-16.386-.556-5.875.452-12.218 2.915-18.34 2.332-5.803 5.816-11.093 10.072-15.3 1.442-1.427 2.866-2.472 4.228-3.108 1.662-.777 3.223-.93 4.639-.458 1.902.634 4.323 2.984 4.891 7.52.46 3.682-.243 7.264-1.577 10.815-1.472 2.63-2.8 5.391-4.16 8.215l-.914 1.894a.553.553 0 0 0 .209.709.487.487 0 0 0 .679-.178c1.963-3.386 3.812-6.75 5.103-10.162 2.071-3.692 4.425-7.114 7.547-10.067 1.299-1.23 3.064-2.705 5.186-3.202 1.724-.4 4.037-.048 5.315 1.655 1.09 1.454 1.298 3.557.651 6.618a39.381 39.381 0 0 1-4.577 11.783 115.479 115.479 0 0 0-2.494 3.667.554.554 0 0 0 .119.727.487.487 0 0 0 .695-.079 35.614 35.614 0 0 0 2.518-3.7 113.798 113.798 0 0 1 13.369-15.656c1.808-1.765 3.776-3.554 6.173-4.332.21-.068.427-.125.653-.174h-.003z" fill="#1A1A1A" stroke="#1A1A1A" stroke-width="2"/>
        <path d="M69.753 50.478c.102-.023.2-.052.303-.087 1.391-.476 2.304-1.984 2.078-3.438a.508.508 0 0 0-.582-.425.505.505 0 0 0-.424.583c.15.961-.479 2.001-1.401 2.316-.923.316-2.055-.123-2.525-.977a.51.51 0 0 0-.89.491c.658 1.195 2.121 1.83 3.441 1.537z" fill="#1A1A1A" stroke="#1A1A1A"/>
        <path d="M65.566 102.625c11.523-8.29 13.66-25.023 4.775-37.373-8.885-12.35-25.43-15.64-36.952-7.35-11.523 8.29-13.661 25.023-4.776 37.373 8.886 12.35 25.43 15.64 36.953 7.35z" fill="#FFDF8F"/>
        <path d="M62.041 98.167c-3.596 2.504-8.083 3.776-12.914 3.32-5.557-.523-10.733-3.23-14.574-7.615-3.841-4.386-5.892-9.93-5.77-15.609.249-11.723 9.786-20.38 21.254-19.299 5.557.524 10.733 3.23 14.574 7.616 3.84 4.386 5.892 9.93 5.77 15.609-.144 6.784-3.4 12.544-8.338 15.98l-.002-.002zM37.816 63.292c-4.662 3.244-7.733 8.678-7.87 15.083-.116 5.36 1.82 10.591 5.446 14.731 3.626 4.14 8.511 6.693 13.756 7.189 10.825 1.023 19.824-7.149 20.06-18.215.116-5.361-1.819-10.592-5.445-14.732-3.626-4.14-8.512-6.692-13.756-7.189-4.561-.43-8.8.772-12.191 3.133z" fill="#1A1A1A" stroke="#1A1A1A" stroke-width="1.5"/>
        <path d="M56.635 87.352c-1.486 1.43-3.504 2.219-5.323 2.931-.186.073-.37.144-.552.217a.616.616 0 0 1-.779-.338.565.565 0 0 1 .296-.763c.186-.072.368-.145.559-.218 2.197-.86 4.472-1.75 5.762-3.637 1.502-2.204 1.24-4.363.556-5.545-.853-1.477-2.49-2.34-3.98-2.098-1.178.192-2.435 1.034-3.771 1.925-1.293.862-2.63 1.757-4.005 2.105-1.667.42-3.11-.018-4.412-1.341-2.629-2.671-1.156-6.683.73-8.68 1.206-1.275 2.659-2.198 4.72-2.991a.62.62 0 0 1 .775.343.567.567 0 0 1-.302.76c-1.898.732-3.228 1.572-4.316 2.726-.898.953-1.561 2.26-1.774 3.502-.168.987-.133 2.399.987 3.537 2.031 2.063 3.966 1.017 6.912-.952 1.374-.918 2.793-1.867 4.209-2.099 1.976-.322 4.13.794 5.238 2.71.604 1.047.837 2.282.669 3.57a7.457 7.457 0 0 1-2.194 4.336h-.005z" fill="#1A1A1A" stroke="#1A1A1A" stroke-width="1.5"/>
        <path d="M58.915 89.251a.587.587 0 0 1-.828-.036 629.612 629.612 0 0 1-18.219-19.573.588.588 0 0 1 .03-.83c.235-.21.61-.18.83.073a621.799 621.799 0 0 0 18.179 19.532c.23.24.238.614.01.832l-.002.002zM33.356 43.653a85.324 85.324 0 0 1-1.63-13.97.532.532 0 1 0-1.063.039c.154 4.709.708 9.469 1.65 14.145.136.674 1.173.45 1.043-.214zM27.006 48.713a47.267 47.267 0 0 1-10.058-12.374.537.537 0 0 0-.712-.221.499.499 0 0 0-.195.697 48.415 48.415 0 0 0 10.288 12.66c.533.468 1.23-.281.677-.762zM21.934 54.668a.502.502 0 0 0-.307-.792l-12.703-2.5a.502.502 0 1 0-.193.984l12.703 2.5a.501.501 0 0 0 .5-.192z" fill="#1A1A1A" stroke="#1A1A1A" stroke-width="1.5"/>
        <path d="M50.297 55.87c3.154-1.687 6.05-3.78 8.482-6.136.657-.634 6.029 5.453 4.703 7.453 0 0-10.75-.947-13.187-1.316h.002z" fill="#1A1A1A"/>
        <path d="M63.594 57.683a.503.503 0 0 0 .313-.216c.725-1.093-.04-2.832-.812-4.097-.807-1.327-2.005-2.763-2.98-3.573-.315-.261-1.147-.954-1.69-.428-2.385 2.306-5.277 4.399-8.37 6.053a.508.508 0 0 0-.261.536.506.506 0 0 0 .425.418c2.423.368 12.78 1.282 13.217 1.318a.488.488 0 0 0 .156-.01h.002zm-4.6-7.446c.728.362 3.019 2.796 3.896 4.95.248.613.341 1.116.272 1.461-1.596-.143-7.971-.713-11.266-1.087 2.601-1.526 5.03-3.344 7.098-5.322v-.002z" fill="#1A1A1A"/>
    </g>
    <defs>
        <clipPath id="pmoqypk3la">
            <path fill="#fff" transform="rotate(-9.48 168.96 14.01)" d="M0 0h170.12v114.48H0z"/>
        </clipPath>
    </defs>
</svg>
