<svg width="160" height="77" viewBox="0 0 160 77" fill="none" xmlns="http://www.w3.org/2000/svg">
    <path d="M15.033 30.784c-.668-2.114-3.567-3.26-5.599-2.435-4.657 1.896-1.998 8.804 2.66 7.63 2.161-.545 3.607-3.075 2.939-5.195z" fill="#1A1A1A"/>
    <path d="M33.241 76.61c8.009 1.203 16.155-6.214 16.468-13.975.717-17.77-26.126-20.158-29.265-3.51-1.451 7.721 4.755 16.272 12.8 17.48l-.003.005z" fill="#A5F20C"/>
    <path d="M39.497 60.735c-.71-2.123-3.657-3.218-5.688-2.343-4.658 2.003-1.847 8.906 2.826 7.638 2.165-.587 3.573-3.166 2.855-5.295h.007z" fill="#1A1A1A"/>
    <path d="M104.748 26.269c4.164.626 8.404-3.265 8.57-7.333.381-9.313-13.576-10.552-15.217-1.825-.758 4.047 2.465 8.526 6.648 9.155l-.001.003z" fill="#A5F20C"/>
    <path d="M108.009 17.945c-.368-1.112-1.9-1.684-2.957-1.225-2.423 1.052-.964 4.669 1.466 4.002 1.127-.309 1.86-1.661 1.488-2.777h.003zM138.057 28.666c-.351-.165-.67-.684-.505-1.033l9.382-19.668c.167-.35.758-.398 1.107-.235.351.165.864.734.699 1.083l-9.381 19.668c-.197.412-.944.355-1.302.185zM58.54 15.43c-.356.152-1.025-.093-1.176-.448L52.79 4.336c-.15-.358.207-.831.56-.984.357-.152 1.124-.157 1.275.198l4.575 10.646c.177.421-.293 1.08-.658 1.234z" fill="#1A1A1A"/>
</svg>
