<svg width="118" height="149" viewBox="0 0 118 149" fill="none" xmlns="http://www.w3.org/2000/svg">
    <g clip-path="url(#fi1ce5xlsa)">
        <path d="M60.046 42.13c1.295-5.306-3.345-11.414-8.682-12.262-12.222-1.945-15.437 15.975-4.131 19.461 5.244 1.615 11.509-1.87 12.813-7.198z" fill="#FEC729"/>
        <path d="M52.848 41.573c.297-1.223-.773-2.633-2.003-2.83-2.82-.45-3.562 3.688-.954 4.49 1.21.37 2.657-.433 2.957-1.66z" fill="#1A1A1A"/>
        <path d="M87.254 129.2c1.295-5.306-3.345-11.415-8.683-12.263-12.221-1.945-15.436 15.975-4.13 19.461 5.243 1.616 11.508-1.87 12.813-7.198z" fill="#FEC729"/>
        <path d="M80.056 128.642c.297-1.223-.773-2.633-2.003-2.83-2.82-.451-3.562 3.688-.954 4.489 1.21.371 2.657-.432 2.957-1.659z" fill="#1A1A1A"/>
        <path d="M98.965 85.513c-2.47-.295-4.605-.273-7.323.654-3.074 1.05-4.695 2.444-6.861 4.704-2.167 2.26-2.702 4.035-1.491 6.755 2.34 1.018 2.86.66 3.942-.836 1.083-1.496.42-3.461-1.113-4.728-2.737-2.26-6.491-2.444-9.612-1.775-3.72.8-6.426 2.924-9.847 4.775M98.602 123.744c5.931.388 11.864.781 17.791 1.172M28.156 94.99c5.85-4.076 11.703-8.148 17.549-12.218M6.743 41.053C5.34 34.693 3.94 28.33 2.538 21.973" stroke="#1A1A1A" stroke-width="1.25" stroke-linecap="round" stroke-linejoin="round"/>
        <path d="M54.589 113.419c.205-1.208-.93-2.503-2.137-2.611-2.768-.244-3.205 3.823-.62 4.422 1.2.278 2.55-.6 2.757-1.811zM84.461 64.381c.206-1.207-.93-2.502-2.137-2.61-2.767-.244-3.204 3.823-.62 4.422 1.2.278 2.55-.6 2.757-1.812zM25.171 57.772c.211-1.24-.954-2.568-2.192-2.678-2.84-.25-3.288 3.921-.636 4.536 1.232.285 2.616-.616 2.828-1.858z" fill="#1A1A1A"/>
    </g>
    <defs>
        <clipPath id="fi1ce5xlsa">
            <path fill="#fff" transform="rotate(-15.45 83.955 7.998)" d="M0 0h85.04v130.8H0z"/>
        </clipPath>
    </defs>
</svg>
