<svg width="234" height="80" viewBox="0 0 234 80" fill="none" xmlns="http://www.w3.org/2000/svg">
<path d="M12.5933 34.1995C20.1895 30.793 27.8957 29.807 33.8157 31.0258C33.153 30.7242 32.4845 30.2074 32.0783 29.4748C30.9876 27.5064 28.8493 26.3334 26.4011 26.6051C25.3928 26.7174 24.3974 26.464 23.7419 26.0166C22.8223 25.391 21.7829 25 20.5264 25C19.2688 25 18.23 25.3904 17.311 26.0166C16.6543 26.464 15.6582 26.7174 14.6516 26.6051C12.2035 26.3334 10.0651 27.5064 8.97334 29.4748C8.48771 30.352 7.63235 30.9129 6.85039 31.1786C4.90196 31.8407 3.29502 33.6186 3.0816 35.9333C2.98048 37.0234 2.33728 37.8841 1.85635 38.3662C0.549356 39.6738 0.00195312 41.203 0.00195312 42.7693C0.00195312 42.7952 0.00195312 42.821 0.00195312 42.8469C3.20152 39.5186 7.50995 36.4795 12.5933 34.1995Z" fill="url(#paint0_linear_116_1464)"/>
<path d="M19.2968 38.6635C25.7882 35.7526 32.3614 34.609 37.8292 35.0994C37.3595 33.2027 35.9379 31.7869 34.2017 31.1802C34.0741 31.1378 33.9442 31.0867 33.8149 31.0267C27.8955 29.8079 20.1887 30.7939 12.5925 34.2004C7.50915 36.4805 3.20016 39.5195 0 42.8484C0.0376281 45.9251 2.33474 48.458 5.30854 48.8654C8.59865 44.9344 13.4309 41.2945 19.2968 38.6635Z" fill="url(#paint1_linear_116_1464)"/>
<path d="M39.1959 38.3668C38.7149 37.8853 38.0729 37.024 37.9718 35.9339C37.9453 35.6464 37.8971 35.3678 37.8307 35.0985C32.3622 34.6087 25.7897 35.7517 19.2982 38.6626C13.4324 41.2936 8.60066 44.9336 5.31055 48.8645C5.58629 48.9022 5.86852 48.9227 6.15485 48.9227H14.9863C15.8259 48.9227 16.5055 49.6182 16.5055 50.4566V50.8129C16.5055 52.2246 15.1115 52.4145 15.1115 52.4145L7.92986 53.6497C7.6747 53.6903 7.45417 53.8655 7.45417 54.1178V55.0002H33.5981V54.1178C33.5981 53.8655 33.3789 53.6903 33.1237 53.6497L25.942 52.4145C25.942 52.4145 24.5479 52.2252 24.5479 50.8129V50.4566C24.5479 49.6176 25.2276 48.9227 26.066 48.9227H34.8986C38.2963 48.9227 41.0514 46.1676 41.0514 42.7699C41.0514 41.2037 40.5035 39.6744 39.1959 38.3668Z" fill="#009043"/>
<path d="M53.0508 41.9665C53.0508 38.1378 54.4555 34.5102 59.8328 34.5102C61.0363 34.5102 62.312 34.7472 63.1504 35.0023L62.7865 37.0255C61.9469 36.6974 60.8905 36.4975 59.9057 36.4975C56.6973 36.4975 55.4396 38.7393 55.4396 42.0023C55.4396 45.102 56.8794 47.0339 59.9602 47.0339C60.9262 47.0339 62.2568 46.797 63.0047 46.5236L63.241 48.5655C62.4761 48.8213 61.1086 49.0582 59.8698 49.0582C54.5648 49.0582 53.0508 45.7399 53.0508 41.9847V41.9665ZM74.1984 48.6566L72.3576 48.9847C71.9925 48.5109 71.7743 47.8918 71.6826 47.2533C71.0635 48.4197 69.7866 49.04 68.4743 49.04C66.8516 49.04 65.0477 48.2192 65.0477 45.7405C65.0477 43.1882 66.4141 42.4221 71.4093 42.204V41.4926C71.4093 40.4173 71.2093 39.7065 69.5131 39.7065C68.4383 39.7065 67.3806 40.0163 66.36 40.5448L65.8856 38.7216C66.8515 38.2666 68.3467 37.8832 69.7683 37.8832C72.5575 37.8832 73.4693 39.0497 73.4693 41.4744V45.5941C73.4693 46.9428 73.7057 48.0734 74.1984 48.6566ZM67.089 45.6852C67.089 46.9793 68.1638 47.2526 68.8929 47.2526C70.1881 47.2526 71.1906 46.3414 71.4087 45.3025V43.8256C68.0915 44.0084 67.089 44.2818 67.089 45.6852ZM81.085 47.1798V48.8383L80.0825 48.8936C78.2787 48.9841 77.1117 48.3286 77.1117 46.3778V40.0521H75.4337V38.3383H77.1117V35.9325L79.2623 35.3851V38.3383H81.4682V40.0521H79.2623V45.5576C79.2623 46.7964 79.5358 47.1798 80.4659 47.1798H81.085ZM89.0632 38.0102C91.7789 38.0102 92.508 39.7241 92.508 41.6202V48.8024H90.3392V42.167C90.3392 40.8177 89.8834 39.8152 88.4065 39.8152C87.3859 39.8152 86.3465 40.3079 85.7997 40.9817V48.8024H83.5936V34.3285L85.7997 34.0005V39.3237C86.4923 38.6123 87.7327 38.0102 89.0632 38.0102ZM104.005 48.6566L102.164 48.9847C101.799 48.5109 101.581 47.8918 101.489 47.2533C100.87 48.4197 99.5934 49.04 98.2811 49.04C96.6584 49.04 94.8545 48.2192 94.8545 45.7405C94.8545 43.1882 96.2209 42.4221 101.216 42.204V41.4926C101.216 40.4173 101.016 39.7065 99.3199 39.7065C98.2451 39.7065 97.1874 40.0163 96.1667 40.5448L95.6923 38.7216C96.6583 38.2666 98.1535 37.8832 99.5751 37.8832C102.364 37.8832 103.276 39.0497 103.276 41.4744V45.5941C103.276 46.9428 103.513 48.0734 104.005 48.6566ZM96.8964 45.6852C96.8964 46.9793 97.9712 47.2526 98.7002 47.2526C99.9955 47.2526 100.998 46.3414 101.216 45.3025V43.8256C97.8989 44.0084 96.8964 44.2818 96.8964 45.6852ZM112.358 38.2107H114.764C113.889 40.8541 112.229 45.7211 111.155 48.4191C110.261 50.6797 109.386 52.2478 108.584 53.1409L106.451 52.1925C107.271 51.427 108.238 49.9872 109.039 48.0728L104.92 38.2107H107.362L110.133 45.7211C110.9 43.5163 111.811 40.3438 112.358 38.2107Z" fill="black"/>
<path d="M127.303 49.1124C124.186 49.1124 121.779 47.4538 121.779 44.2631V34.8019H124.04V43.4793C124.04 45.5754 124.77 47.1622 127.358 47.1622C129.928 47.1622 130.676 45.5759 130.676 43.4793V34.8019H132.918V44.2631C132.918 47.4538 130.53 49.1124 127.321 49.1124H127.303ZM137.905 38.0468C138.051 38.4119 138.215 39.0674 138.252 39.4326C138.944 38.6665 140.294 38.0103 141.624 38.0103C144.358 38.0103 145.088 39.7242 145.088 41.6203V48.8025H142.9V42.1671C142.9 40.8177 142.444 39.8153 140.967 39.8153C139.947 39.8153 138.907 40.308 138.342 40.9459V48.8025H136.154V40.5079C136.154 39.7606 136.082 38.9581 135.899 38.3202L137.905 38.0468ZM150.413 36.6251H148.134V34.6203H150.413V36.6251ZM150.377 48.8025H148.171V38.2108H150.377V48.8025ZM158.048 47.1798V48.8384L157.046 48.8937C155.241 48.9842 154.074 48.3287 154.074 46.3779V40.0522H152.397V38.3384H154.074V35.9326L156.224 35.3852V38.3384H158.43V40.0522H156.224V45.5577C156.224 46.7965 156.498 47.1798 157.428 47.1798H158.048ZM165.402 47.2527C166.478 47.2527 167.645 47.0164 168.483 46.6513L168.884 48.4016C168.21 48.7302 166.824 49.113 165.22 49.113C161.411 49.113 159.879 46.7612 159.879 43.644C159.879 40.3803 161.611 37.8469 164.928 37.8469C167.863 37.8469 169.03 39.8523 169.03 42.6233V43.8991H162.067C162.048 46.178 163.324 47.2533 165.384 47.2533H165.402V47.2527ZM164.691 39.5419C163.142 39.5419 162.23 40.9277 162.121 42.3311H167.025C167.007 40.6173 166.405 39.5419 164.71 39.5419H164.691ZM175.334 49.0577C172.58 49.0577 171.177 47.0522 171.177 43.7163C171.177 40.599 172.326 37.9192 175.643 37.9192C176.81 37.9192 177.941 38.4295 178.579 39.0857V34.3281L180.712 34V45.1749C180.712 46.5055 180.766 47.6355 181.149 48.5656L179.253 48.9301C178.98 48.4927 178.834 47.873 178.779 47.3803C178.268 48.0735 177.212 49.0577 175.351 49.0577H175.334ZM178.651 42.6592C178.651 42.0759 178.633 41.4927 178.542 41.0188C178.122 40.4356 177.247 39.7606 176.044 39.7606C174.075 39.7606 173.419 41.4192 173.419 43.6798C173.419 45.6671 174.075 47.2169 175.807 47.2169C177.302 47.2169 178.214 46.2139 178.542 45.4848C178.614 45.1385 178.651 44.5553 178.651 44.0449V42.6592Z" fill="black"/>
<path d="M198.499 44.865C198.499 47.7636 196.421 48.8024 193.577 48.8024H189.256V34.8024H193.303C195.654 34.8024 197.97 35.4404 197.97 38.2478C197.97 39.8881 197.095 40.9088 195.819 41.3286C196.967 41.5291 198.499 42.3492 198.499 44.8462L198.499 44.865ZM195.819 38.6123C195.819 37.1901 194.835 36.625 193.03 36.625H191.444V40.6901H193.942C194.999 40.5443 195.819 39.9422 195.819 38.6299V38.6123ZM191.444 46.9252H193.394C194.907 46.9252 196.238 46.5965 196.238 44.6281C196.238 43.0965 195.235 42.3675 193.358 42.3675H191.444V46.9252ZM209.816 48.6566L207.973 48.9847C207.61 48.5109 207.39 47.8918 207.3 47.2532C206.679 48.4197 205.404 49.04 204.091 49.04C202.469 49.04 200.664 48.2192 200.664 45.7405C200.664 43.1882 202.031 42.4221 207.026 42.204V41.4926C207.026 40.4173 206.825 39.7065 205.13 39.7065C204.054 39.7065 202.997 40.0163 201.976 40.5448L201.503 38.7216C202.469 38.2666 203.964 37.8832 205.385 37.8832C208.175 37.8832 209.086 39.0497 209.086 41.4744V45.5941C209.086 46.9428 209.323 48.0734 209.816 48.6566ZM202.705 45.6852C202.705 46.9793 203.781 47.2526 204.51 47.2526C205.804 47.2526 206.807 46.3414 207.026 45.3025V43.8255C203.708 44.0084 202.705 44.2818 202.705 45.6852ZM214.007 38.0467C214.153 38.4118 214.317 39.0674 214.354 39.4325C215.046 38.6664 216.396 38.0102 217.726 38.0102C220.46 38.0102 221.19 39.7241 221.19 41.6202V48.8024H219.002V42.167C219.002 40.8177 218.547 39.8152 217.07 39.8152C216.049 39.8152 215.009 40.3079 214.444 40.9458V48.8024H212.257V40.5078C212.257 39.7605 212.184 38.958 212.001 38.3201L214.007 38.0467ZM233.208 48.8024H230.565L226.481 43.6068V48.8024H224.275V34.3285L226.481 34.0005V43.3887L230.473 38.2113H233.007L228.723 43.334L233.208 48.8024Z" fill="black"/>
<defs>
<linearGradient id="paint0_linear_116_1464" x1="25.7064" y1="23.7803" x2="6.20066" y2="47.8679" gradientUnits="userSpaceOnUse">
<stop stop-color="#6FBA2C"/>
<stop offset="0.3125" stop-color="#30A938"/>
<stop offset="0.7712" stop-color="#009641"/>
<stop offset="1" stop-color="#009043"/>
</linearGradient>
<linearGradient id="paint1_linear_116_1464" x1="31.8185" y1="23.0387" x2="8.5593" y2="51.7614" gradientUnits="userSpaceOnUse">
<stop stop-color="#45B035"/>
<stop offset="0.27" stop-color="#00A13D"/>
<stop offset="0.5437" stop-color="#009741"/>
<stop offset="0.7948" stop-color="#009243"/>
<stop offset="1" stop-color="#009043"/>
</linearGradient>
</defs>
</svg>
