<svg width="234" height="80" viewBox="0 0 234 80" fill="none" xmlns="http://www.w3.org/2000/svg">
<path d="M12.5928 34.1995C20.189 30.793 27.8952 29.807 33.8152 31.0258C33.1526 30.7242 32.484 30.2074 32.0778 29.4748C30.9871 27.5064 28.8488 26.3334 26.4006 26.6051C25.3923 26.7174 24.3969 26.464 23.7414 26.0166C22.8219 25.391 21.7824 25 20.526 25C19.2684 25 18.2295 25.3904 17.3105 26.0166C16.6538 26.464 15.6577 26.7174 14.6512 26.6051C12.203 26.3334 10.0647 27.5064 8.97285 29.4748C8.48722 30.352 7.63186 30.9129 6.8499 31.1786C4.90147 31.8407 3.29454 33.6186 3.08111 35.9333C2.97999 37.0234 2.33679 37.8841 1.85586 38.3662C0.548868 39.6738 0.00146484 41.203 0.00146484 42.7693C0.00146484 42.7952 0.00146484 42.821 0.00146484 42.8469C3.20103 39.5186 7.50946 36.4795 12.5928 34.1995Z" fill="url(#paint0_linear_1037_4815)"/>
<path d="M19.2968 38.663C25.7882 35.7521 32.3614 34.6086 37.8292 35.0989C37.3595 33.2022 35.9379 31.7864 34.2017 31.1797C34.0741 31.1373 33.9442 31.0862 33.8149 31.0262C27.8955 29.8074 20.1887 30.7934 12.5925 34.1999C7.50915 36.48 3.20016 39.519 0 42.8479C0.0376281 45.9246 2.33474 48.4575 5.30854 48.8649C8.59865 44.934 13.4309 41.294 19.2968 38.663Z" fill="url(#paint1_linear_1037_4815)"/>
<path d="M39.1949 38.3663C38.714 37.8848 38.0719 37.0235 37.9708 35.9335C37.9443 35.6459 37.8961 35.3673 37.8297 35.098C32.3613 34.6083 25.7887 35.7512 19.2973 38.6621C13.4314 41.2931 8.59968 44.9331 5.30957 48.864C5.58531 48.9017 5.86755 48.9222 6.15387 48.9222H14.9853C15.8249 48.9222 16.5045 49.6177 16.5045 50.4561V50.8124C16.5045 52.2241 15.1105 52.414 15.1105 52.414L7.92889 53.6493C7.67372 53.6898 7.4532 53.865 7.4532 54.1173V54.9998H33.5971V54.1173C33.5971 53.865 33.3779 53.6898 33.1227 53.6493L25.941 52.414C25.941 52.414 24.5469 52.2247 24.5469 50.8124V50.4561C24.5469 49.6172 25.2266 48.9222 26.065 48.9222H34.8976C38.2953 48.9222 41.0504 46.1671 41.0504 42.7694C41.0504 41.2032 40.5025 39.6739 39.1949 38.3663Z" fill="#009043"/>
<path d="M53.0508 41.967C53.0508 38.1383 54.4555 34.5107 59.8328 34.5107C61.0363 34.5107 62.312 34.7476 63.1504 35.0028L62.7865 37.0259C61.9469 36.6979 60.8905 36.498 59.9057 36.498C56.6973 36.498 55.4396 38.7398 55.4396 42.0028C55.4396 45.1024 56.8794 47.0344 59.9602 47.0344C60.9262 47.0344 62.2568 46.7975 63.0047 46.5241L63.241 48.566C62.4761 48.8218 61.1086 49.0587 59.8698 49.0587C54.5648 49.0587 53.0508 45.7404 53.0508 41.9852V41.967ZM74.1984 48.6571L72.3576 48.9852C71.9925 48.5113 71.7743 47.8922 71.6826 47.2537C71.0635 48.4202 69.7866 49.0405 68.4743 49.0405C66.8516 49.0405 65.0477 48.2197 65.0477 45.741C65.0477 43.1887 66.4141 42.4226 71.4093 42.2045V41.4931C71.4093 40.4177 71.2093 39.7069 69.5131 39.7069C68.4383 39.7069 67.3806 40.0168 66.36 40.5453L65.8856 38.7221C66.8515 38.267 68.3467 37.8837 69.7683 37.8837C72.5575 37.8837 73.4693 39.0502 73.4693 41.4749V45.5946C73.4693 46.9433 73.7057 48.0739 74.1984 48.6571ZM67.089 45.6857C67.089 46.9798 68.1638 47.2531 68.8929 47.2531C70.1881 47.2531 71.1906 46.3418 71.4087 45.303V43.826C68.0915 44.0089 67.089 44.2823 67.089 45.6857ZM81.085 47.1802V48.8388L80.0825 48.8941C78.2787 48.9846 77.1117 48.3291 77.1117 46.3783V40.0526H75.4337V38.3388H77.1117V35.933L79.2623 35.3856V38.3388H81.4682V40.0526H79.2623V45.5581C79.2623 46.7969 79.5358 47.1802 80.4659 47.1802H81.085ZM89.0632 38.0107C91.7789 38.0107 92.508 39.7246 92.508 41.6207V48.8029H90.3392V42.1675C90.3392 40.8181 89.8834 39.8157 88.4065 39.8157C87.3859 39.8157 86.3465 40.3084 85.7997 40.9822V48.8029H83.5936V34.329L85.7997 34.001V39.3242C86.4923 38.6128 87.7327 38.0107 89.0632 38.0107ZM104.005 48.6571L102.164 48.9852C101.799 48.5113 101.581 47.8922 101.489 47.2537C100.87 48.4202 99.5934 49.0405 98.2811 49.0405C96.6584 49.0405 94.8545 48.2197 94.8545 45.741C94.8545 43.1887 96.2209 42.4226 101.216 42.2045V41.4931C101.216 40.4177 101.016 39.7069 99.3199 39.7069C98.2451 39.7069 97.1874 40.0168 96.1667 40.5453L95.6923 38.7221C96.6583 38.267 98.1535 37.8837 99.5751 37.8837C102.364 37.8837 103.276 39.0502 103.276 41.4749V45.5946C103.276 46.9433 103.513 48.0739 104.005 48.6571ZM96.8964 45.6857C96.8964 46.9798 97.9712 47.2531 98.7002 47.2531C99.9955 47.2531 100.998 46.3418 101.216 45.303V43.826C97.8989 44.0089 96.8964 44.2823 96.8964 45.6857ZM112.358 38.2112H114.764C113.889 40.8546 112.229 45.7215 111.155 48.4196C110.261 50.6802 109.386 52.2483 108.584 53.1414L106.451 52.193C107.271 51.4275 108.238 49.9876 109.039 48.0733L104.92 38.2112H107.362L110.133 45.7216C110.9 43.5168 111.811 40.3443 112.358 38.2112Z" fill="black"/>
<path d="M127.303 49.1124C124.186 49.1124 121.779 47.4538 121.779 44.2631V34.8019H124.04V43.4793C124.04 45.5754 124.77 47.1622 127.358 47.1622C129.928 47.1622 130.676 45.5759 130.676 43.4793V34.8019H132.918V44.2631C132.918 47.4538 130.53 49.1124 127.321 49.1124H127.303ZM137.905 38.0468C138.051 38.4119 138.215 39.0674 138.252 39.4326C138.944 38.6665 140.294 38.0103 141.624 38.0103C144.358 38.0103 145.088 39.7242 145.088 41.6203V48.8025H142.9V42.1671C142.9 40.8177 142.444 39.8153 140.967 39.8153C139.947 39.8153 138.907 40.308 138.342 40.9459V48.8025H136.154V40.5079C136.154 39.7606 136.082 38.9581 135.899 38.3202L137.905 38.0468ZM150.413 36.6251H148.134V34.6203H150.413V36.6251ZM150.377 48.8025H148.171V38.2108H150.377V48.8025ZM158.048 47.1798V48.8384L157.046 48.8937C155.241 48.9842 154.074 48.3287 154.074 46.3779V40.0522H152.397V38.3384H154.074V35.9326L156.224 35.3852V38.3384H158.43V40.0522H156.224V45.5577C156.224 46.7965 156.498 47.1798 157.428 47.1798H158.048ZM165.402 47.2527C166.478 47.2527 167.645 47.0164 168.483 46.6513L168.884 48.4016C168.21 48.7302 166.824 49.113 165.22 49.113C161.411 49.113 159.879 46.7612 159.879 43.644C159.879 40.3803 161.611 37.8469 164.928 37.8469C167.863 37.8469 169.03 39.8523 169.03 42.6233V43.8991H162.067C162.048 46.178 163.324 47.2533 165.384 47.2533H165.402V47.2527ZM164.691 39.5419C163.142 39.5419 162.23 40.9277 162.121 42.3311H167.025C167.007 40.6173 166.405 39.5419 164.71 39.5419H164.691ZM175.334 49.0577C172.58 49.0577 171.177 47.0522 171.177 43.7163C171.177 40.599 172.326 37.9192 175.643 37.9192C176.81 37.9192 177.941 38.4295 178.579 39.0857V34.3281L180.712 34V45.1749C180.712 46.5055 180.766 47.6355 181.149 48.5656L179.253 48.9301C178.98 48.4927 178.834 47.873 178.779 47.3803C178.268 48.0735 177.212 49.0577 175.351 49.0577H175.334ZM178.651 42.6592C178.651 42.0759 178.633 41.4927 178.542 41.0188C178.122 40.4356 177.247 39.7606 176.044 39.7606C174.075 39.7606 173.419 41.4192 173.419 43.6798C173.419 45.6671 174.075 47.2169 175.807 47.2169C177.302 47.2169 178.214 46.2139 178.542 45.4848C178.614 45.1385 178.651 44.5553 178.651 44.0449V42.6592Z" fill="black"/>
<path d="M198.499 44.8645C198.499 47.7631 196.421 48.802 193.577 48.802H189.256V34.802H193.303C195.654 34.802 197.97 35.4399 197.97 38.2473C197.97 39.8876 197.095 40.9083 195.819 41.3281C196.967 41.5286 198.499 42.3488 198.499 44.8457L198.499 44.8645ZM195.819 38.6118C195.819 37.1896 194.835 36.6246 193.03 36.6246H191.444V40.6896H193.942C194.999 40.5438 195.819 39.9417 195.819 38.6295V38.6118ZM191.444 46.9247H193.394C194.907 46.9247 196.238 46.596 196.238 44.6276C196.238 43.096 195.235 42.367 193.358 42.367H191.444V46.9247ZM209.816 48.6562L207.973 48.9842C207.61 48.5104 207.39 47.8913 207.3 47.2528C206.679 48.4192 205.404 49.0395 204.091 49.0395C202.469 49.0395 200.664 48.2187 200.664 45.74C200.664 43.1877 202.031 42.4217 207.026 42.2035V41.4921C207.026 40.4168 206.825 39.706 205.13 39.706C204.054 39.706 202.997 40.0158 201.976 40.5443L201.503 38.7211C202.469 38.2661 203.964 37.8828 205.385 37.8828C208.175 37.8828 209.086 39.0492 209.086 41.4739V45.5936C209.086 46.9423 209.323 48.0729 209.816 48.6562ZM202.705 45.6847C202.705 46.9788 203.781 47.2522 204.51 47.2522C205.804 47.2522 206.807 46.3409 207.026 45.302V43.8251C203.708 44.0079 202.705 44.2813 202.705 45.6847ZM214.007 38.0462C214.153 38.4113 214.317 39.0669 214.354 39.432C215.046 38.6659 216.396 38.0098 217.726 38.0098C220.46 38.0098 221.19 39.7236 221.19 41.6197V48.802H219.002V42.1665C219.002 40.8172 218.547 39.8147 217.07 39.8147C216.049 39.8147 215.009 40.3074 214.444 40.9453V48.802H212.257V40.5073C212.257 39.76 212.184 38.9575 212.001 38.3196L214.007 38.0462ZM233.208 48.802H230.565L226.481 43.6063V48.802H224.275V34.3281L226.481 34V43.3882L230.473 38.2108H233.007L228.723 43.3335L233.208 48.802Z" fill="black"/>
<defs>
<linearGradient id="paint0_linear_1037_4815" x1="25.7059" y1="23.7803" x2="6.20017" y2="47.8679" gradientUnits="userSpaceOnUse">
<stop stop-color="#6FBA2C"/>
<stop offset="0.3125" stop-color="#30A938"/>
<stop offset="0.7712" stop-color="#009641"/>
<stop offset="1" stop-color="#009043"/>
</linearGradient>
<linearGradient id="paint1_linear_1037_4815" x1="31.8185" y1="23.0383" x2="8.5593" y2="51.7609" gradientUnits="userSpaceOnUse">
<stop stop-color="#45B035"/>
<stop offset="0.27" stop-color="#00A13D"/>
<stop offset="0.5437" stop-color="#009741"/>
<stop offset="0.7948" stop-color="#009243"/>
<stop offset="1" stop-color="#009043"/>
</linearGradient>
</defs>
</svg>
