<svg width="1920" height="303" viewBox="0 0 1920 303" fill="none" xmlns="http://www.w3.org/2000/svg">
<path d="M-11.3906 299.458C-9.73457 271.305 32.6289 231.112 55.6202 218.571C82.4802 203.92 129.074 224.694 156.644 229.401C195.1 235.967 233.795 244.631 272.898 244.631C287.866 244.631 319.053 250.415 332.125 240.908C362.198 219.036 385.467 191.586 417.073 171.359C450.361 150.054 500.559 144.721 536.88 162.39C584.279 185.449 629.678 195.896 682.409 195.896C795.37 195.896 904.86 163.021 1009.68 122.116C1025.23 116.048 1048.6 109.129 1048.6 89.4567C1048.6 79.1364 1055.07 68.3441 1047.08 60.351C1035.51 48.7836 996.818 47.3667 996.818 69.3196C996.818 92.2698 1013.21 104.802 1033.71 110.609C1058.76 117.708 1083.58 116.701 1109.35 116.701C1135.28 116.701 1154.46 103.368 1176.53 92.3334C1187.14 87.0262 1196.66 80.4905 1206.82 74.3962C1221.18 65.779 1238.45 62.7847 1253.69 55.782C1282.45 42.5695 1309.02 23.5179 1340.67 17.8769C1360.58 14.3285 1390.22 6.99501 1409.71 16.3539C1423.81 23.1202 1436.97 30.2779 1450.33 38.5217C1472.93 52.4698 1500.79 58.424 1526.14 65.5968C1561.07 75.4836 1600.04 62.3894 1634.44 56.4589C1680.27 48.5569 1726.78 44.1968 1771.84 32.4298C1817.66 20.4648 1866.53 -2.81626 1914.83 4.33937C1927.33 6.19137 1942.44 11.8567 1954.09 16.3539C1970.06 22.5153 1986.3 23.6185 2001.98 29.0454C2007.39 30.9165 2012.35 35.0775 2017.21 37.5064" stroke="white" stroke-width="6" stroke-linecap="round"/>
</svg>
