<svg width="167" height="166" viewBox="0 0 167 166" fill="none" xmlns="http://www.w3.org/2000/svg">
    <path d="M1.527 108.358c.051 19.183.82 31.54-.13 48.929-.22 4.013 3.07 7.372 7.18 7.318l35.799-.458c3.902-.052 7.032-3.176 7.005-6.993-.13-17.335-.26-31.082-.39-48.628l-49.464-.172v.004z" fill="#fff"/>
    <path d="M8.483 164.994c-2.06 0-4.04-.838-5.451-2.31-1.415-1.474-2.132-3.395-2.02-5.415.648-11.887.494-21.394.313-32.406-.085-5.135-.169-10.445-.187-16.502 0-.215.172-.386.386-.386.214 0 .386.171.386.386.015 6.051.102 11.361.187 16.493.178 11.024.335 20.546-.314 32.46a6.417 6.417 0 0 0 1.806 4.839 6.794 6.794 0 0 0 4.982 2.072l35.799-.458c3.679-.049 6.649-3.01 6.622-6.604-.063-8.422-.127-16.123-.19-23.57-.066-7.882-.133-16.036-.2-25.058a.385.385 0 1 1 .77-.006c.066 9.022.132 17.173.199 25.058.06 7.447.126 15.148.19 23.573.03 4.016-3.284 7.327-7.385 7.382L8.577 165H8.48l.003-.006z" fill="#1A1A1A" stroke="#1A1A1A"/>
    <path d="M108.36 108.358c-.051 19.183-.82 31.54.13 48.929.22 4.013-3.07 7.372-7.18 7.318l-35.799-.458c-3.902-.052-7.032-3.176-7.004-6.993.13-17.335.259-31.082.389-48.628l49.464-.172v.004z" fill="#fff"/>
    <path d="M101.401 164.994h-.097l-35.799-.458c-4.104-.052-7.415-3.362-7.385-7.382.064-8.422.127-16.123.19-23.57.067-7.885.133-16.036.2-25.061a.385.385 0 1 1 .768.007c-.066 9.021-.132 17.175-.199 25.06-.06 7.447-.126 15.148-.19 23.57-.027 3.594 2.943 6.555 6.622 6.604l35.799.458a6.782 6.782 0 0 0 4.982-2.071 6.425 6.425 0 0 0 1.806-4.84c-.648-11.913-.495-21.436-.314-32.46.085-5.132.169-10.442.187-16.493a.387.387 0 0 1 .772 0c-.015 6.057-.102 11.367-.187 16.502-.178 11.009-.335 20.519.314 32.406a7.17 7.17 0 0 1-2.021 5.415 7.571 7.571 0 0 1-5.451 2.31l.003.003z" fill="#1A1A1A" stroke="#1A1A1A"/>
    <path d="M115.766 108.358c.051 19.183.82 31.54-.13 48.929-.22 4.013 3.07 7.372 7.18 7.318l35.799-.458c3.902-.052 7.032-3.176 7.005-6.993-.13-17.335-.259-31.082-.389-48.628l-49.465-.172v.004z" fill="#fff"/>
    <path d="M122.723 164.994a7.567 7.567 0 0 1-5.452-2.31c-1.414-1.474-2.132-3.398-2.02-5.415.648-11.887.494-21.397.313-32.406-.084-5.135-.169-10.445-.187-16.502 0-.215.172-.386.386-.386.214 0 .386.171.386.386.015 6.051.103 11.361.187 16.493.178 11.024.335 20.546-.314 32.46a6.418 6.418 0 0 0 1.807 4.839 6.793 6.793 0 0 0 4.981 2.072l35.799-.458c3.679-.049 6.649-3.01 6.622-6.604-.063-8.422-.127-16.123-.19-23.57-.066-7.882-.133-16.036-.199-25.058a.385.385 0 1 1 .769-.006c.066 9.022.133 17.173.199 25.058.06 7.447.127 15.148.19 23.573.03 4.016-3.284 7.327-7.385 7.382l-35.799.458h-.096l.003-.006z" fill="#1A1A1A" stroke="#1A1A1A"/>
    <path d="M24.38 146.281c-2.5-1.441-5.069-2.551-7.644-3.793-2.053-.992-4.821-2.618-6.947-.884-1.767 1.439-2.678 4.819-3.263 6.912-.648 2.315-1.025 4.698-1.33 7.08-.187 1.471-.271 3.118.658 4.273 1.8 2.237 5.096.856 7.18-.184 3.808-1.906 7.749-3.61 11.642-5.365 3.914-1.767 4.324-5.219.558-7.526-.284-.175-.57-.344-.857-.507l.003-.006z" fill="#fff"/>
    <path d="M8.522 161.455c-1.097 0-2.165-.344-2.97-1.348-1-1.248-.947-2.931-.739-4.562.272-2.126.643-4.635 1.342-7.135l.042-.148c.61-2.18 1.53-5.476 3.35-6.959 2.141-1.743 4.852-.401 6.83.576.181.09.36.178.531.259.685.329 1.378.657 2.05.971 1.855.872 3.77 1.77 5.618 2.835.296.171.588.343.863.512 1.896 1.164 2.889 2.672 2.79 4.246-.1 1.592-1.337 3.036-3.393 3.965-.89.401-1.782.802-2.675 1.2-2.961 1.324-6.022 2.693-8.953 4.159-.94.47-2.855 1.429-4.683 1.429h-.003zm3.453-20.225c-.688 0-1.348.187-1.942.67-1.631 1.327-2.512 4.481-3.094 6.567l-.042.148c-.684 2.455-1.052 4.927-1.318 7.026-.187 1.466-.247 2.961.576 3.983 1.577 1.961 4.58.775 6.706-.289 2.947-1.475 6.016-2.847 8.983-4.173.893-.398 1.786-.796 2.672-1.2 1.785-.809 2.856-2.012 2.937-3.308.082-1.276-.78-2.53-2.421-3.537a39.217 39.217 0 0 0-.848-.504c-1.82-1.049-3.72-1.942-5.56-2.804-.672-.317-1.369-.643-2.056-.974a86.025 86.025 0 0 1-.537-.263c-1.252-.618-2.708-1.339-4.059-1.339l.003-.003z" fill="#1A1A1A" stroke="#1A1A1A"/>
    <path d="M46.342 156.687c-1.487-2.472-3.194-4.692-4.84-7.029-1.315-1.866-2.943-4.628-5.642-4.149-2.243.398-4.68 2.91-6.209 4.457-1.691 1.71-3.178 3.609-4.601 5.542-.878 1.194-1.752 2.593-1.502 4.053.486 2.831 4.038 3.226 6.366 3.326 4.255.184 8.527.612 12.782.965 4.28.356 6.315-2.461 4.146-6.308-.162-.29-.331-.576-.5-.86v.003z" fill="#fff"/>
    <path d="M43.396 164.271c-.239 0-.483-.009-.733-.03-.974-.082-1.948-.166-2.922-.25-3.233-.281-6.574-.573-9.845-.715-1.683-.072-6.152-.265-6.73-3.646-.272-1.577.593-3.021 1.57-4.348 1.27-1.725 2.814-3.739 4.638-5.584l.106-.109c1.592-1.61 3.995-4.047 6.308-4.457 2.717-.482 4.435 2.005 5.69 3.821.114.166.226.328.338.485.437.621.886 1.243 1.32 1.846 1.197 1.661 2.437 3.38 3.534 5.207.175.293.344.582.507.869 1.095 1.939 1.227 3.736.377 5.066-.763 1.191-2.259 1.848-4.158 1.848v-.003zm-6.942-18.427c-.172 0-.35.015-.53.048-2.072.368-4.373 2.699-5.896 4.24l-.105.108c-1.791 1.813-3.314 3.797-4.565 5.5-.875 1.188-1.653 2.467-1.433 3.761.425 2.478 3.628 2.903 6 3.006 3.29.142 6.64.434 9.882.715.974.084 1.945.169 2.92.25 1.953.163 3.473-.371 4.176-1.466.69-1.076.548-2.59-.398-4.269a37.844 37.844 0 0 0-.495-.851c-1.082-1.8-2.31-3.504-3.498-5.153-.434-.603-.883-1.227-1.324-1.852-.111-.156-.223-.322-.34-.491-1.101-1.595-2.449-3.546-4.39-3.546h-.004z" fill="#1A1A1A" stroke="#1A1A1A"/>
    <path d="M37.383 153.85c-.127-1.372-1.71-1.852-2.46-.558-.643 1.11-.179 1.854.512 2.111.862.319 2.08-.118 1.948-1.553zM32.935 150.087a.443.443 0 0 0 .07.211c.178.268.449.337.735.214.486-.205.338-.878-.15-.986a.54.54 0 0 0-.655.561zM38.14 150.319a.443.443 0 0 0 .07.211c.177.268.449.337.735.214.486-.205.338-.878-.15-.986a.54.54 0 0 0-.655.561z" fill="#1A1A1A" stroke="#1A1A1A"/>
    <path d="M96.585 147.255c-2.289-3.26-6.07-4.656-9.83-4.176-6.028.772-10.443 7.43-8.492 13.614 3.25 10.304 18.98 8.269 20.276-2.035.332-2.626-.447-5.256-1.954-7.403z" fill="#fff"/>
    <path d="M87.822 163.864c-1.981 0-3.905-.491-5.51-1.423-2.113-1.227-3.642-3.175-4.417-5.63-.959-3.036-.482-6.384 1.309-9.182 1.758-2.75 4.493-4.547 7.502-4.933 4.11-.525 7.922 1.095 10.195 4.336 1.635 2.328 2.352 5.054 2.024 7.674-.323 2.563-1.532 4.792-3.492 6.447-1.773 1.496-4.092 2.443-6.526 2.663-.361.033-.723.048-1.082.048h-.003zm.395-20.493c-.464 0-.938.031-1.414.091-2.78.356-5.313 2.026-6.95 4.583-1.665 2.606-2.112 5.714-1.222 8.534.715 2.267 2.123 4.065 4.068 5.195 1.758 1.02 3.935 1.472 6.133 1.273 5.772-.522 8.841-4.614 9.32-8.434.305-2.428-.364-4.964-1.887-7.135-1.842-2.626-4.785-4.104-8.051-4.104l.003-.003z" fill="#1A1A1A" stroke="#1A1A1A"/>
    <path d="M78.887 136.497c-2.289-3.26-6.07-4.656-9.83-4.177-6.028.772-10.443 7.43-8.492 13.615 3.251 10.304 18.98 8.268 20.276-2.035.332-2.627-.446-5.256-1.954-7.403z" fill="#fff"/>
    <path d="M70.124 153.106c-1.98 0-3.905-.492-5.509-1.423-2.114-1.228-3.643-3.176-4.418-5.63-.959-3.037-.482-6.384 1.31-9.182 1.757-2.75 4.492-4.547 7.502-4.933 4.11-.525 7.921 1.094 10.195 4.336 1.634 2.328 2.352 5.054 2.023 7.674-.323 2.563-1.532 4.792-3.492 6.447-1.773 1.496-4.092 2.442-6.525 2.663-.362.033-.724.048-1.083.048h-.003zm.395-20.493c-.464 0-.938.03-1.414.091-2.78.355-5.313 2.026-6.95 4.58-1.665 2.605-2.111 5.714-1.222 8.534.715 2.267 2.123 4.064 4.068 5.195 1.758 1.019 3.935 1.475 6.133 1.273 5.772-.522 8.842-4.614 9.321-8.434.305-2.428-.365-4.964-1.888-7.135-1.842-2.626-4.785-4.104-8.05-4.104h.002z" fill="#1A1A1A" stroke="#1A1A1A"/>
    <path d="M105.261 128.169c-2.289-3.26-6.07-4.656-9.83-4.177-6.028.772-10.443 7.43-8.492 13.615 3.25 10.304 18.979 8.268 20.276-2.035.331-2.627-.447-5.256-1.954-7.403z" fill="#FEC729"/>
    <path d="M96.498 144.781c-1.981 0-3.905-.492-5.51-1.424-2.113-1.227-3.642-3.175-4.417-5.629-.959-3.037-.483-6.384 1.309-9.182 1.758-2.75 4.493-4.548 7.502-4.934 4.11-.524 7.922 1.095 10.195 4.337 1.634 2.327 2.352 5.053 2.024 7.674-.323 2.563-1.532 4.791-3.492 6.447-1.773 1.495-4.092 2.442-6.526 2.662-.362.034-.723.049-1.082.049h-.003zm.395-20.493c-.465 0-.938.03-1.415.09-2.78.356-5.313 2.027-6.95 4.581-1.665 2.605-2.11 5.714-1.221 8.533.714 2.268 2.123 4.065 4.067 5.196 1.758 1.019 3.936 1.471 6.134 1.272 5.771-.521 8.841-4.613 9.321-8.434.304-2.427-.365-4.963-1.888-7.134-1.843-2.627-4.786-4.104-8.051-4.104h.003z" fill="#1A1A1A" stroke="#1A1A1A"/>
    <path d="M94.272 129.049a.469.469 0 0 0 .335-.47c0-.215-.148-.365-.326-.465-.34-.19-.82-.172-1.064.166-.133.184-.088.404.075.549.211.19.667.316.98.22zM100.695 130.334c.124-.046.232-.121.278-.248.087-.241-.112-.497-.302-.624-.335-.217-.974-.208-1.083.269-.105.467.396.675.776.66.102-.003.223-.018.331-.057zM96.85 135.227c-.093 0-.186-.006-.28-.015-1.137-.118-2.174-.962-2.515-2.054a.387.387 0 0 1 .74-.232 2.244 2.244 0 0 0 1.857 1.517 2.248 2.248 0 0 0 2.132-1.104.383.383 0 0 1 .524-.147c.187.105.253.34.148.524-.513.917-1.556 1.508-2.602 1.508l-.003.003z" fill="#1A1A1A" stroke="#1A1A1A"/>
    <path d="M121.29 148.727c-.205 2.322-.16 4.818-.09 7.21.051 1.791-.227 5.841 1.112 7.2 1.143 1.164 4.3.673 5.784.682 2.816.015 4.978.072 7.792.093 2.418.019 4.698-.527 4.927-2.888.262-2.714.142-5.702.105-8.428-.027-1.885.085-6.236-1.969-7.301-.856-.443-1.869-.455-2.84-.455-2.6 0-5.211-.078-7.81-.009-1.897.051-4.161-.106-5.763 1.073-.838.619-1.146 1.689-1.245 2.817l-.003.006z" fill="#fff"/>
    <path d="M135.996 164.302h-.111c-1.33-.009-2.527-.028-3.685-.046a392.364 392.364 0 0 0-4.107-.048c-.299-.003-.688.018-1.098.039-1.661.088-3.935.205-4.96-.838-1.224-1.245-1.218-4.228-1.215-6.405 0-.41 0-.763-.006-1.055-.07-2.376-.118-4.894.093-7.255.133-1.484.591-2.497 1.402-3.094 1.484-1.092 3.456-1.116 5.196-1.137.268-.003.53-.006.787-.012 1.734-.045 3.498-.027 5.207-.012.857.009 1.746.018 2.615.018.916 0 2.056 0 3.018.498 2.123 1.097 2.156 5.087 2.174 7.231 0 .144 0 .28.003.404.006.461.015.931.024 1.405.046 2.355.091 4.791-.129 7.065-.208 2.15-1.957 3.239-5.202 3.239l-.006.003zm-7.939-.869h.039c1.489.009 2.825.03 4.113.048 1.158.018 2.355.037 3.679.046h.105c4.189 0 4.372-1.909 4.433-2.539.217-2.232.172-4.644.126-6.978-.009-.477-.018-.947-.024-1.408 0-.127 0-.263-.003-.41-.015-1.84-.048-5.669-1.758-6.553-.793-.41-1.788-.41-2.662-.413-.875 0-1.761-.009-2.624-.018-1.7-.018-3.458-.036-5.177.012-.26.006-.528.009-.799.012-1.704.021-3.462.042-4.747.986-.624.458-.98 1.291-1.091 2.539-.205 2.322-.157 4.813-.091 7.165.009.307.009.666.006 1.079-.003 1.812-.009 4.843.996 5.862.781.796 2.94.682 4.369.606.404-.021.787-.042 1.104-.042l.006.006z" fill="#1A1A1A" stroke="#1A1A1A"/>
    <path d="M142.524 156.073c1.725 1.568 3.742 3.042 5.687 4.432 1.457 1.044 4.514 3.715 6.408 3.471 1.616-.208 3.136-3.018 4.041-4.194 1.715-2.232 3.069-3.92 4.788-6.149 1.478-1.915 2.421-4.062.682-5.672-2.003-1.851-4.454-3.561-6.649-5.183-1.517-1.119-4.916-3.839-7.005-2.847-.872.413-1.493 1.215-2.081 1.987-1.574 2.069-3.214 4.104-4.731 6.215-1.107 1.541-2.599 3.251-2.632 5.238-.016 1.043.651 1.933 1.489 2.696l.003.006z" fill="#fff"/>
    <path d="M154.369 164.379c-1.698 0-3.902-1.679-5.536-2.925-.326-.247-.607-.461-.848-.633-1.933-1.384-3.968-2.868-5.72-4.463-1.104-1.001-1.631-1.981-1.616-2.988.027-1.842 1.203-3.425 2.237-4.824.16-.214.317-.425.465-.633 1.013-1.409 2.092-2.805 3.139-4.153.524-.678 1.07-1.377 1.595-2.071.555-.73 1.245-1.637 2.222-2.102 2.159-1.028 5.356 1.36 7.074 2.642.115.087.223.169.326.241.371.274.751.552 1.131.829 1.902 1.39 3.869 2.829 5.548 4.378 1.604 1.484 1.39 3.564-.636 6.191-.811 1.052-1.553 1.996-2.268 2.907a396.787 396.787 0 0 0-2.521 3.238c-.184.238-.401.558-.633.898-.935 1.375-2.216 3.257-3.667 3.444a2.495 2.495 0 0 1-.301.018l.009.006zm-2.877-24.27c-.304 0-.591.054-.847.175-.808.383-1.408 1.173-1.939 1.872-.528.697-1.074 1.396-1.601 2.078-1.044 1.342-2.12 2.732-3.124 4.128-.151.211-.311.425-.474.645-1.013 1.369-2.062 2.783-2.086 4.375-.012.772.434 1.559 1.363 2.403 1.721 1.568 3.736 3.037 5.651 4.406.25.178.533.395.865.648 1.441 1.098 3.851 2.937 5.268 2.753 1.107-.142 2.322-1.93 3.127-3.112.238-.349.461-.678.657-.934a364.011 364.011 0 0 1 2.527-3.245c.715-.911 1.454-1.854 2.265-2.904 2.62-3.398 1.194-4.716.723-5.15-1.646-1.522-3.594-2.946-5.479-4.324-.383-.28-.762-.558-1.133-.832-.103-.075-.211-.157-.329-.244-1.257-.938-3.67-2.741-5.431-2.741l-.003.003z" fill="#1A1A1A" stroke="#1A1A1A"/>
    <path d="M150.796 145.009c.491-.094.739-.908.045-1.08a.577.577 0 0 0-.651.314.555.555 0 0 0 .211.684.542.542 0 0 0 .395.082zM155.675 149.103c.491-.093.738-.907.045-1.079a.577.577 0 0 0-.651.313.557.557 0 0 0 .606.766zM151.824 152.025a2.992 2.992 0 0 1-1.713-.527c-.934-.661-1.423-1.903-1.188-3.022a.386.386 0 1 1 .757.16c-.172.826.187 1.746.878 2.231a2.23 2.23 0 0 0 2.397.079.385.385 0 1 1 .401.66 2.938 2.938 0 0 1-1.535.419h.003z" fill="#1A1A1A" stroke="#1A1A1A"/>
    <path d="M88.154 71.288c-14.978 7.258-32.621 7.858-47.77 3.82-.79-4.981-3.333-10.997-4.123-15.981 11.558.585 23.21-1.426 33.447-6.824 6.085-3.208 11.495-7.556 17.423-11.048 7.005-4.128 13.832-7.05 21.865-7.315 19.703-.648 43.253 9.903 48.045 31.664 2.385 10.83-1.785 24.083-10.388 30.644-6.152 4.689-13.645 7.943-21.365 8.531-6.603.503-14.537-.166-20.809-2.518 3.242-3.63 6.227-8.853 9.468-12.483 9.77-.22-25.797-18.496-25.797-18.496l.004.006z" fill="#fff"/>
    <path d="M37.208 90.133c-1.721-2.319-3.64-4.363-5.506-6.531-1.49-1.731-3.383-4.324-6.028-3.583-2.195.615-4.38 3.356-5.753 5.045-1.517 1.87-2.816 3.905-4.047 5.97-.76 1.276-1.492 2.754-1.1 4.186.76 2.774 4.339 2.82 6.667 2.693 4.258-.232 8.558-.223 12.83-.284 4.3-.063 6.052-3.07 3.516-6.688-.19-.274-.386-.543-.582-.808h.003z" fill="#FEC729"/>
    <path d="M20.147 98.344c-2.035 0-5.02-.383-5.741-3.021-.423-1.544.298-3.07 1.142-4.484 1.098-1.843 2.437-3.998 4.077-6.019l.097-.117c1.43-1.761 3.588-4.421 5.853-5.057 2.66-.745 4.613 1.565 6.043 3.253l.383.45c.494.576 1.004 1.151 1.495 1.71 1.354 1.537 2.756 3.13 4.029 4.845.202.275.4.549.588.817 1.278 1.825 1.586 3.604.868 5.012-.727 1.42-2.436 2.255-4.695 2.286-.977.015-1.957.024-2.934.036-3.247.033-6.607.07-9.881.247-.341.018-.8.042-1.318.042h-.006zm6.435-18.065c-.26 0-.528.036-.802.112-2.027.57-4.092 3.114-5.461 4.797l-.097.118c-1.607 1.98-2.93 4.107-4.013 5.925-.757 1.27-1.408 2.62-1.062 3.887.667 2.43 3.9 2.539 6.272 2.41 3.293-.179 6.662-.215 9.915-.251a469.55 469.55 0 0 0 2.931-.036c1.963-.028 3.426-.709 4.017-1.867.582-1.14.292-2.635-.814-4.215-.185-.263-.377-.531-.576-.8-1.255-1.688-2.645-3.268-3.99-4.794a184.769 184.769 0 0 1-1.498-1.716c-.127-.148-.257-.298-.387-.455-1.19-1.411-2.638-3.121-4.441-3.121l.006.006z" fill="#1A1A1A" stroke="#1A1A1A"/>
    <path d="M26.467 92.238c-1.245 0-2.46-.781-2.973-1.918a.386.386 0 0 1 .703-.316c.398.883 1.35 1.48 2.318 1.462a2.54 2.54 0 0 0 2.25-1.565.386.386 0 0 1 .718.284c-.468 1.179-1.683 2.023-2.953 2.05h-.066l.003.003zM29.196 87.664a.388.388 0 0 1-.35-.555c.184-.383.595-.624 1.068-.624h.006c.47 0 .877.235 1.067.615a.39.39 0 0 1-.174.519.39.39 0 0 1-.519-.175c-.066-.136-.244-.184-.374-.184-.133 0-.308.051-.377.19a.383.383 0 0 1-.347.217v-.003zM23.714 87.67a.388.388 0 0 1-.35-.22c-.066-.139-.244-.19-.373-.19-.13 0-.31.045-.377.184a.387.387 0 0 1-.69-.347c.19-.38.605-.612 1.076-.61.473.007.88.248 1.064.634.09.193.01.422-.184.516a.412.412 0 0 1-.166.036v-.003z" fill="#1A1A1A" stroke="#1A1A1A"/>
    <path d="M111.402 52.617a69.663 69.663 0 0 0-9.131-2.144c-1.676-.277-6.172-1.719-7.499-.193-.525.603-.727 1.417-.914 2.195-.775 3.245-1.54 6.492-2.322 9.737-.557 2.322-.301 4.029 2.193 4.897 4.855 1.695 10.08 3.459 15.228 3.82.503.037 1.052.03 1.456-.28.353-.274.516-.727.66-1.152a152.139 152.139 0 0 0 2.838-9.296c.443-1.647 1.158-4.11.353-5.723-.528-1.056-1.743-1.517-2.862-1.861z" fill="#fff"/>
    <path d="M109.325 71.331c-.136 0-.269-.006-.395-.015-5.009-.353-9.906-1.95-15.328-3.842-3.03-1.058-2.934-3.299-2.44-5.352.513-2.129 1.026-4.294 1.527-6.387l.796-3.347c.178-.744.398-1.67.998-2.36 1.227-1.409 4.49-.673 6.652-.188.479.109.895.202 1.203.253a70.215 70.215 0 0 1 9.182 2.156c1.266.39 2.521.908 3.094 2.057.841 1.683.196 4.068-.275 5.808l-.051.19a152.617 152.617 0 0 1-2.843 9.32c-.139.413-.332.977-.79 1.333-.389.302-.866.377-1.324.377l-.006-.003zM96.928 49.973c-.817 0-1.507.145-1.866.558-.474.546-.664 1.336-.83 2.032l-.796 3.347c-.497 2.096-1.013 4.261-1.525 6.39-.6 2.5-.058 3.745 1.945 4.442 5.37 1.872 10.213 3.452 15.128 3.802.443.03.896.03 1.191-.202.253-.196.389-.555.531-.97 1.094-3.23 2.02-6.264 2.831-9.276l.052-.19c.413-1.53 1.04-3.842.331-5.262-.467-.932-1.601-1.348-2.629-1.662a69.298 69.298 0 0 0-9.083-2.132c-.331-.054-.756-.15-1.248-.262-1.137-.256-2.744-.618-4.032-.618v.003z" fill="#1A1A1A" stroke="#1A1A1A"/>
    <path d="M106.523 76.068c-2.207-3.39-5.192-6.405-7.927-9.237-.654-.678-1.354-1.369-2.247-1.673-2.358-.805-4.604 2.451-5.928 3.917a58.155 58.155 0 0 0-5.247 6.745c-.823 1.237-1.631 2.675-1.312 4.126.751 3.413 6.728 3.35 9.457 3.763 4.034.609 9.89 2.011 13.871.705.79-.259 1.529-.808 1.803-1.592.296-.838.021-1.76-.302-2.59-.563-1.454-1.305-2.838-2.171-4.164h.003z" fill="#fff"/>
    <path d="M103.216 85.337c-2.591 0-5.383-.476-7.798-.892-.763-.13-1.484-.254-2.156-.356a39.025 39.025 0 0 0-1.586-.184c-2.989-.305-7.506-.763-8.19-3.878-.344-1.565.455-3.049 1.369-4.42a58.835 58.835 0 0 1 5.28-6.791c.184-.205.392-.45.612-.712 1.378-1.628 3.459-4.089 5.726-3.314.95.326 1.677 1.022 2.4 1.77l.483.5c2.65 2.739 5.391 5.573 7.49 8.794.941 1.447 1.662 2.831 2.207 4.236.341.878.643 1.903.305 2.856-.289.82-1.055 1.505-2.047 1.83-1.231.404-2.63.558-4.095.558v.003zM95.59 65.42c-1.56 0-3.094 1.816-4.255 3.188-.223.265-.437.515-.63.73a57.885 57.885 0 0 0-5.211 6.7c-.82 1.23-1.538 2.545-1.257 3.826.564 2.57 4.58 2.977 7.514 3.275.594.06 1.158.118 1.622.187.679.103 1.405.226 2.171.359 3.697.633 8.299 1.42 11.522.362.766-.254 1.351-.757 1.559-1.354.254-.715.006-1.538-.295-2.322-.525-1.354-1.221-2.693-2.135-4.092-2.057-3.16-4.771-5.965-7.397-8.678l-.485-.501c-.679-.703-1.306-1.306-2.096-1.577a1.94 1.94 0 0 0-.633-.106l.006.003z" fill="#1A1A1A" stroke="#1A1A1A"/>
    <path d="M127.215 85.442c3.347 2.955 4.372.528 5.407-2.783.904-2.895 1.387-5.902 1.824-8.896.256-1.752.814-4.604-1.137-5.57-.823-.406-1.773-.436-2.69-.449-3.745-.048-7.454.25-11.187.552-1.161.094-2.484.278-3.127 1.252-1.363 2.071 2.401 6.19 3.649 7.8 2.222 2.865 4.535 5.688 7.261 8.094z" fill="#fff"/>
    <path d="M129.772 87.158c-.802 0-1.731-.47-2.813-1.427-2.768-2.442-5.15-5.358-7.312-8.144a41.68 41.68 0 0 0-.546-.679c-1.674-2.062-4.475-5.515-3.121-7.571.799-1.216 2.503-1.351 3.419-1.424l.07-.006c3.645-.292 7.418-.594 11.154-.545 1.01.012 1.987.06 2.855.488 2.09 1.031 1.674 3.815 1.396 5.657-.015.108-.033.214-.048.314-.425 2.913-.917 6.003-1.836 8.955-.667 2.135-1.33 3.933-2.699 4.315-.169.049-.341.07-.522.07l.003-.003zm-2.3-2.005c1.097.968 1.975 1.368 2.614 1.19.995-.277 1.592-1.956 2.168-3.799.905-2.898 1.39-5.955 1.812-8.838.015-.103.03-.208.049-.317.259-1.715.612-4.067-.974-4.848-.724-.36-1.571-.398-2.524-.41-3.703-.049-7.454.253-11.082.542l-.069.006c-1.086.088-2.289.25-2.835 1.08-1.043 1.586 1.74 5.011 3.076 6.66.214.266.401.495.555.694 2.138 2.757 4.493 5.64 7.213 8.04h-.003z" fill="#1A1A1A" stroke="#1A1A1A"/>
    <path d="M121.631 71.49c1.848-3.534 1.348-7.538-.808-10.662-3.459-5.006-11.41-5.871-16.012-1.29-7.668 7.628 1.375 20.679 11.133 17.094 2.488-.914 4.469-2.814 5.684-5.145l.003.003z" fill="#FEC729"/>
    <path d="M112.579 77.63c-1.3 0-2.59-.26-3.839-.775-2.147-.89-4.053-2.515-5.367-4.578-1.273-1.996-1.915-4.303-1.81-6.495.121-2.445 1.149-4.698 2.977-6.516 2.258-2.25 5.455-3.362 8.765-3.058 3.254.299 6.11 1.906 7.838 4.403 2.358 3.413 2.668 7.547.832 11.06-1.321 2.524-3.414 4.415-5.895 5.328a10.143 10.143 0 0 1-3.501.634v-.003zm-.344-20.701c-2.717 0-5.28 1.022-7.15 2.883-1.688 1.68-2.638 3.757-2.747 6.006-.099 2.033.501 4.177 1.689 6.04 3.118 4.891 8.169 5.742 11.787 4.412 2.301-.845 4.246-2.606 5.476-4.96 1.701-3.254 1.408-7.09-.781-10.262-1.595-2.31-4.245-3.797-7.27-4.074-.335-.03-.669-.045-1.001-.045h-.003z" fill="#1A1A1A"/>
    <path d="M121.975 71.671c1.836-3.513 1.526-7.647-.832-11.06-1.728-2.497-4.584-4.104-7.838-4.403-3.31-.304-6.507.808-8.765 3.058-1.828 1.818-2.856 4.07-2.977 6.516-.105 2.192.537 4.5 1.81 6.495 1.314 2.063 3.22 3.688 5.367 4.578 1.249.515 2.539.775 3.839.775v.003c1.173 0 2.349-.211 3.501-.634 2.481-.913 4.574-2.804 5.895-5.328zm0 0-.344-.178m-9.396-14.564c-2.717 0-5.28 1.022-7.15 2.883-1.688 1.68-2.638 3.757-2.747 6.006-.099 2.033.501 4.177 1.689 6.04 3.118 4.891 8.169 5.742 11.787 4.412 2.301-.845 4.246-2.606 5.476-4.96 1.701-3.254 1.409-7.09-.781-10.262-1.595-2.31-4.245-3.797-7.27-4.074-.335-.03-.669-.045-1.001-.045h-.003z" stroke="#1A1A1A"/>
    <path d="M109.683 61.657a.464.464 0 0 0 .441-.37c.051-.209-.052-.393-.199-.532-.281-.271-.751-.374-1.074-.108-.175.145-.187.368-.066.549.156.238.567.473.895.461h.003zM115.582 64.519c.129-.012.253-.058.331-.17.148-.21.019-.512-.135-.68-.272-.296-.893-.447-1.116-.013-.22.425.214.754.585.836.1.02.22.039.338.027h-.003zM111.36 68.385c-.341 0-.681-.058-1.001-.178-1.074-.401-1.864-1.481-1.921-2.624a.383.383 0 0 1 .368-.404.385.385 0 0 1 .404.368 2.244 2.244 0 0 0 1.42 1.939 2.243 2.243 0 0 0 2.343-.534.386.386 0 0 1 .558.534c-.558.579-1.366.898-2.168.898h-.003z" fill="#1A1A1A" stroke="#1A1A1A"/>
    <path d="M113.326 91.97a60.881 60.881 0 0 0 8.133-2.526c1.438-.561 5.624-1.487 5.946-3.36.127-.738-.093-1.501-.313-2.228-.914-3.021-1.834-6.04-2.741-9.064-.649-2.162-1.65-3.44-4.002-2.982-4.583.89-9.489 1.896-13.678 4.013-.41.208-.838.468-1.007.914-.148.389-.063.835.024 1.251a151.183 151.183 0 0 0 2.132 8.947c.422 1.556 1.016 3.91 2.4 4.855.905.618 2.072.425 3.106.18z" fill="#fff"/>
    <path d="M111.707 92.586c-.606 0-1.185-.127-1.704-.48-1.447-.989-2.059-3.244-2.506-4.894l-.048-.178a151.948 151.948 0 0 1-2.138-8.97c-.084-.405-.199-.96-.006-1.47.214-.563.724-.883 1.194-1.12 4.083-2.063 8.658-3.056 13.781-4.048 2.907-.563 3.902 1.442 4.445 3.251.594 1.981 1.203 3.992 1.794 5.937.316 1.04.63 2.084.947 3.124.211.694.47 1.56.325 2.404-.301 1.746-3.208 2.68-5.132 3.299-.425.135-.79.253-1.055.355a61.394 61.394 0 0 1-8.187 2.542c-.567.133-1.146.242-1.707.242l-.003.006zm9.529-20.484c-.251 0-.522.03-.814.084-5.066.983-9.583 1.96-13.579 3.978-.353.178-.699.389-.82.705-.106.278-.042.633.039 1.038.657 3.16 1.351 6.079 2.126 8.922l.048.178c.392 1.444.983 3.63 2.195 4.457.788.537 1.858.347 2.799.124a60.789 60.789 0 0 0 8.081-2.512c.287-.112.663-.232 1.098-.371 1.64-.528 4.384-1.408 4.607-2.693.115-.666-.105-1.402-.301-2.05-.314-1.04-.63-2.084-.947-3.124-.591-1.945-1.2-3.96-1.794-5.94-.588-1.955-1.387-2.802-2.744-2.802l.006.006z" fill="#1A1A1A" stroke="#1A1A1A"/>
    <path d="M118.271 78.018c-.449 0-.898-.208-1.179-.56a.387.387 0 0 1 .606-.48c.16.202.447.307.697.256a.736.736 0 0 0 .543-.506.387.387 0 0 1 .745.208 1.52 1.52 0 0 1-1.137 1.058 1.478 1.478 0 0 1-.281.027l.006-.003zM111.505 79.81a1.53 1.53 0 0 1-1.161-.538.386.386 0 0 1 .594-.491.73.73 0 0 0 .703.241.737.737 0 0 0 .533-.518.385.385 0 0 1 .471-.278.384.384 0 0 1 .277.47 1.514 1.514 0 0 1-1.113 1.08 1.519 1.519 0 0 1-.307.033h.003zM114.91 83.425c-.124 0-.248-.006-.371-.018a.388.388 0 0 1-.347-.422.388.388 0 0 1 .422-.347 3.374 3.374 0 0 0 2.898-1.225.388.388 0 0 1 .543-.06.388.388 0 0 1 .06.543c-.76.953-1.987 1.529-3.209 1.529h.004z" fill="#1A1A1A" stroke="#1A1A1A"/>
    <path d="M157.044 65.607c2.385 10.83-1.785 24.083-10.388 30.644-6.152 4.689-13.645 7.943-21.365 8.531-6.603.503-14.537-.166-20.809-2.518 3.242-3.63 6.227-8.853 9.468-12.483 9.77-.22 18.847-3.673 22.32-13.283l20.774-10.891z" fill="#fff"/>
    <path d="M121.082 105.327c-6.052 0-12.083-.956-16.735-2.702a.381.381 0 0 1-.239-.268.381.381 0 0 1 .088-.35c1.607-1.797 3.181-4.037 4.707-6.205 1.538-2.186 3.127-4.445 4.761-6.275a.398.398 0 0 1 .281-.13c14.38-.325 19.88-7.264 21.964-13.029a.386.386 0 1 1 .727.263c-1.659 4.592-4.68 8.08-8.98 10.372-3.673 1.957-8.223 3.022-13.524 3.16-1.568 1.776-3.106 3.965-4.596 6.082-1.42 2.017-2.883 4.101-4.387 5.85 5.593 1.981 13.06 2.84 20.116 2.303 7.215-.548 14.73-3.552 21.159-8.451 4.053-3.088 7.312-7.898 9.182-13.536 1.839-5.545 2.216-11.482 1.061-16.72-2.765-12.562-11.452-19.976-18.249-23.987-8.516-5.02-19.236-7.71-29.403-7.375-8.733.286-15.862 3.832-21.681 7.26-2.54 1.496-5.03 3.182-7.436 4.81-3.203 2.168-6.517 4.409-10.002 6.248-9.58 5.05-21.039 7.427-33.167 6.89.416 2.346 1.206 4.948 1.969 7.469.796 2.626 1.62 5.34 2.032 7.791 16.193 4.258 33.402 2.856 47.261-3.86a.387.387 0 0 1 .338.694C74.238 78.458 56.73 79.86 40.293 75.48a.389.389 0 0 1-.283-.314c-.39-2.466-1.234-5.246-2.05-7.94-.824-2.716-1.674-5.523-2.072-8.04a.383.383 0 0 1 .401-.446c12.167.617 23.665-1.729 33.248-6.78 3.45-1.818 6.745-4.05 9.93-6.205 2.418-1.637 4.918-3.326 7.478-4.837 5.904-3.48 13.141-7.077 22.048-7.369 10.313-.338 21.184 2.388 29.823 7.481 6.929 4.086 15.786 11.651 18.611 24.484 1.182 5.37.799 11.455-1.083 17.127-1.917 5.786-5.273 10.725-9.447 13.907-6.546 4.99-14.205 8.047-21.569 8.608-1.402.106-2.819.16-4.237.16l-.009.012z" fill="#1A1A1A" stroke="#1A1A1A"/>
    <path d="M100.939 35.162s9.33 15.917 34.207 4.483c-2.898-4.462-1.864-6.383-2.422-10.34-.612-4.311-.461-8.563-1.691-12.805-1.249-4.309-3.625-8.446-7.34-10.96-3.715-2.515-8.901-3.11-12.704-.724-3.612 2.267-5.337 6.64-6.018 10.849-.694 4.287-.962 8.747-1.264 13.047-.072 1.022-.98 5.663-2.765 6.45h-.003z" fill="#fff"/>
    <path d="M118.567 44.165c-3.643 0-7.008-.712-10.017-2.123-5.488-2.572-7.846-6.516-7.943-6.685a.383.383 0 0 1-.033-.313.386.386 0 0 1 .211-.235c1.496-.66 2.452-4.921 2.536-6.124.027-.395.054-.793.084-1.191.272-3.923.555-7.979 1.185-11.89.595-3.67 2.15-8.578 6.194-11.114 1.888-1.182 4.176-1.713 6.616-1.535 2.289.169 4.598.974 6.507 2.264 4.376 2.965 6.489 7.71 7.494 11.175.805 2.78 1.031 5.597 1.248 8.322.118 1.487.241 3.022.455 4.535.163 1.146.193 2.105.223 3.03.073 2.262.127 4.05 2.144 7.153a.39.39 0 0 1 .049.317.398.398 0 0 1-.211.244c-5.724 2.63-11.103 4.028-15.991 4.158-.251.006-.501.009-.748.009l-.003.003zm-17.082-8.877c.681.986 3.036 4.022 7.436 6.073 3.102 1.444 6.606 2.126 10.409 2.02 4.659-.13 9.788-1.441 15.252-3.905-1.897-3.06-1.957-4.969-2.027-7.17-.027-.905-.057-1.842-.214-2.946-.217-1.538-.34-3.088-.461-4.583-.223-2.81-.434-5.467-1.218-8.169-.968-3.338-3.001-7.915-7.186-10.75a12.777 12.777 0 0 0-6.13-2.134c-2.277-.169-4.406.323-6.149 1.417-2.098 1.315-4.812 4.222-5.844 10.584-.627 3.874-.907 7.915-1.179 11.82-.027.398-.054.796-.084 1.19-.048.691-.778 5.211-2.605 6.55v.003z" fill="#1A1A1A" stroke="#1A1A1A"/>
    <path d="M125.084 2.3a14.04 14.04 0 0 0-6.963-1.917C111.433.311 106.201 5.1 105.04 11.54c-.401 2.223.051 4.155.094 6.339-.097-4.765 3.817-11.36 9.04-11.703.111.72-.887 3.61-2.566 3.356a7.076 7.076 0 0 0 5.584 1.444c2.75-.48 4.342-2.43 5.624-4.725.688 2.856 3.172 4.852 5.376 6.794 2.295 2.02 3.239 5.039 3.749 7.755.579-1.372.865-3.929.835-5.777-.027-1.704-.549-3.495-1.185-5.06-1.324-3.269-3.61-5.973-6.51-7.665l.003.003z" fill="#1A1A1A"/>
    <path d="M131.947 21.192h-.043a.383.383 0 0 1-.337-.313c-.42-2.235-1.255-5.45-3.625-7.536l-.479-.419c-1.909-1.67-3.878-3.39-4.753-5.711-1.155 1.878-2.741 3.679-5.449 4.152a7.467 7.467 0 0 1-5.892-1.526.386.386 0 0 1 .299-.681c.359.054.712-.09 1.049-.431.57-.57.941-1.541 1.05-2.114-2.126.292-4.168 1.691-5.79 3.986-1.559 2.204-2.5 4.99-2.455 7.28a.389.389 0 0 1-.379.394.392.392 0 0 1-.396-.38 32.325 32.325 0 0 0-.129-2.065c-.118-1.381-.238-2.807.042-4.351C105.881 4.7 111.345 0 117.973 0h.151c2.554.027 4.96.69 7.152 1.97 2.95 1.72 5.32 4.51 6.674 7.854.778 1.921 1.185 3.673 1.212 5.199.03 1.86-.257 4.496-.866 5.934a.384.384 0 0 1-.355.235h.006zm-9.128-15.324a.386.386 0 0 1 .374.296c.609 2.532 2.729 4.384 4.776 6.175.16.142.323.28.48.422 2.05 1.807 3.021 4.342 3.552 6.49.28-1.318.41-2.95.389-4.216-.024-1.433-.413-3.088-1.155-4.921-1.291-3.188-3.546-5.844-6.348-7.479a13.526 13.526 0 0 0-6.769-1.863h-.145c-6.248 0-11.398 4.439-12.553 10.84-.169.944-.181 1.834-.136 2.723a14.8 14.8 0 0 1 2.06-4.185c1.872-2.645 4.288-4.189 6.806-4.354a.384.384 0 0 1 .407.328c.099.646-.401 2.253-1.294 3.148a2.454 2.454 0 0 1-.666.486 6.703 6.703 0 0 0 4.529.847c2.753-.48 4.252-2.56 5.352-4.532a.389.389 0 0 1 .338-.199l.003-.006z" fill="#1A1A1A"/>
    <path d="M131.446 19.196c.012-.133.03-.272.069-.429.25-.982 1.463-1.697 2.545-1.233 1.125.486 1.864 1.797 2.234 3.094.402 1.405.474 2.934.016 4.23-.459 1.294-1.493 2.31-2.738 2.443-1.671.178-3.598-1.48-3.923-2.9-.209-.905-.402-3.502.018-4.33.301-.595 1.746-.568 1.776-.875h.003z" fill="#fff"/>
    <path d="M133.315 27.702c-.865 0-1.752-.389-2.424-1.073a.383.383 0 0 1 .006-.546.383.383 0 0 1 .546.006c.579.588 1.378.905 2.09.83 1.037-.11 1.984-.969 2.415-2.187.398-1.128.392-2.548-.021-3.995-.41-1.433-1.143-2.47-2.018-2.847-.458-.199-1.04-.124-1.483.187-.223.157-.591.51-.555 1.098a.384.384 0 0 1-.362.41.385.385 0 0 1-.41-.362c-.045-.703.274-1.351.881-1.78.657-.464 1.534-.566 2.234-.265 1.086.468 1.981 1.686 2.455 3.345.455 1.6.458 3.187.006 4.465-.531 1.499-1.731 2.557-3.064 2.7-.1.008-.199.014-.299.014h.003z" fill="#1A1A1A" stroke="#1A1A1A"/>
    <path d="M132.8 24.283c-.151 0-.299-.024-.443-.07a.387.387 0 1 1 .235-.735c.223.072.482.02.708-.136a.926.926 0 0 0 .407-.705c.009-.278-.126-.57-.367-.779-.215-.186-.471-.27-.697-.229a.386.386 0 1 1-.139-.76c.459-.084.947.064 1.339.404.416.362.654.881.633 1.39-.018.51-.292.999-.732 1.31-.29.204-.619.31-.941.31h-.003z" fill="#1A1A1A" stroke="#1A1A1A"/>
    <path d="M105.248 16.868a2.786 2.786 0 0 0-.088-.425c-.286-.971-1.525-1.64-2.593-1.13-1.104.527-1.794 1.869-2.111 3.18-.346 1.42-.356 2.952.151 4.228.51 1.276 1.58 2.25 2.832 2.334 1.676.111 3.537-1.62 3.805-3.052.172-.913.262-3.513-.19-4.327-.323-.582-1.767-.497-1.809-.805l.003-.003z" fill="#fff"/>
    <path d="M103.599 25.444c-.064 0-.124 0-.187-.006-1.336-.088-2.579-1.101-3.167-2.575-.503-1.261-.56-2.847-.168-4.463.407-1.674 1.254-2.928 2.321-3.438.688-.329 1.568-.26 2.244.178.621.401.968 1.037.95 1.743a.387.387 0 0 1-.772-.018c.015-.588-.368-.926-.597-1.074-.456-.295-1.041-.343-1.49-.13-.856.41-1.55 1.475-1.903 2.923-.355 1.462-.307 2.88.136 3.992.48 1.2 1.46 2.02 2.5 2.09.715.048 1.502-.302 2.056-.911a.39.39 0 0 1 .546-.027.389.389 0 0 1 .027.546c-.672.741-1.592 1.17-2.493 1.17h-.003z" fill="#1A1A1A" stroke="#1A1A1A"/>
    <path d="M104.036 22.003c-.305 0-.615-.093-.896-.274a1.697 1.697 0 0 1-.784-1.279c-.039-.51.178-1.037.579-1.414.38-.356.862-.522 1.324-.458a.388.388 0 0 1-.109.766c-.229-.034-.479.06-.687.256-.232.217-.359.515-.338.793a.928.928 0 0 0 .434.688c.232.147.492.19.712.108a.384.384 0 0 1 .494.232.384.384 0 0 1-.232.495c-.16.057-.328.087-.5.087h.003zM123.522 19.768l.018.036c.651 1.345-1.828 1.846-1.795.356.028-1.191 1.276-1.36 1.777-.392zM111.885 18.583l.018.037c.651 1.344-1.827 1.845-1.794.355.027-1.19 1.275-1.36 1.776-.392zM115.564 29.366h-.121a3.63 3.63 0 0 1-2.21-.856c-.682-.58-1.146-1.4-1.342-2.377a.387.387 0 1 1 .76-.15c.374 1.872 1.752 2.578 2.816 2.611 1.249.04 2.274-.75 2.612-2.014a.388.388 0 0 1 .473-.275.388.388 0 0 1 .274.474c-.425 1.583-1.697 2.587-3.265 2.587h.003z" fill="#1A1A1A" stroke="#1A1A1A"/>
    <path d="M110.48 87.784c-.778-1.125-1.315-2.464-1.755-3.7-.884-2.493-1.855-4.764-4.017-6.392-.356-.269-.832-.422-1.278-.299-.634.172-1.029.853-1.068 1.49-.039.636.202 1.242.437 1.824.471 1.167 1.743 2.967.302 4.044-1.535 1.145-3.242-.86-3.808-2.015-.742-1.504-.99-3.232-1.228-4.89-.051-.365-.048-.74-.096-1.107-.048-.368-.16-.736-.404-1.007-.823-.902-1.912.048-2.407.829-.467.736-.497 1.622-.567 2.47-.295 3.588 1.258 5.84 1.219 5.81-1.761-2.135-1.33-5.31-1.122-7.53.048-.512.115-1.1-.244-1.462-.314-.316-.848-.322-1.29-.18-2.32.747-3.713 6.977-1.023 11.75-1.098-2.313-1.716-4.046-1.43-7.131.082-.884.55-2.21-.43-2.533-.884-.292-1.798.308-2.139 1.052-.968 2.12-1.016 3.58-.95 5.5.106 3.088 1.53 5.726 3.266 8.226 4.831 6.947 14.037 9.727 14.037 9.727s2.961-1.034 6.188-4.755c2.557-2.949 3.28-7.725 3.28-7.725-1.311.082-2.659-.832-3.467-2l-.006.004z" fill="#fff"/>
    <path d="M104.482 102.653a.48.48 0 0 1-.112-.016c-.096-.03-2.373-.723-5.277-2.288-2.686-1.448-6.425-3.938-8.965-7.59-1.583-2.28-3.22-5.062-3.335-8.433-.066-1.915-.033-3.444.983-5.675.405-.887 1.517-1.62 2.612-1.26.241.078.419.201.552.35v-.007c.51-1.293 1.251-2.159 2.092-2.43.516-.166 1.23-.181 1.686.277.148.151.244.32.304.5.408-.533 1.008-1.043 1.665-1.1.437-.04.838.13 1.164.489.268.295.434.693.504 1.215.024.19.036.38.048.56.012.19.024.368.048.54.235 1.632.48 3.32 1.194 4.774.34.69 1.233 1.875 2.183 2.101.38.09.721.015 1.05-.229.868-.648.497-1.613-.121-2.907-.115-.24-.223-.467-.311-.681-.238-.591-.506-1.258-.464-1.993.06-1.028.745-1.674 1.351-1.84.519-.141 1.122-.006 1.613.365 2.292 1.725 3.305 4.192 4.149 6.57.411 1.162.935 2.494 1.707 3.61.808 1.164 2.063 1.903 3.127 1.833a.402.402 0 0 1 .311.124.375.375 0 0 1 .096.32c-.03.199-.769 4.92-3.371 7.92-3.257 3.758-6.227 4.825-6.353 4.867a.38.38 0 0 1-.127.021l-.003.013zm-14.68-24.581c-.557 0-1.1.413-1.323.901-.947 2.078-.977 3.52-.914 5.328.109 3.17 1.677 5.832 3.197 8.018 4.393 6.32 12.598 9.176 13.708 9.537.247-.099.871-.376 1.716-.916 1.016-.645 2.566-1.81 4.191-3.685 2.011-2.319 2.865-5.868 3.109-7.095-1.206-.117-2.47-.922-3.326-2.156-.823-1.188-1.372-2.584-1.8-3.793-.839-2.361-1.764-4.617-3.887-6.212-.302-.226-.654-.313-.944-.235-.473.13-.757.685-.784 1.14-.033.56.19 1.119.41 1.659.079.192.181.406.29.636.527 1.106 1.326 2.78-.115 3.86a1.984 1.984 0 0 1-1.692.361c-1.308-.314-2.337-1.782-2.695-2.515-.77-1.562-1.02-3.314-1.264-5.005-.03-.205-.042-.407-.054-.603-.012-.178-.021-.344-.042-.507-.049-.362-.148-.624-.308-.799-.214-.235-.404-.25-.525-.238-.452.04-.974.555-1.266 1.016-.377.591-.431 1.315-.492 2.078l-.018.217c-.232 2.837.721 4.818 1.14 5.536.166.286.021.464-.048.528a.387.387 0 0 1-.558-.04c-1.758-2.131-1.462-5.18-1.248-7.405.012-.139.027-.272.039-.404v-.04c.045-.437.087-.889-.133-1.112-.193-.196-.59-.184-.895-.084-.606.195-1.195.916-1.608 1.974-.657 1.683-.883 4.294-.171 6.845.256.811.596 1.577.986 2.397a.388.388 0 0 1-.688.356 11.68 11.68 0 0 1-1.073-2.62c-.401-1.315-.585-2.76-.401-4.734.017-.187.048-.38.08-.585.16-.98.16-1.411-.25-1.547a1.102 1.102 0 0 0-.34-.054l-.003-.003z" fill="#1A1A1A" stroke="#1A1A1A"/>
    <path d="M36.262 59.13s3.56 2.662 4.749 6.938c.763 2.747.868 6.948-.106 9.029-.045.096-1.881-.016-2.629.138-1.493.308-2.473 1.176-3.371 2.13-.86.913-1.568 1.956-2.422 2.873-.545.585-1.233 1.152-2.032 1.124-.98-.033-1.73-1.013-1.806-1.993-.181-2.355 2.346-3.612 1.48-6.124-.346-1.001-1.278-1.83-2.337-1.864-2.463-.078-3.88 4.035-4.233 5.871a15.342 15.342 0 0 0-.254 2.6c-.012.684.052 1.616-.774 1.878-1.804.576-3.055-2.623-3.119-3.965-.226-4.686.637-5.618.637-5.618-1.158 1.912-.833 5.157-.404 7.237.1.483-.036 1.315-.329 1.71-.256.347-.75.431-1.179.362-2.228-.377-4.445-6.2-1.96-11.8-1.35 2.697-1.393 4.861-.802 7.756.169.83.745 2.024-.133 2.476-.787.407-1.523.01-2.062-.537-1.327-1.345-1.948-3.395-2.09-5.234-.23-2.959.428-6.11 2.18-8.588 2.171-3.073 5.85-4.593 9.369-5.522 4.303-1.136 9.179-.913 13.624-.877h.003z" fill="#fff"/>
    <path d="M22.104 82.186c-.374 0-.745-.124-1.091-.365-.414-.286-.773-.724-1.068-1.218-.072.274-.18.534-.323.727-.374.506-1.049.597-1.553.512-.81-.135-1.595-.835-2.213-1.966a1.261 1.261 0 0 1-.437.362c-.817.422-1.71.205-2.515-.61-1.227-1.242-2.03-3.238-2.201-5.475-.254-3.29.546-6.429 2.25-8.841 1.86-2.633 4.905-4.436 9.582-5.672 3.836-1.014 8.04-.962 12.104-.911.546.006 1.086.015 1.62.018.08 0 .162.027.229.075.15.112 3.681 2.79 4.888 7.144.756 2.726.922 7.053-.127 9.297-.124.262-.31.265-1.212.268-.552 0-1.312.006-1.689.084-1.306.272-2.21 1.002-3.166 2.018-.428.455-.83.956-1.218 1.441-.38.477-.775.971-1.203 1.43-.513.551-1.312 1.284-2.331 1.248-1.237-.042-2.093-1.255-2.18-2.35-.091-1.17.407-2.065.886-2.93.558-1.004 1.037-1.873.615-3.094-.31-.902-1.146-1.577-1.984-1.604h-.057c-2.217 0-3.504 4.107-3.782 5.557-.15.784-.229 1.61-.244 2.533v.16c-.006.7-.015 1.752-1.043 2.08-.181.058-.362.088-.543.088l.006-.006zm-1.882-9.55c-.205.495-.582 1.876-.425 5.111.046.944.73 2.796 1.656 3.44.32.224.633.281.959.176.461-.148.497-.63.503-1.351v-.166c.015-.965.1-1.836.26-2.666.19-.989.648-2.5 1.366-3.772.916-1.616 2.044-2.448 3.256-2.412 1.164.036 2.27.91 2.69 2.123.534 1.55-.106 2.701-.67 3.72-.443.803-.862 1.56-.79 2.497.06.77.652 1.61 1.436 1.638.534.024 1.085-.299 1.737-1.001.407-.44.793-.92 1.164-1.387.398-.498.808-1.014 1.257-1.49.85-.905 1.9-1.897 3.573-2.243.453-.094 1.224-.097 1.843-.1.202 0 .44 0 .597-.01.853-2.077.702-6.051 0-8.578-1.032-3.715-3.941-6.2-4.511-6.655-.492-.003-.99-.012-1.493-.018-4.013-.051-8.163-.103-11.899.884-4.493 1.188-7.4 2.894-9.152 5.37-1.6 2.264-2.352 5.226-2.11 8.335.16 2.056.88 3.877 1.98 4.993.562.57 1.104.727 1.608.464.326-.168.323-.53.139-1.245-.172-.56-.308-1.17-.395-1.818-.374-2.352-.263-4.442 1.019-6.996a.384.384 0 0 1 .51-.175c.19.09.274.314.187.507a12.31 12.31 0 0 0-.974 6.426c.054.355.12.72.199 1.097.03.15.078.32.126.498.027.1.057.205.085.316.153.483.34.923.545 1.309.5.932 1.116 1.523 1.689 1.62.265.044.636.017.802-.209.214-.29.344-.998.262-1.405-.364-1.776-.787-4.963.239-7.113.117-.29.223-.42.262-.465a.386.386 0 0 1 .612.465 3.3 3.3 0 0 0-.157.286h.015z" fill="#1A1A1A" stroke="#1A1A1A"/>
</svg>
