<svg width="165" height="165" viewBox="0 0 165 165" fill="none" xmlns="http://www.w3.org/2000/svg">
    <g clip-path="url(#jcurxzp4za)">
        <path d="M1.03 131.561c.203-24.557-.23-48.762.058-74.558 14.125.108 30.285-.347 44.41-.24-.481 24.875.005 49.749-.473 74.62-14.672.711-29.306.65-43.995.178z" fill="#fff"/>
        <path d="M21.958 132.397c-6.64 0-13.595-.116-20.942-.353a.483.483 0 0 1-.467-.486c.095-11.455.05-23.087.006-34.336C.505 84.214.452 70.764.607 57a.485.485 0 0 1 .484-.478h.003c7.058.053 14.753-.033 22.195-.12 7.447-.085 15.148-.172 22.214-.119a.482.482 0 0 1 .478.492c-.239 12.433-.239 25.074-.236 37.301 0 12.23.003 24.877-.236 37.321a.482.482 0 0 1-.459.472c-7.31.356-14.964.531-23.092.531v-.003zm-20.44-1.303c15.94.503 30.03.447 43.035-.17.23-12.285.23-24.771.228-36.85 0-12.072-.003-24.546.228-36.832-6.925-.047-14.437.039-21.71.122-7.277.084-14.8.17-21.733.123C1.42 71.075 1.47 84.36 1.52 97.213c.042 11.099.086 22.567 0 33.877v.003z" fill="#1A1A1A" stroke="#1A1A1A"/>
        <path d="M18.354 100.295c-2.815 0-5.628-.025-8.429-.075a.481.481 0 1 1 .02-.964c8.842.158 17.787.067 26.59-.275a.482.482 0 1 1 .037.964c-6.03.234-12.13.35-18.216.35h-.003zM18.354 111.058c-2.815 0-5.628-.025-8.429-.075a.482.482 0 0 1 .011-.964h.009a472.13 472.13 0 0 0 26.59-.275.482.482 0 1 1 .036.964c-6.03.233-12.129.35-18.215.35h-.003zM18.354 121.821c-2.815 0-5.628-.025-8.429-.075a.482.482 0 0 1-.472-.492.48.48 0 0 1 .492-.473c8.842.159 17.787.067 26.59-.275a.482.482 0 1 1 .037.965c-6.03.233-12.13.35-18.216.35h-.003z" fill="#1A1A1A" stroke="#1A1A1A"/>
        <path d="M28.307 83.63c-.236-.125-3.204-2.014-4.604-3.031 2.276-.565 3.71-.795 6.055-.829.564-1.559 1.864-3.934 2.429-5.49.861 1.628 1.62 3.876 2.459 5.515 1.828.223 3.854.598 5.86.884l-4.537 2.543c.694 1.153 2.284 4.732 2.42 5.552 0 0-4.188-1.553-6.28-3.034-1.579.886-3.771 2.08-5.352 2.965.525-1.448 1.025-3.624 1.55-5.072v-.003z" fill="#FEC729"/>
        <path d="M38.39 89.252a.493.493 0 0 1-.168-.03c-.166-.062-3.96-1.479-6.138-2.921-.737.411-1.59.88-2.418 1.34-.925.51-1.884 1.038-2.673 1.48a.484.484 0 0 1-.69-.586c.256-.709.515-1.62.765-2.501.214-.753.433-1.526.656-2.193-.898-.558-3.154-2.017-4.305-2.853a.481.481 0 0 1 .17-.859c2.092-.517 3.537-.784 5.835-.837.292-.742.71-1.623 1.115-2.476.453-.956.922-1.945 1.198-2.704a.481.481 0 0 1 .88-.06c.456.864.884 1.897 1.301 2.895.342.823.692 1.67 1.05 2.398 1 .128 2.04.295 3.132.47.814.13 1.654.264 2.482.383.205.03.367.187.405.39a.48.48 0 0 1-.239.508l-4.115 2.306c.759 1.42 2.098 4.441 2.24 5.289a.487.487 0 0 1-.475.561h-.009zm-6.281-4.002c.097 0 .194.03.278.09 1.425 1.008 3.896 2.07 5.238 2.611-.506-1.33-1.534-3.598-2.068-4.485a.486.486 0 0 1 .178-.67l3.31-1.856c-.37-.058-.74-.116-1.1-.175a94.448 94.448 0 0 0-3.355-.497.482.482 0 0 1-.37-.259c-.413-.808-.81-1.767-1.197-2.695a58.077 58.077 0 0 0-.795-1.856c-.247.566-.536 1.172-.817 1.77-.453.956-.922 1.945-1.197 2.704a.483.483 0 0 1-.448.316c-1.987.028-3.31.209-4.907.567 1.478 1.009 3.482 2.282 3.673 2.385a.485.485 0 0 1 .228.591c-.255.71-.514 1.62-.764 2.501-.13.465-.264.934-.4 1.384.52-.289 1.067-.589 1.603-.886.926-.512 1.884-1.04 2.674-1.481a.475.475 0 0 1 .236-.061v.002zM10.584 85.103c-.237-.125-3.204-2.014-4.605-3.031 2.276-.565 3.71-.795 6.055-.829.564-1.558 1.865-3.934 2.429-5.49.861 1.628 1.62 3.876 2.46 5.516 1.828.222 3.854.597 5.86.883l-4.538 2.543c.695 1.153 2.284 4.732 2.42 5.552 0 0-4.187-1.553-6.28-3.034-1.578.886-3.77 2.081-5.352 2.965.525-1.448 1.025-3.624 1.55-5.072v-.003z" fill="#FEC729"/>
        <path d="M20.665 90.728a.493.493 0 0 1-.166-.03c-.167-.062-3.96-1.479-6.139-2.921-.734.411-1.587.88-2.412 1.337-.928.51-1.887 1.042-2.676 1.483a.484.484 0 0 1-.69-.586c.256-.709.515-1.62.765-2.5.214-.754.433-1.53.656-2.194-.898-.558-3.157-2.017-4.305-2.853a.481.481 0 0 1 .17-.859c2.092-.517 3.537-.784 5.835-.837.292-.742.709-1.622 1.115-2.475.453-.957.922-1.946 1.197-2.704a.481.481 0 0 1 .881-.061c.456.864.884 1.897 1.3 2.895.343.823.693 1.67 1.051 2.398 1 .128 2.04.295 3.132.47.814.13 1.653.264 2.482.383.205.031.366.186.405.39a.48.48 0 0 1-.239.508l-4.115 2.306c.758 1.42 2.098 4.438 2.24 5.289a.487.487 0 0 1-.475.561h-.012zm-6.28-4.002c.097 0 .194.031.278.09 1.425 1.008 3.896 2.07 5.238 2.611-.506-1.33-1.534-3.598-2.067-4.485a.486.486 0 0 1 .177-.67l3.31-1.856c-.37-.058-.74-.116-1.1-.175a94.222 94.222 0 0 0-3.355-.497.482.482 0 0 1-.37-.259c-.413-.808-.81-1.767-1.197-2.695a58.208 58.208 0 0 0-.794-1.856c-.248.564-.537 1.172-.818 1.77-.452.956-.922 1.945-1.197 2.704a.483.483 0 0 1-.448.316c-1.987.028-3.31.209-4.907.567 1.478 1.009 3.482 2.282 3.674 2.385a.485.485 0 0 1 .227.591c-.255.71-.514 1.62-.764 2.504a75.4 75.4 0 0 1-.4 1.384c.52-.289 1.07-.592 1.609-.89.925-.51 1.881-1.036 2.668-1.478a.475.475 0 0 1 .236-.06z" fill="#FEC729"/>
        <path d="M18.734 73.574c-.236-.125-3.204-2.015-4.605-3.032 2.276-.564 3.71-.795 6.056-.828.564-1.56 1.864-3.935 2.428-5.491.862 1.628 1.62 3.876 2.46 5.516 1.828.222 3.854.597 5.86.883-1.23.69-3.306 1.854-4.538 2.543.695 1.153 2.285 4.733 2.42 5.552 0 0-4.187-1.553-6.28-3.034-1.578.886-3.77 2.081-5.352 2.965.526-1.448 1.026-3.624 1.551-5.072v-.002z" fill="#FEC729"/>
        <path d="M28.816 79.195a.49.49 0 0 1-.167-.03c-.166-.062-3.96-1.479-6.138-2.921-.737.411-1.59.88-2.415 1.337-.928.51-1.887 1.039-2.673 1.48a.484.484 0 0 1-.69-.586c.256-.708.515-1.62.765-2.5.214-.754.433-1.526.655-2.193-.897-.559-3.153-2.018-4.304-2.854a.481.481 0 0 1 .17-.859c2.092-.517 3.537-.783 5.835-.836.292-.742.709-1.623 1.114-2.476.454-.956.923-1.945 1.198-2.704a.481.481 0 0 1 .881-.061c.456.864.884 1.898 1.3 2.895.342.823.693 1.67 1.051 2.399 1 .127 2.037.294 3.132.47.814.13 1.653.263 2.482.383.205.03.366.186.405.389a.48.48 0 0 1-.239.508l-4.115 2.307c.758 1.42 2.098 4.44 2.24 5.288a.487.487 0 0 1-.475.561l-.012.003zm-6.28-4.001c.097 0 .194.03.278.088 1.425 1.01 3.896 2.07 5.238 2.613-.506-1.331-1.534-3.599-2.067-4.486a.486.486 0 0 1 .177-.67l3.31-1.856c-.37-.058-.74-.116-1.103-.175a94.137 94.137 0 0 0-3.352-.497.481.481 0 0 1-.37-.258c-.413-.81-.81-1.768-1.197-2.696a58.077 58.077 0 0 0-.795-1.856c-.247.564-.536 1.172-.817 1.77-.453.956-.922 1.945-1.197 2.704a.483.483 0 0 1-.448.317c-1.987.027-3.31.208-4.907.566 1.478 1.01 3.482 2.282 3.673 2.385a.485.485 0 0 1 .228.592c-.255.708-.514 1.62-.764 2.5-.13.465-.264.934-.4 1.385.52-.29 1.067-.59 1.603-.887.926-.511 1.884-1.04 2.67-1.481a.475.475 0 0 1 .237-.061l.003.002z" fill="#FEC729"/>
        <path d="M40.647 89.228c-.289-20.291-.289-42.175.308-62.753 13.18.092 28.356-.311 41.537-.22l-1.343 62.767c-13.691.598-26.794.6-40.502.206z" fill="#fff"/>
        <path d="M58.826 89.987c-5.824 0-11.838-.092-18.193-.275a.485.485 0 0 1-.47-.475c-.33-23.204-.228-44.324.309-62.773a.485.485 0 0 1 .483-.47h.003c6.586.045 13.792-.033 20.761-.108 6.973-.075 14.184-.155 20.778-.108a.485.485 0 0 1 .478.495l-1.342 62.766a.485.485 0 0 1-.462.473c-7.35.322-14.683.48-22.342.48l-.003-.005zm-17.704-1.228c14.33.406 26.925.341 39.552-.198l1.323-61.825c-6.453-.038-13.475.04-20.27.114-6.805.075-13.838.15-20.305.114-.52 18.202-.62 38.988-.3 61.797v-.002z" fill="#1A1A1A" stroke="#1A1A1A"/>
        <path d="M56.276 66.891c-2.815 0-5.625-.025-8.426-.075a.482.482 0 0 1 .011-.964h.008c8.843.159 17.788.067 26.592-.275a.482.482 0 1 1 .036.964c-6.03.234-12.13.35-18.219.35h-.002zM56.276 77.654c-2.815 0-5.625-.025-8.426-.075a.482.482 0 0 1 .011-.964h.008c8.843.159 17.788.067 26.592-.275.27-.014.489.197.5.464a.482.482 0 0 1-.464.5c-6.03.234-12.13.35-18.219.35h-.002z" fill="#1A1A1A" stroke="#1A1A1A"/>
        <path d="M64.76 50.268c-.237-.125-3.205-2.015-4.605-3.032 2.276-.564 3.71-.795 6.055-.828.564-1.559 1.865-3.935 2.429-5.491.861 1.628 1.62 3.877 2.46 5.516 1.828.222 3.853.598 5.86.884l-4.538 2.542c.695 1.154 2.284 4.733 2.42 5.553 0 0-4.188-1.554-6.28-3.035-1.579.887-3.771 2.082-5.352 2.965.525-1.447 1.025-3.623 1.55-5.071v-.003z" fill="#FEC729"/>
        <path d="M74.841 55.89a.49.49 0 0 1-.167-.031c-.166-.061-3.96-1.478-6.138-2.92-.734.408-1.584.877-2.41 1.333-.928.511-1.89 1.042-2.678 1.484a.484.484 0 0 1-.69-.586c.256-.709.515-1.62.765-2.501.214-.753.433-1.526.655-2.193-.897-.558-3.154-2.017-4.304-2.854a.481.481 0 0 1 .17-.859c2.092-.516 3.537-.783 5.835-.836.292-.742.709-1.623 1.114-2.476.453-.956.923-1.945 1.198-2.704a.481.481 0 0 1 .881-.06c.456.863.884 1.894 1.298 2.895.342.822.692 1.67 1.05 2.398 1 .128 2.04.295 3.132.47.814.13 1.653.264 2.482.383.205.03.366.186.405.39a.48.48 0 0 1-.239.508l-4.118 2.306c.759 1.42 2.098 4.44 2.24 5.288a.48.48 0 0 1-.17.45.489.489 0 0 1-.308.112l-.003.002zm-6.28-4.002c.097 0 .194.03.278.089 1.425 1.009 3.896 2.07 5.238 2.612-.506-1.331-1.534-3.599-2.068-4.485a.486.486 0 0 1 .178-.67l3.31-1.856-1.1-.175a94.448 94.448 0 0 0-3.355-.498.482.482 0 0 1-.37-.258c-.413-.809-.81-1.767-1.197-2.696a58.077 58.077 0 0 0-.795-1.856c-.247.564-.536 1.173-.817 1.77-.453.956-.922 1.945-1.198 2.704a.483.483 0 0 1-.447.317c-1.987.028-3.31.208-4.907.567 1.478 1.008 3.482 2.281 3.673 2.384a.49.49 0 0 1 .231.592c-.256.709-.514 1.62-.764 2.501-.13.464-.264.934-.4 1.384.522-.29 1.072-.592 1.611-.89.926-.508 1.879-1.036 2.665-1.478a.475.475 0 0 1 .237-.06l-.003.002z" fill="#FEC729"/>
        <path d="M49.976 45.775c-.236-.125-3.204-2.015-4.605-3.032 2.276-.564 3.71-.795 6.055-.828.564-1.559 1.865-3.935 2.43-5.491.86 1.628 1.62 3.876 2.458 5.516 1.829.222 3.855.597 5.861.884l-4.538 2.542c.695 1.154 2.284 4.733 2.42 5.553 0 0-4.187-1.554-6.28-3.035-1.578.886-3.77 2.081-5.352 2.965.525-1.448 1.026-3.624 1.55-5.071v-.003z" fill="#FEC729"/>
        <path d="M60.057 51.399a.493.493 0 0 1-.166-.03c-.167-.062-3.96-1.479-6.139-2.921-.734.411-1.587.88-2.412 1.336-.928.512-1.887 1.043-2.676 1.484a.483.483 0 0 1-.69-.586c.256-.709.515-1.62.765-2.501.214-.753.433-1.526.656-2.193-.898-.558-3.154-2.017-4.305-2.853a.481.481 0 0 1 .17-.859c2.092-.517 3.537-.784 5.835-.837.292-.742.71-1.623 1.115-2.476.453-.956.922-1.945 1.197-2.703a.481.481 0 0 1 .881-.062c.456.865.884 1.898 1.3 2.896.343.822.693 1.67 1.051 2.398 1 .128 2.04.295 3.132.47.814.13 1.654.264 2.482.383.205.03.367.187.405.39a.48.48 0 0 1-.239.508l-4.118 2.306c.759 1.42 2.098 4.441 2.24 5.289a.48.48 0 0 1-.17.45.489.489 0 0 1-.308.11h-.006zm-6.28-4.002c.097 0 .195.03.278.09 1.425 1.008 3.896 2.07 5.238 2.611-.506-1.33-1.534-3.598-2.067-4.485a.486.486 0 0 1 .178-.67l3.31-1.856-1.101-.175a94.184 94.184 0 0 0-3.354-.497.482.482 0 0 1-.37-.259c-.414-.808-.811-1.767-1.198-2.695a58.208 58.208 0 0 0-.794-1.856c-.248.564-.537 1.172-.817 1.77-.453.956-.923 1.945-1.198 2.703a.483.483 0 0 1-.448.317c-1.986.028-3.31.209-4.907.567 1.478 1.009 3.482 2.282 3.674 2.384a.49.49 0 0 1 .23.592c-.255.709-.514 1.62-.764 2.501-.13.465-.264.934-.4 1.384.52-.289 1.07-.592 1.609-.889.925-.511 1.881-1.036 2.668-1.478a.476.476 0 0 1 .236-.062l-.003.003z" fill="#FEC729"/>
        <path d="M78.328 54.968c-.262-17.852.144-35.073.105-51.585 13.18.075 28.356-.255 41.536-.18-.447 17.223-.033 34.541-.48 51.765-13.692.492-27.453.328-41.162 0z" fill="#fff"/>
        <path d="M100.876 55.76c-7.962 0-15.615-.145-22.557-.311a.481.481 0 0 1-.47-.476c-.158-10.787-.072-21.395.012-31.651.055-6.895.108-13.406.092-19.942 0-.128.05-.253.141-.342a.494.494 0 0 1 .342-.141c6.586.036 13.792-.028 20.761-.09 6.973-.063 14.181-.127 20.778-.088.131 0 .253.053.345.147.089.092.139.22.136.348-.222 8.606-.234 17.382-.242 25.871-.008 8.495-.017 17.276-.242 25.894a.48.48 0 0 1-.464.47c-6.266.225-12.541.31-18.632.31zm-22.07-1.265c12.01.284 26.116.498 40.213.006.211-8.46.22-17.08.228-25.419.008-8.33.017-16.943.228-25.402-6.453-.03-13.475.03-20.27.092-6.8.061-13.827.125-20.288.092.011 6.377-.039 12.738-.095 19.466-.08 10.104-.166 20.547-.019 31.165h.003z" fill="#1A1A1A" stroke="#1A1A1A"/>
        <path d="M93.756 43.835c-2.815 0-5.627-.025-8.428-.075a.482.482 0 0 1 .01-.964h.009c8.842.158 17.788.067 26.591-.275a.481.481 0 1 1 .036.964c-6.03.234-12.13.35-18.215.35h-.003z" fill="#1A1A1A" stroke="#1A1A1A"/>
        <path d="M94.845 24.672c-.236-.125-3.204-2.014-4.604-3.032 2.276-.564 3.71-.794 6.055-.828.564-1.559 1.865-3.934 2.429-5.49.861 1.628 1.62 3.876 2.459 5.515 1.829.223 3.854.598 5.861.884l-4.538 2.543c.695 1.153 2.284 4.732 2.42 5.552 0 0-4.188-1.553-6.28-3.034-1.579.886-3.771 2.08-5.352 2.965.525-1.448 1.025-3.624 1.55-5.072v-.003z" fill="#FEC729"/>
        <path d="M104.927 30.294a.488.488 0 0 1-.166-.03c-.167-.062-3.96-1.479-6.139-2.921-.736.411-1.59.88-2.418 1.34-.925.51-1.884 1.038-2.673 1.48a.484.484 0 0 1-.69-.586c.257-.709.515-1.62.765-2.501.214-.753.434-1.526.656-2.193-.898-.558-3.157-2.017-4.305-2.854a.481.481 0 0 1 .17-.859c2.092-.516 3.538-.783 5.836-.836.291-.742.708-1.622 1.114-2.476.453-.956.922-1.945 1.198-2.704a.481.481 0 0 1 .88-.06c.456.864.884 1.897 1.301 2.895.342.822.692 1.67 1.051 2.398 1 .128 2.036.295 3.131.47.815.13 1.654.264 2.482.383.206.03.367.187.406.39a.48.48 0 0 1-.239.508l-4.119 2.306c.759 1.42 2.098 4.441 2.24 5.289a.48.48 0 0 1-.478.56h-.003zm-6.28-4.002c.097 0 .195.03.278.09 1.425 1.008 3.896 2.07 5.238 2.611-.506-1.33-1.534-3.598-2.067-4.485a.482.482 0 0 1 .177-.67l3.31-1.856c-.372-.058-.739-.116-1.103-.175a94.197 94.197 0 0 0-3.351-.497.48.48 0 0 1-.37-.259c-.414-.808-.811-1.767-1.198-2.695a58.207 58.207 0 0 0-.795-1.857c-.247.567-.536 1.173-.817 1.77-.452.957-.922 1.946-1.197 2.705a.483.483 0 0 1-.448.316c-1.987.028-3.31.209-4.907.567 1.478 1.009 3.482 2.282 3.674 2.384a.485.485 0 0 1 .228.592c-.256.709-.515 1.62-.765 2.501-.13.465-.264.934-.4 1.384.52-.289 1.067-.589 1.603-.886.926-.512 1.885-1.04 2.674-1.481a.475.475 0 0 1 .236-.061v.002z" fill="#FEC729"/>
        <path d="M76.809 146.231c-.179-.247-.205-.588-.3-.897-4.15-13.555.823-48.463 18.965-62.86 3.88 6.374 39.728 6.39 44.517 2.613 0 0 8.568 6.937 13.135 13.27 12.011 16.652 18.174 42.972-.803 57.119-7.04 5.249-15.937 7.593-24.714 7.85-6.469.188-40.798-3.254-50.797-17.095h-.003z" fill="#fff"/>
        <path d="M128.236 137.119c-1.918 0-3.833-.478-5.458-1.381-4.743-2.643-7.129-7.863-8.296-11.777-1.55-5.208-2.255-10.864-2.099-16.819a.563.563 0 1 1 1.127.03c-.152 5.834.537 11.373 2.055 16.467 1.105 3.715 3.351 8.656 7.762 11.114 1.444.803 3.192 1.232 4.938 1.232 2.789 0 5.562-1.102 7.024-3.537a.563.563 0 1 1 .966.582c-1.242 2.067-3.41 3.462-6.105 3.927-.63.107-1.274.162-1.914.162z" fill="#1A1A1A" stroke="#1A1A1A"/>
        <path d="M126.039 163.914c-6.813 0-12.697-1.319-17.508-3.926-4.141-2.246-7.759-5.588-10.753-9.931-2.655-3.855-4.788-8.516-6.17-13.483-2.762-9.941-2.675-20.986.267-32.828.059-.241.12-.481.182-.722a.563.563 0 1 1 1.093.28c-.062.237-.12.478-.18.715-2.892 11.65-2.986 22.501-.272 32.252 1.349 4.847 3.426 9.395 6.01 13.146 2.89 4.196 6.378 7.421 10.36 9.579 5.002 2.711 11.234 3.979 18.522 3.768 6.654-.195 16.285-1.694 24.395-7.74 10.679-7.961 12.31-19.149 11.797-27.133-.618-9.625-4.668-20.27-11.114-29.206-3.972-5.507-11.111-11.566-12.71-12.895-1.001.6-2.721 1.108-5.123 1.508-2.493.416-5.659.705-9.16.835-7.408.277-15.242-.172-20.957-1.203-4.836-.87-7.973-2.096-9.345-3.653C84.704 92.05 79.9 106.993 77.979 115.19c-2.782 11.862-3.04 24.259-.637 30.845a.566.566 0 0 1-1.063.387c-2.47-6.778-2.227-19.432.601-31.489 1.983-8.454 6.992-23.976 18.246-32.905a.566.566 0 0 1 .832.15c.897 1.468 4.08 2.765 8.965 3.643 5.64 1.014 13.386 1.46 20.716 1.183 7.129-.266 12.496-1.17 14.007-2.363a.568.568 0 0 1 .706.003c.087.069 8.679 7.057 13.236 13.377 6.566 9.104 10.694 19.961 11.325 29.795.761 11.848-3.475 21.567-12.248 28.107-4.606 3.433-12.687 7.604-25.036 7.961-.533.016-1.063.023-1.583.023l-.007.006z" fill="#1A1A1A" stroke="#1A1A1A"/>
        <path d="M103.87 47.572c-1.736 5.682-1.856 11.744-2.028 16.932-.244 7.269-2.829 14.205-6.368 17.97 0 0 5.197 12.2 20.966 12.368 9.43.1 20.515-4.746 23.551-9.755 0 0-2.568-1.885-3.381-6.095-1.356-7.04.809-14.722.894-21.867.081-6.663-.881-11.175-4.645-16.688-2.578-3.777-6.957-5.66-11.228-6.352-9.059-1.47-14.933 4.236-17.761 13.487z" fill="#fff"/>
        <path d="M116.723 95.408h-.29c-8.324-.091-13.717-3.53-16.776-6.4-3.319-3.118-4.648-6.183-4.704-6.31a.566.566 0 0 1 .108-.608c3.546-3.77 5.984-10.678 6.215-17.599l.026-.754c.166-5.084.354-10.844 2.028-16.324 3.166-10.36 9.7-15.288 18.392-13.88 5.149.835 9.271 3.175 11.601 6.589 4.07 5.958 4.821 10.75 4.746 17.013-.032 2.666-.354 5.445-.666 8.13-.53 4.557-1.076 9.267-.237 13.623.604 3.137 2.33 5.133 3.159 5.747a.565.565 0 0 1 .147.748c-3.212 5.292-14.469 10.028-23.749 10.028v-.003zM96.146 82.574c.426.852 1.766 3.254 4.32 5.644a21.794 21.794 0 0 0 6.3 4.115c2.913 1.251 6.17 1.908 9.68 1.944 4.356.045 9.44-1.018 13.949-2.916 4.131-1.743 7.32-3.97 8.854-6.167-.799-.744-2.535-2.7-3.189-6.094-.871-4.529-.315-9.326.225-13.968.309-2.656.627-5.406.66-8.013.097-7.974-1.593-12.04-4.548-16.364-2.155-3.156-6.01-5.327-10.85-6.114-4.184-.68-7.808.198-10.773 2.604-2.782 2.259-4.925 5.79-6.361 10.49-1.632 5.337-1.817 11.016-1.98 16.028l-.026.758c-.234 7.008-2.678 14.036-6.26 18.05v.003z" fill="#1A1A1A" stroke="#1A1A1A"/>
        <path d="M142.662 57.129c.222-8.969-1.261-19.257-11.091-22.501-2.226-.735-4.619-.985-6.943-.666-.094.012-.891-.859-1.034-.966-1.719-1.28-4.55-1.222-6.572-.88-9.047 1.527-13.75 12.046-14.3 20.666-.1 1.567-.1 1.86-.1 1.86.637-3.072 2.655-4.519 4.17-6.209 4.697-5.24 10.87-5.184 11.094-5.565a12.825 12.825 0 0 1-6.013 5.227c1.228 1.843 2.519 2.802 4.681 3.371a13.63 13.63 0 0 0 6.852.032 13.508 13.508 0 0 0 4.661-2.249c1.401-1.043 2.266-2.39 3.42-3.63 5.763 7.378 6.488 14.37 6.274 17.62-.228 3.391-1.031 5.744-2.035 8.478-1.07 2.913-1.112 5.933-.943 9.027.228 4.141 3.325 9.099 7.489 10.412 4.203 1.326 9.437-2.21 11.28-5.8-7.86.092-10.678-8.054-11.387-14.581-.218-2.006-.481-4.217-.169-6.203.367-2.34.588-4.707.663-7.073l.01-.37h-.007z" fill="#1A1A1A"/>
        <path d="M144.155 92.004a6.863 6.863 0 0 1-2.058-.305c-4.577-1.443-7.655-6.794-7.882-10.919-.163-2.977-.16-6.16.975-9.254 1.033-2.822 1.784-5.071 2.002-8.322.133-1.976.091-8.92-5.744-16.701-.201.23-.396.468-.585.695-.718.862-1.459 1.755-2.461 2.503a14.158 14.158 0 0 1-4.859 2.344 14.166 14.166 0 0 1-7.139-.033c-2.272-.598-3.676-1.609-5.005-3.605a.561.561 0 0 1 .25-.835 12.202 12.202 0 0 0 4.947-3.816c-2.083.41-6.111 1.394-9.391 5.051-.312.348-.647.69-.972 1.018-1.274 1.293-2.594 2.633-3.068 4.928a.563.563 0 0 1-1.115-.12c0-.033.003-.352.104-1.893.299-4.693 1.775-9.52 4.044-13.249 2.72-4.466 6.429-7.213 10.723-7.938 1.392-.234 4.86-.608 7.005.985.082.059.182.16.426.41.114.113.296.299.423.419 2.295-.28 4.697-.033 6.969.718 4.593 1.515 7.844 4.69 9.664 9.437 1.359 3.546 1.954 7.996 1.814 13.613 0 .127-.007.25-.01.374a57.783 57.783 0 0 1-.669 7.145c-.29 1.833-.069 3.852.146 5.809l.026.247c.461 4.245 2.428 14.078 10.701 14.078h.127a.565.565 0 0 1 .503.822c-1.742 3.39-5.99 6.385-9.891 6.385v.01zm-12.671-46.948h.023a.558.558 0 0 1 .419.218c6.492 8.308 6.534 15.882 6.391 18.008-.228 3.4-1.001 5.721-2.068 8.634-1.063 2.903-1.066 5.945-.91 8.802.107 1.95.897 4.132 2.168 5.978 1.346 1.957 3.098 3.352 4.925 3.927 3.481 1.099 8.042-1.534 10.142-4.726-3.293-.241-5.945-1.934-7.889-5.045-2.009-3.212-2.793-7.217-3.095-10.009l-.026-.247c-.211-1.934-.452-4.125-.14-6.108a56.108 56.108 0 0 0 .667-7.372c.136-5.465-.433-9.775-1.739-13.181-1.717-4.477-4.649-7.347-8.966-8.77-2.184-.722-4.495-.943-6.689-.64-.342.045-.511-.128-1.151-.774-.11-.111-.257-.26-.305-.303-1.847-1.368-5.162-.94-6.134-.773-5.006.845-8.172 4.495-9.947 7.41-1.947 3.193-3.283 7.237-3.751 11.284.617-.907 1.342-1.642 2.021-2.331.329-.335.641-.65.937-.978 3.803-4.242 8.493-5.123 10.496-5.497.263-.049.556-.104.676-.14a.565.565 0 0 1 .826.738 13.362 13.362 0 0 1-5.643 5.172c1.056 1.397 2.187 2.126 3.969 2.594 2.171.572 4.44.581 6.566.032a13.002 13.002 0 0 0 4.466-2.155c.894-.666 1.564-1.47 2.269-2.318.341-.41.692-.832 1.073-1.245a.567.567 0 0 1 .413-.178l.006-.007zm-14.078-2.48v.006h-.004v-.006h.004z" fill="#1A1A1A"/>
        <path d="M102.836 54.593c-.007-.176-.013-.361-.046-.572-.198-1.314-1.43-2.367-2.604-1.853-1.219.533-2.087 2.194-2.564 3.865-.517 1.81-.693 3.816-.296 5.562.396 1.745 1.42 3.172 2.727 3.462 1.752.386 3.894-1.62 4.33-3.456.279-1.17.653-4.564.266-5.695-.276-.81-1.804-.904-1.817-1.313h.004z" fill="#fff"/>
        <path d="M100.515 65.671c-.195 0-.39-.02-.579-.062-1.476-.325-2.685-1.813-3.156-3.887-.39-1.713-.283-3.787.302-5.842.842-2.948 2.165-3.913 2.88-4.225.719-.316 1.574-.189 2.292.334a3.002 3.002 0 0 1 1.206 2.728.565.565 0 0 1-.618.504.566.566 0 0 1-.504-.618 1.873 1.873 0 0 0-.747-1.7c-.39-.283-.829-.364-1.174-.211-.894.39-1.732 1.7-2.246 3.504-.533 1.875-.637 3.748-.29 5.279.368 1.618 1.272 2.808 2.299 3.036.666.146 1.456-.179 2.061-.849a.564.564 0 0 1 .839.755c-.732.812-1.655 1.257-2.562 1.257l-.003-.003z" fill="#1A1A1A" stroke="#1A1A1A"/>
        <path d="M101.181 61.215a1.68 1.68 0 0 1-1.011-.354c-.581-.442-.936-1.2-.92-1.977.017-.78.4-1.53 1.002-1.96.452-.322.959-.42 1.43-.27a.565.565 0 0 1-.341 1.076c-.169-.052-.345.046-.433.11-.256.183-.52.586-.529 1.067-.01.475.23.871.471 1.053.104.078.263.163.426.114a.565.565 0 1 1 .328 1.083c-.14.042-.283.061-.426.061l.003-.003z" fill="#1A1A1A" stroke="#1A1A1A"/>
        <path d="M136.772 59.216c.065-.176.14-.361.251-.563.689-1.251 2.6-1.797 3.913-.773 1.362 1.063 1.905 3.117 1.947 5.022.046 2.06-.403 4.174-1.488 5.78-1.086 1.602-2.861 2.62-4.61 2.356-2.343-.354-4.382-3.303-4.32-5.357.039-1.31.702-4.921 1.57-5.903.621-.702 2.585-.153 2.737-.562z" fill="#fff"/>
        <path d="M137.328 71.642a4.48 4.48 0 0 1-.627-.045c-1.343-.202-2.598-1.108-3.352-2.425a.565.565 0 0 1 .979-.562c.575 1.004 1.55 1.72 2.542 1.869 1.446.218 3.039-.611 4.06-2.116.946-1.395 1.44-3.332 1.391-5.452-.046-2.096-.676-3.767-1.729-4.59-.55-.429-1.366-.533-2.074-.27-.358.134-.979.478-1.135 1.285a.56.56 0 0 1-.66.445.56.56 0 0 1-.445-.66c.192-.982.865-1.759 1.846-2.126 1.07-.4 2.312-.23 3.163.436 1.32 1.03 2.11 3.016 2.165 5.454.052 2.35-.51 4.522-1.586 6.108-1.122 1.655-2.848 2.646-4.535 2.646l-.003.003z" fill="#1A1A1A" stroke="#1A1A1A"/>
        <path d="M137.361 66.73c-.406 0-.803-.11-1.141-.324a.566.566 0 0 1 .605-.956c.276.175.64.198.998.065.39-.146.685-.445.793-.803.11-.37.029-.81-.225-1.177-.224-.328-.536-.526-.854-.552a.565.565 0 1 1 .084-1.125c.66.049 1.281.43 1.7 1.04.442.647.582 1.447.374 2.142-.208.693-.761 1.268-1.479 1.535a2.476 2.476 0 0 1-.852.156h-.003z" fill="#1A1A1A" stroke="#1A1A1A"/>
        <path d="M124.196 59.287c-.342-.686-.094-1.583.825-1.804 1.08-.257 2.029.39 1.899 1.427-.091.715-.972 1.33-1.736 1.144a1.463 1.463 0 0 1-.988-.767zM108.151 56.176c-.341-.686-.094-1.583.826-1.804 1.079-.257 2.028.39 1.898 1.427-.091.715-.972 1.33-1.736 1.144a1.463 1.463 0 0 1-.988-.767z" fill="#1A1A1A"/>
        <path d="M117.022 70.602c-2.822 0-5.023-1.043-5.933-2.831a.563.563 0 1 1 1.005-.51c.754 1.479 2.746 2.304 5.327 2.207a.562.562 0 0 1 .586.543.564.564 0 0 1-.543.585c-.15.006-.299.01-.442.01v-.004z" fill="#1A1A1A" stroke="#1A1A1A"/>
        <path d="M92.603 103.164c1.333-5.234 2.997-10.39 5.094-15.37 1.644-3.9 3.458-8.314 6.098-11.653.393-.497.819-.984 1.355-1.326.537-.341 1.2-.526 1.814-.374 3.16.77.107 5.341-.676 6.814.92-1.733 2.019-3.453 3.527-4.704.702-.582 1.603-.692 2.405-.263.52.28.781.903.787 1.495.013 1.102-.338 2.33-.842 3.3-.455.87-.604.913-1.173 2.132 4.212-5.978 10.535-15.06 13.506-10.99.66.906-.133 2.125-.858 2.98-6.524 7.678-9.274 17.02-10.331 26.879a64.263 64.263 0 0 0-.344 5.136s-5.695 1.278-11.081 0c-5.988-1.414-9.278-4.056-9.278-4.056h-.003z" fill="#fff"/>
        <path d="M107.163 108.355c-1.677 0-3.556-.147-5.409-.586-6.043-1.427-9.362-4.056-9.502-4.167a.57.57 0 0 1-.195-.578c1.404-5.526 3.13-10.724 5.123-15.45l.17-.404c1.599-3.793 3.409-8.097 6.003-11.38.413-.52.878-1.06 1.495-1.45.719-.458 1.541-.62 2.253-.448.809.198 1.362.624 1.642 1.267.185.433.224.927.165 1.447.176-.169.361-.335.553-.49.884-.732 2.045-.856 3.033-.326.656.354 1.073 1.115 1.082 1.986.004.306-.019.627-.065.956 3.111-4.203 6.469-8.068 9.151-8.09h.022c.904 0 1.668.419 2.273 1.247.685.943.39 2.178-.885 3.68-3.065 3.605-5.392 7.678-7.115 12.447-1.502 4.16-2.51 8.78-3.085 14.123a63.238 63.238 0 0 0-.341 5.091.565.565 0 0 1-.442.536c-.156.036-2.669.585-5.926.585v.004zm-13.916-5.422c.913.643 3.966 2.603 8.767 3.738 4.362 1.03 8.998.335 10.402.081.052-1.56.166-3.147.335-4.73.581-5.435 1.612-10.142 3.146-14.387 1.768-4.898 4.161-9.085 7.317-12.794.615-.722 1.255-1.703.832-2.282-.39-.533-.822-.783-1.362-.783h-.013c-2.938.022-7.821 6.95-11.048 11.536l-.163.23a.565.565 0 0 1-.972-.566c.355-.756.559-1.088.754-1.406.13-.212.254-.413.429-.745.498-.952.79-2.087.777-3.033-.003-.37-.156-.825-.487-1.004-.592-.319-1.239-.247-1.778.198-1.132.94-2.009 2.159-2.698 3.306-.127.231-.251.449-.364.647-.13.228-.241.426-.325.582a.564.564 0 1 1-.998-.53c.208-.393.442-.813.698-1.245.703-1.274 1.632-3.17 1.213-4.135-.133-.305-.416-.51-.871-.62-.416-.101-.917.01-1.378.302-.475.302-.865.754-1.216 1.2-2.5 3.162-4.281 7.388-5.851 11.116l-.17.407c-1.927 4.57-3.598 9.589-4.973 14.923l-.003-.006z" fill="#1A1A1A" stroke="#1A1A1A"/>
    </g>
    <defs>
        <clipPath id="jcurxzp4za">
            <path fill="#fff" d="M0 0h165v165H0z"/>
        </clipPath>
    </defs>
</svg>
