<svg width="165" height="165" viewBox="0 0 165 165" fill="none" xmlns="http://www.w3.org/2000/svg">
    <path d="M30.291 146.106c-4.62-17.065-10.554-40.965-15.173-58.03-1.867-6.9-3.681-14.471-.51-20.921 4.686-9.52 17.536-11.876 28.52-12.56a395.05 395.05 0 0 1 84.806 3.864c7 1.081 14.778 2.854 18.53 8.608 3.085 4.729 2.487 10.765 1.682 16.285-2.947 20.211-9.463 42.764-15.076 62.452l-102.782.304.003-.002z" fill="#FEC729"/>
    <path d="M30.291 146.565a.478.478 0 0 1-.465-.343c-2.31-8.535-4.993-18.95-7.588-29.021-2.593-10.069-5.276-20.479-7.585-29.011-2.044-7.548-3.619-14.85-.48-21.23 2.161-4.391 6.253-7.698 12.162-9.828 4.402-1.588 9.884-2.566 16.762-2.995a395.9 395.9 0 0 1 84.916 3.866c7.571 1.17 15.097 3.05 18.859 8.816 3.146 4.82 2.591 10.841 1.75 16.592-2.865 19.642-9.093 41.485-14.586 60.757l-.5 1.753a.484.484 0 0 1-.591.322.458.458 0 0 1-.337-.564l.501-1.752c5.487-19.247 11.707-41.059 14.561-60.643.813-5.585 1.36-11.419-1.614-15.979-3.558-5.457-10.85-7.26-18.198-8.397a394.735 394.735 0 0 0-84.7-3.858c-6.78.421-12.173 1.383-16.485 2.938-2.694.97-5.006 2.194-6.878 3.64-2.076 1.6-3.676 3.525-4.753 5.719-3.004 6.104-1.459 13.23.538 20.609 2.31 8.535 4.993 18.95 7.588 29.021 2.593 10.069 5.276 20.479 7.586 29.011a.457.457 0 0 1-.346.559.463.463 0 0 1-.12.016l.003.002z" fill="#1A1A1A" stroke="#1A1A1A"/>
    <path d="M121.934 146.106c.403-17.328 5.366-37.045 13.615-49.514 9-13.605 30.893-31.317 16.057-60.383-4.897-9.593-14.409-16.688-25.063-19.89-10.657-3.204-22.274-2.772-33.062 0L104.7 31.23c7.37-.146 16.068 2.378 20.606 7.93 4.179 5.11 4.473 13.986.928 19.518-3.578 5.585-10.567 8.042-17.467 8.793l-46.499-1.536c-5.488.444-10.328-.133-15.6-2.307C40 60.884 34.592 53.722 36.592 46.216c.863-3.237 3.025-6.052 5.643-8.265 6.178-5.218 14.768-8.613 23.085-8.109l10.126-14.244c-10.393-2.262-21.34-2.686-31.682-.224-10.344 2.463-20.046 7.938-26.497 16.046-6.454 8.107-9.395 18.914-6.916 28.82 3.711 14.831 18.201 30.102 24.326 45.595 4.568 11.551 6.434 40.577 6.434 40.577 26.208 1.799 80.826-.304 80.826-.304l-.003-.002z" fill="#fff"/>
    <path d="M58.97 66.53c-4.446 0-8.405-.795-12.494-2.48-3.46-1.424-6.562-4.016-8.507-7.108-2.174-3.452-2.81-7.201-1.842-10.84.81-3.042 2.813-5.98 5.79-8.494a35.599 35.599 0 0 1 3.259-2.441.493.493 0 0 1 .669.116.445.445 0 0 1-.122.64 34.477 34.477 0 0 0-3.173 2.374c-2.832 2.394-4.734 5.17-5.495 8.033-1.143 4.292.312 7.885 1.733 10.142 1.847 2.93 4.785 5.387 8.066 6.736 4.928 2.03 9.67 2.73 15.37 2.27a.475.475 0 0 1 .52.418.467.467 0 0 1-.439.497 40.99 40.99 0 0 1-3.335.14v-.002z" fill="#1A1A1A" stroke="#1A1A1A"/>
    <path d="M41.111 146.16a.47.47 0 0 1-.481-.46c0-7.776-.977-16.441-2.825-25.057-1.866-8.702-4.5-16.777-7.615-23.351-2.389-5.039-5.572-9.763-8.649-14.333-4.693-6.97-9.55-14.177-11.658-22.613-1.213-4.846-1.175-10.137.109-15.297 1.243-4.995 3.626-9.804 6.891-13.907 5.727-7.196 14.38-12.731 24.364-15.583a.484.484 0 0 1 .599.31.457.457 0 0 1-.324.571c-9.79 2.798-18.27 8.218-23.874 15.261-3.186 4.004-5.51 8.694-6.723 13.563-1.249 5.02-1.287 10.163-.109 14.871 2.073 8.286 6.88 15.425 11.533 22.33 3.096 4.599 6.301 9.354 8.717 14.452 3.145 6.638 5.804 14.778 7.68 23.547 1.862 8.675 2.844 17.403 2.844 25.241a.47.47 0 0 1-.482.46l.003-.005zM121.937 145.552h-.033a.467.467 0 0 1-.448-.489c.035-.533.095-1.532.168-2.795.218-3.728.547-9.365.77-10.937 1.475-10.4 4.772-20.479 9.797-29.966 2.675-5.046 6.174-9.53 9.558-13.867 2.835-3.635 5.768-7.394 8.198-11.463 3.735-6.252 5.724-12.86 5.917-19.644.188-6.718-1.39-13.438-4.69-19.98-2.332-4.622-5.774-8.724-10.227-12.192-4.22-3.289-9.254-5.868-14.551-7.46a.453.453 0 0 1-.313-.574.482.482 0 0 1 .602-.299c5.411 1.628 10.553 4.264 14.868 7.626 4.563 3.553 8.092 7.763 10.486 12.507 3.368 6.674 4.979 13.54 4.785 20.404-.195 6.936-2.228 13.69-6.042 20.075-2.46 4.118-5.409 7.898-8.263 11.556-3.36 4.306-6.834 8.759-9.471 13.735-4.978 9.393-8.241 19.376-9.702 29.674-.217 1.539-.544 7.152-.761 10.867a505.2 505.2 0 0 1-.169 2.803.473.473 0 0 1-.479.429v-.01z" fill="#1A1A1A" stroke="#1A1A1A"/>
    <path d="M108.764 67.93a.47.47 0 0 1-.476-.409.463.463 0 0 1 .421-.507c10.325-1.126 15.005-5.285 17.114-8.576 1.654-2.582 2.513-6.102 2.361-9.659-.158-3.642-1.314-6.96-3.259-9.338-1.235-1.51-2.841-2.852-4.767-3.983a.449.449 0 0 1-.158-.632.494.494 0 0 1 .661-.15c2.027 1.19 3.717 2.602 5.023 4.2 2.068 2.53 3.297 6.032 3.461 9.867.163 3.788-.727 7.401-2.503 10.175-1.715 2.678-4.302 4.826-7.689 6.383-2.879 1.323-6.288 2.207-10.135 2.626l-.054.002z" fill="#1A1A1A" stroke="#1A1A1A"/>
    <path d="M41.383 15.998c.79-.226 1.58-.434 2.378-.621 10.344-2.462 21.292-2.038 31.682.223L65.317 29.846c-6.957-.424-14.101 1.882-19.87 5.701 0 0-4.189-4.768-5-9.414-.778-4.45.936-10.134.936-10.134z" fill="#fff"/>
    <path d="M45.45 36.004a.486.486 0 0 1-.367-.164c-.174-.197-4.282-4.916-5.106-9.635-.786-4.502.876-10.1.947-10.336a.471.471 0 0 1 .323-.312 57.857 57.857 0 0 1 2.4-.63c5.02-1.193 10.385-1.757 15.946-1.674 5.175.078 10.545.715 15.96 1.895a.472.472 0 0 1 .34.279c.057.14.04.301-.05.426L65.718 30.097a.485.485 0 0 1-.427.2c-3.316-.2-6.75.216-10.208 1.24a34.882 34.882 0 0 0-9.356 4.381.5.5 0 0 1-.272.08l-.003.006zm-3.672-19.639c-.307 1.118-1.515 5.904-.854 9.69.663 3.793 3.694 7.734 4.625 8.87a35.965 35.965 0 0 1 9.25-4.261c3.474-1.03 6.93-1.466 10.279-1.295l9.577-13.47c-5.115-1.07-10.184-1.65-15.073-1.726-5.48-.083-10.76.471-15.698 1.646a57.63 57.63 0 0 0-2.1.543l-.006.003z" fill="#1A1A1A" stroke="#1A1A1A"/>
    <path d="M72.823 19.71a.539.539 0 0 1-.128-.015 35.321 35.321 0 0 0-10.365-1.136.474.474 0 0 1-.501-.44.47.47 0 0 1 .46-.478c3.6-.14 7.188.252 10.662 1.167.256.068.406.32.335.564a.481.481 0 0 1-.463.338zM69.488 24.11h-.008l-8.448-.127a.47.47 0 0 1-.473-.466.47.47 0 0 1 .479-.452h.008l8.447.127a.47.47 0 0 1 .474.466.47.47 0 0 1-.48.452z" fill="#1A1A1A" stroke="#1A1A1A"/>
    <path d="M120.411 35.068c-4.604-2.704-10.491-3.939-15.712-3.837L93.481 16.317c10.788-2.771 22.408-3.203 33.062 0 0 0 .457 5.668-1.167 10.355-1.526 4.407-4.965 8.392-4.965 8.392v.003z" fill="#fff"/>
    <path d="M120.411 35.525a.5.5 0 0 1-.25-.067c-4.267-2.504-9.896-3.88-15.451-3.77a.493.493 0 0 1-.4-.19L93.092 16.586a.443.443 0 0 1-.062-.421.47.47 0 0 1 .329-.29c11.751-3.017 23.278-3.015 33.331.006a.463.463 0 0 1 .335.403c.019.234.446 5.813-1.192 10.535-1.537 4.435-4.908 8.373-5.049 8.54a.491.491 0 0 1-.37.166h-.003zm-15.086-4.76c5.368 0 10.768 1.334 14.972 3.7.818-1.012 3.384-4.358 4.622-7.935 1.363-3.934 1.227-8.634 1.164-9.869-9.612-2.82-20.587-2.844-31.804-.07l10.662 14.177h.381l.003-.003z" fill="#1A1A1A" stroke="#1A1A1A"/>
    <path d="M108.279 20.457h-.027l-7.795-.418a.465.465 0 0 1-.451-.484.473.473 0 0 1 .506-.432l7.795.419a.464.464 0 0 1 .451.484.471.471 0 0 1-.479.434v-.003zM101.565 25.955a.471.471 0 0 1-.476-.403.464.464 0 0 1 .419-.512c1.102-.13 2.563-.106 3.977-.083 1.382.023 2.811.044 3.845-.078a.479.479 0 0 1 .536.4.465.465 0 0 1-.419.512c-1.102.13-2.563.107-3.981.084-1.382-.024-2.81-.044-3.844.078l-.06.002h.003z" fill="#1A1A1A" stroke="#1A1A1A"/>
    <path d="M62.264 65.933c4.95-14.114.207-30.522 6.391-41.132 5.923-10.162 19.894-13.388 27.922-3.442 4.266 5.283 6.097 12.365 7.208 19.023.903 5.416.933 21.815 4.978 27.087 0 0-6.127 7.192-20.054 7.805 0 0-3.735 5.366-4.957 12.398-.04.234-2.533-12.845-3.159-12.95-11.764-1.952-18.329-8.789-18.329-8.789z" fill="#fff"/>
    <path d="M80.624 75.02c-.028 0-.052 0-.08-.006-6.703-1.071-11.404-3.393-14.171-5.15-3.015-1.919-4.424-3.57-4.481-3.64a.443.443 0 0 1-.082-.434c2.166-6.177 2.478-11.873 2.685-19.246a.471.471 0 0 1 .493-.448.472.472 0 0 1 .468.471c-.207 7.355-.517 13.061-2.648 19.265.45.475 1.802 1.812 4.139 3.29 2.682 1.701 7.245 3.945 13.758 4.985a.462.462 0 0 1 .395.527.475.475 0 0 1-.474.385h-.002z" fill="#1A1A1A" stroke="#1A1A1A"/>
    <path d="M88.614 75.615a.471.471 0 0 1-.481-.455c0-.255.21-.46.476-.463 7.082-.065 12.093-2.116 15.051-3.825 2.47-1.427 3.945-2.846 4.486-3.42-2.38-3.25-3.738-12.402-3.855-20.027a.467.467 0 0 1 .473-.465h.009c.261 0 .476.2.478.452.117 7.534 1.516 17.02 3.883 19.766a.442.442 0 0 1 .005.577c-.065.08-1.651 1.976-4.984 3.903-3.061 1.767-8.241 3.889-15.54 3.957z" fill="#1A1A1A"/>
    <path d="M88.614 75.615a.471.471 0 0 1-.481-.455c0-.255.21-.46.476-.463 7.082-.065 12.093-2.116 15.051-3.825 2.47-1.427 3.945-2.846 4.486-3.42-2.38-3.25-3.738-12.402-3.855-20.027a.467.467 0 0 1 .473-.465h.009c.261 0 .476.2.478.452.117 7.534 1.516 17.02 3.883 19.766a.442.442 0 0 1 .005.577c-.065.08-1.651 1.976-4.984 3.903-3.061 1.767-8.241 3.889-15.54 3.957zm0 0h-.005" stroke="#1A1A1A"/>
    <path d="M102.677 20.325c4.821 9.255.367 16.47.664 18.835-5.033-13.703-9.139-12.08-10.817-15.37.114 2.301-.264 4.272 1.27 6.838-1.085-.796-7.411-6.125-5.762-9.52-1.614 3.322-5.58 6.101-8.551 8.217-2.297 1.636-4.74 3.11-7.33 4.285-.917.416-7.955 2.488-7.955 3.101-3.118-10.318 3.594-21.817 14.558-24.44 8.554-2.046 19.799.13 23.926 8.054h-.003z" fill="#1A1A1A"/>
    <path d="M103.341 39.618a.485.485 0 0 1-.454-.307c-3.412-9.292-6.304-11.374-8.415-12.895-.525-.38-1.012-.728-1.44-1.15.012 1.66.044 3.235 1.179 5.133.114.19.07.429-.1.574a.501.501 0 0 1-.61.019c-.066-.05-5.455-4.163-6.152-7.883-1.907 2.543-4.9 4.674-7.397 6.453l-.185.132c-2.522 1.797-4.947 3.214-7.411 4.332-.297.135-1.078.392-2.158.75-1.646.547-5.033 1.67-5.556 2.104a.483.483 0 0 1-.38.289.477.477 0 0 1-.528-.328c-1.543-5.108-.77-10.792 2.125-15.596a20.772 20.772 0 0 1 5.324-5.907 20.163 20.163 0 0 1 7.457-3.512c8.685-2.077 20.215.122 24.473 8.293 3.637 6.98 2.106 12.84 1.192 16.343-.308 1.177-.55 2.108-.482 2.643a.462.462 0 0 1-.367.502.528.528 0 0 1-.109.013l-.006-.002zM92.524 23.33c.18 0 .351.096.433.257.473.928 1.153 1.417 2.095 2.096 1.947 1.404 4.829 3.478 8.064 11.55.073-.306.16-.636.253-.995.881-3.38 2.359-9.034-1.121-15.71-2.346-4.498-6.74-6.578-10.012-7.532-4.171-1.214-9.044-1.316-13.367-.281a19.166 19.166 0 0 0-7.096 3.343 19.787 19.787 0 0 0-5.085 5.642c-2.636 4.378-3.43 9.515-2.222 14.208.789-.414 2.361-.988 5.414-2 .971-.322 1.812-.6 2.062-.714 2.405-1.09 4.778-2.478 7.248-4.238l.185-.133c2.98-2.121 6.687-4.762 8.216-7.91a.493.493 0 0 1 .64-.224.45.45 0 0 1 .234.61c-.767 1.579.555 3.734 1.798 5.26.732.9 1.543 1.718 2.24 2.363-.417-1.341-.425-2.563-.433-3.757 0-.439-.006-.894-.028-1.354a.458.458 0 0 1 .362-.465.473.473 0 0 1 .12-.016z" fill="#1A1A1A"/>
    <path d="M86.792 13.209a.488.488 0 0 1-.324-.12.442.442 0 0 1-.082-.585c.275-.41.02-1.404-.166-2.13-.079-.309-.155-.602-.193-.85a.461.461 0 0 1 .406-.52.477.477 0 0 1 .544.388c.032.206.1.479.174.767.103.406.217.853.275 1.292.095-.114.187-.234.282-.353.536-.676 1.089-1.376 1.951-1.792a.49.49 0 0 1 .645.203.45.45 0 0 1-.212.616c-.664.32-1.127.905-1.619 1.526-.408.515-.827 1.046-1.393 1.464a.49.49 0 0 1-.294.096l.006-.002z" fill="#1A1A1A"/>
    <path d="M103.341 39.157c-.258-1.393 1.573-2.571 3.031-2.316 1.458.254 2.53 1.479 3.14 2.768.658 1.399.922 3.006.498 4.485-.425 1.48-1.6 2.795-3.143 3.221-1.034.286-3.205-.374-4.1-.925l.574-7.233z" fill="#fff"/>
    <path d="M105.841 47.913a4.45 4.45 0 0 1-2.337-.655.445.445 0 0 1-.141-.634.492.492 0 0 1 .663-.135 3.525 3.525 0 0 0 2.705.387c1.306-.361 2.41-1.5 2.813-2.901.365-1.272.199-2.756-.471-4.176-.313-.663-1.208-2.23-2.788-2.506a2.2 2.2 0 0 0-1.712.398c-.323.247-.718.707-.753 1.487a.475.475 0 0 1-.501.44.468.468 0 0 1-.46-.48 2.84 2.84 0 0 1 1.113-2.167 3.192 3.192 0 0 1 2.484-.583c1.428.25 2.699 1.355 3.491 3.032.761 1.614.946 3.317.522 4.794-.49 1.703-1.853 3.09-3.472 3.54a4.347 4.347 0 0 1-1.159.157l.003.002z" fill="#1A1A1A" stroke="#1A1A1A"/>
    <path d="M105.578 44.081c-.038 0-.076 0-.117-.005a.467.467 0 0 1-.441-.494.475.475 0 0 1 .517-.42.653.653 0 0 0 .495-.204c.142-.14.218-.32.199-.48-.019-.162-.131-.32-.302-.427a.678.678 0 0 0-.531-.096.486.486 0 0 1-.601-.304.457.457 0 0 1 .318-.575c.438-.13.928-.054 1.342.205.413.26.68.658.729 1.095.049.437-.12.881-.463 1.22-.315.309-.729.483-1.145.483v.002z" fill="#1A1A1A" stroke="#1A1A1A"/>
    <path d="M62.947 36.893c-1.444.135-2.552 1.838-2.995 3.276-.482 1.557-.56 3.276 0 4.763s1.823 2.696 3.335 2.924c1.154.175 1.834-.34 2.786-.8.86-.414 1.568-.622 1.82-1.659.234-.962-.821-3.726-1.09-4.648-.349-1.194-.229-4.202-3.858-3.859l.002.003z" fill="#fff"/>
    <path d="M63.774 48.35c-.188 0-.373-.013-.557-.041-1.608-.242-3.067-1.506-3.714-3.222-.558-1.474-.56-3.268-.011-5.048.479-1.555 1.738-3.284 3.466-3.64a2.647 2.647 0 0 1 2.04.387c.844.557 1.437 1.586 1.627 2.821a.465.465 0 0 1-.405.523.48.48 0 0 1-.547-.388c-.15-.97-.606-1.794-1.224-2.2a1.655 1.655 0 0 0-1.292-.246c-1.336.275-2.36 1.75-2.746 3.002-.492 1.597-.495 3.185-.008 4.477.53 1.404 1.693 2.436 2.96 2.626.857.13 1.818-.171 2.509-.788a.5.5 0 0 1 .68.024.448.448 0 0 1-.025.65 4.188 4.188 0 0 1-2.753 1.063z" fill="#1A1A1A" stroke="#1A1A1A"/>
    <path d="M63.962 44.344c-.392 0-.784-.14-1.107-.4-.397-.32-.626-.77-.626-1.23 0-.46.231-.907.634-1.227.4-.317.903-.452 1.377-.37a.46.46 0 0 1 .386.534.479.479 0 0 1-.558.369.76.76 0 0 0-.59.174c-.18.143-.286.338-.286.523 0 .184.106.382.283.525.177.143.397.21.59.177a.48.48 0 0 1 .558.371.462.462 0 0 1-.389.533 1.515 1.515 0 0 1-.266.024l-.006-.003zM85.904 52.43c-.106 0-.214-.003-.32-.009-1.853-.104-3.61-1.102-4.59-2.61a.447.447 0 0 1 .155-.632.494.494 0 0 1 .66.149c.817 1.255 2.284 2.09 3.829 2.176 1.542.086 3.104-.58 4.067-1.737a.495.495 0 0 1 .675-.073.445.445 0 0 1 .076.645c-1.088 1.308-2.81 2.09-4.554 2.09h.002z" fill="#1A1A1A" stroke="#1A1A1A"/>
    <path d="M93.02 38.65c-.29.13-.515.398-.578.843-.195 1.38 1.336 1.669 2.117.798.966-1.079-.612-2.056-1.537-1.638l-.003-.002zM75.626 38.752c-.289.13-.514.397-.577.842-.196 1.38 1.336 1.67 2.117.798.965-1.079-.613-2.056-1.538-1.638l-.002-.002z" fill="#1A1A1A"/>
    <path d="M83.753 88.132a.476.476 0 0 1-.468-.356c-.294-1.222-.601-2.651-.928-4.167-.653-3.04-1.393-6.487-2.193-8.91a.458.458 0 0 1 .313-.577.488.488 0 0 1 .604.3c.814 2.469 1.559 5.94 2.217 9.002.156.726.308 1.43.455 2.1.98-3.769 2.609-7.684 4.448-10.604a.49.49 0 0 1 .659-.156c.228.13.302.414.163.63-2.122 3.371-3.962 8.108-4.8 12.364a.474.474 0 0 1-.462.374h-.01.002z" fill="#1A1A1A" stroke="#1A1A1A"/>
    <path d="M132.058 145.918c-11.397.185-22.562.169-33.913.206 2.196 2.524 11.699 8.615 13.9 9.723l20.011-9.931.002.002z" fill="#fff"/>
    <path d="M112.749 156.38c7.771-2.65 15.525-5.574 23.292-8.223-.566-1.579-2.462-2.577-4.848-2.078-8.363 1.745-20.427 6.523-20.185 6.396-4.783-11.424-11.903-35.173-15.317-46.05-.855-2.72-3.382-3.762-6.255-3.801-6.162-.081-64.75-.63-70.248-.357-2.778.138-4.742 2.756-4.073 5.434a816.3 816.3 0 0 0 2.163 8.447c2.34 8.938 4.761 17.871 7.629 26.658 1.099 3.375 2.127 6.996 3.825 10.137 1.943 3.598 6.641 3.252 10.105 3.208 0 0 50.645.021 68.523.179l5.387.05h.002z" fill="#fff"/>
    <path d="M112.749 156.84h-.005l-5.387-.049c-17.671-.159-68.012-.18-68.518-.18l-.7.011c-1.708.031-3.642.067-5.403-.341-2.105-.486-3.555-1.51-4.429-3.127-1.453-2.689-2.416-5.704-3.346-8.621-.172-.533-.34-1.064-.512-1.589-2.729-8.369-5.028-16.719-7.634-26.684a801.21 801.21 0 0 1-2.166-8.452 4.773 4.773 0 0 1 .882-4.123 4.909 4.909 0 0 1 3.632-1.875c5.547-.278 64.913.284 70.278.356 3.504.047 5.888 1.513 6.71 4.129.54 1.724 1.158 3.723 1.876 6.037 3.692 11.922 9.245 29.853 13.25 39.553l.085-.031c10.289-3.887 16.405-5.53 19.724-6.222 2.495-.52 4.718.458 5.406 2.377a.457.457 0 0 1-.293.582c-3.88 1.323-7.825 2.74-11.637 4.108-3.817 1.37-7.767 2.789-11.655 4.115a.49.49 0 0 1-.161.026h.003zm-73.915-1.146c.514 0 50.857.023 68.534.179l5.302.047c3.855-1.316 7.773-2.722 11.56-4.082 3.66-1.313 7.436-2.67 11.166-3.946-.686-1.183-2.296-1.74-4.1-1.363-3.284.687-9.348 2.314-19.578 6.18-.174.065-.308.117-.397.151l-.109.041c-.357.128-.569-.08-.639-.223-.014-.026-.022-.055-.03-.081-4.032-9.648-9.689-27.909-13.432-40a1891.12 1891.12 0 0 0-1.875-6.034c-.884-2.819-3.643-3.445-5.8-3.474-5.366-.07-64.69-.631-70.216-.356a3.944 3.944 0 0 0-2.914 1.508 3.877 3.877 0 0 0-.715 3.359c.68 2.717 1.387 5.478 2.163 8.442 2.603 9.949 4.897 18.287 7.62 26.632.172.525.343 1.058.512 1.594.92 2.878 1.869 5.852 3.28 8.467 1.677 3.104 5.717 3.031 8.963 2.972.242-.006.479-.008.71-.011l-.005-.002z" fill="#1A1A1A" stroke="#1A1A1A"/>
    <path d="M108.924 146.584a.472.472 0 0 1-.482-.458c0-.254.213-.46.479-.462 3.853-.019 7.776-.063 11.569-.104 3.789-.042 7.71-.084 11.562-.104.264 0 .479.202.482.457 0 .255-.212.46-.479.463-3.85.018-7.767.062-11.557.104-3.796.041-7.719.083-11.577.104h.003zM103.537 152.769H36.089a.47.47 0 0 1-.482-.46.47.47 0 0 1 .482-.46h67.448a.47.47 0 0 1 .482.46.47.47 0 0 1-.482.46zM93.318 97.317a.498.498 0 0 1-.215-.049.449.449 0 0 1-.214-.616 81.77 81.77 0 0 0 5.604-13.62.482.482 0 0 1 .596-.31c.256.073.4.328.324.57a82.753 82.753 0 0 1-5.665 13.768.483.483 0 0 1-.43.255v.002zM99.873 99.561a.489.489 0 0 1-.417-.228.447.447 0 0 1 .177-.627l12.48-6.879a.49.49 0 0 1 .656.17.446.446 0 0 1-.177.626l-12.48 6.879a.497.497 0 0 1-.24.062v-.002zM103.793 107.012a.472.472 0 0 1-.476-.408.464.464 0 0 1 .424-.507l11.767-1.274a.474.474 0 0 1 .53.406.464.464 0 0 1-.424.507l-11.767 1.274-.054.002z" fill="#1A1A1A" stroke="#1A1A1A"/>
</svg>
