<svg width="299" height="249" viewBox="0 0 299 249" fill="none" xmlns="http://www.w3.org/2000/svg">
    <path d="M238.01 178.053c-6.017-34.206-14.163-50.177-30.152-81.21l-25.388 9.863c3.304 14.889 6.238 27.922 8.567 41.2 1.221 6.961 1.837 14.476-1.268 20.829l-92.875-1.624c-3.346-6.228-3.016-13.76-2.063-20.764 1.82-13.357 4.32-26.602 7.054-41.606l-25.82-8.66c-14.794 31.618-27.48 56.881-29.441 96.502-1.961 39.622 32.029 54.953 96.364 54.953 69.849 0 93.448-16.249 96.114-52.902l-1.092-16.581z" fill="url(#wl7iuqvrna)" stroke="#1A1A1A" stroke-width="1.8"/>
    <path d="M173.98 143.797c-.016 4.983-.098 9.908.095 14.611.36 8.828 2.03 17.371 4.987 25.357-11.994 7.224-22.568 11.425-35.722 11.425-11.424 0-25.387-5.111-34.605-11.86 2.924-9.362 2.803-25.803 4.12-38.453.717-6.909 1.07-14.404 2.636-21.173 1.565-6.768 4.45-13.383 9.28-18.376 5.16-5.338 12.466-8.57 19.889-8.7 8.206-.145 18.72 3.955 22.938 11.359 6.051 10.619 6.425 23.396 6.385 35.81h-.003z" fill="#fff"/>
    <path d="M143.34 195.924c-11.153 0-25.233-4.824-35.04-12.001a.738.738 0 0 1-.161-1.029.737.737 0 0 1 1.028-.16c4.5 3.294 10.282 6.264 16.285 8.36 6.287 2.197 12.472 3.359 17.888 3.359 11.756 0 21.995-3.281 35.342-11.32a.736.736 0 0 1 .76 1.258c-13.596 8.189-24.058 11.529-36.102 11.529v.004z" fill="#1A1A1A"/>
    <path d="M173.636 153.829c-.364 7.466-1.13 14.965-.973 22.467.056 2.623.266 5.399 1.785 7.534 1.578 2.221 4.345 3.35 7.06 3.576 3.137.262 6.503-.344 9.457-1.391.756-.269 8.163-3.599 7.705-4.464a200.642 200.642 0 0 1-17.146-44.713c-2.6-10.331-4.103-21.641-12.119-29.54-6.853-6.752-16.454-10.527-26.032-10.746-7.289-.164-14.641 1.787-20.613 6.038-4.565 3.245-8.465 8.425-10.914 13.432-3.969 8.107-4.797 17.338-5.754 26.314-.73 6.827-1.322 13.936-4.898 19.951a21.132 21.132 0 0 1-6.019 6.474c-1.368.963-2.891 1.614-4.456 2.174-.819.292-2.94.544-3.301 1.48-.648 1.684 2.976 5.865 3.982 7.05 3.533 4.172 8.346 7.257 13.53 8.95 1.605.524 3.297.9 4.971.694 2.75-.344 4.257-2.223 5.108-4.696 2.656-7.714 1.67-16.156.429-24.218-.632-4.11-1.316-8.219-1.601-12.371-.243-3.53-.655-8.164.697-11.513 1.078-2.676 3.013-5.534 4.801-7.8a30.817 30.817 0 0 1 3.336-3.592c.767-.701 3.311-2.017 3.665-2.889a32.544 32.544 0 0 1-5.076 8.527c.56-.677 2.374-1.175 3.17-1.63a42.34 42.34 0 0 0 9.663-7.574c2.845-2.99 5.026-7.08 6.441-10.954a47.03 47.03 0 0 1-4.807 14.425c4.522-3.694 9.25-7.673 11.176-13.187-.734 2.099 3.602 7.453 4.8 8.917 2.522 3.078 5.593 5.71 9.048 7.685l-4.755-7.178c.396.599 2.345 1.176 3.013 1.559a41.23 41.23 0 0 1 9.319 7.292c3.53 3.691 6.5 7.81 6.755 13.079.184 3.795-1.264 7.174-1.444 10.842l-.003-.004z" fill="#1A1A1A"/>
    <path d="M108.928 189.902c-1.579 0-3.059-.406-4.228-.79-5.432-1.771-10.354-5.029-13.864-9.172l-.108-.127c-3.35-3.943-4.545-6.235-3.995-7.659.41-1.065 1.857-1.421 3.016-1.71.285-.072.556-.137.724-.196 1.247-.445 2.865-1.087 4.282-2.083a20.535 20.535 0 0 0 5.81-6.247c3.31-5.57 4.011-12.201 4.689-18.61l.242-2.292c.91-8.585 1.85-17.459 5.694-25.312 2.757-5.635 6.821-10.632 11.15-13.71 5.842-4.156 13.324-6.35 21.055-6.173 10.02.226 19.69 4.221 26.53 10.957 6.942 6.837 9.094 16.117 11.176 25.093.367 1.581.747 3.215 1.143 4.79a199.939 199.939 0 0 0 17.083 44.55.937.937 0 0 1 .033.796c-.183.471-.812 1.175-4.096 2.835-1.765.894-3.625 1.716-4.048 1.867-3.3 1.172-6.768 1.68-9.764 1.431-3.268-.272-6.035-1.687-7.597-3.88-1.667-2.345-1.867-5.331-1.919-7.948-.108-5.272.236-10.606.573-15.766.144-2.214.291-4.506.403-6.753.082-1.656.412-3.258.733-4.807.416-2.013.809-3.916.711-5.962-.256-5.338-3.458-9.366-6.553-12.604a40.414 40.414 0 0 0-9.152-7.161 4.61 4.61 0 0 0-.452-.21l3.17 4.787a.735.735 0 0 1-.976 1.042c-3.51-2.008-6.624-4.653-9.25-7.859-1.015-1.238-3.488-4.254-4.549-6.818-2.442 4.696-6.801 8.252-10.396 11.189a.736.736 0 0 1-1.117-.91 46.062 46.062 0 0 0 3.104-7.387c-1.087 1.82-2.288 3.435-3.552 4.764a43.352 43.352 0 0 1-6.219 5.397 42.084 42.084 0 0 1-3.612 2.308c-.32.183-.746.357-1.198.54-.606.249-1.523.623-1.768.92a.734.734 0 1 1-1.133-.936 31.86 31.86 0 0 0 3.621-5.442c-.465.304-.926.612-1.146.812a30.296 30.296 0 0 0-3.258 3.507c-2.141 2.708-3.808 5.413-4.695 7.616-1.219 3.019-.924 7.234-.685 10.623l.039.57c.249 3.641.822 7.325 1.372 10.887.073.475.148.95.22 1.422 1.247 8.127 2.243 16.719-.462 24.568-1.067 3.104-2.989 4.847-5.711 5.187a8.28 8.28 0 0 1-1.061.066h-.009zm33.599-92.623c-7.122 0-13.962 2.086-19.342 5.91-4.133 2.941-8.026 7.735-10.682 13.157-3.729 7.617-4.656 16.363-5.55 24.821l-.242 2.292c-.694 6.569-1.412 13.36-4.886 19.208a21.941 21.941 0 0 1-6.228 6.7c-1.562 1.097-3.297 1.788-4.633 2.266a8.904 8.904 0 0 1-.865.239c-.51.128-1.863.462-1.997.809-.046.114-.197.799 1.201 2.898.881 1.323 2.005 2.646 2.541 3.281l.112.131c3.337 3.936 8.022 7.037 13.199 8.726 1.906.623 3.34.826 4.65.662 2.178-.272 3.609-1.608 4.503-4.208 2.593-7.535 1.621-15.924.399-23.868-.072-.475-.147-.946-.219-1.421-.557-3.592-1.133-7.309-1.389-11.012l-.039-.567c-.249-3.536-.557-7.94.789-11.274 1.205-2.986 3.334-5.989 4.905-7.98a31.56 31.56 0 0 1 3.416-3.677c.317-.291.828-.629 1.421-1.015.619-.406 1.909-1.254 2.056-1.605a.736.736 0 0 1 1.363.55 33.008 33.008 0 0 1-3.259 6.14c.118-.052.223-.105.308-.154a40.518 40.518 0 0 0 3.484-2.23 41.872 41.872 0 0 0 6.006-5.213c2.482-2.609 4.715-6.408 6.28-10.698a.734.734 0 0 1 1.415.37 47.628 47.628 0 0 1-3.406 11.589c3.373-2.888 6.838-6.359 8.354-10.704a.732.732 0 0 1 .936-.456.737.737 0 0 1 .452.937c-.101.301-.347 2.079 4.676 8.209a32.277 32.277 0 0 0 5.917 5.616l-2.806-4.234a.734.734 0 1 1 1.224-.812c.181.226 1.199.645 1.69.845.436.177.809.33 1.074.481a41.823 41.823 0 0 1 9.486 7.42c2.119 2.217 3.616 4.152 4.716 6.094 1.385 2.449 2.122 4.889 2.243 7.456.108 2.23-.324 4.316-.74 6.333-.324 1.562-.629 3.039-.704 4.581a450.523 450.523 0 0 1-.403 6.775c-.334 5.128-.678 10.433-.57 15.642.049 2.397.223 5.118 1.647 7.126 1.31 1.84 3.687 3.032 6.52 3.268 2.79.232 6.041-.249 9.152-1.353.989-.35 6.12-2.767 7.142-3.729a201.482 201.482 0 0 1-17.047-44.576c-.4-1.592-.78-3.232-1.15-4.817-2.033-8.769-4.139-17.84-10.776-24.376-6.575-6.477-15.881-10.314-25.531-10.534-.276-.006-.554-.01-.829-.01l.016-.01z" fill="#1A1A1A"/>
    <path d="M143.481 160.169c-.374 0-.76-.039-1.153-.117-3.766-.76-5.488-4.902-5.495-8.429a.736.736 0 0 1 1.471-.003c.003 2.947 1.355 6.392 4.312 6.991 1.215.245 2.256-.013 3.098-.766 1.46-1.314 2.155-4.051 1.981-5.94a.735.735 0 0 1 1.464-.135c.209 2.276-.57 5.469-2.463 7.172a4.708 4.708 0 0 1-3.219 1.231l.004-.004z" fill="#1A1A1A" stroke="#1A1A1A" stroke-width=".5"/>
    <path d="M177.87 154.164c-2.79.311-6.811-1.47-7.82-3.693-.687-1.517-1.241-3.111-1.188-4.742.056-1.627.796-3.304 2.295-4.296.845-.56 2.122-.789 2.839-1.467.491-.462.446-1.126.897-1.595 1.101-1.139 3.049-1.67 4.673-1.11 2.283.786 3.717 3.019 4.388 5.246.727 2.41.766 5.049-.268 7.309-1.035 2.259-3.239 4.06-5.819 4.348h.003z" fill="#fff"/>
    <path d="M177.202 154.937a7.297 7.297 0 0 1-4.689-1.722.74.74 0 0 1-.082-1.038.74.74 0 0 1 1.038-.082c1.16.992 2.813 1.503 4.323 1.336 2.197-.246 4.25-1.785 5.229-3.923.888-1.939.969-4.349.233-6.792-.347-1.146-1.422-3.903-3.923-4.761-1.11-.38-2.567-.14-3.547.586-.425.318-.93.855-.903 1.621a.734.734 0 1 1-1.467.053c-.04-1.097.491-2.112 1.496-2.856 1.366-1.011 3.337-1.332 4.902-.795 2.214.759 3.985 2.848 4.853 5.727.841 2.783.733 5.563-.305 7.829-1.192 2.6-3.703 4.473-6.405 4.771a7.17 7.17 0 0 1-.749.043l-.004.003z" fill="#1A1A1A" stroke="#1A1A1A" stroke-width=".5"/>
    <path d="M176.583 148.882a.738.738 0 0 1-.426-1.336l.606-.432a.74.74 0 0 1 .671-.095c.406-.295.685-.714.721-1.143.056-.704-.573-1.457-1.395-1.676a.736.736 0 1 1 .38-1.421c1.526.409 2.593 1.791 2.482 3.212-.112 1.408-1.369 2.646-2.928 2.878-.036.007-.072.007-.108.007l-.003.006z" fill="#1A1A1A"/>
    <path d="M114.291 140.837c.311-2.276-2.596-4.074-4.839-3.573-2.243.501-3.828 2.548-4.69 4.676-.933 2.305-1.237 4.928-.487 7.299.749 2.371 2.655 4.434 5.069 5.033 2.609.648 4.42-1.205 6.869-1.084 1.255.062 2.119-1.238 2.538-2.42.635-1.797.874-3.733.701-5.632-.124-1.362-.498-2.767-1.447-3.753-.95-.982-2.597-1.385-3.72-.605l.01.059h-.004z" fill="#fff"/>
    <path d="M110.709 155.169c-.52 0-1.038-.062-1.545-.186-2.535-.629-4.729-2.797-5.593-5.524-.75-2.368-.57-5.138.507-7.797 1.12-2.764 3.02-4.63 5.21-5.118 1.49-.331 3.294.183 4.49 1.284.952.877 1.391 1.977 1.237 3.107a.734.734 0 1 1-1.457-.2c.118-.858-.435-1.512-.776-1.824-.845-.776-2.151-1.159-3.173-.933-2.433.544-3.726 3.144-4.168 4.237-.95 2.342-1.114 4.758-.469 6.802.711 2.249 2.496 4.031 4.545 4.541 1.392.347 2.99.043 4.175-.792a.738.738 0 0 1 1.025.177.739.739 0 0 1-.176 1.025 6.702 6.702 0 0 1-3.832 1.205v-.004z" fill="#1A1A1A" stroke="#1A1A1A" stroke-width=".5"/>
    <path d="M111.495 149.111c-.662 0-1.32-.258-1.781-.704-1.074-1.034-1.183-3.052-.61-4.286.492-1.054 1.474-1.83 2.695-2.128a.73.73 0 0 1 .888.54.734.734 0 0 1-.54.887c-.786.193-1.409.672-1.71 1.32-.337.724-.265 2.066.298 2.61.2.193.511.304.806.291.124-.006.36-.039.511-.216a.736.736 0 0 1 1.11.966c-.38.435-.93.691-1.556.717h-.111v.003z" fill="#1A1A1A"/>
    <path d="M159.14 138.557a.74.74 0 0 1-.626-.347 3.156 3.156 0 0 0-2.429-1.444 3.16 3.16 0 0 0-2.581 1.159.734.734 0 1 1-1.152-.91 4.605 4.605 0 0 1 3.814-1.716 4.595 4.595 0 0 1 3.596 2.139.735.735 0 0 1-.622 1.123v-.004zM132.986 138.557a.74.74 0 0 1-.626-.347 3.153 3.153 0 0 0-2.429-1.444 3.165 3.165 0 0 0-2.581 1.159.734.734 0 1 1-1.152-.91 4.606 4.606 0 0 1 3.815-1.716 4.605 4.605 0 0 1 3.598 2.139.735.735 0 0 1-.622 1.123l-.003-.004z" fill="#1A1A1A" stroke="#1A1A1A" stroke-width=".5"/>
    <path d="M150.462 214.392c-.252.931.077 1.98.782 2.639.705.658 1.739.921 2.686.736.607-.119 1.188-.427 1.558-.916.474-.633.546-1.518.263-2.258-.865-2.28-4.538-2.948-5.289-.196v-.005zM150.462 204.161c-.252.932.077 1.981.782 2.64.705.658 1.739.92 2.686.735.607-.118 1.188-.427 1.558-.916.474-.632.546-1.517.263-2.258-.865-2.279-4.538-2.948-5.289-.195v-.006zM140.747 226.363a.737.737 0 0 1-.733-.674c-.504-6.15.586-23.315 1.68-29.87a.731.731 0 0 1 .845-.603.732.732 0 0 1 .602.845c-1.08 6.484-2.164 23.442-1.667 29.51a.733.733 0 0 1-.671.792h-.062.006z" fill="#1A1A1A"/>
    <path d="M161.535 37.64c2.075-2.5 9.763-6.544 15.155-11.875.977-.966.295-2.634-1.08-2.632-7.796.021-14.724.784-22.754.604a1.552 1.552 0 0 1-1.363-.91c-5.898-8.195-8.356-14.401-14.18-20.669-.796-.857-2.23-.53-2.582.586-2.656 8.35-4.502 15.176-7.018 23.69-.12.412-.41.754-.79.94-7.42 3.66-11.578 2.366-19.028 6.063-1.255.627-1.566 2.296 0 3.672 5.373 3.747 10.388 6.358 16.615 8.303a1.535 1.535 0 0 1 1.183 2.203c-3.19 6.525-6.246 14.03-6.246 21.291-.463 1.31.916 2.513 2.149 1.873 6.895 0 15.443-15.375 22.886-20.352a1.526 1.526 0 0 1 1.74.025c7.591 5.484 19.163 13.522 27.598 14.498 1.204.284 2.235-.894 1.79-2.05-4.415-11.473-10.185-17.435-14.171-23.433a1.518 1.518 0 0 1 .096-1.82v-.006z" fill="#FEC729" stroke="#1A1A1A" stroke-width="1.5"/>
    <path d="M119.397 66.217c-1.48.216-2.421 0-9.248 3.64l5.253-2.743c2.659-.86 5.161-1.512 6.34-2.004 1.608-.668 3.264-1.372 4.456-2.642 2.126-2.26 1.641-5.357-1.493-6.084-4.542-1.055-14.902 2.744-19.548 6.76l4.646-3.214c3.248-1.581 5.832-2.832 9.155-3.815 1.566-.465 3.36-.353 4.811-1.178 1.847-1.055 2.318-3.737.619-5.194-.966-.828-2.299-1.067-3.566-1.179-6.343-.566-13.265 1.366-18.665 5.072l-.046-.12c.819-4.716 1.546-12.24.573-16.236-.177-.72-.468-1.51-1.146-1.817-.927-.422-2.623.065-3.314.815-3.346 3.622-4.322 8.442-5.832 12.994-1.955 5.91-3.261 9.44-5.216 15.347-3.913 11.818-7.197 19.644-11.107 31.462 3.1 3.36 6.516 6.667 10.812 8.232 4.296 1.565 11.006 2.639 15.011.432 1.287-6.077 2.063-12.348 4.446-18.134 2.715-6.575 7.918-10.583 14.592-12.823 1.048-.354 2.122-.655 3.107-1.153.986-.5 1.903-1.221 2.404-2.21 2.305-4.535-4.457-4.581-7.037-4.204l-.007-.004z" fill="#fff" stroke="#1A1A1A" stroke-width="1.8" stroke-linejoin="round"/>
    <path d="M163.177 69.046c1.487.144 2.367 0 9.293 2.61l-5.259-1.9c-2.695-.736-5.226-1.27-6.424-1.705-1.638-.593-3.324-1.218-4.575-2.43-2.226-2.158-1.889-5.275 1.205-6.146 4.49-1.264 14.034 1.697 19.196 5.369l-4.143-2.524c-3.32-1.427-5.956-2.557-9.322-3.382-1.585-.39-3.373-.197-4.86-.953-1.892-.966-2.492-3.625-.861-5.16.927-.875 2.246-1.173 3.507-1.347 6.31-.864 13.318.744 18.881 4.195l.039-.124c-1.038-4.673-2.118-12.155-1.329-16.193.141-.727.399-1.53 1.057-1.87.907-.465 2.623-.055 3.347.662 3.51 3.461 4.715 8.229 6.431 12.705 2.23 5.812 3.7 9.277 5.93 15.086 4.46 11.62 8.108 19.283 12.571 30.908-2.94 3.5-6.195 6.965-10.413 8.73-4.217 1.765-10.871 3.153-14.971 1.133-1.572-6.012-2.636-12.24-5.292-17.905-3.019-6.441-8.405-10.2-15.174-12.126-1.064-.301-2.148-.553-3.16-1.008-1.008-.452-1.954-1.134-2.501-2.096-2.515-4.424 4.237-4.784 6.834-4.529h-.007z" fill="#fff"/>
    <path d="M179.098 55.258c1.076.602 3.685 2.336 5.508 4.464m-21.429 9.324c1.487.144 2.367 0 9.293 2.61l-5.259-1.9c-2.695-.736-5.226-1.27-6.424-1.705-1.638-.593-3.324-1.218-4.575-2.43-2.226-2.158-1.889-5.275 1.205-6.146 4.49-1.264 14.034 1.697 19.196 5.369l-4.143-2.524c-3.32-1.427-5.956-2.557-9.322-3.382-1.585-.39-3.373-.197-4.86-.953-1.892-.966-2.492-3.625-.861-5.16.927-.875 2.246-1.173 3.507-1.347 6.31-.864 13.318.744 18.881 4.195l.039-.124c-1.038-4.673-2.118-12.155-1.329-16.193.141-.727.399-1.53 1.057-1.87.907-.465 2.623-.055 3.347.662 3.51 3.461 4.715 8.229 6.431 12.705 2.23 5.812 3.7 9.277 5.93 15.086 4.46 11.62 8.108 19.283 12.571 30.908-2.94 3.5-6.195 6.965-10.413 8.73-4.217 1.765-10.871 3.153-14.971 1.133-1.572-6.012-2.636-12.24-5.292-17.905-3.019-6.441-8.405-10.2-15.174-12.126-1.064-.301-2.148-.553-3.16-1.008-1.008-.452-1.954-1.134-2.501-2.096-2.515-4.424 4.237-4.784 6.834-4.529h-.007z" stroke="#1A1A1A" stroke-width="1.8" stroke-linecap="round" stroke-linejoin="round"/>
    <path d="M219.52 91.508c.871.785 2.178 1.054 3.263.72a3.376 3.376 0 0 0 2.224-2.276c.195-.676.172-1.436-.162-2.09-.432-.838-1.619-1.607-2.568-1.749-2.917-.435-5.329 3.068-2.757 5.395zM281.517 130.038c.784.719 1.973.953 2.966.631.994-.322 1.765-1.157 2.054-2.138.186-.629.173-1.334-.123-1.936-.384-.772-1.457-1.472-2.321-1.592-2.654-.37-4.894 2.907-2.576 5.035zM10.457 96.08c.785.718 1.974.952 2.967.63.994-.322 1.765-1.157 2.054-2.138.186-.63.173-1.334-.123-1.936-.384-.772-1.458-1.472-2.32-1.592-2.655-.37-4.895 2.907-2.578 5.035zM77.365 47.927c.785.719 1.974.953 2.967.63.993-.322 1.764-1.156 2.054-2.137.186-.63.173-1.334-.124-1.936-.383-.773-1.457-1.472-2.32-1.592-2.655-.37-4.894 2.907-2.577 5.035zM176.495 12.89c.666.601 1.665.806 2.494.551a2.58 2.58 0 0 0 1.699-1.74c.149-.516.131-1.097-.124-1.596-.33-.64-1.237-1.228-1.962-1.336-2.229-.333-4.072 2.344-2.107 4.121zM1.756 53.088c.174-.025.357-.021.534.015 9.408 2.051 18.586 4.694 27.278 7.865.602.217.838.803.524 1.305-.309.502-1.05.73-1.654.509-8.585-3.129-17.643-5.741-26.93-7.766-.641-.14-.987-.683-.77-1.211.154-.382.562-.654 1.018-.721v.004zM75.688 30.595c-.238.05-.503-.047-.711-.291L58.147 10.54c-.339-.397-.389-1.037-.113-1.43.275-.393.774-.386 1.113.011l16.83 19.763c.339.397.389 1.037.113 1.43a.656.656 0 0 1-.403.275l.001.005zM225.751 56.043a.905.905 0 0 1-.747-.05.96.96 0 0 1-.41-1.267l12.927-25.812a.912.912 0 0 1 1.241-.399.96.96 0 0 1 .409 1.267l-12.926 25.812a.91.91 0 0 1-.495.445l.001.004zM257.947 87.308c-.518.184-1.057.08-1.241-.252-.199-.356.088-.844.637-1.087l21.961-9.716c.549-.244 1.156-.15 1.355.207.199.357-.088.844-.637 1.088l-21.961 9.716c-.041.014-.077.03-.114.044z" fill="#1A1A1A"/>
    <path d="M207.122 20.66c4.967-.43 6.304-4 7.362-7.029 1.094 1.986.644 3.514 2.023 4.922 1.38 1.409 3.262 2.127 5.13 3.02-5.064.755-7.492 4.4-7.954 7.956-.929-3.232-1.454-5.436-4.344-7.842-.25-.21-1.897-.923-2.217-1.027zM285.834 8.407c4.015-.347 5.096-3.234 5.952-5.682.885 1.605.52 2.84 1.636 3.979 1.115 1.139 2.637 1.72 4.147 2.441-4.094.611-6.057 3.558-6.431 6.434-.751-2.614-1.175-4.396-3.512-6.341-.202-.17-1.534-.746-1.792-.83zM47.747 80.534c4.876-.422 6.19-3.928 7.228-6.9 1.075 1.95.633 3.449 1.987 4.832s3.202 2.088 5.036 2.964c-4.972.742-7.355 4.32-7.81 7.812-.911-3.174-1.427-5.337-4.264-7.7-.245-.205-1.863-.906-2.177-1.008z" fill="#A5F20C"/>
    <defs>
        <linearGradient id="wl7iuqvrna" x1="95.767" y1="238.511" x2="151.788" y2="135.141" gradientUnits="userSpaceOnUse">
            <stop stop-color="#FED35A"/>
            <stop offset=".36" stop-color="#FEC65A"/>
            <stop offset="1" stop-color="#FFA75D"/>
        </linearGradient>
    </defs>
</svg>
