<svg width="1648" height="672" viewBox="0 0 1648 672" fill="none" xmlns="http://www.w3.org/2000/svg">
<g opacity="0.5">
<path d="M258.247 570C221.165 570 186.732 564.258 154.948 552.773C123.605 540.847 96.2355 524.062 72.8388 502.418C49.8835 480.774 32.0049 455.155 19.2029 425.56C6.40098 395.965 0 363.279 0 327.5C0 291.721 6.40098 259.035 19.2029 229.44C32.0049 199.845 49.8835 174.226 72.8388 152.582C96.2355 130.938 123.605 114.374 154.948 102.889C186.732 90.9631 221.165 85 258.247 85C303.716 85 343.887 92.9508 378.762 108.852C414.077 124.754 443.213 147.723 466.168 177.76L367.505 265.881C353.82 248.654 338.59 235.403 321.815 226.127C305.481 216.409 286.941 211.551 266.193 211.551C249.859 211.551 235.071 214.201 221.827 219.501C208.584 224.802 197.106 232.532 187.394 242.691C178.124 252.851 170.84 265.219 165.543 279.795C160.245 293.93 157.597 309.832 157.597 327.5C157.597 345.168 160.245 361.291 165.543 375.867C170.84 390.002 178.124 402.149 187.394 412.309C197.106 422.468 208.584 430.198 221.827 435.499C235.071 440.799 249.859 443.449 266.193 443.449C286.941 443.449 305.481 438.811 321.815 429.536C338.59 419.818 353.82 406.346 367.505 389.119L466.168 477.24C443.213 506.835 414.077 529.804 378.762 546.148C343.887 562.049 303.716 570 258.247 570Z" fill="white"/>
<path d="M1191.1 559.399V95.6011H1438.75C1502.76 95.6011 1550 107.086 1580.46 130.055C1610.92 152.582 1626.15 181.514 1626.15 216.851C1626.15 240.262 1619.53 261.243 1606.28 279.795C1593.48 297.905 1574.72 312.261 1550 322.862C1525.28 333.463 1494.82 338.764 1458.62 338.764L1471.86 302.985C1508.06 302.985 1539.18 308.065 1565.23 318.224C1591.72 328.383 1612.02 343.181 1626.15 362.616C1640.72 381.61 1648 404.579 1648 431.523C1648 471.719 1631.22 503.081 1597.67 525.608C1564.57 548.135 1516.01 559.399 1452 559.399H1191.1ZM1344.73 450.075H1438.75C1455.97 450.075 1468.77 446.983 1477.16 440.799C1485.99 434.615 1490.4 425.56 1490.4 413.634C1490.4 401.708 1485.99 392.653 1477.16 386.469C1468.77 380.285 1455.97 377.193 1438.75 377.193H1334.13V273.832H1417.56C1435.22 273.832 1448.02 270.961 1455.97 265.219C1464.36 259.035 1468.55 250.421 1468.55 239.378C1468.55 227.894 1464.36 219.281 1455.97 213.538C1448.02 207.796 1435.22 204.925 1417.56 204.925H1344.73V450.075Z" fill="white"/>
<path d="M818 672C717.277 672 638.762 644.782 582.457 590.346C526.152 535.911 498 459.575 498 361.341V0H719.466V354.771C719.466 404.827 728.538 440.492 746.68 461.765C764.823 482.413 789.222 492.737 819.877 492.737C851.157 492.737 875.556 482.413 893.073 461.765C911.216 440.492 920.287 404.827 920.287 354.771V0H1138V361.341C1138 459.575 1109.85 535.911 1053.54 590.346C997.237 644.782 918.723 672 818 672Z" fill="white"/>
</g>
</svg>
