<svg width="30" height="30" viewBox="0 0 30 30" fill="none" xmlns="http://www.w3.org/2000/svg">
<rect x="0.5" y="0.5" width="29" height="29" rx="14.5" fill="white"/>
<rect x="0.5" y="0.5" width="29" height="29" rx="14.5" stroke="white" stroke-linejoin="bevel"/>
<path fill-rule="evenodd" clip-rule="evenodd" d="M14.171 6.06138H15.7676C17.9603 6.06138 19.239 6.38275 20.3769 6.99298C21.5147 7.60321 22.4106 8.49147 23.0138 9.62889C23.6243 10.7663 23.9458 12.0445 23.9458 14.2363V15.8251C23.9458 18.0169 23.6243 19.2951 23.0138 20.4325C22.4034 21.5699 21.5147 22.4654 20.3769 23.0684C19.239 23.6786 17.9603 24 15.7676 24H14.1782C11.9856 24 10.7068 23.6786 9.56893 23.0684C8.43107 22.4582 7.53522 21.5699 6.93197 20.4325C6.32149 19.2951 6 18.0169 6 15.8251V14.2363C6 12.0445 6.32149 10.7663 6.93197 9.62889C7.54244 8.49147 8.43107 7.59599 9.56893 6.99298C10.6996 6.38275 11.9856 6.06138 14.171 6.06138Z" fill="#1A1A1A"/>
<path fill-rule="evenodd" clip-rule="evenodd" d="M8.74895 21.7396C9.587 21.8335 10.6382 21.5916 11.3823 21.2305C14.6153 23.0179 19.6725 22.9312 22.7321 20.9741C22.8513 20.7972 22.9633 20.6094 23.0644 20.4181C23.6749 19.277 24 17.9916 24 15.7962V14.2038C24 12.0048 23.6785 10.7194 23.0644 9.58195C22.4612 8.44092 21.5581 7.54905 20.4166 6.93521C19.2751 6.32497 17.9892 6 15.7929 6H14.1927C12.3179 6 11.1042 6.2347 10.0819 6.68606C10.0277 6.73661 9.9699 6.78716 9.91933 6.83771C6.92113 9.72638 6.69356 15.9876 9.2366 19.389C9.2366 19.3926 9.24383 19.3998 9.24744 19.4034C9.63757 19.9811 9.26189 20.9922 8.66948 21.5807C8.57194 21.671 8.60807 21.7252 8.75256 21.7396H8.74895Z" fill="white"/>
<path d="M9.8543 12.1384V12.8931H12.2926L9.89043 15.872C9.81457 15.9803 9.76039 16.0851 9.76039 16.3161V16.5075H13.0765C13.239 16.5075 13.3763 16.3703 13.3763 16.2078V15.8034H10.8152L13.0765 12.9689C13.109 12.9292 13.174 12.8534 13.1993 12.8173L13.2137 12.7956C13.3438 12.6042 13.3727 12.4381 13.3727 12.2395V12.1384H9.8543Z" fill="#1A1A1A"/>
<path d="M18.3396 16.5075V12.142H17.5846V16.2548C17.5846 16.392 17.693 16.5075 17.8374 16.5075H18.3396Z" fill="#1A1A1A"/>
<path d="M15.2655 13.1133C14.3191 13.1133 13.5533 13.8788 13.5533 14.8249C13.5533 15.7709 14.3191 16.5364 15.2655 16.5364C16.2119 16.5364 16.9777 15.7709 16.9777 14.8249C16.9849 13.8788 16.2191 13.1133 15.2655 13.1133ZM15.2655 15.8287C14.7092 15.8287 14.2577 15.3773 14.2577 14.8213C14.2577 14.2652 14.7092 13.8138 15.2655 13.8138C15.8218 13.8138 16.2733 14.2652 16.2733 14.8213C16.2733 15.3773 15.829 15.8287 15.2655 15.8287Z" fill="#1A1A1A"/>
<path d="M20.5647 13.0845C19.6111 13.0845 18.838 13.8572 18.838 14.8104C18.838 15.7637 19.6111 16.5364 20.5647 16.5364C21.5184 16.5364 22.2914 15.7637 22.2914 14.8104C22.2914 13.8572 21.5184 13.0845 20.5647 13.0845ZM20.5647 15.8287C20.0048 15.8287 19.5497 15.3773 19.5497 14.814C19.5497 14.2508 20.0012 13.7994 20.5647 13.7994C21.1282 13.7994 21.5798 14.2508 21.5798 14.814C21.5798 15.3773 21.1282 15.8287 20.5647 15.8287Z" fill="#1A1A1A"/>
<path d="M16.5804 16.5075H16.9849V13.2072H16.2806V16.2114C16.2806 16.3703 16.4178 16.5075 16.5804 16.5075Z" fill="#1A1A1A"/>
</svg>
